<svg width="55" height="38" viewBox="0 0 55 38" fill="none" xmlns="http://www.w3.org/2000/svg"><path d="M.38 17.431a4.5 4.5 0 0 1 .223-.788c.18-.486.419-.95.636-1.42.201-.448.38-.912.451-1.404.066-.492-.092-1.012-.217-1.481-.136-.52-.272-1.051-.24-1.6.039-.564.245-1.106.49-1.604.185-.374.397-.749.598-1.129q.351-.074.717-.073h2.027c.44.218.875.448 1.321.654.663.314 9.603-.156 10.408-.419.38-.123.771-.184 1.168-.235h9.728v-4.03c0-.582.125-1.113.337-1.583.25-.061.495-.134.729-.246.538-.263.907-.755 1.304-1.196a7 7 0 0 1 .478-.492 2.96 2.96 0 0 1 1.707.251q.275.186.543.38c.462.33.913.671 1.342 1.046.196.168.403.341.576.531.169.185.31.391.44.598.25.38.49.794.854 1.074.206.156.386.335.609.464.2.117.418.207.636.28.445.15.918.234 1.342.447.473.234.886.581 1.266.95s.734.772 1.114 1.14c.38.37.783.727 1.196 1.063.848.688 1.76 1.28 2.674 1.867.918.587 1.842 1.157 2.717 1.806.837.615 1.609 1.32 2.408 1.99.75.632 1.521 1.242 2.364 1.74a9.3 9.3 0 0 0 1.859.832c.108.151.2.313.282.475a3 3 0 0 0-.065.325c-.038.218-.076.425-.044.643.055.385.223.738.289 1.118.027.156 0 .28-.055.425q-.091.252-.206.497a12 12 0 0 1-.843 1.493l-.13.1-.957.705q-.123.042-.239.084c-.723.252-1.434.542-2.136.855a23 23 0 0 0-2.038 1.035c-.516.296-1.016.62-1.483 1-.69.57-1.212 1.314-1.772 2.013a10 10 0 0 1-.908 1.006c-.358.341-.766.621-1.157.923a31 31 0 0 0-1.951 1.638l-3.49 2.555c-.5 0-1 .095-1.45.335-.533.286-.946.75-1.261 1.264-.13.207-.245.425-.348.643l-1.424 1.04c-2.174 1.593-5.114-.095-5.114-2.935V30.05h-3.777c-1.256-.375-2.506-.856-3.826-.76-.903.066-1.805.245-2.701.368-.854.118-1.707.196-2.566.174s-1.69-.157-2.527-.325c-.799-.162-1.603-.34-2.418-.346-1.12-.006-2.19.402-3.207.889H3.038a3.6 3.6 0 0 1-.554-.045c-.054-.28-.12-.56-.212-.833-.152-.475-.38-.872-.663-1.28s-.587-.822-.701-1.314a6.5 6.5 0 0 1-.141-1.622c.038-1.174.26-2.33.228-3.51a6.6 6.6 0 0 0-.288-1.695c-.109-.369-.223-.738-.294-1.118v-.112a3.7 3.7 0 0 0-.07-.648c0-.151.01-.308.038-.459z" fill="#807E77"/><path d="M30.967 38c.707 0 1.413-.23 2.027-.682l1.424-1.04a.4.4 0 0 0 .109-.129 8 8 0 0 1 .331-.615c.332-.53.713-.916 1.131-1.14.364-.196.799-.29 1.299-.296.07 0 .141-.023.196-.067l3.489-2.555s.021-.017.032-.028a28 28 0 0 1 1.93-1.622l.32-.246c.288-.218.587-.441.859-.699.375-.352.701-.743.94-1.045.109-.14.223-.28.332-.42.445-.57.864-1.106 1.39-1.537a10.6 10.6 0 0 1 1.436-.967 22 22 0 0 1 2.01-1.018c.745-.335 1.43-.615 2.104-.844.081-.028.157-.056.239-.078a.3.3 0 0 0 .092-.05l.957-.705a3 3 0 0 0 .147-.112.4.4 0 0 0 .076-.084 12 12 0 0 0 .864-1.537c.087-.185.157-.358.217-.531a1.13 1.13 0 0 0 .065-.61 3.5 3.5 0 0 0-.152-.576 3 3 0 0 1-.136-.53c-.021-.163.006-.33.044-.526q.024-.158.065-.308a.37.37 0 0 0-.027-.24 4 4 0 0 0-.31-.526.34.34 0 0 0-.174-.128 9 9 0 0 1-1.793-.805c-.832-.487-1.603-1.107-2.32-1.706q-.344-.286-.686-.58a31 31 0 0 0-1.739-1.421c-.766-.565-1.576-1.079-2.358-1.582l-.38-.24c-.876-.56-1.8-1.158-2.642-1.846-.38-.307-.777-.66-1.174-1.045-.19-.185-.375-.38-.56-.57-.18-.185-.364-.38-.554-.565-.484-.47-.913-.794-1.354-1.012-.31-.156-.63-.246-.945-.335-.152-.045-.299-.084-.446-.135a3 3 0 0 1-.57-.251c-.12-.073-.234-.168-.36-.269a3 3 0 0 0-.216-.173c-.272-.207-.468-.514-.68-.838l-.092-.146a5 5 0 0 0-.478-.643 5 5 0 0 0-.528-.492l-.081-.067a18 18 0 0 0-1.37-1.062q-.27-.193-.549-.386-.024-.018-.049-.028a3.4 3.4 0 0 0-1.89-.28.34.34 0 0 0-.175.084c-.19.168-.358.358-.505.52l-.19.213c-.316.363-.62.71-1.011.9a3 3 0 0 1-.658.224.33.33 0 0 0-.234.195 4.1 4.1 0 0 0-.37 1.728v3.679h-9.423a6.4 6.4 0 0 0-1.228.251c-.69.224-9.413.7-10.169.43-.288-.133-.587-.284-.88-.43a15 15 0 0 0-.43-.212.35.35 0 0 0-.146-.034H3.033c-.261 0-.527.028-.783.084a.35.35 0 0 0-.234.179c-.076.145-.157.29-.233.436-.125.224-.25.459-.364.693-.223.453-.484 1.063-.528 1.745-.038.62.115 1.202.25 1.71l.033.13c.109.413.223.838.174 1.212-.065.464-.25.917-.419 1.303q-.096.216-.2.425c-.153.324-.316.665-.446 1.017a5.6 5.6 0 0 0-.24.85A2.7 2.7 0 0 0 0 17.89q-.001.033.006.067.048.275.065.592v.107s0 .039.005.061c.065.341.163.677.256.995l.049.163c.173.592.26 1.1.277 1.604.021.654-.05 1.33-.114 1.98-.05.491-.098 1-.115 1.503a6.6 6.6 0 0 0 .147 1.711c.12.526.424.962.69 1.347l.066.095c.304.442.489.8.62 1.186.075.235.14.492.195.788a.35.35 0 0 0 .282.28q.305.05.61.05h3.624a.35.35 0 0 0 .147-.034c.886-.425 1.94-.86 3.027-.86h.033c.712 0 1.434.15 2.14.296l.218.044c.696.14 1.62.308 2.587.33.767.023 1.598-.033 2.62-.173.299-.04.598-.09.896-.134.587-.095 1.19-.19 1.783-.23 1.06-.078 2.07.24 3.141.57q.286.091.566.174a.3.3 0 0 0 .097.017h3.435v3.679c0 1.492.777 2.834 2.022 3.494.51.274 1.06.408 1.603.408zm2.984-2.248-1.353.99c-.88.643-1.968.727-2.919.224-1.016-.543-1.652-1.638-1.652-2.868v-4.031a.346.346 0 0 0-.342-.353h-3.729c-.174-.05-.342-.106-.51-.156-1.082-.336-2.202-.688-3.386-.598-.62.044-1.24.145-1.837.24-.294.045-.587.095-.88.134-.984.134-1.783.19-2.511.168-.914-.022-1.8-.185-2.473-.319l-.218-.044c-.733-.151-1.494-.302-2.266-.308-1.206-.011-2.331.442-3.283.889H3.044c-.087 0-.18 0-.272-.011a6 6 0 0 0-.169-.626c-.146-.453-.364-.873-.706-1.37l-.065-.095c-.256-.364-.495-.71-.582-1.096a6 6 0 0 1-.13-1.532c.016-.48.065-.978.114-1.453.065-.677.136-1.37.114-2.075-.016-.57-.114-1.135-.304-1.789l-.05-.162a10 10 0 0 1-.233-.889v-.084a4 4 0 0 0-.07-.665c0-.134.01-.252.032-.363.043-.23.109-.47.206-.733.12-.324.267-.632.419-.961l.206-.437c.196-.43.403-.944.479-1.498.07-.52-.07-1.04-.19-1.498l-.033-.129c-.12-.458-.256-.978-.228-1.481.027-.43.168-.884.456-1.47.109-.224.228-.442.353-.672q.083-.15.163-.302a3 3 0 0 1 .495-.039H5c.12.062.24.118.353.18.294.145.598.301.902.44.843.398 9.924-.167 10.653-.402a6 6 0 0 1 1.086-.218h9.707c.19 0 .342-.156.342-.352V3.901q.002-.677.24-1.28.349-.093.624-.23c.517-.25.88-.664 1.229-1.067.06-.067.12-.14.18-.207.113-.123.238-.268.374-.397a2.63 2.63 0 0 1 1.386.224c.174.117.348.24.516.358.527.374.946.704 1.32 1.023l.082.067c.169.145.332.285.468.436.157.173.293.375.407.554l.093.14c.233.363.473.737.842 1.017.065.05.13.106.196.156.136.112.277.23.446.33.2.118.429.218.7.308.158.056.321.1.479.14.293.083.57.162.826.285.375.19.75.47 1.18.894q.27.271.532.548a19 19 0 0 0 1.799 1.677c.875.71 1.815 1.32 2.706 1.89l.38.24c.772.492 1.577 1.001 2.321 1.555.582.43 1.153.917 1.701 1.392q.342.293.69.587c.74.615 1.539 1.258 2.414 1.772a10 10 0 0 0 1.815.828q.072.11.136.229c-.017.072-.028.14-.044.212-.043.235-.087.481-.049.755.033.23.098.442.163.643.055.168.104.324.13.48a.5.5 0 0 1-.037.247 5 5 0 0 1-.196.47c-.196.43-.446.877-.788 1.403-.027.017-.049.039-.076.056l-.919.67-.195.068c-.696.24-1.402.525-2.163.866s-1.44.688-2.065 1.046a11 11 0 0 0-1.528 1.028c-.586.481-1.048 1.074-1.5 1.65-.108.14-.217.274-.326.413a10 10 0 0 1-.875.973 10 10 0 0 1-.804.654c-.109.084-.223.168-.331.252a30 30 0 0 0-1.957 1.644l-3.386 2.476c-.56.017-1.065.14-1.5.375-.532.28-1 .75-1.397 1.392-.114.179-.217.38-.326.598z" fill="#636568"/><path d="M30.103.827c.092.603.162 1.207.25 1.811.086.632.2 1.252.347 1.873.283 1.224.636 2.438.761 3.695-.32-.458-.63-.916-.935-1.386-.657-.99-1.299-1.99-1.994-2.958a31 31 0 0 0-.718-.956q.083-.31.207-.587c.25-.061.495-.134.728-.246.538-.262.908-.754 1.305-1.196.016-.017.032-.04.054-.056zM28.012 7.58c.885 1.353 1.472 2.88 2.271 4.288a50 50 0 0 1-1.353-1.084c-.957-.8-1.891-1.627-2.831-2.444-.158-.134-.316-.274-.473-.408h2.054V7.11q.171.227.326.47zm-9.74 4.635a22 22 0 0 1-.435-1.029c-.392-.995-.729-2.018-1.169-2.99q.076-.019.125-.029a6.5 6.5 0 0 1 1.076-.223c.033 1.431.392 2.834.402 4.271M6.537 8.626q.064.494.087.995.033.654 0 1.309a93 93 0 0 0-1.07-1.018A62 62 0 0 0 3.38 7.938h1.674c.44.218.875.448 1.32.655a.6.6 0 0 0 .158.039zm-2.2 8.654c-.533 0-1.07.04-1.603.084-.663.05-1.326.078-1.99.123-.124.011-.25.017-.38.028q.002-.042.011-.084.075-.402.223-.788c.18-.486.418-.95.636-1.42.2-.448.38-.912.45-1.404.05-.352-.02-.72-.108-1.078 1.016.234 2.006.553 3.011.838.51.146 1.027.285 1.543.425.468.129.935.263 1.37.475-.13.151-.25.313-.37.47-.337.453-.657.928-.913 1.431a3.3 3.3 0 0 0-.282.705c-.038.134-.06.285-.05.424-.472-.212-1.032-.229-1.532-.229zM2.348 29.458q.141-.102.283-.202c1.413-.984 2.826-1.973 4.136-3.103a10 10 0 0 1-.778 1.202c-.679.906-1.472 1.722-2.288 2.5-.076.072-.146.14-.222.206h-.446a3.6 3.6 0 0 1-.554-.044c-.038-.19-.082-.375-.13-.565zm7.266-2.539c.294-.682.663-1.359 1.218-1.85.086.447.12.9.114 1.352-.017.95-.174 1.879-.354 2.807a8 8 0 0 0-.733-.05c-.38 0-.756.044-1.125.123.288-.794.538-1.605.875-2.382zm26.18 5.451c-.049-.252-.12-.492-.19-.738a46 46 0 0 1-.31-1.157c-.168-.7-.299-1.41-.326-2.13.277.419.522.855.75 1.302.495.962.919 1.963 1.413 2.924.158.308.326.615.506.912l-.354.257a3.2 3.2 0 0 0-1.184.212c-.12-.525-.207-1.056-.31-1.582zm11.918-14.206q.857.258 1.706.542c1.245.414 2.473.872 3.674 1.414q.579.26 1.141.543c-.206.402-.44.794-.684 1.174l-.13.1-.794.582c-.68-.581-1.353-1.157-2.022-1.744a92 92 0 0 1-2.886-2.611zm-2.223-4.199a8 8 0 0 1-1.212.531 3.6 3.6 0 0 1-.94.19q.358-.519.7-1.045A54 54 0 0 0 45.653 11c.646.415 1.288.828 1.902 1.287.065.05.136.1.2.15a13.5 13.5 0 0 1-2.265 1.527m-5.04-5.595a9 9 0 0 0-.657.805c-.212.29-.418.587-.646.855-.164.19-.343.38-.55.52.131-.369.289-.721.457-1.068.386-.8.815-1.582 1.158-2.404q.047-.109.087-.218c.222.23.44.464.668.688q.067.067.141.134c-.217.23-.44.458-.652.688zm3.849 12.971q.522.353 1.01.765c.936.783 1.778 1.672 2.615 2.572-.478.28-.94.582-1.364.928q-.14.117-.272.24c-.223-.53-.44-1.062-.663-1.593-.408-.984-.82-1.973-1.32-2.912zm-16.522 8.335c.397-.794.69-1.638 1.033-2.46.315-.743.69-1.481 1.239-2.074q.025.161.043.313c.142 1.197.163 2.41.424 3.584.065.29.141.576.25.85.082.207.207.391.353.553.142.162.3.308.451.464.115.123.245.263.272.436 0 .017.006.04.006.056q-.015.034-.038.067-.064.102-.136.202c-.098.14-.207.274-.288.425-.06.1-.076.234-.098.346a3 3 0 0 0-.044.425c-.01.313-.027.62-.043.934-.07 1.28-.125 2.555-.163 3.835-1.728.045-3.359-1.431-3.359-3.55V30.05h-.114q.107-.193.207-.386zM3.47 24.297c.466-.095.945-.19 1.423-.218a2.4 2.4 0 0 1 .495.006 1 1 0 0 1 .163.039.3.3 0 0 1 .087.056c.016.016 0 0 .01.016v.039a.4.4 0 0 1-.087.146 3.4 3.4 0 0 1-.434.453c-.685.626-1.44 1.151-2.169 1.716-.5.386-1.043.71-1.581 1.04-.207-.308-.397-.632-.479-.995a6.5 6.5 0 0 1-.14-1.621c.33-.096.668-.185 1.005-.274.565-.146 1.13-.286 1.695-.403z" style="mix-blend-mode:multiply" opacity=".52" fill="#6C6C65"/><path d="M3.76 17.666c.044-.207.115-.402.202-.598.163-.37.386-.721.582-1.08.184-.34.347-.692.413-1.061.06-.375-.082-.766-.196-1.124-.125-.397-.25-.8-.217-1.214.032-.43.222-.838.45-1.218.17-.285.365-.57.544-.856q.318-.057.652-.056h1.854q.603.253 1.206.498c.609.24 8.783-.117 9.522-.319.348-.095.706-.14 1.065-.179h8.897v-.234c.173.095.342.19.505.296.049.028.098-.011.103-.062.05-.637.19-1.258.294-1.89.07-.43.103-.86.065-1.302-.027-.307-.103-.615-.169-.911-.021-.09-.038-.174-.06-.263a3 3 0 0 0 .229-.078c.494-.202.831-.57 1.196-.906a6 6 0 0 1 .44-.375 3.3 3.3 0 0 1 1.56.19c.168.096.331.19.5.291.424.252.837.509 1.228.794.18.129.37.257.527.403.152.14.283.296.408.453.228.29.445.603.782.81.185.118.354.252.555.352.184.09.38.157.581.213.408.112.843.179 1.228.34.43.18.81.443 1.158.722.174.14.342.29.51.436.082.112.164.218.245.33.267.364.528.721.826 1.057q.45.51.99.922c.413.313.864.565 1.315.816q.342.195.684.386c.213.123.414.263.62.403.804.53 1.734.8 2.636 1.107.424.14 1.957 1.096 2.206 1.492.071.118.136.235.212.353.082.134.153.28.212.425q.194.462.316.95c.016.067.027.146.054.213.032.072.076.145.12.212.065.1-.207.878-.43 1.174a37 37 0 0 1-1.223 1.554 8 8 0 0 0-.222.168c-.267.224-.506.475-.761.71q-.488.451-.984.895c-.304.268-.609.53-.913.8l-.13.083c-.028.011-.055.028-.082.04-.49.234-.973.474-1.435.754-.5.302-.967.643-1.424 1.012-.402.324-.777.682-1.13 1.056-.348.37-.707.733-1.038 1.119l-.245.285-.087.067-3.19 1.94c-.462 0-.918.073-1.331.252-.49.218-.864.57-1.153.961-.12.157-.222.324-.32.486l-1.305.789a3.25 3.25 0 0 1-2.874.24c.021-.38.037-.76.027-1.146a6 6 0 0 0-.093-.894c-.016-.101-.027-.213-.065-.308s-.092-.179-.147-.263c-.136-.19-.288-.369-.396-.581-.12-.235-.174-.52-.212-.777-.087-.593-.05-1.197-.12-1.795-.005-.05-.038-.073-.087-.067a2.4 2.4 0 0 0-.82.308h-3.338c-1.152-.286-2.288-.649-3.5-.576-.826.05-1.646.184-2.467.28-.777.089-1.56.15-2.348.128-.782-.017-1.548-.118-2.315-.246-.728-.123-1.467-.257-2.217-.263-1.027-.006-2.006.308-2.935.677H6.185a4 4 0 0 1-.506-.034 4.4 4.4 0 0 0-.19-.632 3.5 3.5 0 0 0-.609-.973c-.255-.307-.538-.626-.64-1a4.1 4.1 0 0 1-.126-1.23c.033-.89.24-1.773.207-2.667a4.2 4.2 0 0 0-.267-1.286c-.097-.28-.206-.56-.271-.85v-.084a2.6 2.6 0 0 0-.066-.492q-.001-.178.038-.346z" fill="#BABCBE"/><path d="M49.967 16.844c-.114-.145-.223-.29-.342-.43a2.8 2.8 0 0 0-.517-.447c-.44-.325-.929-.576-1.424-.794-.983-.43-2.005-.71-3.06-.906-.38-.073-.75-.157-1.06-.414-.173-.145-.325-.319-.483-.486a5 5 0 0 0-.728-.649c-.527-.391-1.109-.726-1.56-1.213-.364-.397-.473-.956-.68-1.437-.2-.48-.548-.86-1.048-1-.538-.151-1.109-.056-1.658-.157-.565-.106-1.01-.475-1.396-.895-.403-.436-.75-.928-1.153-1.364-.418-.453-.929-.822-1.45-1.14a9.5 9.5 0 0 0-1.653-.805 3.1 3.1 0 0 1 1.136.212c.169.095.332.19.5.29.424.252.837.51 1.228.795.18.128.37.257.528.402.152.14.282.297.407.453.228.29.446.604.783.81.184.118.353.252.554.353.185.09.38.157.581.212.408.112.843.18 1.229.341.43.18.81.442 1.157.722.174.14.343.29.511.436l.245.33c.266.363.527.72.826 1.056q.45.512.989.923c.413.313.864.565 1.315.816l.685.386c.212.123.413.263.62.402.804.531 1.733.8 2.635 1.107.424.14 1.957 1.096 2.207 1.493.07.117.136.235.212.352.081.135.152.28.212.425q.12.294.217.604c-.18-.268-.375-.525-.57-.783zm-4.695 5.172c.593.319 1.141.704 1.696 1.084-.087.079-.18.157-.267.235-.44-.475-.95-.878-1.429-1.314zM30.044 7.614a2.7 2.7 0 0 1-.005.956c-.065.33-.158.649-.207.978-.179 1.253.582 2.276 1.13 3.332l-.113-.117c-.402-.442-.707-.984-1.174-1.358a1.75 1.75 0 0 0-.756-.353c-.396-.083-.799-.033-1.2-.01-2 .105-4-.029-6-.08-.5-.01-1.006-.027-1.512-.01a14 14 0 0 0-1.434.145c-.979.14-1.962.319-2.957.285-.994-.033-1.989-.09-2.989-.112a33 33 0 0 0-1.489 0c-.462.011-.93.073-1.391.079-.37 0-.701-.118-1.038-.269-.37-.162-.745-.324-1.125-.47a9 9 0 0 0-.495-.167h.75q.603.253 1.207.498c.608.24 8.782-.118 9.521-.32a7 7 0 0 1 1.066-.178h8.896v-.235c.174.095.343.19.506.296.049.028.098-.01.103-.061.049-.637.19-1.258.293-1.89.071-.43.104-.86.066-1.302-.028-.308-.104-.615-.169-.912-.022-.09-.038-.173-.06-.263a3 3 0 0 0 .305-.111c-.038.564.152 1.09.25 1.638zM3.762 17.666a3 3 0 0 1 .2-.598c.164-.37.387-.722.582-1.08.185-.34.348-.693.413-1.062.06-.374-.081-.766-.195-1.123a5 5 0 0 1-.185-.71q.081.132.18.257c.097.128.206.257.31.38.124.145.255.28.352.447.163.28.196.598.136.917a3.5 3.5 0 0 1-.152.515 3 3 0 0 1-.255.536c-.19.29-.435.543-.62.833a2 2 0 0 0-.217.475 1.4 1.4 0 0 0-.038.47c.06.738.364 1.431.483 2.158 0 .028.038.05.066.05.75-.005 1.456-.441 2.206-.39q-.091.082-.19.167c-.305.246-.641.425-.984.598-.266.134-.505.296-.674.553-.266.409-.331.917-.43 1.393-.08.413-.206.838-.2 1.263 0 .38.147.721.342 1.04.141.235.31.453.473.671.136.184.255.38.375.581.19.308.391.61.723.76.2.096.424.135.641.157.348.034.701.023 1.049.017.788-.011 1.576-.05 2.359-.039q-.506.158-.995.358H6.202a4 4 0 0 1-.505-.034 4.4 4.4 0 0 0-.19-.631 3.5 3.5 0 0 0-.61-.973c-.255-.308-.537-.626-.64-1.001a4.1 4.1 0 0 1-.126-1.23c.033-.889.24-1.772.207-2.667a4.2 4.2 0 0 0-.266-1.286c-.098-.28-.207-.559-.272-.85v-.084a2.6 2.6 0 0 0-.065-.492c0-.117.01-.234.038-.346z" fill="#828078" style="mix-blend-mode:screen"/><path d="M31.06 32.27a2 2 0 0 1 .63-.157c.277-.028.565-.022.843-.067a1.8 1.8 0 0 0 .804-.33c.402-.285.831-.526 1.25-.788.217-.134.44-.274.647-.425.12-.09.288-.196.342-.347.207-.553-.315-1.045-.37-1.588.278.24.522.526.816.744.31.23.663.296 1.032.201.343-.09.674-.251.995-.414a20 20 0 0 0 1.065-.587c.315-.184.63-.374.924-.603.304-.235.587-.492.859-.76 1.12-1.113 2.103-2.427 3.598-3.03.038-.018.07-.062.043-.107-.054-.078-.13-.185-.103-.285.021-.079.097-.118.163-.146.244-.1.522-.106.782-.128.256-.023.517-.04.767-.1.282-.068.527-.241.777-.392.244-.146.478-.302.712-.464-.142.128-.283.262-.43.386-.304.268-.608.53-.913.799l-.13.084c-.027.011-.054.028-.082.039-.489.235-.972.475-1.434.755-.5.302-.968.643-1.424 1.012-.402.324-.777.682-1.13 1.056-.349.37-.707.733-1.039 1.119l-.244.285c-.028.022-.06.044-.087.067l-3.19 1.94c-.462 0-.919.072-1.332.251-.49.218-.864.57-1.152.962-.12.157-.223.324-.32.486l-1.305.789a3.25 3.25 0 0 1-2.875.24c0-.078.01-.162.01-.24.164-.095.332-.196.506-.274z" fill="#828078" style="mix-blend-mode:screen"/><path d="M15.33 20.954a.87.87 0 0 0-.271-.386 1 1 0 0 0-.136-.095c-.066-.034-.136-.073-.212-.09a.6.6 0 0 0-.305 0 .75.75 0 0 0-.434.308l-.017.028c-.021.039-.043.078-.054.123a.6.6 0 0 0-.027.167q-.001.069.005.129c-.005.034-.01.073-.016.106a.6.6 0 0 0 .033.257.5.5 0 0 0 .179.252c.092.073.212.1.326.106.147.006.288-.033.424-.084a.9.9 0 0 0 .331-.223c.147-.146.24-.392.174-.599M34.766 9.71c-.315.196-.69.246-1.022.068-.239-.129-.37-.42-.347-.688a.7.7 0 0 1-.033-.24.8.8 0 0 1 .234-.498 1.1 1.1 0 0 1 1.01-.29.78.78 0 0 1 .604.614c.07.403-.098.822-.446 1.034M7.451 18.986l-.01.061s-.012.023-.012.034v.016s-.005.012-.01.017c0 .011-.011.028-.011.04 0 0-.011.038-.028.06l-.038.051-.049.045s-.054.033-.086.045c-.017.01-.039.01-.06.01h-.082l-.022-.01a.2.2 0 0 1-.097 0 .14.14 0 0 1-.066-.017.16.16 0 0 1-.076-.062l-.027-.061a.16.16 0 0 1 0-.1c0-.04.016-.073.038-.107a.46.46 0 0 1 .207-.173q.039-.02.087-.028h.01q.048-.01.104-.011h.01s.05.005.071.01h.022a.13.13 0 0 1 .076.045.08.08 0 0 1 .033.05.13.13 0 0 1 .016.09zM6.19 22.25v.073l-.012.079-.021.05c0 .011-.011.017-.011.028a.4.4 0 0 1-.06.09l-.038.033c-.044.039-.06.061-.125.084-.006 0-.082.028-.093.028a.7.7 0 0 1-.234.045.2.2 0 0 1-.113-.034.17.17 0 0 1-.066-.095c0-.023-.01-.05-.005-.073 0-.039.01-.061.027-.095l.016-.034s.028-.044.044-.061.033-.028.049-.045c.01-.01.016-.028.027-.039l.016-.017.028-.028s.048-.05.076-.067l.087-.05.043-.017a.3.3 0 0 1 .13-.022h.039s.027.011.038.011h.005l.065.034.05.05s0 .011.015.034l.017.033zm0 0c.135.308 0-.011 0 0" style="mix-blend-mode:multiply" opacity=".39" fill="#6C6C65"/></svg>