<svg width="40" height="40" viewBox="0 0 40 40" fill="none" xmlns="http://www.w3.org/2000/svg">
<path fill-rule="evenodd" clip-rule="evenodd" d="M9.84205 0C10.5567 0 11.2715 0 11.9861 0C14.457 0.424017 16.3075 1.75214 17.5378 3.98438C18.5629 3.25374 19.6988 2.90218 20.9453 2.92969C21.1164 3.05765 21.2184 3.22691 21.2516 3.4375C21.205 3.70768 21.0519 3.90299 20.7922 4.02344C20.3464 4.07791 19.9125 4.18209 19.4904 4.33594C18.8917 4.60235 18.3046 4.8888 17.7292 5.19531C17.2352 5.2756 16.8396 5.10633 16.5423 4.6875C16.0385 3.61384 15.2856 2.78052 14.2834 2.1875C12.4378 1.03495 10.498 0.86568 8.46371 1.67969C5.83131 3.05272 4.59336 5.25323 4.74987 8.28125C5.15009 10.8245 6.51566 12.5823 8.84659 13.5547C9.13121 13.8191 9.43751 14.0535 9.76548 14.2578C10.967 14.2757 12.1667 14.3148 13.3645 14.375C18.5236 15.1478 22.2119 17.9343 24.4294 22.7344C25.3925 25.1146 25.7499 27.5886 25.5015 30.1562C25.6382 30.5822 25.868 30.9467 26.1906 31.25C27.5225 34.3843 29.858 35.7515 33.1972 35.3516C35.8394 34.7653 37.5112 33.1377 38.2128 30.4688C38.6396 27.9729 37.9377 25.8766 36.107 24.1797C35.7244 23.8802 35.316 23.6198 34.8818 23.3984C34.46 23.0709 34.2941 22.6412 34.3841 22.1094C34.9568 21.2268 35.3396 20.2633 35.5327 19.2188C35.6777 18.9575 35.8947 18.8533 36.1836 18.9062C36.3863 18.9248 36.5268 19.0291 36.6047 19.2188C36.5781 20.3803 36.2335 21.435 35.571 22.3828C38.5195 24.1674 39.8084 26.8106 39.438 30.3125C38.5604 34.2287 36.1611 36.3642 32.24 36.7188C28.852 36.5929 26.4782 34.9523 25.1186 31.7969C24.8165 31.4886 24.5741 31.137 24.3911 30.7422C23.1931 30.5528 22.287 30.9825 21.6728 32.0312C21.513 32.9424 21.8575 33.5545 22.7065 33.8672C23.7591 34.2685 24.8056 34.6852 25.8461 35.1172C26.9885 36.1356 27.2311 37.3466 26.5735 38.75C26.1634 39.3681 25.6146 39.7848 24.9272 40C24.4932 40 24.0593 40 23.6254 40C19.887 38.7312 16.4667 36.8692 13.3645 34.4141C8.29441 30.407 4.40191 25.4461 1.6869 19.5312C1.14522 18.3291 0.749589 17.0791 0.5 15.7812C0.825272 13.6677 2.02494 12.8213 4.09899 13.2422C4.60704 13.4477 5.0282 13.7732 5.36246 14.2188C5.76611 15.2249 6.14898 16.2405 6.51107 17.2656C7.01855 18.1683 7.72047 18.3636 8.61686 17.8516C9.24347 17.1571 9.4859 16.3368 9.34432 15.3906C8.95731 15.204 8.61273 14.9566 8.31057 14.6484C5.80648 13.6139 4.26223 11.752 3.67783 9.0625C3.1806 5.52694 4.39302 2.80558 7.3151 0.898438C8.12173 0.465694 8.96405 0.166215 9.84205 0ZM11.4501 21.875C11.8291 21.8327 12.1864 21.8978 12.5221 22.0703C14.3216 23.9062 16.1211 25.7422 17.9206 27.5781C18.2487 28.5489 17.9169 29.1478 16.9252 29.375C16.7273 29.3278 16.5359 29.2627 16.3509 29.1797C14.5514 27.3438 12.7519 25.5078 10.9524 23.6719C10.5719 22.9014 10.7378 22.3024 11.4501 21.875ZM31.5891 25.5469C34.2662 25.5828 35.5808 26.963 35.5327 29.6875C34.9015 31.9697 33.4339 32.9202 31.1297 32.5391C29.1841 31.7595 28.38 30.3142 28.7176 28.2031C29.1577 26.725 30.1149 25.8396 31.5891 25.5469Z" fill="#010101"/>
<path fill-rule="evenodd" clip-rule="evenodd" d="M14.2834 2.1875C13.7172 2.33303 13.2321 2.61949 12.8284 3.04688C10.0506 2.18957 7.97036 3.04895 6.58765 5.625C5.79789 7.98891 6.34668 9.955 8.23399 11.5234C9.22624 12.2257 10.3238 12.4991 11.5267 12.3438C11.5182 12.392 11.4927 12.431 11.4501 12.4609C11.9786 13.2216 12.6168 13.8596 13.3645 14.375C12.1667 14.3148 10.967 14.2757 9.76548 14.2578C9.43751 14.0535 9.13121 13.8191 8.84659 13.5547C6.51566 12.5823 5.15009 10.8245 4.74987 8.28125C4.59336 5.25323 5.83131 3.05272 8.46371 1.67969C10.498 0.86568 12.4378 1.03495 14.2834 2.1875Z" fill="#796A77"/>
<path fill-rule="evenodd" clip-rule="evenodd" d="M14.2834 2.1875C15.2856 2.78052 16.0385 3.61384 16.5423 4.6875C16.8396 5.10633 17.2352 5.2756 17.7292 5.19531C18.3046 4.8888 18.8917 4.60235 19.4904 4.33594C19.9125 4.18209 20.3464 4.07791 20.7922 4.02344C21.0519 3.90299 21.205 3.70768 21.2516 3.4375C21.7384 3.43565 22.2233 3.46169 22.7065 3.51562C22.6947 3.79105 22.7968 4.0124 23.0128 4.17969C26.242 5.26166 27.8374 7.5403 27.7987 11.0156C27.872 11.4552 28.1145 11.7547 28.5261 11.9141C32.1335 11.858 34.4562 13.5898 35.4944 17.1094C35.6535 17.3036 35.8577 17.3817 36.107 17.3438C36.1615 17.8627 36.1871 18.3835 36.1836 18.9062C35.8947 18.8533 35.6777 18.9575 35.5327 19.2188C35.3396 20.2633 34.9568 21.2268 34.3841 22.1094C34.2941 22.6412 34.46 23.0709 34.8818 23.3984C35.316 23.6198 35.7244 23.8802 36.107 24.1797C37.9377 25.8766 38.6396 27.9729 38.2128 30.4688C37.5112 33.1377 35.8394 34.7653 33.1972 35.3516C29.858 35.7515 27.5225 34.3843 26.1906 31.25C25.868 30.9467 25.6382 30.5822 25.5015 30.1562C25.7499 27.5886 25.3925 25.1146 24.4294 22.7344C22.2119 17.9343 18.5236 15.1478 13.3645 14.375C12.6168 13.8596 11.9786 13.2216 11.4501 12.4609C11.4927 12.431 11.5182 12.392 11.5267 12.3438C13.7514 11.9359 15.1169 10.6078 15.6234 8.35938C15.8738 5.92699 14.9422 4.15616 12.8284 3.04688C13.2321 2.61949 13.7172 2.33303 14.2834 2.1875ZM21.4048 6.79688C22.948 6.84923 24.0584 7.5784 24.7357 8.98438C25.4068 11.378 24.6028 13.0056 22.3236 13.8672C20.5042 14.1434 19.1641 13.4534 18.3035 11.7969C17.7149 9.99195 18.1616 8.52063 19.6435 7.38281C20.1986 7.05318 20.7857 6.85787 21.4048 6.79688ZM28.8324 14.7656C31.0181 14.717 32.3327 15.7846 32.776 17.9688C32.807 20.0206 31.8498 21.3097 29.9045 21.8359C27.9704 22.041 26.6558 21.2207 25.9609 19.375C25.5779 17.7215 26.0501 16.3803 27.3775 15.3516C27.8377 15.0638 28.3226 14.8684 28.8324 14.7656ZM31.5891 25.5469C30.1149 25.8396 29.1577 26.725 28.7176 28.2031C28.38 30.3142 29.1841 31.7595 31.1297 32.5391C33.4339 32.9202 34.9015 31.9697 35.5327 29.6875C35.5808 26.963 34.2662 25.5828 31.5891 25.5469Z" fill="#918291"/>
<path fill-rule="evenodd" clip-rule="evenodd" d="M12.8284 3.04688C14.9422 4.15616 15.8738 5.92699 15.6234 8.35938C15.1169 10.6078 13.7514 11.9359 11.5267 12.3438C10.3238 12.4991 9.22624 12.2257 8.23399 11.5234C6.34668 9.955 5.79789 7.98891 6.58765 5.625C7.97036 3.04895 10.0506 2.18957 12.8284 3.04688ZM10.3781 3.98438C12.4741 3.87225 13.8142 4.83579 14.3982 6.875C14.5792 9.08562 13.6221 10.4788 11.5267 11.0547C9.36208 11.189 8.02201 10.1864 7.50654 8.04688C7.41844 5.91184 8.37566 4.55767 10.3781 3.98438Z" fill="#010101"/>
<path fill-rule="evenodd" clip-rule="evenodd" d="M36.107 17.3438C35.8577 17.3817 35.6535 17.3036 35.4944 17.1094C34.4562 13.5898 32.1335 11.858 28.5261 11.9141C28.1145 11.7547 27.872 11.4552 27.7987 11.0156C27.8374 7.5403 26.242 5.26166 23.0128 4.17969C22.7968 4.0124 22.6947 3.79105 22.7065 3.51562C22.7982 3.21458 23.0023 3.05833 23.3191 3.04688C26.3988 3.91037 28.2493 5.94162 28.8707 9.14062C28.9471 9.68492 28.9854 10.2318 28.9856 10.7812C32.4137 10.7656 34.8258 12.3541 36.2219 15.5469C36.3601 15.9309 36.475 16.3216 36.5664 16.7187C36.5552 17.042 36.402 17.2502 36.107 17.3438Z" fill="#010101"/>
<path fill-rule="evenodd" clip-rule="evenodd" d="M20.7922 5.54688C23.6329 5.43748 25.4324 6.76561 26.1906 9.53125C26.437 11.6184 25.735 13.272 24.0848 14.4922C21.5002 15.8411 19.3179 15.3593 17.5378 13.0469C16.1835 10.4365 16.6302 8.20992 18.8778 6.36719C19.4871 6.00372 20.1252 5.73028 20.7922 5.54688ZM21.4048 6.79688C20.7857 6.85787 20.1986 7.05318 19.6435 7.38281C18.1616 8.52063 17.7149 9.99195 18.3035 11.7969C19.1641 13.4534 20.5042 14.1434 22.3236 13.8672C24.6028 13.0056 25.4068 11.378 24.7357 8.98438C24.0584 7.5784 22.948 6.84923 21.4048 6.79688Z" fill="#010101"/>
<path fill-rule="evenodd" clip-rule="evenodd" d="M28.373 13.5156C31.1861 13.2625 33.0367 14.4865 33.9246 17.1875C34.3101 19.4855 33.5571 21.2694 31.6657 22.5391C29.0204 23.7753 26.8636 23.1894 25.1952 20.7812C24.0572 18.3801 24.4528 16.2838 26.3821 14.4922C27.0022 14.0586 27.6658 13.733 28.373 13.5156ZM28.8324 14.7656C28.3226 14.8684 27.8377 15.0638 27.3775 15.3516C26.0501 16.3803 25.5779 17.7215 25.9609 19.375C26.6558 21.2207 27.9704 22.041 29.9045 21.8359C31.8498 21.3097 32.807 20.0206 32.776 17.9688C32.3327 15.7846 31.0181 14.717 28.8324 14.7656Z" fill="#010101"/>
<path fill-rule="evenodd" clip-rule="evenodd" d="M2.8738 14.375C3.53709 16.7701 4.49427 19.0357 5.74533 21.1719C9.29523 27.0854 14.0045 31.7859 19.8733 35.2734C21.7078 36.3615 23.6477 37.1818 25.6929 37.7344C25.4766 38.4361 25.0044 38.8007 24.2763 38.8281C22.1574 38.2723 20.1537 37.4259 18.2652 36.2891C11.614 32.2637 6.54735 26.7298 3.06523 19.6875C2.46589 18.4259 2.01921 17.1109 1.72519 15.7422C1.79238 15.0096 2.17525 14.5539 2.8738 14.375Z" fill="#7CB5D5"/>
<path fill-rule="evenodd" clip-rule="evenodd" d="M25.6929 37.7344C23.6477 37.1818 21.7078 36.3615 19.8733 35.2734C14.0045 31.7859 9.29523 27.0854 5.74533 21.1719C4.49427 19.0357 3.53709 16.7701 2.8738 14.375C3.46913 14.2274 3.96687 14.4098 4.367 14.9219C4.67305 15.7544 4.97934 16.5877 5.28589 17.4219C5.92323 19.0166 7.05908 19.6025 8.69344 19.1797C9.6206 18.7598 10.1949 18.0437 10.4164 17.0312C10.5008 16.5126 10.5647 15.9918 10.6078 15.4688C15.4676 15.2075 19.3346 17.0565 22.2088 21.0156C23.9029 23.5934 24.5794 26.419 24.238 29.4922C22.6044 29.394 21.392 30.058 20.6007 31.4844C20.168 32.7789 20.4871 33.8336 21.5579 34.6484C22.733 35.2044 23.9327 35.6991 25.1569 36.1328C25.6653 36.5561 25.8439 37.0899 25.6929 37.7344ZM11.4501 21.875C10.7378 22.3024 10.5719 22.9014 10.9524 23.6719C12.7519 25.5078 14.5514 27.3438 16.3509 29.1797C16.5359 29.2627 16.7273 29.3278 16.9252 29.375C17.9169 29.1478 18.2487 28.5489 17.9206 27.5781C16.1211 25.7422 14.3216 23.9062 12.5221 22.0703C12.1864 21.8978 11.8291 21.8327 11.4501 21.875Z" fill="#686560"/>
<path fill-rule="evenodd" clip-rule="evenodd" d="M19.2607 28.2812C19.2828 27.7373 19.1424 27.2424 18.8395 26.7969C16.9634 24.8828 15.0874 22.9688 13.2113 21.0547C12.8334 20.8263 12.425 20.6831 11.9861 20.625C12.5661 19.6422 13.3829 19.3687 14.4365 19.8047C16.3359 21.6645 18.212 23.5525 20.0647 25.4687C20.7186 26.683 20.4506 27.6205 19.2607 28.2812Z" fill="#7CB5D5"/>
<path fill-rule="evenodd" clip-rule="evenodd" d="M11.9861 20.625C12.425 20.6831 12.8334 20.8263 13.2113 21.0547C15.0874 22.9688 16.9634 24.8828 18.8395 26.7969C19.1424 27.2424 19.2828 27.7373 19.2607 28.2812C19.02 29.9453 18.0756 30.6875 16.4274 30.5078C16.1182 30.4376 15.8374 30.3073 15.5851 30.1172C13.709 28.2031 11.833 26.2891 9.95691 24.375C9.22532 23.0435 9.44226 21.9107 10.6078 20.9766C11.0346 20.7228 11.4941 20.6056 11.9861 20.625ZM11.4501 21.875C10.7378 22.3024 10.5719 22.9014 10.9524 23.6719C12.7519 25.5078 14.5514 27.3438 16.3509 29.1797C16.5359 29.2627 16.7273 29.3278 16.9252 29.375C17.9169 29.1478 18.2487 28.5489 17.9206 27.5781C16.1211 25.7422 14.3216 23.9062 12.5221 22.0703C12.1864 21.8978 11.8291 21.8327 11.4501 21.875Z" fill="black"/>
<path fill-rule="evenodd" clip-rule="evenodd" d="M31.2828 24.2969C34.1154 24.0934 35.9404 25.3694 36.7579 28.125C37.0495 30.177 36.3986 31.8306 34.8052 33.0859C33.6837 33.8227 32.4585 34.0831 31.1297 33.8672C28.3699 32.9907 27.132 31.0766 27.4158 28.125C27.97 26.062 29.259 24.7859 31.2828 24.2969ZM31.5891 25.5469C30.1149 25.8396 29.1577 26.725 28.7176 28.2031C28.38 30.3142 29.1841 31.7595 31.1297 32.5391C33.4339 32.9202 34.9015 31.9697 35.5327 29.6875C35.5808 26.963 34.2662 25.5828 31.5891 25.5469Z" fill="#010101"/>
<path d="M35.7274 29.2853C35.7274 31.339 34.1397 33.0039 32.1811 33.0039C30.2226 33.0039 28.6349 31.339 28.6349 29.2853C28.6349 27.2316 30.2226 25.5667 32.1811 25.5667C34.1397 25.5667 35.7274 27.2316 35.7274 29.2853Z" fill="#918291"/>
</svg>
