<svg width="49" height="48" viewBox="0 0 49 48" fill="none" xmlns="http://www.w3.org/2000/svg">
<path fill-rule="evenodd" clip-rule="evenodd" d="M32.5625 5.59199C32.4764 5.80993 32.3514 6.01341 32.1875 6.20246C30.7816 6.24941 29.3754 6.26506 27.9687 6.24942C27.9687 6.96946 27.9687 7.6895 27.9687 8.40954C30.8438 8.40954 33.7187 8.40954 36.5938 8.40954C36.5938 7.6895 36.5938 6.96946 36.5938 6.24942C35.968 6.26504 35.3429 6.24938 34.7188 6.20246C34.5192 6.03417 34.3943 5.83069 34.3438 5.59199C34.3479 5.25485 34.5042 5.02005 34.8125 4.8876C35.3742 4.84069 35.9367 4.82503 36.5 4.84064C36.5666 3.97968 37.0353 3.63532 37.9062 3.80754C37.8907 2.89912 37.9062 1.99124 37.9531 1.0839C38.382 0.213663 39.0852 -0.130705 40.0625 0.0508014C41.1292 -0.144805 41.8323 0.262175 42.1719 1.27174C42.2188 2.11642 42.2343 2.96169 42.2188 3.80754C42.6211 3.76386 42.9961 3.84212 43.3438 4.04233C43.5012 4.28319 43.5637 4.5493 43.5312 4.84064C44.8129 4.82499 46.0941 4.84065 47.375 4.8876C47.9076 4.99971 48.2826 5.29712 48.5 5.77982C48.5 6.81293 48.5 7.84603 48.5 8.87913C48.2901 9.32376 47.9463 9.62118 47.4688 9.77136C46.1566 9.81832 44.8441 9.834 43.5312 9.81832C43.5366 10.6949 43.0991 11.0393 42.2188 10.8514C42.2188 12.1663 42.2188 13.4811 42.2188 14.796C44.5272 14.6362 45.8083 15.7007 46.0625 17.9892C46.0527 18.6296 45.8807 19.2243 45.5469 19.7737C45.4843 20.0242 45.4843 20.2745 45.5469 20.525C46.8377 21.9309 46.9627 23.4336 45.9219 25.0331C45.9062 25.1583 45.8907 25.2836 45.875 25.4088C46.0427 25.872 46.2147 26.3416 46.3906 26.8176C46.4532 27.2871 46.4532 27.7567 46.3906 28.2263C46.0707 28.953 45.7113 29.6574 45.3125 30.3395C46.0572 32.0818 45.7135 33.5532 44.2812 34.7537C43.6451 35.1321 42.9575 35.3043 42.2188 35.2702C42.2188 35.9589 42.2188 36.6477 42.2188 37.3364C43.1048 37.1295 43.5423 37.4738 43.5312 38.3695C44.8753 38.3538 46.2192 38.3695 47.5625 38.4165C47.9862 38.6064 48.2987 38.9038 48.5 39.3087C48.5 40.3105 48.5 41.3123 48.5 42.3141C48.2514 42.8284 47.8452 43.1571 47.2812 43.3002C46.0317 43.3472 44.7816 43.3629 43.5312 43.3472C43.496 44.1943 43.0585 44.5074 42.2188 44.2864C42.2343 45.1009 42.2188 45.9149 42.1719 46.7283C41.8323 47.7378 41.1292 48.1448 40.0625 47.9492C39.0852 48.1307 38.382 47.7863 37.9531 46.9161C37.9062 46.0401 37.8907 45.1635 37.9062 44.2864C37.5184 44.3196 37.1434 44.2727 36.7812 44.1455C36.5858 43.9183 36.492 43.6521 36.5 43.3472C33.6563 43.3472 30.8125 43.3472 27.9687 43.3472C28.0012 43.6385 27.9387 43.9046 27.7812 44.1455C27.4191 44.2727 27.0441 44.3196 26.6562 44.2864C26.6718 45.1322 26.6562 45.9775 26.6094 46.8222C26.2291 47.7705 25.526 48.1461 24.5 47.9492C23.474 48.1461 22.7709 47.7705 22.3906 46.8222C22.3438 45.9775 22.3282 45.1322 22.3438 44.2864C21.9559 44.3196 21.5809 44.2727 21.2188 44.1455C21.0613 43.9046 20.9988 43.6385 21.0312 43.3472C19.6246 43.3629 18.2184 43.3472 16.8125 43.3002C16.416 43.2318 16.1973 42.997 16.1562 42.5958C16.2081 42.3059 16.3644 42.0711 16.625 41.8915C18.0934 41.8445 19.5622 41.8288 21.0312 41.8445C21.0312 41.1558 21.0312 40.467 21.0312 39.7783C18.125 39.7783 15.2187 39.7783 12.3125 39.7783C12.3125 40.467 12.3125 41.1558 12.3125 41.8445C12.8135 41.8289 13.3135 41.8446 13.8125 41.8915C14.1477 42.0186 14.3352 42.2534 14.375 42.5958C14.3779 42.9806 14.1904 43.2154 13.8125 43.3002C13.3448 43.3471 12.876 43.3628 12.4062 43.3472C12.3503 44.2332 11.8815 44.5462 11 44.2864C11.0423 45.2667 10.9954 46.2372 10.8594 47.1978C10.3495 47.8434 9.67755 48.0938 8.84375 47.9492C8.13097 48.0781 7.52159 47.8903 7.01562 47.3857C6.85159 47.1278 6.75784 46.846 6.73438 46.5404C6.68753 45.7897 6.6719 45.0384 6.6875 44.2864C5.84779 44.5074 5.4103 44.1943 5.375 43.3472C4.15585 43.3629 2.9371 43.3472 1.71875 43.3002C1.15483 43.1571 0.748579 42.8284 0.5 42.3141C0.5 41.3123 0.5 40.3105 0.5 39.3087C0.701253 38.9038 1.01375 38.6064 1.4375 38.4165C2.74962 38.3695 4.06212 38.3538 5.375 38.3695C5.36968 37.493 5.80719 37.1486 6.6875 37.3364C6.6875 36.6477 6.6875 35.9589 6.6875 35.2702C4.5985 35.1967 3.4735 34.1166 3.3125 32.03C3.33368 31.4442 3.45867 30.8806 3.6875 30.3395C3.28866 29.6574 2.92929 28.953 2.60938 28.2263C2.54687 27.7567 2.54687 27.2871 2.60938 26.8176C2.78537 26.3416 2.95724 25.872 3.125 25.4088C3.10937 25.2836 3.09375 25.1583 3.07812 25.0331C2.0373 23.4336 2.1623 21.9309 3.45312 20.525C3.51563 20.2745 3.51563 20.0242 3.45312 19.7737C2.58195 18.1327 2.81633 16.677 4.15625 15.4065C4.91534 14.8663 5.75909 14.6628 6.6875 14.796C6.6875 13.4811 6.6875 12.1663 6.6875 10.8514C5.80973 11.0401 5.37223 10.6958 5.375 9.81832C4.06212 9.834 2.74962 9.81832 1.4375 9.77136C1.01375 9.58145 0.701253 9.28401 0.5 8.87913C0.5 7.84603 0.5 6.81293 0.5 5.77982C0.717452 5.29712 1.09245 4.99971 1.625 4.8876C2.87461 4.84065 4.12461 4.82499 5.375 4.84064C5.40807 4.00777 5.84558 3.6634 6.6875 3.80754C6.6719 3.02426 6.68753 2.24161 6.73438 1.45958C6.77985 0.756559 7.13922 0.302619 7.8125 0.0977606C8.53125 0.0351483 9.25 0.0351483 9.96875 0.0977606C10.3668 0.21026 10.6637 0.445056 10.8594 0.802149C10.9956 1.79422 11.0425 2.79602 11 3.80754C11.8724 3.63186 12.3412 3.97623 12.4062 4.84064C15.2813 4.84064 18.1562 4.84064 21.0312 4.84064C21.0265 3.97115 21.464 3.62678 22.3438 3.80754C22.3282 2.93041 22.3438 2.05384 22.3906 1.17782C22.7709 0.229533 23.474 -0.146141 24.5 0.0508014C25.526 -0.146141 26.2291 0.229533 26.6094 1.17782C26.6562 2.05384 26.6718 2.93041 26.6562 3.80754C27.536 3.62678 27.9735 3.97115 27.9687 4.84064C29.3441 4.82499 30.7191 4.84065 32.0937 4.8876C32.4021 5.02005 32.5584 5.25485 32.5625 5.59199ZM23.0938 32.3587C23.0938 32.9535 23.0938 33.5484 23.0938 34.1432C22.7497 34.1269 22.5153 34.2834 22.3906 34.6128C22.3438 35.5201 22.3282 36.428 22.3438 37.3364C21.9422 37.2884 21.5672 37.3511 21.2188 37.5243C21.0528 37.7772 20.9903 38.0589 21.0312 38.3695C18.1562 38.3695 15.2813 38.3695 12.4062 38.3695C12.4558 38.0228 12.3621 37.7254 12.125 37.4773C11.7628 37.3501 11.3878 37.3032 11 37.3364C11 36.6477 11 35.9589 11 35.2702C12.2245 35.3098 13.4432 35.2629 14.6562 35.1293C16.3287 34.3923 16.938 33.1244 16.4844 31.3256C16.387 31.1147 16.2776 30.9112 16.1562 30.7152C17.8542 29.9587 18.5261 28.6595 18.1719 26.8176C18.0025 26.2899 17.7369 25.8203 17.375 25.4088C17.6302 25.168 17.8959 24.9489 18.1719 24.7513C19.3481 25.1612 20.348 24.9107 21.1719 24C21.3183 23.7692 21.4121 23.5188 21.4531 23.2487C21.5157 20.7441 21.5157 18.2397 21.4531 15.7352C21.2645 14.7322 20.7177 13.9966 19.8125 13.5281C18.5382 13.0713 17.257 12.633 15.9687 12.2132C15.2093 12.0121 14.4593 12.0433 13.7187 12.3072C12.8208 12.7491 11.9302 13.203 11.0469 13.669C11 12.7304 10.9844 11.7912 11 10.8514C11.9121 11.0704 12.3808 10.726 12.4062 9.81832C15.2813 9.81832 18.1562 9.81832 21.0312 9.81832C21.0192 10.6924 21.4568 11.0368 22.3438 10.8514C22.3281 17.864 22.3438 24.8766 22.3906 31.8891C22.5507 32.1499 22.7851 32.3064 23.0938 32.3587ZM25.9062 18.0831C25.9062 17.4884 25.9062 16.8935 25.9062 16.2987C26.2403 16.2869 26.4747 16.1304 26.6094 15.8291C26.6562 14.1701 26.6719 12.511 26.6562 10.8514C27.5432 11.0368 27.9807 10.6924 27.9687 9.81832C30.8125 9.81832 33.6563 9.81832 36.5 9.81832C36.5631 10.682 37.0318 11.0264 37.9062 10.8514C37.9374 11.7302 37.9061 12.6068 37.8125 13.4811C36.9688 13.0585 36.125 12.6359 35.2812 12.2132C34.5407 11.9494 33.7907 11.9181 33.0312 12.1193C31.5545 12.5601 30.117 13.0923 28.7187 13.7159C28.0769 14.2036 27.6863 14.8453 27.5469 15.6413C27.4843 18.1458 27.4843 20.6502 27.5469 23.1547C27.8457 24.2207 28.5488 24.7842 29.6562 24.8453C30.097 24.7753 30.5344 24.7283 30.9687 24.7044C31.1385 24.9841 31.3572 25.2189 31.625 25.4088C30.3292 27.0451 30.3916 28.6261 31.8125 30.1517C32.1344 30.3803 32.4781 30.5682 32.8438 30.7152C32.099 32.1102 32.2553 33.3938 33.3125 34.5658C33.6344 34.7945 33.9781 34.9823 34.3438 35.1293C35.5256 35.2627 36.713 35.3097 37.9062 35.2702C37.9062 35.9589 37.9062 36.6477 37.9062 37.3364C36.9942 37.1174 36.5254 37.4618 36.5 38.3695C33.6563 38.3695 30.8125 38.3695 27.9687 38.3695C27.9844 37.4791 27.547 37.1347 26.6562 37.3364C26.6719 31.0752 26.6562 24.8139 26.6094 18.5527C26.4847 18.2234 26.2503 18.0669 25.9062 18.0831Z" fill="#010101"/>
<path fill-rule="evenodd" clip-rule="evenodd" d="M8.1875 1.5535C8.65625 1.5535 9.125 1.5535 9.59375 1.5535C9.59375 2.33615 9.59375 3.11881 9.59375 3.90146C9.125 3.90146 8.65625 3.90146 8.1875 3.90146C8.1875 3.11881 8.1875 2.33615 8.1875 1.5535Z" fill="#DCE5EB"/>
<path fill-rule="evenodd" clip-rule="evenodd" d="M23.75 1.5535C24.25 1.5535 24.75 1.5535 25.25 1.5535C25.25 2.33615 25.25 3.11881 25.25 3.90146C24.75 3.90146 24.25 3.90146 23.75 3.90146C23.75 3.11881 23.75 2.33615 23.75 1.5535Z" fill="#CFD7DD"/>
<path fill-rule="evenodd" clip-rule="evenodd" d="M39.3125 1.5535C39.7812 1.5535 40.25 1.5535 40.7188 1.5535C40.7188 2.33615 40.7188 3.11881 40.7188 3.90146C40.25 3.90146 39.7812 3.90146 39.3125 3.90146C39.3125 3.11881 39.3125 2.33615 39.3125 1.5535Z" fill="#DAE2E8"/>
<path fill-rule="evenodd" clip-rule="evenodd" d="M8.84375 5.31023C8.84375 5.74852 8.84375 6.1868 8.84375 6.62509C8.24092 6.79993 8.06905 7.1756 8.32812 7.75211C8.44658 7.95 8.61845 8.04392 8.84375 8.03387C8.84375 8.47216 8.84375 8.91044 8.84375 9.34872C8.1875 9.34872 7.53125 9.34872 6.875 9.34872C6.875 8.00256 6.875 6.65639 6.875 5.31023C7.53125 5.31023 8.1875 5.31023 8.84375 5.31023Z" fill="#7E828C"/>
<path fill-rule="evenodd" clip-rule="evenodd" d="M8.84375 5.31023C9.53125 5.31023 10.2188 5.31023 10.9062 5.31023C10.9062 6.65639 10.9062 8.00256 10.9062 9.34872C10.2188 9.34872 9.53125 9.34872 8.84375 9.34872C8.84375 8.91044 8.84375 8.47216 8.84375 8.03387C9.61908 7.8421 9.77533 7.41947 9.3125 6.76597C9.16954 6.67124 9.01329 6.62428 8.84375 6.62509C8.84375 6.1868 8.84375 5.74852 8.84375 5.31023Z" fill="#6F757E"/>
<path fill-rule="evenodd" clip-rule="evenodd" d="M24.5 5.31023C24.5 5.74852 24.5 6.1868 24.5 6.62509C23.844 6.80756 23.6722 7.21454 23.9844 7.84603C24.1329 7.97388 24.3048 8.0365 24.5 8.03387C24.5 8.47216 24.5 8.91044 24.5 9.34872C23.8125 9.34872 23.125 9.34872 22.4375 9.34872C22.4375 8.00256 22.4375 6.65639 22.4375 5.31023C23.125 5.31023 23.8125 5.31023 24.5 5.31023Z" fill="#7D818B"/>
<path fill-rule="evenodd" clip-rule="evenodd" d="M24.5 5.31023C25.1875 5.31023 25.875 5.31023 26.5625 5.31023C26.5625 6.65639 26.5625 8.00256 26.5625 9.34872C25.875 9.34872 25.1875 9.34872 24.5 9.34872C24.5 8.91044 24.5 8.47216 24.5 8.03387C25.0818 7.93453 25.2849 7.59016 25.1094 7.00076C24.9558 6.79098 24.7527 6.66576 24.5 6.62509C24.5 6.1868 24.5 5.74852 24.5 5.31023Z" fill="#6E747D"/>
<path fill-rule="evenodd" clip-rule="evenodd" d="M40.0625 5.31023C40.0625 5.74852 40.0625 6.1868 40.0625 6.62509C39.393 6.74548 39.1899 7.12116 39.4531 7.75211C39.5926 7.90802 39.7645 8.00193 39.9688 8.03387C40.057 8.46311 40.0882 8.90139 40.0625 9.34872C39.375 9.34872 38.6875 9.34872 38 9.34872C38 8.00256 38 6.65639 38 5.31023C38.6875 5.31023 39.375 5.31023 40.0625 5.31023Z" fill="#7E828C"/>
<path fill-rule="evenodd" clip-rule="evenodd" d="M40.0625 5.31023C40.75 5.31023 41.4375 5.31023 42.125 5.31023C42.125 6.65639 42.125 8.00256 42.125 9.34872C41.4375 9.34872 40.75 9.34872 40.0625 9.34872C40.0882 8.90139 40.057 8.46311 39.9688 8.03387C40.5882 7.9601 40.8226 7.61574 40.6719 7.00076C40.5183 6.79098 40.3152 6.66576 40.0625 6.62509C40.0625 6.1868 40.0625 5.74852 40.0625 5.31023Z" fill="#6C727B"/>
<path fill-rule="evenodd" clip-rule="evenodd" d="M32.5625 5.59199C33.1562 5.59199 33.75 5.59199 34.3438 5.59199C34.3943 5.83069 34.5192 6.03417 34.7188 6.20246C35.3429 6.24938 35.968 6.26504 36.5938 6.24942C36.5938 6.96946 36.5938 7.6895 36.5938 8.40954C33.7187 8.40954 30.8438 8.40954 27.9687 8.40954C27.9687 7.6895 27.9687 6.96946 27.9687 6.24942C29.3754 6.26506 30.7816 6.24941 32.1875 6.20246C32.3514 6.01341 32.4764 5.80993 32.5625 5.59199Z" fill="#D1DCE3"/>
<path fill-rule="evenodd" clip-rule="evenodd" d="M1.90625 6.34334C3.0625 6.34334 4.21875 6.34334 5.375 6.34334C5.375 7.00076 5.375 7.65819 5.375 8.31562C4.21875 8.31562 3.0625 8.31562 1.90625 8.31562C1.90625 7.65819 1.90625 7.00076 1.90625 6.34334Z" fill="#D7E3E9"/>
<path fill-rule="evenodd" clip-rule="evenodd" d="M21.0312 6.34334C21.0312 7.00076 21.0312 7.65819 21.0312 8.31562C18.1562 8.31562 15.2813 8.31562 12.4062 8.31562C12.4062 7.65819 12.4062 7.00076 12.4062 6.34334C15.2813 6.34334 18.1562 6.34334 21.0312 6.34334Z" fill="#D7E3E9"/>
<path fill-rule="evenodd" clip-rule="evenodd" d="M43.5312 6.34334C44.7188 6.34334 45.9062 6.34334 47.0938 6.34334C47.0938 7.00076 47.0938 7.65819 47.0938 8.31562C45.9062 8.31562 44.7188 8.31562 43.5312 8.31562C43.5312 7.65819 43.5312 7.00076 43.5312 6.34334Z" fill="#D0DBE1"/>
<path fill-rule="evenodd" clip-rule="evenodd" d="M8.84375 6.62509C9.01329 6.62428 9.16954 6.67124 9.3125 6.76597C9.77533 7.41947 9.61908 7.8421 8.84375 8.03387C8.61845 8.04392 8.44658 7.95 8.32812 7.75211C8.06905 7.1756 8.24092 6.79993 8.84375 6.62509Z" fill="#040505"/>
<path fill-rule="evenodd" clip-rule="evenodd" d="M24.5 6.62509C24.7527 6.66576 24.9558 6.79098 25.1094 7.00076C25.2849 7.59016 25.0818 7.93453 24.5 8.03387C24.3048 8.0365 24.1329 7.97388 23.9844 7.84603C23.6722 7.21454 23.844 6.80756 24.5 6.62509Z" fill="#040404"/>
<path fill-rule="evenodd" clip-rule="evenodd" d="M40.0625 6.62509C40.3152 6.66576 40.5183 6.79098 40.6719 7.00076C40.8226 7.61574 40.5882 7.9601 39.9688 8.03387C39.7645 8.00193 39.5926 7.90802 39.4531 7.75211C39.1899 7.12116 39.393 6.74548 40.0625 6.62509Z" fill="#060707"/>
<path fill-rule="evenodd" clip-rule="evenodd" d="M1.90625 6.34334C3.07709 6.24985 4.2646 6.21855 5.46875 6.24942C5.46875 6.96946 5.46875 7.6895 5.46875 8.40954C4.2646 8.44041 3.07709 8.40911 1.90625 8.31562C3.0625 8.31562 4.21875 8.31562 5.375 8.31562C5.375 7.65819 5.375 7.00076 5.375 6.34334C4.21875 6.34334 3.0625 6.34334 1.90625 6.34334Z" fill="#899095"/>
<path fill-rule="evenodd" clip-rule="evenodd" d="M21.0312 6.34334C18.1562 6.34334 15.2813 6.34334 12.4062 6.34334C12.4062 7.00076 12.4062 7.65819 12.4062 8.31562C15.2813 8.31562 18.1562 8.31562 21.0312 8.31562C18.141 8.40937 15.2348 8.44067 12.3125 8.40954C12.3125 7.6895 12.3125 6.96946 12.3125 6.24942C15.2348 6.21828 18.141 6.24959 21.0312 6.34334Z" fill="#8B9297"/>
<path fill-rule="evenodd" clip-rule="evenodd" d="M43.5312 6.34334C43.5312 7.00076 43.5312 7.65819 43.5312 8.31562C44.7188 8.31562 45.9062 8.31562 47.0938 8.31562C45.8916 8.40912 44.6728 8.44042 43.4375 8.40954C43.407 7.70336 43.4382 7.01463 43.5312 6.34334Z" fill="#8D9499"/>
<path fill-rule="evenodd" clip-rule="evenodd" d="M8.1875 10.8514C8.40625 10.8514 8.625 10.8514 8.84375 10.8514C8.84375 12.1663 8.84375 13.4811 8.84375 14.796C8.625 14.796 8.40625 14.796 8.1875 14.796C8.1875 13.4811 8.1875 12.1663 8.1875 10.8514Z" fill="#EAF0F3"/>
<path fill-rule="evenodd" clip-rule="evenodd" d="M8.1875 10.8514C8.63801 10.7587 9.10676 10.7274 9.59375 10.7575C9.59375 12.1036 9.59375 13.4499 9.59375 14.796C9.34375 14.796 9.09375 14.796 8.84375 14.796C8.84375 13.4811 8.84375 12.1663 8.84375 10.8514C8.625 10.8514 8.40625 10.8514 8.1875 10.8514Z" fill="#D4DEE5"/>
<path fill-rule="evenodd" clip-rule="evenodd" d="M25.25 15.7352C25.1565 14.1236 25.1253 12.4957 25.1562 10.8514C24.9375 10.8514 24.7187 10.8514 24.5 10.8514C24.2813 10.8514 24.0625 10.8514 23.8438 10.8514C23.875 17.8173 23.8437 24.7672 23.75 31.7013C23.75 24.7201 23.75 17.7387 23.75 10.7575C24.25 10.7575 24.75 10.7575 25.25 10.7575C25.25 12.4168 25.25 14.0759 25.25 15.7352Z" fill="#737779"/>
<path fill-rule="evenodd" clip-rule="evenodd" d="M24.5 10.8514C24.5 19.6798 24.5 28.5081 24.5 37.3364C24.25 37.3364 24 37.3364 23.75 37.3364C23.7656 36.3967 23.75 35.4575 23.7031 34.5189C23.5496 34.309 23.3464 34.1839 23.0938 34.1432C23.0938 33.5484 23.0938 32.9535 23.0938 32.3587C23.455 32.2865 23.6737 32.0674 23.75 31.7013C23.8437 24.7672 23.875 17.8173 23.8438 10.8514C24.0625 10.8514 24.2813 10.8514 24.5 10.8514Z" fill="#E9EEF2"/>
<path fill-rule="evenodd" clip-rule="evenodd" d="M24.5 10.8514C24.7187 10.8514 24.9375 10.8514 25.1562 10.8514C25.1253 12.4957 25.1565 14.1236 25.25 15.7352C25.3774 16.0333 25.5962 16.2211 25.9062 16.2987C25.9062 16.8935 25.9062 17.4884 25.9062 18.0831C25.6536 18.1238 25.4504 18.249 25.2969 18.4588C25.25 24.7513 25.2343 31.0438 25.25 37.3364C25 37.3364 24.75 37.3364 24.5 37.3364C24.5 28.5081 24.5 19.6798 24.5 10.8514Z" fill="#CED9E0"/>
<path fill-rule="evenodd" clip-rule="evenodd" d="M40.7188 10.8514C40.5 10.8514 40.2812 10.8514 40.0625 10.8514C39.8438 10.8514 39.625 10.8514 39.4062 10.8514C39.4062 12.1663 39.4062 13.4811 39.4062 14.796C39.3129 13.4664 39.2817 12.1203 39.3125 10.7575C39.7995 10.7274 40.2683 10.7587 40.7188 10.8514Z" fill="#AAAEB1"/>
<path fill-rule="evenodd" clip-rule="evenodd" d="M40.0625 10.8514C40.0625 12.1663 40.0625 13.4811 40.0625 14.796C39.8438 14.796 39.625 14.796 39.4062 14.796C39.4062 13.4811 39.4062 12.1663 39.4062 10.8514C39.625 10.8514 39.8438 10.8514 40.0625 10.8514Z" fill="#EAEFF3"/>
<path fill-rule="evenodd" clip-rule="evenodd" d="M40.0625 10.8514C40.2812 10.8514 40.5 10.8514 40.7188 10.8514C40.7188 12.1663 40.7188 13.4811 40.7188 14.796C40.5 14.796 40.2812 14.796 40.0625 14.796C40.0625 13.4811 40.0625 12.1663 40.0625 10.8514Z" fill="#D7E3E9"/>
<path fill-rule="evenodd" clip-rule="evenodd" d="M35.6562 14.0446C34.6726 14.1226 33.6726 14.1696 32.6562 14.1855C30.6145 14.8779 29.7551 16.3024 30.0781 18.4588C30.2131 18.9798 30.4475 19.4494 30.7812 19.8676C30.0379 20.5821 29.6472 21.4587 29.6094 22.4973C29.418 22.584 29.2149 22.6153 29 22.5912C28.9843 20.2743 29 17.9577 29.0469 15.6413C29.2137 15.2551 29.4792 14.9577 29.8437 14.749C31.0242 14.3235 32.2118 13.9165 33.4062 13.5281C34.2306 13.3808 34.9806 13.553 35.6562 14.0446Z" fill="#FACEBD"/>
<path fill-rule="evenodd" clip-rule="evenodd" d="M20 22.5912C19.7813 22.5912 19.5625 22.5912 19.3438 22.5912C19.3264 22.1116 19.2483 21.642 19.1094 21.1824C18.8479 20.7021 18.5511 20.2482 18.2188 19.8206C19.3751 18.002 19.1876 16.3427 17.6562 14.843C17.3074 14.6056 16.9324 14.4178 16.5312 14.2794C15.506 14.1474 14.4747 14.1004 13.4375 14.1386C14.0261 13.6182 14.7135 13.4459 15.5 13.622C16.7188 14.029 17.9375 14.436 19.1562 14.843C19.5208 15.0516 19.7863 15.349 19.9531 15.7352C20 18.0203 20.0157 20.3056 20 22.5912Z" fill="#FBCEBD"/>
<path fill-rule="evenodd" clip-rule="evenodd" d="M13.4375 14.1386C14.4747 14.1004 15.506 14.1474 16.5312 14.2794C16.9324 14.4178 17.3074 14.6056 17.6562 14.843C19.1876 16.3427 19.3751 18.002 18.2188 19.8206C18.5511 20.2482 18.8479 20.7021 19.1094 21.1824C19.2483 21.642 19.3264 22.1116 19.3438 22.5912C19.5625 22.5912 19.7813 22.5912 20 22.5912C20.0586 22.9171 19.9648 23.1833 19.7188 23.3895C19.351 23.464 18.9916 23.4483 18.6406 23.3426C18.6946 22.0743 18.2415 21.0412 17.2812 20.2433C18.2417 19.2027 18.4761 18.0131 17.9844 16.6744C17.4787 15.6305 16.6505 15.0356 15.5 14.8899C14.375 14.8273 13.25 14.7647 12.125 14.7021C12.5625 14.5142 13 14.3264 13.4375 14.1386Z" fill="#F8BEAA"/>
<path fill-rule="evenodd" clip-rule="evenodd" d="M35.6562 14.0446C36.1133 14.2892 36.582 14.5084 37.0625 14.7021C35.8125 14.7647 34.5625 14.8273 33.3125 14.8899C31.4316 15.432 30.6035 16.6842 30.8281 18.6466C30.9798 19.2639 31.2766 19.7961 31.7187 20.2433C30.7865 21.0162 30.3333 22.018 30.3594 23.2487C30.0084 23.3544 29.649 23.3701 29.2812 23.2956C29.043 23.122 28.9493 22.8873 29 22.5912C29.2149 22.6153 29.418 22.584 29.6094 22.4973C29.6472 21.4587 30.0379 20.5821 30.7812 19.8676C30.4475 19.4494 30.2131 18.9798 30.0781 18.4588C29.7551 16.3024 30.6145 14.8779 32.6562 14.1855C33.6726 14.1696 34.6726 14.1226 35.6562 14.0446Z" fill="#F9BEAA"/>
<path fill-rule="evenodd" clip-rule="evenodd" d="M12.125 14.7021C13.25 14.7647 14.375 14.8273 15.5 14.8899C14.3421 14.9211 13.1858 14.8898 12.0312 14.796C12.0429 14.739 12.0741 14.7077 12.125 14.7021Z" fill="#45342F"/>
<path fill-rule="evenodd" clip-rule="evenodd" d="M37.0625 14.7021C37.1134 14.7077 37.1446 14.739 37.1562 14.796C35.8766 14.8898 34.5953 14.9212 33.3125 14.8899C34.5625 14.8273 35.8125 14.7647 37.0625 14.7021Z" fill="#473631"/>
<path fill-rule="evenodd" clip-rule="evenodd" d="M16.625 18.7406C13.5624 18.7249 10.4998 18.7406 7.4375 18.7875C7.0728 18.9702 6.91656 19.2676 6.96875 19.6798C6.5742 20.0183 6.49608 20.4253 6.73438 20.9007C6.80472 20.9595 6.88286 21.0064 6.96875 21.0416C10.0369 21.0435 13.0994 21.1062 16.1562 21.2294C17.177 21.8387 17.427 22.6684 16.9062 23.7182C13.6873 23.7026 10.4686 23.7182 7.25 23.7652C6.93648 23.9431 6.81147 24.2092 6.875 24.5635C6.38043 25.0133 6.38043 25.4672 6.875 25.9253C9.78125 25.9566 12.6875 25.988 15.5937 26.0192C16.7918 26.5678 17.1042 27.4288 16.5312 28.602C13.4686 28.5863 10.4061 28.602 7.34375 28.649C6.93358 28.8087 6.77733 29.1061 6.875 29.5412C6.4762 29.9875 6.50745 30.4101 6.96875 30.8091C9.44333 30.8116 11.9121 30.8742 14.375 30.9969C15.1677 31.4852 15.3865 32.1582 15.0312 33.0162C11.9686 33.0319 8.90609 33.0162 5.84375 32.9692C5.46884 32.844 5.1251 32.6719 4.8125 32.4527C4.75987 32.3204 4.72861 32.1795 4.71875 32.03C4.80867 31.6031 4.91804 31.1804 5.04688 30.7621C5.10938 30.4177 5.10938 30.0734 5.04688 29.729C4.80655 29.1535 4.49405 28.6213 4.10938 28.1324C4.02793 27.937 3.98106 27.7335 3.96875 27.5219C4.12462 26.958 4.32774 26.4101 4.57812 25.8784C4.64063 25.534 4.64063 25.1897 4.57812 24.8453C4.4011 24.3339 4.15109 23.8643 3.82813 23.4365C3.75619 23.052 3.78744 22.6763 3.92188 22.3095C4.746 21.586 5.08975 20.6781 4.95312 19.5858C4.66933 19.0491 4.46621 18.4856 4.34375 17.8953C4.44868 17.0854 4.88617 16.5375 5.65625 16.2517C8.9375 16.1891 12.2188 16.1891 15.5 16.2517C16.6768 16.7156 17.0518 17.5453 16.625 18.7406Z" fill="#FCDCCD"/>
<path fill-rule="evenodd" clip-rule="evenodd" d="M43.625 16.3926C44.178 17.4973 44.0999 18.5617 43.3906 19.5858C43.2938 20.0924 43.3875 20.562 43.6719 20.9946C44.792 22.1537 44.8544 23.3746 43.8594 24.6574C43.7744 24.8682 43.7276 25.0873 43.7188 25.3149C43.8204 25.8865 44.0235 26.4188 44.3281 26.9115C44.4253 27.465 44.3629 27.9973 44.1406 28.5081C43.8224 28.9211 43.5412 29.3595 43.2969 29.8229C43.2343 30.1047 43.2343 30.3865 43.2969 30.6682C43.5583 31.3178 43.5897 31.9753 43.3906 32.6405C43.2768 32.786 43.1362 32.8955 42.9688 32.9692C39.9689 33.0162 36.9689 33.0319 33.9688 33.0162C33.596 32.0551 33.8773 31.3507 34.8125 30.903C37.1875 30.8717 39.5625 30.8404 41.9375 30.8091C42.3728 30.6145 42.5134 30.2858 42.3594 29.8229C42.324 29.6875 42.2459 29.5936 42.125 29.5412C42.1772 29.1291 42.0209 28.8316 41.6562 28.649C38.5939 28.602 35.5314 28.5863 32.4687 28.602C31.9247 27.577 32.1434 26.7474 33.125 26.1132C36.0881 25.99 39.0568 25.9274 42.0312 25.9253C42.4665 25.7307 42.6072 25.402 42.4531 24.9392C42.3241 24.826 42.2148 24.7008 42.125 24.5635C42.1886 24.2092 42.0635 23.9431 41.75 23.7652C38.5314 23.7182 35.3127 23.7026 32.0937 23.7182C31.5745 22.6644 31.8244 21.8348 32.8438 21.2294C35.9006 21.1062 38.9631 21.0435 42.0312 21.0416C42.3792 20.8056 42.4886 20.4768 42.3594 20.0554C42.2614 19.9734 42.1833 19.8795 42.125 19.7737C42.1272 19.292 41.9085 18.9632 41.4688 18.7875C38.4376 18.7406 35.4064 18.7249 32.375 18.7406C31.9437 17.5536 32.3187 16.724 33.5 16.2517C36.7187 16.1891 39.9375 16.1891 43.1562 16.2517C43.32 16.2848 43.4763 16.3317 43.625 16.3926Z" fill="#FCDCCD"/>
<path fill-rule="evenodd" clip-rule="evenodd" d="M43.625 16.3926C44.3735 16.7966 44.7016 17.4226 44.6094 18.271C43.685 19.7489 43.8412 21.0951 45.0781 22.3095C45.2126 22.6763 45.2438 23.052 45.1719 23.4365C44.8489 23.8643 44.5989 24.3339 44.4219 24.8453C44.3593 25.1897 44.3593 25.534 44.4219 25.8784C44.6723 26.4101 44.8753 26.958 45.0312 27.5219C45.019 27.7335 44.9721 27.937 44.8906 28.1324C44.506 28.6213 44.1934 29.1535 43.9531 29.729C43.8906 30.0734 43.8906 30.4177 43.9531 30.7621C44.5197 31.8313 44.3478 32.7548 43.4375 33.5327C43.2297 33.6525 43.0108 33.7464 42.7812 33.8145C40.1875 33.8771 37.5938 33.8771 35 33.8145C34.544 33.6815 34.2003 33.4154 33.9688 33.0162C36.9689 33.0319 39.9689 33.0162 42.9688 32.9692C43.1362 32.8955 43.2768 32.786 43.3906 32.6405C43.5897 31.9753 43.5583 31.3178 43.2969 30.6682C43.2343 30.3865 43.2343 30.1047 43.2969 29.8229C43.5412 29.3595 43.8224 28.9211 44.1406 28.5081C44.3629 27.9973 44.4253 27.465 44.3281 26.9115C44.0235 26.4188 43.8204 25.8865 43.7188 25.3149C43.7276 25.0873 43.7744 24.8682 43.8594 24.6574C44.8544 23.3746 44.792 22.1537 43.6719 20.9946C43.3875 20.562 43.2938 20.0924 43.3906 19.5858C44.0999 18.5617 44.178 17.4973 43.625 16.3926Z" fill="#F5CAB9"/>
<path fill-rule="evenodd" clip-rule="evenodd" d="M16.625 18.7406C16.4148 19.1855 16.0711 19.4829 15.5937 19.6328C12.7189 19.6797 9.84392 19.6954 6.96875 19.6798C6.91656 19.2676 7.0728 18.9702 7.4375 18.7875C10.4998 18.7406 13.5624 18.7249 16.625 18.7406Z" fill="#FCD0BF"/>
<path fill-rule="evenodd" clip-rule="evenodd" d="M32.375 18.7406C35.4064 18.7249 38.4376 18.7406 41.4688 18.7875C41.9085 18.9632 42.1272 19.292 42.125 19.7737C39.2227 19.6968 36.3164 19.6499 33.4062 19.6328C32.9312 19.4854 32.5874 19.188 32.375 18.7406Z" fill="#FCCFBF"/>
<path fill-rule="evenodd" clip-rule="evenodd" d="M16.9062 23.7182C16.6747 24.1175 16.331 24.3836 15.875 24.5165C12.8752 24.5635 9.87516 24.5792 6.875 24.5635C6.81147 24.2092 6.93648 23.9431 7.25 23.7652C10.4686 23.7182 13.6873 23.7026 16.9062 23.7182Z" fill="#FACDBD"/>
<path fill-rule="evenodd" clip-rule="evenodd" d="M32.0937 23.7182C35.3127 23.7026 38.5314 23.7182 41.75 23.7652C42.0635 23.9431 42.1886 24.2092 42.125 24.5635C39.1248 24.5792 36.1248 24.5635 33.125 24.5165C32.669 24.3836 32.3253 24.1175 32.0937 23.7182Z" fill="#FACEBD"/>
<path fill-rule="evenodd" clip-rule="evenodd" d="M16.5312 28.602C16.2997 29.0012 15.956 29.2673 15.5 29.4003C12.6183 29.4166 9.74328 29.4636 6.875 29.5412C6.77733 29.1061 6.93358 28.8087 7.34375 28.649C10.4061 28.602 13.4686 28.5863 16.5312 28.602Z" fill="#F7CBBA"/>
<path fill-rule="evenodd" clip-rule="evenodd" d="M32.4687 28.602C35.5314 28.5863 38.5939 28.602 41.6562 28.649C42.0209 28.8316 42.1772 29.1291 42.125 29.5412C39.2567 29.4636 36.3817 29.4166 33.5 29.4003C33.0411 29.2665 32.6974 29.0004 32.4687 28.602Z" fill="#F7CBBA"/>
<path fill-rule="evenodd" clip-rule="evenodd" d="M4.8125 32.4527C5.1251 32.6719 5.46884 32.844 5.84375 32.9692C8.90609 33.0162 11.9686 33.0319 15.0312 33.0162C14.7855 33.4025 14.4417 33.6686 14 33.8145C11.4062 33.8771 8.8125 33.8771 6.21875 33.8145C5.51714 33.5968 5.04839 33.1429 4.8125 32.4527Z" fill="#F4C9B8"/>
<path fill-rule="evenodd" clip-rule="evenodd" d="M8.1875 35.2702C8.65625 35.2702 9.125 35.2702 9.59375 35.2702C9.59375 35.9589 9.59375 36.6477 9.59375 37.3364C9.125 37.3364 8.65625 37.3364 8.1875 37.3364C8.1875 36.6477 8.1875 35.9589 8.1875 35.2702Z" fill="#DEE7ED"/>
<path fill-rule="evenodd" clip-rule="evenodd" d="M39.3125 35.2702C39.7812 35.2702 40.25 35.2702 40.7188 35.2702C40.7188 35.9589 40.7188 36.6477 40.7188 37.3364C40.25 37.3364 39.7812 37.3364 39.3125 37.3364C39.3125 36.6477 39.3125 35.9589 39.3125 35.2702Z" fill="#DCE5EB"/>
<path fill-rule="evenodd" clip-rule="evenodd" d="M6.875 38.8391C7.53125 38.8391 8.1875 38.8391 8.84375 38.8391C8.84375 39.2774 8.84375 39.7156 8.84375 40.154C8.24092 40.3288 8.06905 40.7045 8.32812 41.281C8.44658 41.4789 8.61845 41.5728 8.84375 41.5627C8.84375 41.9697 8.84375 42.3767 8.84375 42.7837C8.1875 42.7837 7.53125 42.7837 6.875 42.7837C6.875 41.4688 6.875 40.154 6.875 38.8391Z" fill="#7E828C"/>
<path fill-rule="evenodd" clip-rule="evenodd" d="M6.875 38.8391C8.20221 38.7456 9.54597 38.7143 10.9062 38.7452C10.9062 40.1227 10.9062 41.5001 10.9062 42.8776C9.54597 42.9085 8.20221 42.8772 6.875 42.7837C7.53125 42.7837 8.1875 42.7837 8.84375 42.7837C8.84375 42.3767 8.84375 41.9697 8.84375 41.5627C9.61908 41.371 9.77533 40.9483 9.3125 40.2948C9.16954 40.2001 9.01329 40.1531 8.84375 40.154C8.84375 39.7156 8.84375 39.2774 8.84375 38.8391C8.1875 38.8391 7.53125 38.8391 6.875 38.8391Z" fill="#6E747C"/>
<path fill-rule="evenodd" clip-rule="evenodd" d="M22.4375 38.7452C23.8125 38.7452 25.1875 38.7452 26.5625 38.7452C26.5625 40.1227 26.5625 41.5001 26.5625 42.8776C25.1875 42.8776 23.8125 42.8776 22.4375 42.8776C22.4375 41.5001 22.4375 40.1227 22.4375 38.7452Z" fill="#5C6068"/>
<path fill-rule="evenodd" clip-rule="evenodd" d="M24.5 38.8391C25.1562 38.8391 25.8125 38.8391 26.4687 38.8391C26.4687 40.154 26.4687 41.4688 26.4687 42.7837C25.8125 42.7837 25.1562 42.7837 24.5 42.7837C24.5 42.3767 24.5 41.9697 24.5 41.5627C25.0818 41.4634 25.2849 41.1191 25.1094 40.5296C24.9558 40.3198 24.7527 40.1946 24.5 40.154C24.5 39.7156 24.5 39.2774 24.5 38.8391Z" fill="#6F757E"/>
<path fill-rule="evenodd" clip-rule="evenodd" d="M24.5 38.8391C24.5 39.2774 24.5 39.7156 24.5 40.154C23.844 40.3364 23.6722 40.7434 23.9844 41.3749C24.1329 41.5027 24.3048 41.5654 24.5 41.5627C24.5 41.9697 24.5 42.3767 24.5 42.7837C23.8438 42.7837 23.1875 42.7837 22.5312 42.7837C22.5312 41.4688 22.5312 40.154 22.5312 38.8391C23.1875 38.8391 23.8438 38.8391 24.5 38.8391Z" fill="#7E828C"/>
<path fill-rule="evenodd" clip-rule="evenodd" d="M38 38.8391C38.6875 38.8391 39.375 38.8391 40.0625 38.8391C40.0625 39.2774 40.0625 39.7156 40.0625 40.154C39.2872 40.3457 39.1309 40.7684 39.5938 41.4219C39.7367 41.5166 39.893 41.5636 40.0625 41.5627C40.0625 41.9697 40.0625 42.3767 40.0625 42.7837C39.375 42.7837 38.6875 42.7837 38 42.7837C38 41.4688 38 40.154 38 38.8391Z" fill="#7E828C"/>
<path fill-rule="evenodd" clip-rule="evenodd" d="M38 38.8391C39.3584 38.7456 40.7335 38.7143 42.125 38.7452C42.125 40.1227 42.125 41.5001 42.125 42.8776C40.7335 42.9085 39.3584 42.8772 38 42.7837C38.6875 42.7837 39.375 42.7837 40.0625 42.7837C40.0625 42.3767 40.0625 41.9697 40.0625 41.5627C40.6365 41.441 40.8397 41.0966 40.6719 40.5296C40.5183 40.3198 40.3152 40.1946 40.0625 40.154C40.0625 39.7156 40.0625 39.2774 40.0625 38.8391C39.375 38.8391 38.6875 38.8391 38 38.8391Z" fill="#6B7179"/>
<path fill-rule="evenodd" clip-rule="evenodd" d="M1.90625 39.7783C3.09375 39.7783 4.28125 39.7783 5.46875 39.7783C5.46875 40.467 5.46875 41.1558 5.46875 41.8445C4.28125 41.8445 3.09375 41.8445 1.90625 41.8445C1.90625 41.1558 1.90625 40.467 1.90625 39.7783Z" fill="#D6E0E7"/>
<path fill-rule="evenodd" clip-rule="evenodd" d="M16.1562 42.5958C15.5625 42.5958 14.9687 42.5958 14.375 42.5958C14.3352 42.2534 14.1477 42.0186 13.8125 41.8915C13.3135 41.8446 12.8135 41.8289 12.3125 41.8445C12.3125 41.1558 12.3125 40.467 12.3125 39.7783C15.2187 39.7783 18.125 39.7783 21.0312 39.7783C21.0312 40.467 21.0312 41.1558 21.0312 41.8445C19.5622 41.8288 18.0934 41.8445 16.625 41.8915C16.3644 42.0711 16.2081 42.3059 16.1562 42.5958Z" fill="#D6E1E8"/>
<path fill-rule="evenodd" clip-rule="evenodd" d="M27.9687 39.7783C30.8438 39.7783 33.7187 39.7783 36.5938 39.7783C36.5938 40.467 36.5938 41.1558 36.5938 41.8445C33.7187 41.8445 30.8438 41.8445 27.9687 41.8445C27.9687 41.1558 27.9687 40.467 27.9687 39.7783Z" fill="#D7E2E9"/>
<path fill-rule="evenodd" clip-rule="evenodd" d="M43.4375 39.7783C44.6562 39.7783 45.875 39.7783 47.0938 39.7783C47.0938 40.467 47.0938 41.1558 47.0938 41.8445C45.875 41.8445 44.6562 41.8445 43.4375 41.8445C43.4375 41.1558 43.4375 40.467 43.4375 39.7783Z" fill="#D1DBE2"/>
<path fill-rule="evenodd" clip-rule="evenodd" d="M8.84375 40.154C9.01329 40.1531 9.16954 40.2001 9.3125 40.2948C9.77533 40.9483 9.61908 41.371 8.84375 41.5627C8.61845 41.5728 8.44658 41.4789 8.32812 41.281C8.06905 40.7045 8.24092 40.3288 8.84375 40.154Z" fill="#040505"/>
<path fill-rule="evenodd" clip-rule="evenodd" d="M24.5 40.154C24.7527 40.1946 24.9558 40.3198 25.1094 40.5296C25.2849 41.1191 25.0818 41.4634 24.5 41.5627C24.3048 41.5654 24.1329 41.5027 23.9844 41.3749C23.6722 40.7434 23.844 40.3364 24.5 40.154Z" fill="#040404"/>
<path fill-rule="evenodd" clip-rule="evenodd" d="M40.0625 40.154C40.3152 40.1946 40.5183 40.3198 40.6719 40.5296C40.8397 41.0966 40.6365 41.441 40.0625 41.5627C39.893 41.5636 39.7367 41.5166 39.5938 41.4219C39.1309 40.7684 39.2872 40.3457 40.0625 40.154Z" fill="#050606"/>
<path fill-rule="evenodd" clip-rule="evenodd" d="M8.1875 44.2864C8.65625 44.2864 9.125 44.2864 9.59375 44.2864C9.59375 45.0065 9.59375 45.7264 9.59375 46.4465C9.125 46.4465 8.65625 46.4465 8.1875 46.4465C8.1875 45.7264 8.1875 45.0065 8.1875 44.2864Z" fill="#DEE7ED"/>
<path fill-rule="evenodd" clip-rule="evenodd" d="M23.75 44.2864C24.25 44.2864 24.75 44.2864 25.25 44.2864C25.2656 45.0071 25.25 45.7272 25.2031 46.4465C24.7344 46.5717 24.2656 46.5717 23.7969 46.4465C23.75 45.7272 23.7344 45.0071 23.75 44.2864Z" fill="#CCD5DA"/>
<path fill-rule="evenodd" clip-rule="evenodd" d="M39.3125 44.2864C39.7812 44.2864 40.25 44.2864 40.7188 44.2864C40.7188 45.0065 40.7188 45.7264 40.7188 46.4465C40.25 46.4465 39.7812 46.4465 39.3125 46.4465C39.3125 45.7264 39.3125 45.0065 39.3125 44.2864Z" fill="#DCE5EB"/>
</svg>
