<svg width="16" height="16" viewBox="0 0 16 16" fill="none" xmlns="http://www.w3.org/2000/svg"><g clip-path="url(#a)" fill-rule="evenodd" clip-rule="evenodd" fill="#F5C136"><path opacity=".981" d="M9.516-.016h5.812a.95.95 0 0 1 .656.657v5.812q-.465.976-1.437.484a1.05 1.05 0 0 1-.328-.515l-.032-3.344-7.359 7.36q-.558.423-1.156.062-.657-.618-.14-1.36l7.359-7.359-3.344-.031q-.775-.26-.672-1.078a1.01 1.01 0 0 1 .64-.688"/><path opacity=".989" d="M11.953 15.984H2.234q-1.827-.422-2.25-2.25V4.016q.348-1.638 1.938-2.172.307-.084.625-.094 1.86-.03 3.719 0 .768.12.843.89-.017.697-.687.891l-3.875.031q-.654.138-.766.797-.03 4.515 0 9.032.117.679.797.797 4.515.03 9.031 0 .66-.112.797-.766l.031-3.875q.262-.775 1.079-.672.6.179.703.797.03 1.89 0 3.781-.145 1.676-1.672 2.36a5 5 0 0 1-.594.171"/></g><defs><clipPath id="a"><path fill="#fff" d="M0 0h16v16H0z"/></clipPath></defs></svg>