<svg width="47" height="42" viewBox="0 0 27 22" fill="none" xmlns="http://www.w3.org/2000/svg">
<path fill-rule="evenodd" clip-rule="evenodd" d="M10.0444 0.971991C11.4112 1.60932 12.7779 2.24665 14.1447 2.88398C14.0234 3.14419 13.902 3.4044 13.7807 3.66461C12.4738 3.02719 11.1483 2.43877 9.804 1.89934C9.64532 1.9226 9.51717 1.99154 9.41956 2.10616C9.16607 2.90602 8.60305 3.26715 7.73041 3.18954C7.21545 2.96212 6.69215 2.75766 6.16045 2.57625C5.76788 2.5481 5.50898 2.71445 5.38374 3.07534C5.17563 3.45306 4.98486 3.83929 4.81144 4.23403C4.53108 4.10329 4.25072 3.97256 3.97036 3.84182C4.18881 3.4075 4.37604 2.96023 4.53206 2.5C4.92272 1.82891 5.52434 1.54517 6.33695 1.64879C6.87074 1.87786 7.41159 2.09044 7.95948 2.28659C8.11816 2.26335 8.24631 2.19439 8.34391 2.07976C8.606 1.27862 9.17284 0.909363 10.0444 0.971991Z" fill="black"/>
<path fill-rule="evenodd" clip-rule="evenodd" d="M10.764 3.68345C11.5876 4.06749 12.4111 4.45151 13.2347 4.83555C13.1133 5.09574 12.992 5.35599 12.8707 5.61618C12.1236 5.24114 11.3588 4.9142 10.5761 4.63532C10.4684 4.61478 10.3805 4.64311 10.3125 4.72029C10.0056 5.35833 9.4805 5.63812 8.73712 5.55972C8.32651 5.38803 7.91592 5.21641 7.50531 5.04472C7.25738 4.9588 7.06909 5.01949 6.94042 5.22679C6.67161 5.73468 6.42016 6.25103 6.18612 6.77579C5.90576 6.64506 5.62539 6.51432 5.34503 6.38359C5.63213 5.74505 5.93665 5.11487 6.2586 4.49306C6.59335 4.16405 7.0076 4.03053 7.50135 4.0925C7.91195 4.26418 8.32255 4.43581 8.73316 4.6075C8.83566 4.62732 8.93846 4.63564 9.0415 4.63249C9.29453 4.36243 9.55627 4.09839 9.82683 3.84043C10.1235 3.69548 10.4359 3.64312 10.764 3.68345Z" fill="black"/>
<path fill-rule="evenodd" clip-rule="evenodd" d="M3.08859 6.28176C10.8549 9.89332 18.6136 13.5212 26.3646 17.1653C26.7295 17.5037 26.8935 17.9068 26.8566 18.3747C26.4215 19.3994 25.9513 20.4077 25.4461 21.3997C25.1113 21.7287 24.6971 21.8622 24.2033 21.8002C16.6535 18.3193 9.11876 14.8058 1.59926 11.2598C1.0515 10.7232 0.935866 10.1249 1.25241 9.46461C1.18683 9.19846 1.09503 8.93784 0.976995 8.6828C0.890032 7.64781 1.37385 7.022 2.42839 6.80548C2.57063 6.67995 2.69905 6.5418 2.8136 6.39112C2.89194 6.31777 2.98362 6.28128 3.08859 6.28176Z" fill="black"/>
<path fill-rule="evenodd" clip-rule="evenodd" d="M3.30282 7.33203C3.83257 7.56919 4.35446 7.82242 4.86847 8.0918C4.94067 8.32374 4.89727 8.53118 4.73825 8.71416C4.44693 8.83568 4.15558 8.95726 3.86425 9.07878C3.13274 9.61178 2.97217 10.2992 3.3826 11.141C2.91777 10.9799 2.48728 10.7594 2.09116 10.4794C2.04855 10.4059 2.03127 10.3286 2.03937 10.2474C2.19607 9.93363 2.24496 9.60004 2.18605 9.24659C2.09188 8.94531 1.99774 8.64398 1.90357 8.34269C1.93945 8.15367 2.03282 7.99918 2.18364 7.87931C2.60148 7.76909 2.97454 7.58666 3.30282 7.33203Z" fill="#E2534E"/>
<path fill-rule="evenodd" clip-rule="evenodd" d="M5.80331 8.55743C10.0401 10.4737 14.2706 12.4266 18.4948 14.4162C18.0095 15.457 17.5241 16.4979 17.0388 17.5387C12.812 15.5776 8.59292 13.6003 4.38139 11.6068C4.38497 11.1955 4.28115 10.8005 4.06986 10.422C4.05573 10.1778 4.14673 9.98268 4.34287 9.83655C4.82904 9.76324 5.22604 9.55235 5.53383 9.20394C5.67944 9.00336 5.76928 8.78782 5.80331 8.55743Z" fill="#E7E7E7"/>
<path fill-rule="evenodd" clip-rule="evenodd" d="M19.3359 14.8084C19.6163 14.9391 19.8967 15.0699 20.177 15.2006C19.6917 16.2414 19.2063 17.2823 18.721 18.3231C18.4406 18.1924 18.1602 18.0616 17.8799 17.9309C18.3652 16.8901 18.8506 15.8492 19.3359 14.8084Z" fill="#AC6326"/>
<path fill-rule="evenodd" clip-rule="evenodd" d="M21.0181 15.5928C22.6165 16.3282 24.2073 17.0799 25.7904 17.8478C25.8853 17.9416 25.9301 18.0516 25.9245 18.1777C25.5501 19.0723 25.1406 19.9505 24.696 20.8123C24.6029 20.8976 24.4899 20.934 24.3571 20.9216C22.7512 20.2024 21.1529 19.467 19.562 18.7153C20.0474 17.6745 20.5327 16.6336 21.0181 15.5928Z" fill="#D2833C"/>
<path fill-rule="evenodd" clip-rule="evenodd" d="M16.4487 14.4124C16.729 14.5431 17.0094 14.6739 17.2898 14.8046C17.0471 15.325 16.8044 15.8454 16.5617 16.3659C16.2814 16.2351 16.001 16.1044 15.7206 15.9737C15.9633 15.4532 16.206 14.9328 16.4487 14.4124Z" fill="black"/>
<path fill-rule="evenodd" clip-rule="evenodd" d="M21.4952 16.7656C21.7755 16.8964 22.0559 17.0271 22.3362 17.1578C22.2149 17.418 22.0936 17.6783 21.9722 17.9385C21.6919 17.8077 21.4115 17.677 21.1311 17.5463C21.2525 17.2861 21.3738 17.0258 21.4952 16.7656Z" fill="black"/>
<path fill-rule="evenodd" clip-rule="evenodd" d="M24.0184 17.9422C24.2987 18.073 24.5791 18.2037 24.8595 18.3344C24.7382 18.5946 24.6168 18.8549 24.4955 19.1151C24.2151 18.9843 23.9347 18.8536 23.6544 18.7229C23.7757 18.4627 23.8971 18.2024 24.0184 17.9422Z" fill="black"/>
<path fill-rule="evenodd" clip-rule="evenodd" d="M22.2108 18.5249C22.4911 18.6556 22.7715 18.7863 23.0518 18.9171C22.9305 19.1773 22.8092 19.4375 22.6878 19.6977C22.4075 19.567 22.1271 19.4362 21.8467 19.3055C21.9681 19.0453 22.0894 18.7851 22.2108 18.5249Z" fill="black"/>
</svg>
