<svg width="26" height="25" viewBox="0 0 26 25" fill="none" xmlns="http://www.w3.org/2000/svg">
<path d="M5.91167 0.962342L5.75816 0.988436L5.6466 1.09708L1.2974 5.33276L0.928628 5.69189L1.29833 6.05007L7.52031 12.0779C5.46949 14.0729 3.40773 16.059 1.33509 18.0362L1.33408 18.0372C1.25738 18.1108 1.14624 18.2542 1.14624 18.4632C1.14624 18.671 1.25611 18.8139 1.33276 18.8879C2.78529 20.2917 4.24823 21.6836 5.72159 23.0638L6.06566 23.3861L6.40762 23.0615L12.724 17.0665C14.8146 19.0425 16.896 21.0291 18.9679 23.0263L19.0037 23.0608L19.0455 23.0875C19.1447 23.1509 19.2708 23.1989 19.4169 23.1989C19.563 23.1989 19.6891 23.1509 19.7882 23.0875L19.8278 23.0622L19.862 23.0299C21.3183 21.6552 22.7492 20.2614 24.1546 18.8484L24.5091 18.4919L24.1507 18.1393C22.0878 16.1099 20.0132 14.0886 17.9269 12.0754C19.9774 10.0807 22.0389 8.09486 24.1112 6.11791L24.1477 6.08307L24.1766 6.04163C24.2446 5.9438 24.3001 5.81351 24.3001 5.65838C24.3001 5.50324 24.2446 5.37296 24.1766 5.27512L24.1492 5.23585L24.115 5.20248C22.6814 3.80599 21.2278 2.43394 19.7543 1.08631L19.4132 0.774322L19.0755 1.08999C16.9489 3.07761 14.8309 5.07656 12.7215 7.08688C10.6312 5.11111 8.55007 3.12475 6.47837 1.12786L6.45605 1.10635L6.43125 1.08776C6.2799 0.97432 6.09556 0.931083 5.91167 0.962342Z" fill="#2B4B60" stroke="#2B4B60"/>
<path fill-rule="evenodd" clip-rule="evenodd" d="M6.23003 2.51749C6.2785 2.50925 6.32225 2.51975 6.3612 2.54893C8.47179 4.58329 10.5925 6.60633 12.7231 8.61798C14.8657 6.5845 17.0081 4.55096 19.1507 2.51749C20.3303 3.61721 21.4999 4.72832 22.6596 5.85075C22.7033 5.8927 22.7033 5.93458 22.6596 5.97653C20.538 8.00038 18.4283 10.0339 16.3304 12.077C18.451 14.1315 20.5717 16.1859 22.6924 18.2404C21.5455 19.3716 20.3868 20.4931 19.2162 21.6051C19.1725 21.6471 19.1288 21.6471 19.0851 21.6051C16.9745 19.5708 14.8538 17.5477 12.7231 15.5361C10.5806 17.5695 8.43815 19.6031 6.29562 21.6366C5.11597 20.5368 3.94636 19.4257 2.78672 18.3033C2.74297 18.2613 2.74297 18.2195 2.78672 18.1775C4.90826 16.1537 7.01799 14.1201 9.11586 12.077C6.99523 10.0225 4.87455 7.96812 2.75392 5.91364C3.91402 4.78027 5.07275 3.64822 6.23003 2.51749Z" fill="#F5C136"/>
</svg>
