<svg width="24" height="21" viewBox="0 0 24 21" fill="none" xmlns="http://www.w3.org/2000/svg">
<path d="M20.2105 10.4797C20.6699 9.59961 21.1037 8.71954 21.4864 7.7853C20.6571 8.62476 19.9043 9.51838 19.1898 10.4391C17.4673 10.3985 15.7448 10.3849 14.0223 10.4391C14.8262 8.52998 15.5534 6.58027 16.0383 4.5087C14.6986 6.39072 13.6268 8.40812 12.6443 10.4662C12.4274 10.4662 12.2105 10.4662 11.9809 10.4797C10.6156 10.5338 9.26316 10.6151 7.89793 10.7099C8 10.3443 8.11483 9.97872 8.21691 9.61315C8.86762 7.1354 9.41627 4.61702 9.5949 1.99033C8.44657 4.31915 7.66826 6.76983 6.99203 9.23404C6.85168 9.74855 6.72408 10.2631 6.60925 10.7911C5.39713 10.8859 4.17225 10.9942 2.96013 11.1567C3.20255 10.0735 3.4067 8.99033 3.59809 7.89362C3.99362 5.294 4.3126 2.68085 4.23604 0C3.31738 2.50484 2.7815 5.07737 2.34769 7.66344C2.1563 8.86847 2.00319 10.087 1.8756 11.3056C1.2504 11.3868 0.625199 11.4681 0 11.5764C0.61244 11.6306 1.22488 11.6712 1.83732 11.7118C1.72249 12.9845 1.67145 14.2573 1.70973 15.5571C2.16906 14.3114 2.52631 13.0522 2.83253 11.793C4.01914 11.8607 5.19298 11.8878 6.36683 11.9014C6.00957 13.5261 5.72887 15.1644 5.61403 16.8569C6.4051 15.2456 7.01755 13.5803 7.54067 11.9014C9.03349 11.9014 10.5263 11.8743 12.0064 11.8337C11.0494 14.0271 10.1691 16.2747 9.5949 18.6712C11.126 16.5455 12.2998 14.2302 13.3844 11.8743C13.3971 11.8337 13.4226 11.793 13.4354 11.7524C15.1069 11.6712 16.7655 11.5629 18.437 11.4139C17.8118 12.2534 17.2121 13.1199 16.6252 14C15.1962 16.2205 13.8437 18.4816 12.8102 21C14.673 19.1044 16.2041 16.9652 17.6715 14.7718C18.4115 13.6344 19.1132 12.47 19.7767 11.2785C21.193 11.1296 22.5965 10.9536 24 10.7099C22.7368 10.588 21.4609 10.5203 20.1978 10.4662L20.2105 10.4797Z" fill="#7B7B7B"/>
</svg>
