<svg width="359" height="141" viewBox="0 0 359 141" fill="none" xmlns="http://www.w3.org/2000/svg">
<g filter="url(#filter0_di_1181_4217)">
<rect x="10" y="10" width="339" height="117" rx="12" fill="#788F9E"/>
<rect x="9" y="9" width="341" height="119" rx="13" stroke="black" stroke-width="2"/>
</g>
<path d="M6.23413 92.0928C6.23413 92.0928 7.43419 81.6686 9.69636 82.2024C11.9585 82.7362 9.46184 87.3774 9.19976 85.9836C8.93768 84.5897 10.055 81.4461 11.1309 82.1875C12.2068 82.929 14 87.7037 14 87.7037" stroke="#1D2123" stroke-width="1.5" stroke-miterlimit="10"/>
<path d="M13.4762 79.0733C13.4762 79.0733 10.6623 86.6802 9.54499 85.6422C8.4277 84.6043 10.3174 81.0455 10.8968 82.2614C11.4899 83.4773 9.24153 85.9536 8.12424 81.5348C8.08286 81.3717 6 76.0928 6 76.0928" stroke="#1D2123" stroke-width="1.5" stroke-miterlimit="10"/>
<path d="M353.048 53C353.048 53 351.848 63.4245 349.585 62.8907C347.323 62.3569 349.82 57.7155 350.082 59.1094C350.344 60.5033 349.227 63.6469 348.151 62.9055C347.075 62.1641 345.282 57.3893 345.282 57.3893" stroke="#1D2123" stroke-width="1.5" stroke-miterlimit="10"/>
<path d="M345.805 66.0195C345.805 66.0195 348.619 58.4124 349.737 59.4504C350.854 60.4884 348.964 64.0473 348.385 62.8313C347.792 61.6154 350.04 59.139 351.157 63.5579C351.199 63.721 353.282 69 353.282 69" stroke="#1D2123" stroke-width="1.5" stroke-miterlimit="10"/>
<path d="M39.1487 1C39.1487 1 40.3509 11.4244 42.6032 10.8906C44.8694 10.3567 42.3683 5.71544 42.1058 7.10932C41.8432 8.50319 42.9625 11.6468 44.0403 10.9054C45.1043 10.164 46.9145 5.38922 46.9145 5.38922" stroke="#1D2123" stroke-width="1.5" stroke-miterlimit="10"/>
<path d="M46.404 14.0195C46.404 14.0195 43.5851 6.41248 42.4658 7.45047C41.3465 8.48846 43.2396 12.0473 43.82 10.8314C44.4142 9.61543 42.1618 7.13908 41.0425 11.558C41.0011 11.7211 38.9146 17 38.9146 17" stroke="#1D2123" stroke-width="1.5" stroke-miterlimit="10"/>
<path d="M113.248 1C113.248 1 114.448 11.4244 116.71 10.8906C118.972 10.3568 116.475 5.71545 116.213 7.10933C115.951 8.50321 117.068 11.6468 118.144 10.9054C119.22 10.164 121.013 5.38923 121.013 5.38923" stroke="#1D2123" stroke-width="1.5" stroke-miterlimit="10"/>
<path d="M120.489 14.0195C120.489 14.0195 117.675 6.41246 116.558 7.45045C115.441 8.48844 117.33 12.0473 117.91 10.8313C118.503 9.61541 116.255 7.13905 115.137 11.5579C115.096 11.7211 113.013 17 113.013 17" stroke="#1D2123" stroke-width="1.5" stroke-miterlimit="10"/>
<path d="M185.921 1C185.921 1 187.121 11.4244 189.383 10.8906C191.645 10.3568 189.149 5.71545 188.887 7.10933C188.624 8.50321 189.742 11.6468 190.818 10.9054C191.894 10.164 193.687 5.38923 193.687 5.38923" stroke="#1D2123" stroke-width="1.5" stroke-miterlimit="10"/>
<path d="M193.163 14.0195C193.163 14.0195 190.349 6.41246 189.232 7.45045C188.114 8.48844 190.004 12.0473 190.584 10.8313C191.177 9.61541 188.928 7.13905 187.811 11.5579C187.77 11.7211 185.687 17 185.687 17" stroke="#1D2123" stroke-width="1.5" stroke-miterlimit="10"/>
<path d="M309.892 1C309.892 1 311.092 11.4341 313.355 10.8998C315.617 10.3655 313.12 5.71984 312.858 7.11502C312.596 8.51019 313.713 11.6568 314.789 10.9146C315.865 10.1725 317.659 5.39331 317.659 5.39331" stroke="#1D2123" stroke-width="1.5" stroke-miterlimit="10"/>
<path d="M317.135 14.0167C317.135 14.0167 314.321 6.40262 313.204 7.44158C312.087 8.48054 313.976 12.0427 314.556 10.8256C315.149 9.60855 312.9 7.12989 311.783 11.5529C311.742 11.7162 309.659 17 309.659 17" stroke="#1D2123" stroke-width="1.5" stroke-miterlimit="10"/>
<path d="M244.331 1C244.331 1 245.533 11.4244 247.799 10.8906C250.065 10.3568 247.564 5.71545 247.302 7.10933C247.039 8.50321 248.158 11.6468 249.236 10.9054C250.314 10.164 252.11 5.38923 252.11 5.38923" stroke="#1D2123" stroke-width="1.5" stroke-miterlimit="10"/>
<path d="M251.599 14.0195C251.599 14.0195 248.78 6.41246 247.661 7.45045C246.542 8.48844 248.435 12.0473 249.015 10.8313C249.609 9.61541 247.357 7.13905 246.238 11.5579C246.196 11.7211 244.11 17 244.11 17" stroke="#1D2123" stroke-width="1.5" stroke-miterlimit="10"/>
<path d="M48.0791 119C48.0791 119 49.2813 129.424 51.5337 128.89C53.7999 128.357 51.2988 123.715 51.0362 125.109C50.7737 126.503 51.8929 129.647 52.9708 128.905C54.0348 128.164 55.845 123.389 55.845 123.389" stroke="#1D2123" stroke-width="1.5" stroke-miterlimit="10"/>
<path d="M55.3342 132.02C55.3342 132.02 52.5153 124.413 51.396 125.451C50.2767 126.489 52.1698 130.047 52.7502 128.831C53.3444 127.616 51.092 125.139 49.9727 129.558C49.9313 129.721 47.8447 135 47.8447 135" stroke="#1D2123" stroke-width="1.5" stroke-miterlimit="10"/>
<path d="M117.902 119C117.902 119 119.102 129.424 121.364 128.89C123.626 128.357 121.13 123.715 120.867 125.109C120.605 126.503 121.723 129.647 122.799 128.905C123.874 128.164 125.668 123.389 125.668 123.389" stroke="#1D2123" stroke-width="1.5" stroke-miterlimit="10"/>
<path d="M125.144 132.02C125.144 132.02 122.33 124.413 121.212 125.451C120.095 126.489 121.985 130.047 122.564 128.831C123.157 127.616 120.909 125.139 119.792 129.558C119.75 129.721 117.667 135 117.667 135" stroke="#1D2123" stroke-width="1.5" stroke-miterlimit="10"/>
<path d="M186.301 119C186.301 119 187.501 129.424 189.763 128.89C192.025 128.357 189.529 123.715 189.267 125.109C189.005 126.503 190.122 129.647 191.198 128.905C192.274 128.164 194.067 123.389 194.067 123.389" stroke="#1D2123" stroke-width="1.5" stroke-miterlimit="10"/>
<path d="M193.543 132.02C193.543 132.02 190.729 124.413 189.612 125.451C188.495 126.489 190.384 130.047 190.964 128.831C191.557 127.616 189.308 125.139 188.191 129.558C188.15 129.721 186.067 135 186.067 135" stroke="#1D2123" stroke-width="1.5" stroke-miterlimit="10"/>
<path d="M258.961 119C258.961 119 260.163 129.424 262.429 128.89C264.696 128.357 262.195 123.715 261.932 125.109C261.669 126.503 262.789 129.647 263.867 128.905C264.944 128.164 266.741 123.389 266.741 123.389" stroke="#1D2123" stroke-width="1.5" stroke-miterlimit="10"/>
<path d="M266.231 132.02C266.231 132.02 263.411 124.413 262.292 125.451C261.173 126.489 263.066 130.047 263.646 128.831C264.241 127.616 261.988 125.139 260.869 129.558C260.827 129.721 258.741 135 258.741 135" stroke="#1D2123" stroke-width="1.5" stroke-miterlimit="10"/>
<path d="M317.398 119C317.398 119 318.598 129.434 320.86 128.9C323.122 128.365 320.626 123.72 320.364 125.115C320.102 126.51 321.219 129.657 322.295 128.914C323.371 128.172 325.164 123.393 325.164 123.393" stroke="#1D2123" stroke-width="1.5" stroke-miterlimit="10"/>
<path d="M324.64 132.017C324.64 132.017 321.826 124.403 320.709 125.442C319.592 126.481 321.482 130.043 322.061 128.826C322.654 127.609 320.406 125.13 319.288 129.553C319.247 129.716 317.164 135 317.164 135" stroke="#1D2123" stroke-width="1.5" stroke-miterlimit="10"/>
<defs>
<filter id="filter0_di_1181_4217" x="0" y="4" width="359" height="137" filterUnits="userSpaceOnUse" color-interpolation-filters="sRGB">
<feFlood flood-opacity="0" result="BackgroundImageFix"/>
<feColorMatrix in="SourceAlpha" type="matrix" values="0 0 0 0 0 0 0 0 0 0 0 0 0 0 0 0 0 0 127 0" result="hardAlpha"/>
<feOffset dy="4"/>
<feGaussianBlur stdDeviation="4"/>
<feComposite in2="hardAlpha" operator="out"/>
<feColorMatrix type="matrix" values="0 0 0 0 0.107708 0 0 0 0 0.208715 0 0 0 0 0.275 0 0 0 0.7 0"/>
<feBlend mode="normal" in2="BackgroundImageFix" result="effect1_dropShadow_1181_4217"/>
<feBlend mode="normal" in="SourceGraphic" in2="effect1_dropShadow_1181_4217" result="shape"/>
<feColorMatrix in="SourceAlpha" type="matrix" values="0 0 0 0 0 0 0 0 0 0 0 0 0 0 0 0 0 0 127 0" result="hardAlpha"/>
<feOffset dy="4"/>
<feGaussianBlur stdDeviation="4"/>
<feComposite in2="hardAlpha" operator="arithmetic" k2="-1" k3="1"/>
<feColorMatrix type="matrix" values="0 0 0 0 0.105882 0 0 0 0 0.207843 0 0 0 0 0.27451 0 0 0 0.25 0"/>
<feBlend mode="normal" in2="shape" result="effect2_innerShadow_1181_4217"/>
</filter>
</defs>
</svg>
