<svg width="16" class="mt-px" height="12" viewBox="0 0 16 12" fill="none" xmlns="http://www.w3.org/2000/svg"><path d="M11.637 5.976c-1.017 0-1.903-.893-1.903-2.047 0-1.148.891-1.988 1.903-1.988 1.017 0 1.908.861 1.908 1.999 0 1.143-.886 2.036-1.908 2.036m3.051 4.8H8.596c-.694 0-.962-.265-.962-.749 0-1.467 1.542-3.237 4.008-3.237s4.009 1.77 4.009 3.237c0 .484-.274.75-.963.75" fill="rgb(var(--c-text-grey))"/><path d="M5.343 5.854c-1.176 0-2.188-1.021-2.188-2.35 0-1.313 1.017-2.286 2.188-2.286 1.17 0 2.187.994 2.187 2.296 0 1.319-1.012 2.34-2.187 2.34m3.44 4.923H1.907c-.858 0-1.164-.24-1.164-.707 0-1.372 1.766-3.265 4.604-3.265 2.833 0 4.599 1.893 4.599 3.265 0 .468-.306.707-1.165.707" fill="rgb(var(--c-text-grey))"/></svg>