<svg width="37" height="32" viewBox="0 0 37 32" fill="none" xmlns="http://www.w3.org/2000/svg">
<g clip-path="url(#clip0_902_3395)">
<path opacity="0.986" fill-rule="evenodd" clip-rule="evenodd" d="M27.1052 -0.017334C27.8192 -0.017334 28.5331 -0.017334 29.2471 -0.017334C30.4892 0.270073 31.2464 1.08026 31.5187 2.41322C31.5461 2.59726 31.5569 2.78244 31.5511 2.96878C31.8798 2.95646 32.0908 3.1185 32.184 3.45489C32.2056 3.89471 32.2056 4.33451 32.184 4.77433C32.155 4.871 32.1172 4.96357 32.0704 5.05211C32.5313 5.61437 32.5799 6.21621 32.2164 6.85767C31.9743 7.16367 31.6661 7.32569 31.2915 7.34378C31.2097 8.35239 30.804 9.17412 30.0746 9.80905C30.0583 10.075 30.053 10.3412 30.0583 10.6077C31.2218 10.8624 32.3792 11.146 33.5307 11.4584C34.0726 11.7317 34.3809 12.1888 34.4556 12.8299C34.5383 14.2083 34.6303 15.5856 34.7314 16.9618C34.7062 17.3585 34.5223 17.6247 34.1797 17.7604C30.1774 17.7604 26.1749 17.7604 22.1725 17.7604C21.8299 17.6247 21.6461 17.3585 21.6208 16.9618C21.722 15.5856 21.8139 14.2083 21.8967 12.8299C21.9714 12.1888 22.2797 11.7317 22.8216 11.4584C23.9632 11.1504 25.1099 10.8668 26.2615 10.6077C26.2669 10.3412 26.2615 10.075 26.2452 9.80905C25.5157 9.17398 25.1101 8.35225 25.0283 7.34378C24.3098 7.25784 23.9204 6.82961 23.86 6.05905C23.8558 5.66308 23.9856 5.32746 24.2495 5.05211C24.1934 4.95534 24.1555 4.85117 24.1359 4.73961C24.1142 4.32294 24.1142 3.90628 24.1359 3.48961C24.2315 3.13437 24.4533 2.96076 24.8011 2.96878C24.7797 2.26796 24.9744 1.64875 25.3853 1.11114C25.4852 1.04845 25.5825 1.05424 25.6773 1.1285C25.741 1.23329 25.7573 1.34903 25.726 1.47572C25.4334 1.92304 25.2874 2.42072 25.2879 2.96878C26.4995 2.96299 27.711 2.96878 28.9225 2.98614C29.052 3.03767 29.106 3.13605 29.0848 3.28128C29.0771 3.37323 29.0338 3.43689 28.955 3.47225C27.5379 3.48381 26.1209 3.49541 24.7038 3.50697C24.6876 3.52433 24.6713 3.54169 24.6551 3.55905C24.6285 3.94944 24.6339 4.33718 24.6713 4.72225C26.7699 4.73961 28.8684 4.74541 30.967 4.73961C31.2024 4.75048 31.435 4.73892 31.6647 4.70489C31.6917 4.31086 31.6863 3.91735 31.6485 3.52433C31.0659 3.49006 30.4818 3.4785 29.8961 3.48961C29.7675 3.46775 29.6918 3.38673 29.6689 3.24655C29.6704 3.12191 29.7245 3.03511 29.8312 2.98614C29.9931 2.9688 30.1553 2.96302 30.318 2.96878C30.5668 2.96878 30.8156 2.96878 31.0644 2.96878C31.0389 1.91232 30.5845 1.15422 29.7014 0.694472C29.4593 0.598437 29.2105 0.534781 28.955 0.503499C28.3708 0.497715 27.7866 0.503503 27.2026 0.52086C26.9158 0.575902 26.6453 0.680069 26.3913 0.83336C26.2671 0.867253 26.1589 0.838319 26.0668 0.746555C26.0075 0.589235 26.04 0.456135 26.1641 0.347249C26.464 0.172877 26.7777 0.051349 27.1052 -0.017334Z" fill="#020202"/>
<path fill-rule="evenodd" clip-rule="evenodd" d="M28.9549 0.50345C29.8506 1.04241 30.3049 1.86417 30.3179 2.96873C30.1553 2.96297 29.993 2.96875 29.8311 2.98609C29.7244 3.03506 29.6703 3.12186 29.6689 3.24651C29.4712 3.23649 29.2765 3.24806 29.0847 3.28123C29.1059 3.136 29.0519 3.03762 28.9225 2.98609C27.711 2.96873 26.4994 2.96294 25.2878 2.96873C25.2873 2.42068 25.4334 1.92299 25.7259 1.47567C25.7572 1.34898 25.741 1.23324 25.6773 1.12845C25.7868 0.976523 25.9166 0.849207 26.0667 0.746506C26.1589 0.83827 26.267 0.867204 26.3912 0.833312C26.6452 0.68002 26.9157 0.575853 27.2025 0.520812C27.7865 0.503454 28.3707 0.497666 28.9549 0.50345Z" fill="#586B75"/>
<path fill-rule="evenodd" clip-rule="evenodd" d="M28.955 0.503479C29.2105 0.53476 29.4593 0.598416 29.7014 0.694451C30.5845 1.1542 31.0388 1.9123 31.0643 2.96876C30.8155 2.96876 30.5667 2.96876 30.3179 2.96876C30.305 1.8642 29.8506 1.04244 28.955 0.503479Z" fill="#45585F"/>
<path fill-rule="evenodd" clip-rule="evenodd" d="M29.669 3.24653C29.6918 3.38671 29.7675 3.46773 29.8961 3.48959C30.2473 3.52413 30.6043 3.5357 30.967 3.52431C30.967 3.92941 30.967 4.33448 30.967 4.73958C28.8684 4.74538 26.7699 4.73958 24.6714 4.72222C24.6339 4.33715 24.6285 3.94941 24.6551 3.55903C24.6714 3.54167 24.6876 3.52431 24.7038 3.50695C26.1209 3.49538 27.5379 3.48379 28.955 3.47222C29.0338 3.43687 29.0771 3.37321 29.0848 3.28125C29.2766 3.24808 29.4713 3.23651 29.669 3.24653Z" fill="#798B97"/>
<path fill-rule="evenodd" clip-rule="evenodd" d="M29.8961 3.48956C30.4818 3.47845 31.0659 3.49001 31.6485 3.52428C31.6864 3.9173 31.6917 4.31081 31.6647 4.70483C31.435 4.73886 31.2025 4.75042 30.967 4.73956C30.967 4.33445 30.967 3.92938 30.967 3.52428C30.6043 3.53567 30.2473 3.52411 29.8961 3.48956Z" fill="#596C76"/>
<path fill-rule="evenodd" clip-rule="evenodd" d="M30.7722 7.30905C30.7722 6.63776 30.7722 5.96644 30.7722 5.29516C30.5667 5.29516 30.3611 5.29516 30.1556 5.29516C28.6196 5.29516 27.0835 5.29516 25.5474 5.29516C25.5474 6.00117 25.5474 6.70721 25.5474 7.41321C25.5151 6.70165 25.5043 5.98405 25.515 5.26044C27.2782 5.26044 29.0415 5.26044 30.8047 5.26044C30.8154 5.94933 30.8046 6.63221 30.7722 7.30905Z" fill="#B18F6D"/>
<path fill-rule="evenodd" clip-rule="evenodd" d="M24.9309 5.29517C24.9633 5.29517 24.9958 5.29517 25.0282 5.29517C25.0282 5.79284 25.0282 6.29055 25.0282 6.78822C24.9958 6.78822 24.9633 6.78822 24.9309 6.78822C24.498 6.64971 24.3087 6.33721 24.363 5.85072C24.4548 5.54985 24.6441 5.36468 24.9309 5.29517Z" fill="#FBBA84"/>
<path fill-rule="evenodd" clip-rule="evenodd" d="M24.9309 5.29515C24.9656 5.26272 25.0088 5.25113 25.0607 5.26043C25.0607 5.78127 25.0607 6.3021 25.0607 6.82293C25.0088 6.83224 24.9656 6.82064 24.9309 6.78821C24.9634 6.78821 24.9958 6.78821 25.0283 6.78821C25.0283 6.29054 25.0283 5.79283 25.0283 5.29515C24.9958 5.29515 24.9634 5.29515 24.9309 5.29515Z" fill="#35271C"/>
<path fill-rule="evenodd" clip-rule="evenodd" d="M30.1557 5.29517C30.1611 6.02444 30.1557 6.7536 30.1394 7.48267C29.9781 8.58152 29.4427 9.39173 28.5331 9.91322C27.3376 10.0404 26.4343 9.55433 25.8233 8.45489C25.6754 8.12468 25.5834 7.77746 25.5475 7.41322C25.5475 6.70721 25.5475 6.00117 25.5475 5.29517C27.0835 5.29517 28.6196 5.29517 30.1557 5.29517Z" fill="#FCD0A3"/>
<path fill-rule="evenodd" clip-rule="evenodd" d="M30.1557 5.29517C30.3612 5.29517 30.5667 5.29517 30.7723 5.29517C30.7723 5.96645 30.7723 6.63777 30.7723 7.30905C30.6572 8.57204 30.0406 9.41117 28.9225 9.82642C28.7936 9.86211 28.6638 9.89103 28.5331 9.91322C29.4427 9.39173 29.9782 8.58152 30.1395 7.48267C30.1557 6.7536 30.1611 6.02444 30.1557 5.29517Z" fill="#FDBC85"/>
<path fill-rule="evenodd" clip-rule="evenodd" d="M31.3888 5.29515C31.3564 5.29515 31.3239 5.29515 31.2915 5.29515C31.2915 5.79283 31.2915 6.29054 31.2915 6.78821C31.3239 6.78821 31.3564 6.78821 31.3888 6.78821C31.3542 6.82064 31.3109 6.83224 31.259 6.82293C31.259 6.3021 31.259 5.78127 31.259 5.26043C31.3109 5.25113 31.3542 5.26272 31.3888 5.29515Z" fill="#47311F"/>
<path fill-rule="evenodd" clip-rule="evenodd" d="M31.3889 5.29517C31.7529 5.38975 31.9476 5.6386 31.973 6.04169C31.9476 6.44478 31.7529 6.69364 31.3889 6.78822C31.3564 6.78822 31.324 6.78822 31.2915 6.78822C31.2915 6.29055 31.2915 5.79284 31.2915 5.29517C31.324 5.29517 31.3564 5.29517 31.3889 5.29517Z" fill="#F2A66A"/>
<path fill-rule="evenodd" clip-rule="evenodd" d="M26.3264 5.57294C26.7083 5.55708 27.0869 5.57444 27.4622 5.62503C27.5867 5.97322 27.4677 6.12947 27.1052 6.09378C27.1106 6.22162 27.1052 6.34892 27.089 6.47572C26.9635 6.64642 26.8229 6.65798 26.6671 6.51044C26.6232 6.37631 26.607 6.23742 26.6184 6.09378C26.4432 6.13399 26.308 6.0761 26.2128 5.92017C26.1862 5.7802 26.2241 5.66447 26.3264 5.57294Z" fill="#070504"/>
<path fill-rule="evenodd" clip-rule="evenodd" d="M28.9226 5.57291C29.2797 5.56712 29.6367 5.57291 29.9935 5.59028C30.1715 5.7667 30.1607 5.92875 29.961 6.07639C29.8752 6.09364 29.7886 6.09944 29.7014 6.09375C29.7068 6.21007 29.7013 6.3258 29.6852 6.44097C29.5706 6.64201 29.43 6.66517 29.2633 6.51041C29.2194 6.37628 29.2031 6.23739 29.2146 6.09375C28.9174 6.15156 28.7822 6.02427 28.809 5.7118C28.8536 5.66996 28.8915 5.62368 28.9226 5.57291Z" fill="#040302"/>
<path fill-rule="evenodd" clip-rule="evenodd" d="M27.8516 8.00349C28.2337 7.96647 28.5961 8.03592 28.9387 8.21182C29.0285 8.43644 28.9636 8.57533 28.744 8.62849C28.5551 8.55731 28.3604 8.52258 28.1599 8.52432C27.9356 8.54682 27.7139 8.57574 27.4946 8.61113C27.275 8.43762 27.2858 8.27561 27.527 8.12502C27.64 8.08672 27.7481 8.04623 27.8516 8.00349Z" fill="#050403"/>
<path fill-rule="evenodd" clip-rule="evenodd" d="M29.5066 10.1562C29.5389 10.5435 29.5497 10.9371 29.5391 11.3368C29.3971 12.1744 28.9266 12.6142 28.1274 12.6562C27.4398 12.5804 26.9963 12.1869 26.7969 11.4757C26.7752 11.0243 26.7752 10.5729 26.7969 10.1215C27.509 10.4948 28.25 10.5701 29.0198 10.3472C29.1816 10.2799 29.3439 10.2162 29.5066 10.1562Z" fill="#F4A86B"/>
<path fill-rule="evenodd" clip-rule="evenodd" d="M29.5066 10.1562C29.5085 10.1374 29.5193 10.1258 29.539 10.1215C29.582 10.5322 29.582 10.9373 29.539 11.3368C29.5497 10.9371 29.5389 10.5435 29.5066 10.1562Z" fill="#8D613E"/>
<path fill-rule="evenodd" clip-rule="evenodd" d="M24.9634 12.8993C24.7657 12.9094 24.571 12.8978 24.3792 12.8646C24.3564 12.7877 24.3132 12.724 24.2494 12.6736C23.6437 12.6621 23.0379 12.6505 22.4321 12.6389C22.5728 12.3032 22.7999 12.0602 23.1136 11.9097C24.1698 11.6388 25.2299 11.3899 26.2939 11.1632C26.2976 11.7439 26.4924 12.2357 26.878 12.6389C26.2831 12.6505 25.6881 12.6621 25.0932 12.6736C25.0207 12.7305 24.9774 12.8057 24.9634 12.8993Z" fill="#EFF7FB"/>
<path fill-rule="evenodd" clip-rule="evenodd" d="M32.9141 11.8229C33.0881 12.0687 33.1855 12.3465 33.2062 12.6563C31.9513 12.6621 30.6965 12.6563 29.4418 12.6389C29.8194 12.2318 30.0249 11.7399 30.0584 11.1632C31.0103 11.3831 31.9622 11.603 32.9141 11.8229Z" fill="#EFF8FC"/>
<path fill-rule="evenodd" clip-rule="evenodd" d="M32.9141 11.8229C33.3939 11.8907 33.7292 12.1627 33.9201 12.6389C33.6823 12.6563 33.4444 12.662 33.2061 12.6563C33.1854 12.3465 33.088 12.0687 32.9141 11.8229Z" fill="#C3E9F7"/>
<path fill-rule="evenodd" clip-rule="evenodd" d="M24.3792 12.8646C24.571 12.8977 24.7657 12.9093 24.9633 12.8993C24.9648 13.0239 25.0189 13.1107 25.1256 13.1597C27.8407 13.1771 30.5559 13.1829 33.271 13.1771C33.271 13.3275 33.271 13.478 33.271 13.6285C29.6364 13.6285 26.0018 13.6285 22.3672 13.6285C22.3672 13.478 22.3672 13.3275 22.3672 13.1771C22.9839 13.1829 23.6005 13.1771 24.2169 13.1597C24.3464 13.1082 24.4004 13.0098 24.3792 12.8646Z" fill="#7A8C97"/>
<path fill-rule="evenodd" clip-rule="evenodd" d="M33.271 13.1771C33.509 13.1771 33.747 13.1771 33.985 13.1771C33.9863 13.34 33.9971 13.502 34.0174 13.6632C30.1286 13.6747 26.2452 13.6632 22.3672 13.6285C26.0018 13.6285 29.6364 13.6285 33.271 13.6285C33.271 13.478 33.271 13.3275 33.271 13.1771Z" fill="#57666F"/>
<path fill-rule="evenodd" clip-rule="evenodd" d="M33.336 14.184C33.3339 14.5087 33.3447 14.8328 33.3685 15.1562C33.0007 15.1562 32.6329 15.1562 32.2651 15.1562C32.2952 14.9734 32.252 14.8172 32.1353 14.6875C32.0219 14.6526 31.9192 14.67 31.827 14.7396C31.783 14.8737 31.7668 15.0126 31.7783 15.1562C29.3769 15.1562 26.9754 15.1562 24.574 15.1562C24.5793 15.0399 24.5739 14.9242 24.5578 14.809C24.4266 14.6419 24.286 14.6303 24.1359 14.7743C24.0925 14.8967 24.0763 15.024 24.0872 15.1562C23.4814 15.1562 22.8757 15.1562 22.2699 15.1562C22.2731 14.8318 22.2839 14.5077 22.3023 14.184C25.9802 14.184 29.6581 14.184 33.336 14.184Z" fill="#F1FAFE"/>
<path fill-rule="evenodd" clip-rule="evenodd" d="M33.336 14.184C33.5739 14.184 33.8119 14.184 34.0499 14.184C34.0683 14.5077 34.0791 14.8318 34.0824 15.1562C33.8444 15.1562 33.6064 15.1562 33.3684 15.1562C33.3447 14.8328 33.3338 14.5087 33.336 14.184Z" fill="#C7EDFC"/>
<path fill-rule="evenodd" clip-rule="evenodd" d="M31.7459 16.1632C31.7459 16.0127 31.7459 15.8622 31.7459 15.7118C29.3661 15.7118 26.9862 15.7118 24.6064 15.7118C24.6064 15.8622 24.6064 16.0127 24.6064 16.1632C24.5744 16.008 24.5636 15.8459 24.574 15.6771C26.9754 15.6771 29.3769 15.6771 31.7783 15.6771C31.7887 15.8459 31.7779 16.008 31.7459 16.1632Z" fill="#677681"/>
<path fill-rule="evenodd" clip-rule="evenodd" d="M22.205 15.6771C22.8324 15.6771 23.4598 15.6771 24.0872 15.6771C24.0872 15.8391 24.0872 16.0011 24.0872 16.1632C23.4598 16.1632 22.8324 16.1632 22.205 16.1632C22.205 16.0011 22.205 15.8391 22.205 15.6771Z" fill="#788A96"/>
<path fill-rule="evenodd" clip-rule="evenodd" d="M31.7459 16.1632C29.3661 16.1632 26.9862 16.1632 24.6064 16.1632C24.6064 16.0127 24.6064 15.8622 24.6064 15.7118C26.9862 15.7118 29.3661 15.7118 31.7459 15.7118C31.7459 15.8622 31.7459 16.0127 31.7459 16.1632Z" fill="#798C97"/>
<path fill-rule="evenodd" clip-rule="evenodd" d="M32.265 15.7118C32.6544 15.7118 33.0439 15.7118 33.4333 15.7118C33.4333 15.8622 33.4333 16.0127 33.4333 16.1632C33.0439 16.1632 32.6544 16.1632 32.265 16.1632C32.265 16.0127 32.265 15.8622 32.265 15.7118Z" fill="#798B97"/>
<path fill-rule="evenodd" clip-rule="evenodd" d="M32.265 15.7118C32.8868 15.6772 33.5142 15.6656 34.1472 15.6771C34.1472 15.8391 34.1472 16.0011 34.1472 16.1632C33.9093 16.1632 33.6713 16.1632 33.4333 16.1632C33.4333 16.0127 33.4333 15.8622 33.4333 15.7118C33.0439 15.7118 32.6544 15.7118 32.265 15.7118Z" fill="#596B75"/>
<path fill-rule="evenodd" clip-rule="evenodd" d="M22.1401 16.684C22.7891 16.684 23.4381 16.684 24.0872 16.684C24.0872 16.8692 24.0872 17.0544 24.0872 17.2396C23.4813 17.2454 22.8755 17.2396 22.2699 17.2222C22.2196 17.1801 22.1817 17.128 22.1563 17.066C22.1401 16.9392 22.1347 16.8119 22.1401 16.684Z" fill="#F1FAFE"/>
<path fill-rule="evenodd" clip-rule="evenodd" d="M24.574 16.684C26.9754 16.684 29.3769 16.684 31.7783 16.684C31.7783 16.8692 31.7783 17.0544 31.7783 17.2396C29.3769 17.2396 26.9754 17.2396 24.574 17.2396C24.574 17.0544 24.574 16.8692 24.574 16.684Z" fill="#F1FAFE"/>
<path fill-rule="evenodd" clip-rule="evenodd" d="M33.4657 16.684C33.4819 16.877 33.4603 17.0622 33.4008 17.2396C33.0222 17.2396 32.6436 17.2396 32.265 17.2396C32.265 17.0544 32.265 16.8692 32.265 16.684C32.6652 16.684 33.0655 16.684 33.4657 16.684Z" fill="#F1FAFF"/>
<path fill-rule="evenodd" clip-rule="evenodd" d="M33.4658 16.684C33.7146 16.684 33.9634 16.684 34.2122 16.684C34.2175 16.8119 34.2121 16.9392 34.196 17.066C34.1809 17.1157 34.1538 17.1561 34.1148 17.1875C33.8806 17.2371 33.6425 17.2545 33.4009 17.2396C33.4604 17.0622 33.482 16.877 33.4658 16.684Z" fill="#C7EDFC"/>
</g>
<g clip-path="url(#clip1_902_3395)">
<path opacity="0.986" fill-rule="evenodd" clip-rule="evenodd" d="M7.72058 -0.017334C8.43452 -0.017334 9.14847 -0.017334 9.86241 -0.017334C11.1046 0.270073 11.8618 1.08026 12.134 2.41322C12.1614 2.59726 12.1722 2.78244 12.1665 2.96878C12.4952 2.95646 12.7061 3.1185 12.7993 3.45489C12.821 3.89471 12.821 4.33451 12.7993 4.77433C12.7704 4.871 12.7325 4.96357 12.6857 5.05211C13.1466 5.61437 13.1953 6.21621 12.8318 6.85767C12.5897 7.16367 12.2814 7.32569 11.9069 7.34378C11.825 8.35239 11.4194 9.17412 10.6899 9.80905C10.6737 10.075 10.6683 10.3412 10.6737 10.6077C11.8371 10.8624 12.9946 11.146 14.1461 11.4584C14.688 11.7317 14.9963 12.1888 15.0709 12.8299C15.1537 14.2083 15.2456 15.5856 15.3468 16.9618C15.3216 17.3585 15.1377 17.6247 14.7951 17.7604C10.7927 17.7604 6.79028 17.7604 2.78789 17.7604C2.4453 17.6247 2.26141 17.3585 2.23621 16.9618C2.33736 15.5856 2.4293 14.2083 2.51205 12.8299C2.58674 12.1888 2.89503 11.7317 3.43693 11.4584C4.57855 11.1504 5.72521 10.8668 6.87683 10.6077C6.88222 10.3412 6.87683 10.075 6.86061 9.80905C6.13109 9.17398 5.72544 8.35225 5.64366 7.34378C4.92514 7.25784 4.53572 6.82961 4.47539 6.05905C4.47117 5.66308 4.60098 5.32746 4.86481 5.05211C4.80877 4.95534 4.7709 4.85117 4.75123 4.73961C4.72958 4.32294 4.72958 3.90628 4.75123 3.48961C4.8469 3.13437 5.06867 2.96076 5.41649 2.96878C5.39504 2.26796 5.58976 1.64875 6.00063 1.11114C6.10055 1.04845 6.1979 1.05424 6.2927 1.1285C6.3564 1.23329 6.37263 1.34903 6.34137 1.47572C6.04879 1.92304 5.90275 2.42072 5.90327 2.96878C7.11487 2.96299 8.32639 2.96878 9.53789 2.98614C9.66731 3.03767 9.72137 3.13605 9.70015 3.28128C9.69242 3.37323 9.64913 3.43689 9.57034 3.47225C8.15326 3.48381 6.73622 3.49541 5.31914 3.50697C5.30291 3.52433 5.28669 3.54169 5.27046 3.55905C5.24385 3.94944 5.24927 4.33718 5.28669 4.72225C7.38522 4.73961 9.48376 4.74541 11.5824 4.73961C11.8178 4.75048 12.0503 4.73892 12.2801 4.70489C12.3071 4.31086 12.3017 3.91735 12.2639 3.52433C11.6812 3.49006 11.0971 3.4785 10.5114 3.48961C10.3828 3.46775 10.3071 3.38673 10.2843 3.24655C10.2857 3.12191 10.3398 3.03511 10.4465 2.98614C10.6084 2.9688 10.7707 2.96302 10.9333 2.96878C11.1821 2.96878 11.4309 2.96878 11.6797 2.96878C11.6542 1.91232 11.1999 1.15422 10.3167 0.694472C10.0746 0.598437 9.82587 0.534781 9.57034 0.503499C8.98611 0.497715 8.40197 0.503503 7.81794 0.52086C7.53113 0.575902 7.26067 0.680069 7.00664 0.83336C6.88245 0.867253 6.77428 0.838319 6.68212 0.746555C6.62289 0.589235 6.65535 0.456135 6.77948 0.347249C7.0794 0.172877 7.39308 0.051349 7.72058 -0.017334Z" fill="#020202"/>
<path fill-rule="evenodd" clip-rule="evenodd" d="M9.57027 0.50345C10.4659 1.04241 10.9203 1.86417 10.9332 2.96873C10.7706 2.96297 10.6084 2.96875 10.4465 2.98609C10.3397 3.03506 10.2856 3.12186 10.2842 3.24651C10.0865 3.23649 9.89183 3.24806 9.70007 3.28123C9.7213 3.136 9.66723 3.03762 9.53782 2.98609C8.32632 2.96873 7.11479 2.96294 5.9032 2.96873C5.90268 2.42068 6.04871 1.92299 6.3413 1.47567C6.37255 1.34898 6.35633 1.23324 6.29262 1.12845C6.40212 0.976523 6.53192 0.849207 6.68205 0.746506C6.77421 0.83827 6.88237 0.867204 7.00656 0.833312C7.2606 0.68002 7.53105 0.575853 7.81786 0.520812C8.4019 0.503454 8.98604 0.497666 9.57027 0.50345Z" fill="#586B75"/>
<path fill-rule="evenodd" clip-rule="evenodd" d="M9.57031 0.503479C9.82584 0.53476 10.0746 0.598416 10.3167 0.694451C11.1999 1.1542 11.6542 1.9123 11.6797 2.96876C11.4309 2.96876 11.1821 2.96876 10.9333 2.96876C10.9203 1.8642 10.466 1.04244 9.57031 0.503479Z" fill="#45585F"/>
<path fill-rule="evenodd" clip-rule="evenodd" d="M10.2843 3.24653C10.3072 3.38671 10.3829 3.46773 10.5115 3.48959C10.8626 3.52413 11.2196 3.5357 11.5824 3.52431C11.5824 3.92941 11.5824 4.33448 11.5824 4.73958C9.48379 4.74538 7.38525 4.73958 5.28672 4.72222C5.2493 4.33715 5.24388 3.94941 5.27049 3.55903C5.28672 3.54167 5.30294 3.52431 5.31917 3.50695C6.73625 3.49538 8.15329 3.48379 9.57037 3.47222C9.64916 3.43687 9.69245 3.37321 9.70018 3.28125C9.89194 3.24808 10.0866 3.23651 10.2843 3.24653Z" fill="#798B97"/>
<path fill-rule="evenodd" clip-rule="evenodd" d="M10.5115 3.48956C11.0971 3.47845 11.6813 3.49001 12.2639 3.52428C12.3017 3.9173 12.3071 4.31081 12.2801 4.70483C12.0504 4.73886 11.8178 4.75042 11.5824 4.73956C11.5824 4.33445 11.5824 3.92938 11.5824 3.52428C11.2196 3.53567 10.8626 3.52411 10.5115 3.48956Z" fill="#596C76"/>
<path fill-rule="evenodd" clip-rule="evenodd" d="M11.3876 7.30905C11.3876 6.63776 11.3876 5.96644 11.3876 5.29516C11.182 5.29516 10.9765 5.29516 10.771 5.29516C9.23493 5.29516 7.69885 5.29516 6.16281 5.29516C6.16281 6.00117 6.16281 6.70721 6.16281 7.41321C6.13045 6.70165 6.11961 5.98405 6.13035 5.26044C7.89356 5.26044 9.65681 5.26044 11.42 5.26044C11.4307 5.94933 11.4199 6.63221 11.3876 7.30905Z" fill="#B18F6D"/>
<path fill-rule="evenodd" clip-rule="evenodd" d="M5.54622 5.29517C5.57867 5.29517 5.61113 5.29517 5.64358 5.29517C5.64358 5.79284 5.64358 6.29055 5.64358 6.78822C5.61113 6.78822 5.57867 6.78822 5.54622 6.78822C5.11335 6.64971 4.92402 6.33721 4.97831 5.85072C5.07015 5.54985 5.25944 5.36468 5.54622 5.29517Z" fill="#FBBA84"/>
<path fill-rule="evenodd" clip-rule="evenodd" d="M5.54626 5.29515C5.58092 5.26272 5.62418 5.25113 5.67607 5.26043C5.67607 5.78127 5.67607 6.3021 5.67607 6.82293C5.62418 6.83224 5.58092 6.82064 5.54626 6.78821C5.57872 6.78821 5.61117 6.78821 5.64362 6.78821C5.64362 6.29054 5.64362 5.79283 5.64362 5.29515C5.61117 5.29515 5.57872 5.29515 5.54626 5.29515Z" fill="#35271C"/>
<path fill-rule="evenodd" clip-rule="evenodd" d="M10.771 5.29517C10.7764 6.02444 10.771 6.7536 10.7548 7.48267C10.5935 8.58152 10.058 9.39173 9.14842 9.91322C7.95292 10.0404 7.04966 9.55433 6.43868 8.45489C6.29073 8.12468 6.1988 7.77746 6.16284 7.41322C6.16284 6.70721 6.16284 6.00117 6.16284 5.29517C7.69889 5.29517 9.23497 5.29517 10.771 5.29517Z" fill="#FCD0A3"/>
<path fill-rule="evenodd" clip-rule="evenodd" d="M10.771 5.29517C10.9766 5.29517 11.1821 5.29517 11.3876 5.29517C11.3876 5.96645 11.3876 6.63777 11.3876 7.30905C11.2725 8.57204 10.6559 9.41117 9.53786 9.82642C9.40893 9.86211 9.27912 9.89103 9.14844 9.91322C10.0581 9.39173 10.5935 8.58152 10.7548 7.48267C10.771 6.7536 10.7765 6.02444 10.771 5.29517Z" fill="#FDBC85"/>
<path fill-rule="evenodd" clip-rule="evenodd" d="M12.0042 5.29515C11.9717 5.29515 11.9393 5.29515 11.9068 5.29515C11.9068 5.79283 11.9068 6.29054 11.9068 6.78821C11.9393 6.78821 11.9717 6.78821 12.0042 6.78821C11.9695 6.82064 11.9263 6.83224 11.8744 6.82293C11.8744 6.3021 11.8744 5.78127 11.8744 5.26043C11.9263 5.25113 11.9695 5.26272 12.0042 5.29515Z" fill="#47311F"/>
<path fill-rule="evenodd" clip-rule="evenodd" d="M12.0042 5.29517C12.3683 5.38975 12.563 5.6386 12.5884 6.04169C12.563 6.44478 12.3683 6.69364 12.0042 6.78822C11.9718 6.78822 11.9393 6.78822 11.9069 6.78822C11.9069 6.29055 11.9069 5.79284 11.9069 5.29517C11.9393 5.29517 11.9718 5.29517 12.0042 5.29517Z" fill="#F2A66A"/>
<path fill-rule="evenodd" clip-rule="evenodd" d="M6.94173 5.57294C7.32363 5.55708 7.70224 5.57444 8.07755 5.62503C8.20207 5.97322 8.0831 6.12947 7.72058 6.09378C7.72593 6.22162 7.72055 6.34892 7.70435 6.47572C7.57889 6.64642 7.43828 6.65798 7.28248 6.51044C7.23854 6.37631 7.22231 6.23742 7.2338 6.09378C7.05853 6.13399 6.92333 6.0761 6.82815 5.92017C6.80161 5.7802 6.83948 5.66447 6.94173 5.57294Z" fill="#070504"/>
<path fill-rule="evenodd" clip-rule="evenodd" d="M9.53792 5.57291C9.89505 5.56712 10.252 5.57291 10.6088 5.59028C10.7869 5.7667 10.7761 5.92875 10.5764 6.07639C10.4905 6.09364 10.404 6.09944 10.3168 6.09375C10.3221 6.21007 10.3167 6.3258 10.3005 6.44097C10.1859 6.64201 10.0453 6.66517 9.87867 6.51041C9.83473 6.37628 9.8185 6.23739 9.82999 6.09375C9.53279 6.15156 9.39757 6.02427 9.42434 5.7118C9.46899 5.66996 9.50683 5.62368 9.53792 5.57291Z" fill="#040302"/>
<path fill-rule="evenodd" clip-rule="evenodd" d="M8.46692 8.00349C8.84908 7.96647 9.21144 8.03592 9.55406 8.21182C9.64382 8.43644 9.57892 8.57533 9.35935 8.62849C9.17048 8.55731 8.97577 8.52258 8.77522 8.52432C8.55101 8.54682 8.32923 8.57574 8.10995 8.61113C7.89038 8.43762 7.90119 8.27561 8.1424 8.12502C8.25534 8.08672 8.3635 8.04623 8.46692 8.00349Z" fill="#050403"/>
<path fill-rule="evenodd" clip-rule="evenodd" d="M10.122 10.1562C10.1543 10.5435 10.1651 10.9371 10.1544 11.3368C10.0125 12.1744 9.54192 12.6142 8.74276 12.6562C8.05514 12.5804 7.61165 12.1869 7.41223 11.4757C7.39058 11.0243 7.39058 10.5729 7.41223 10.1215C8.12432 10.4948 8.86533 10.5701 9.63519 10.3472C9.79696 10.2799 9.95922 10.2162 10.122 10.1562Z" fill="#F4A86B"/>
<path fill-rule="evenodd" clip-rule="evenodd" d="M10.1219 10.1562C10.1239 10.1374 10.1347 10.1258 10.1544 10.1215C10.1974 10.5322 10.1974 10.9373 10.1544 11.3368C10.165 10.9371 10.1542 10.5435 10.1219 10.1562Z" fill="#8D613E"/>
<path fill-rule="evenodd" clip-rule="evenodd" d="M5.57874 12.8993C5.38107 12.9094 5.18636 12.8978 4.9946 12.8646C4.97179 12.7877 4.92853 12.724 4.86479 12.6736C4.25901 12.6621 3.65326 12.6505 3.04749 12.6389C3.18811 12.3032 3.41527 12.0602 3.72898 11.9097C4.78516 11.6388 5.84526 11.3899 6.90926 11.1632C6.913 11.7439 7.10771 12.2357 7.4934 12.6389C6.89846 12.6505 6.30348 12.6621 5.70854 12.6736C5.63605 12.7305 5.59279 12.8057 5.57874 12.8993Z" fill="#EFF7FB"/>
<path fill-rule="evenodd" clip-rule="evenodd" d="M13.5295 11.8229C13.7035 12.0687 13.8008 12.3465 13.8216 12.6563C12.5667 12.6621 11.3119 12.6563 10.0571 12.6389C10.4348 12.2318 10.6403 11.7399 10.6737 11.1632C11.6257 11.3831 12.5776 11.603 13.5295 11.8229Z" fill="#EFF8FC"/>
<path fill-rule="evenodd" clip-rule="evenodd" d="M13.5294 11.8229C14.0092 11.8907 14.3445 12.1627 14.5354 12.6389C14.2977 12.6563 14.0597 12.662 13.8215 12.6563C13.8007 12.3465 13.7034 12.0687 13.5294 11.8229Z" fill="#C3E9F7"/>
<path fill-rule="evenodd" clip-rule="evenodd" d="M4.99456 12.8646C5.18632 12.8977 5.38103 12.9093 5.5787 12.8993C5.58013 13.0239 5.63422 13.1107 5.74096 13.1597C8.45608 13.1771 11.1712 13.1829 13.8864 13.1771C13.8864 13.3275 13.8864 13.478 13.8864 13.6285C10.2518 13.6285 6.61716 13.6285 2.98254 13.6285C2.98254 13.478 2.98254 13.3275 2.98254 13.1771C3.59922 13.1829 4.21581 13.1771 4.8323 13.1597C4.96172 13.1082 5.01579 13.0098 4.99456 12.8646Z" fill="#7A8C97"/>
<path fill-rule="evenodd" clip-rule="evenodd" d="M13.8864 13.1771C14.1244 13.1771 14.3624 13.1771 14.6003 13.1771C14.6016 13.34 14.6124 13.502 14.6328 13.6632C10.7439 13.6747 6.86052 13.6632 2.98254 13.6285C6.61716 13.6285 10.2518 13.6285 13.8864 13.6285C13.8864 13.478 13.8864 13.3275 13.8864 13.1771Z" fill="#57666F"/>
<path fill-rule="evenodd" clip-rule="evenodd" d="M13.9514 14.184C13.9492 14.5087 13.9601 14.8328 13.9838 15.1562C13.616 15.1562 13.2482 15.1562 12.8804 15.1562C12.9106 14.9734 12.8673 14.8172 12.7506 14.6875C12.6373 14.6526 12.5345 14.67 12.4423 14.7396C12.3984 14.8737 12.3822 15.0126 12.3937 15.1562C9.99223 15.1562 7.59078 15.1562 5.18934 15.1562C5.19469 15.0399 5.18928 14.9242 5.17311 14.809C5.04198 14.6419 4.90133 14.6303 4.75124 14.7743C4.70785 14.8967 4.69163 15.024 4.70256 15.1562C4.09678 15.1562 3.49102 15.1562 2.88525 15.1562C2.88846 14.8318 2.89927 14.5077 2.91771 14.184C6.59558 14.184 10.2735 14.184 13.9514 14.184Z" fill="#F1FAFE"/>
<path fill-rule="evenodd" clip-rule="evenodd" d="M13.9513 14.184C14.1893 14.184 14.4273 14.184 14.6653 14.184C14.6837 14.5077 14.6945 14.8318 14.6977 15.1562C14.4597 15.1562 14.2217 15.1562 13.9838 15.1562C13.96 14.8328 13.9492 14.5087 13.9513 14.184Z" fill="#C7EDFC"/>
<path fill-rule="evenodd" clip-rule="evenodd" d="M12.3612 16.1632C12.3612 16.0127 12.3612 15.8622 12.3612 15.7118C9.98142 15.7118 7.60159 15.7118 5.2218 15.7118C5.2218 15.8622 5.2218 16.0127 5.2218 16.1632C5.1898 16.008 5.17899 15.8459 5.18935 15.6771C7.59079 15.6771 9.99223 15.6771 12.3937 15.6771C12.404 15.8459 12.3932 16.008 12.3612 16.1632Z" fill="#677681"/>
<path fill-rule="evenodd" clip-rule="evenodd" d="M2.82031 15.6771C3.44772 15.6771 4.07513 15.6771 4.70252 15.6771C4.70252 15.8391 4.70252 16.0011 4.70252 16.1632C4.07513 16.1632 3.44772 16.1632 2.82031 16.1632C2.82031 16.0011 2.82031 15.8391 2.82031 15.6771Z" fill="#788A96"/>
<path fill-rule="evenodd" clip-rule="evenodd" d="M12.3612 16.1632C9.98143 16.1632 7.6016 16.1632 5.2218 16.1632C5.2218 16.0127 5.2218 15.8622 5.2218 15.7118C7.6016 15.7118 9.98143 15.7118 12.3612 15.7118C12.3612 15.8622 12.3612 16.0127 12.3612 16.1632Z" fill="#798C97"/>
<path fill-rule="evenodd" clip-rule="evenodd" d="M12.8804 15.7118C13.2698 15.7118 13.6592 15.7118 14.0486 15.7118C14.0486 15.8622 14.0486 16.0127 14.0486 16.1632C13.6592 16.1632 13.2698 16.1632 12.8804 16.1632C12.8804 16.0127 12.8804 15.8622 12.8804 15.7118Z" fill="#798B97"/>
<path fill-rule="evenodd" clip-rule="evenodd" d="M12.8804 15.7118C13.5021 15.6772 14.1295 15.6656 14.7626 15.6771C14.7626 15.8391 14.7626 16.0011 14.7626 16.1632C14.5246 16.1632 14.2866 16.1632 14.0486 16.1632C14.0486 16.0127 14.0486 15.8622 14.0486 15.7118C13.6592 15.7118 13.2698 15.7118 12.8804 15.7118Z" fill="#596B75"/>
<path fill-rule="evenodd" clip-rule="evenodd" d="M2.75542 16.684C3.40446 16.684 4.0535 16.684 4.70254 16.684C4.70254 16.8692 4.70254 17.0544 4.70254 17.2396C4.09666 17.2454 3.4909 17.2396 2.88523 17.2222C2.83497 17.1801 2.79711 17.128 2.77165 17.066C2.75547 16.9392 2.75006 16.8119 2.75542 16.684Z" fill="#F1FAFE"/>
<path fill-rule="evenodd" clip-rule="evenodd" d="M5.18933 16.684C7.59077 16.684 9.99222 16.684 12.3937 16.684C12.3937 16.8692 12.3937 17.0544 12.3937 17.2396C9.99222 17.2396 7.59077 17.2396 5.18933 17.2396C5.18933 17.0544 5.18933 16.8692 5.18933 16.684Z" fill="#F1FAFE"/>
<path fill-rule="evenodd" clip-rule="evenodd" d="M14.0811 16.684C14.0973 16.877 14.0757 17.0622 14.0162 17.2396C13.6376 17.2396 13.259 17.2396 12.8804 17.2396C12.8804 17.0544 12.8804 16.8692 12.8804 16.684C13.2806 16.684 13.6809 16.684 14.0811 16.684Z" fill="#F1FAFF"/>
<path fill-rule="evenodd" clip-rule="evenodd" d="M14.0811 16.684C14.3299 16.684 14.5787 16.684 14.8275 16.684C14.8329 16.8119 14.8275 16.9392 14.8113 17.066C14.7962 17.1157 14.7692 17.1561 14.7302 17.1875C14.4959 17.2371 14.2579 17.2545 14.0162 17.2396C14.0757 17.0622 14.0973 16.877 14.0811 16.684Z" fill="#C7EDFC"/>
</g>
<g clip-path="url(#clip2_902_3395)">
<path opacity="0.986" fill-rule="evenodd" clip-rule="evenodd" d="M17.6898 1.16785C18.4038 1.16785 19.1177 1.16785 19.8316 1.16785C21.0738 1.45525 21.831 2.26544 22.1033 3.5984C22.1307 3.78244 22.1415 3.96762 22.1357 4.15396C22.4644 4.14165 22.6754 4.30368 22.7685 4.64007C22.7902 5.0799 22.7902 5.51969 22.7685 5.95951C22.7396 6.05618 22.7018 6.14875 22.655 6.23729C23.1158 6.79955 23.1645 7.40139 22.801 8.04285C22.5589 8.34885 22.2506 8.51087 21.8761 8.52896C21.7943 9.53757 21.3886 10.3593 20.6592 10.9942C20.6429 11.2602 20.6376 11.5264 20.6429 11.7928C21.8063 12.0476 22.9638 12.3311 24.1153 12.6435C24.6572 12.9168 24.9655 13.374 25.0402 14.0151C25.1229 15.3934 25.2149 16.7708 25.316 18.147C25.2908 18.5437 25.1069 18.8099 24.7643 18.9456C20.7619 18.9456 16.7595 18.9456 12.7571 18.9456C12.4145 18.8099 12.2306 18.5437 12.2054 18.147C12.3066 16.7708 12.3985 15.3934 12.4813 14.0151C12.556 13.374 12.8643 12.9168 13.4062 12.6435C14.5478 12.3356 15.6944 12.052 16.8461 11.7928C16.8515 11.5264 16.8461 11.2602 16.8298 10.9942C16.1003 10.3592 15.6947 9.53743 15.6129 8.52896C14.8944 8.44302 14.505 8.01479 14.4446 7.24424C14.4404 6.84826 14.5702 6.51264 14.8341 6.23729C14.778 6.14052 14.7401 6.03635 14.7205 5.92479C14.6988 5.50812 14.6988 5.09146 14.7205 4.67479C14.8161 4.31955 15.0379 4.14594 15.3857 4.15396C15.3643 3.45315 15.559 2.83393 15.9699 2.29632C16.0698 2.23363 16.1671 2.23942 16.2619 2.31368C16.3256 2.41847 16.3419 2.53421 16.3106 2.6609C16.018 3.10822 15.872 3.60591 15.8725 4.15396C17.0841 4.14817 18.2956 4.15396 19.5071 4.17132C19.6365 4.22285 19.6906 4.32123 19.6694 4.46646C19.6617 4.55841 19.6184 4.62207 19.5396 4.65743C18.1225 4.66899 16.7055 4.68059 15.2884 4.69215C15.2722 4.70951 15.2559 4.72687 15.2397 4.74424C15.2131 5.13462 15.2185 5.52236 15.2559 5.90743C17.3545 5.92479 19.453 5.93059 21.5516 5.92479C21.787 5.93566 22.0196 5.9241 22.2493 5.89007C22.2763 5.49604 22.2709 5.10253 22.2331 4.70951C21.6505 4.67524 21.0663 4.66368 20.4807 4.67479C20.3521 4.65293 20.2764 4.57191 20.2535 4.43174C20.2549 4.30709 20.309 4.22029 20.4158 4.17132C20.5777 4.15398 20.7399 4.1482 20.9026 4.15396C21.1514 4.15396 21.4001 4.15396 21.649 4.15396C21.6234 3.0975 21.1691 2.3394 20.286 1.87965C20.0439 1.78362 19.7951 1.71996 19.5396 1.68868C18.9553 1.6829 18.3712 1.68868 17.7872 1.70604C17.5004 1.76108 17.2299 1.86525 16.9759 2.01854C16.8517 2.05243 16.7435 2.0235 16.6514 1.93174C16.5921 1.77442 16.6246 1.64132 16.7487 1.53243C17.0486 1.35806 17.3623 1.23653 17.6898 1.16785Z" fill="#020202"/>
<path fill-rule="evenodd" clip-rule="evenodd" d="M19.5395 1.68863C20.4352 2.22759 20.8895 3.04935 20.9025 4.15391C20.7399 4.14815 20.5776 4.15393 20.4157 4.17127C20.309 4.22024 20.2549 4.30704 20.2534 4.43169C20.0558 4.42167 19.8611 4.43324 19.6693 4.46641C19.6905 4.32118 19.6365 4.2228 19.5071 4.17127C18.2956 4.15391 17.084 4.14812 15.8724 4.15391C15.8719 3.60586 16.018 3.10817 16.3105 2.66085C16.3418 2.53416 16.3256 2.41842 16.2619 2.31363C16.3714 2.1617 16.5012 2.03439 16.6513 1.93169C16.7434 2.02345 16.8516 2.05238 16.9758 2.01849C17.2298 1.8652 17.5003 1.76103 17.7871 1.70599C18.3711 1.68863 18.9553 1.68285 19.5395 1.68863Z" fill="#586B75"/>
<path fill-rule="evenodd" clip-rule="evenodd" d="M19.5396 1.68866C19.7951 1.71994 20.0439 1.7836 20.2859 1.87963C21.1691 2.33938 21.6234 3.09748 21.6489 4.15394C21.4001 4.15394 21.1513 4.15394 20.9025 4.15394C20.8896 3.04938 20.4352 2.22762 19.5396 1.68866Z" fill="#45585F"/>
<path fill-rule="evenodd" clip-rule="evenodd" d="M20.2536 4.43171C20.2764 4.57189 20.3521 4.65291 20.4807 4.67477C20.8319 4.70931 21.1888 4.72088 21.5516 4.70949C21.5516 5.11459 21.5516 5.51966 21.5516 5.92477C19.453 5.93056 17.3545 5.92477 15.256 5.9074C15.2185 5.52234 15.2131 5.13459 15.2397 4.74421C15.256 4.72685 15.2722 4.70949 15.2884 4.69213C16.7055 4.68056 18.1225 4.66897 19.5396 4.6574C19.6184 4.62205 19.6617 4.55839 19.6694 4.46643C19.8612 4.43326 20.0559 4.42169 20.2536 4.43171Z" fill="#798B97"/>
<path fill-rule="evenodd" clip-rule="evenodd" d="M20.4807 4.67474C21.0664 4.66363 21.6505 4.67519 22.2331 4.70946C22.271 5.10248 22.2763 5.49599 22.2493 5.89002C22.0196 5.92404 21.7871 5.93561 21.5516 5.92474C21.5516 5.51963 21.5516 5.11456 21.5516 4.70946C21.1888 4.72085 20.8319 4.70929 20.4807 4.67474Z" fill="#596C76"/>
<path fill-rule="evenodd" clip-rule="evenodd" d="M21.3568 8.49423C21.3568 7.82294 21.3568 7.15162 21.3568 6.48034C21.1513 6.48034 20.9457 6.48034 20.7402 6.48034C19.2042 6.48034 17.6681 6.48034 16.132 6.48034C16.132 7.18635 16.132 7.89239 16.132 8.5984C16.0997 7.88683 16.0889 7.16923 16.0996 6.44562C17.8628 6.44562 19.626 6.44562 21.3893 6.44562C21.4 7.13451 21.3892 7.81739 21.3568 8.49423Z" fill="#B18F6D"/>
<path fill-rule="evenodd" clip-rule="evenodd" d="M15.5155 6.48035C15.5479 6.48035 15.5804 6.48035 15.6128 6.48035C15.6128 6.97802 15.6128 7.47573 15.6128 7.9734C15.5804 7.9734 15.5479 7.9734 15.5155 7.9734C15.0826 7.8349 14.8933 7.5224 14.9476 7.0359C15.0394 6.73503 15.2287 6.54986 15.5155 6.48035Z" fill="#FBBA84"/>
<path fill-rule="evenodd" clip-rule="evenodd" d="M15.5155 6.48033C15.5502 6.4479 15.5934 6.43631 15.6453 6.44561C15.6453 6.96645 15.6453 7.48728 15.6453 8.00811C15.5934 8.01742 15.5502 8.00582 15.5155 7.97339C15.548 7.97339 15.5804 7.97339 15.6129 7.97339C15.6129 7.47572 15.6129 6.97801 15.6129 6.48033C15.5804 6.48033 15.548 6.48033 15.5155 6.48033Z" fill="#35271C"/>
<path fill-rule="evenodd" clip-rule="evenodd" d="M20.7403 6.48035C20.7457 7.20962 20.7403 7.93878 20.724 8.66785C20.5627 9.7667 20.0273 10.5769 19.1177 11.0984C17.9222 11.2256 17.0189 10.7395 16.4079 9.64007C16.26 9.30986 16.168 8.96264 16.1321 8.5984C16.1321 7.8924 16.1321 7.18635 16.1321 6.48035C17.6681 6.48035 19.2042 6.48035 20.7403 6.48035Z" fill="#FCD0A3"/>
<path fill-rule="evenodd" clip-rule="evenodd" d="M20.7403 6.48035C20.9458 6.48035 21.1513 6.48035 21.3569 6.48035C21.3569 7.15163 21.3569 7.82295 21.3569 8.49424C21.2418 9.75722 20.6252 10.5964 19.5071 11.0116C19.3782 11.0473 19.2484 11.0762 19.1177 11.0984C20.0273 10.5769 20.5628 9.7667 20.724 8.66785C20.7403 7.93878 20.7457 7.20962 20.7403 6.48035Z" fill="#FDBC85"/>
<path fill-rule="evenodd" clip-rule="evenodd" d="M21.9734 6.48033C21.941 6.48033 21.9085 6.48033 21.8761 6.48033C21.8761 6.97801 21.8761 7.47572 21.8761 7.97339C21.9085 7.97339 21.941 7.97339 21.9734 7.97339C21.9388 8.00582 21.8955 8.01742 21.8436 8.00811C21.8436 7.48728 21.8436 6.96645 21.8436 6.44561C21.8955 6.43631 21.9388 6.4479 21.9734 6.48033Z" fill="#47311F"/>
<path fill-rule="evenodd" clip-rule="evenodd" d="M21.9735 6.48035C22.3375 6.57493 22.5322 6.82378 22.5576 7.22687C22.5322 7.62996 22.3375 7.87882 21.9735 7.9734C21.941 7.9734 21.9086 7.9734 21.8761 7.9734C21.8761 7.47573 21.8761 6.97802 21.8761 6.48035C21.9086 6.48035 21.941 6.48035 21.9735 6.48035Z" fill="#F2A66A"/>
<path fill-rule="evenodd" clip-rule="evenodd" d="M16.911 6.75812C17.2929 6.74226 17.6715 6.75962 18.0468 6.81021C18.1713 7.1584 18.0523 7.31465 17.6898 7.27896C17.6952 7.40681 17.6898 7.5341 17.6736 7.6609C17.5481 7.8316 17.4075 7.84316 17.2517 7.69562C17.2078 7.56149 17.1916 7.4226 17.203 7.27896C17.0278 7.31917 16.8926 7.26128 16.7974 7.10535C16.7708 6.96538 16.8087 6.84965 16.911 6.75812Z" fill="#070504"/>
<path fill-rule="evenodd" clip-rule="evenodd" d="M19.5072 6.7581C19.8643 6.7523 20.2213 6.7581 20.5781 6.77546C20.7561 6.95188 20.7453 7.11393 20.5456 7.26157C20.4598 7.27882 20.3732 7.28462 20.286 7.27893C20.2914 7.39525 20.2859 7.51098 20.2698 7.62615C20.1552 7.82719 20.0145 7.85035 19.8479 7.6956C19.804 7.56146 19.7877 7.42257 19.7992 7.27893C19.502 7.33674 19.3668 7.20945 19.3936 6.89698C19.4382 6.85514 19.4761 6.80886 19.5072 6.7581Z" fill="#040302"/>
<path fill-rule="evenodd" clip-rule="evenodd" d="M18.4362 9.18867C18.8183 9.15165 19.1807 9.2211 19.5233 9.397C19.6131 9.62162 19.5482 9.76051 19.3286 9.81367C19.1397 9.74249 18.945 9.70777 18.7445 9.7095C18.5202 9.732 18.2985 9.76092 18.0792 9.79631C17.8596 9.6228 17.8704 9.46079 18.1116 9.3102C18.2246 9.2719 18.3327 9.23141 18.4362 9.18867Z" fill="#050403"/>
<path fill-rule="evenodd" clip-rule="evenodd" d="M20.0912 11.3414C20.1235 11.7287 20.1343 12.1223 20.1237 12.522C19.9817 13.3596 19.5112 13.7994 18.712 13.8414C18.0244 13.7656 17.5809 13.3721 17.3815 12.6609C17.3598 12.2095 17.3598 11.7581 17.3815 11.3067C18.0936 11.68 18.8346 11.7552 19.6044 11.5324C19.7662 11.4651 19.9285 11.4014 20.0912 11.3414Z" fill="#F4A86B"/>
<path fill-rule="evenodd" clip-rule="evenodd" d="M20.0912 11.3414C20.0931 11.3226 20.1039 11.311 20.1236 11.3067C20.1666 11.7174 20.1666 12.1224 20.1236 12.522C20.1343 12.1223 20.1235 11.7287 20.0912 11.3414Z" fill="#8D613E"/>
<path fill-rule="evenodd" clip-rule="evenodd" d="M15.548 14.0845C15.3503 14.0945 15.1556 14.0829 14.9638 14.0498C14.941 13.9728 14.8978 13.9092 14.834 13.8588C14.2283 13.8472 13.6225 13.8356 13.0167 13.8241C13.1573 13.4884 13.3845 13.2454 13.6982 13.0949C14.7544 12.8239 15.8145 12.5751 16.8785 12.3484C16.8822 12.929 17.0769 13.4209 17.4626 13.8241C16.8677 13.8356 16.2727 13.8472 15.6778 13.8588C15.6053 13.9157 15.562 13.9909 15.548 14.0845Z" fill="#EFF7FB"/>
<path fill-rule="evenodd" clip-rule="evenodd" d="M23.4987 13.0081C23.6727 13.2539 23.7701 13.5317 23.7908 13.8414C22.5359 13.8472 21.2811 13.8414 20.0264 13.8241C20.404 13.417 20.6095 12.9251 20.643 12.3484C21.5949 12.5683 22.5468 12.7882 23.4987 13.0081Z" fill="#EFF8FC"/>
<path fill-rule="evenodd" clip-rule="evenodd" d="M23.4987 13.0081C23.9785 13.0759 24.3138 13.3478 24.5047 13.8241C24.2669 13.8415 24.029 13.8472 23.7907 13.8415C23.77 13.5317 23.6726 13.2539 23.4987 13.0081Z" fill="#C3E9F7"/>
<path fill-rule="evenodd" clip-rule="evenodd" d="M14.9638 14.0497C15.1556 14.0829 15.3503 14.0945 15.5479 14.0845C15.5494 14.2091 15.6035 14.2959 15.7102 14.3449C18.4253 14.3622 21.1405 14.368 23.8556 14.3622C23.8556 14.5127 23.8556 14.6632 23.8556 14.8136C20.221 14.8136 16.5864 14.8136 12.9518 14.8136C12.9518 14.6632 12.9518 14.5127 12.9518 14.3622C13.5685 14.368 14.1851 14.3622 14.8015 14.3449C14.931 14.2934 14.985 14.195 14.9638 14.0497Z" fill="#7A8C97"/>
<path fill-rule="evenodd" clip-rule="evenodd" d="M23.8556 14.3622C24.0936 14.3622 24.3316 14.3622 24.5696 14.3622C24.5709 14.5252 24.5817 14.6872 24.602 14.8484C20.7132 14.8599 16.8298 14.8484 12.9518 14.8136C16.5864 14.8136 20.221 14.8136 23.8556 14.8136C23.8556 14.6632 23.8556 14.5127 23.8556 14.3622Z" fill="#57666F"/>
<path fill-rule="evenodd" clip-rule="evenodd" d="M23.9206 15.3692C23.9185 15.6939 23.9293 16.018 23.9531 16.3414C23.5853 16.3414 23.2175 16.3414 22.8497 16.3414C22.8798 16.1586 22.8366 16.0024 22.7199 15.8727C22.6065 15.8378 22.5038 15.8552 22.4116 15.9248C22.3676 16.0589 22.3514 16.1978 22.3629 16.3414C19.9615 16.3414 17.56 16.3414 15.1586 16.3414C15.1639 16.2251 15.1585 16.1094 15.1424 15.9942C15.0112 15.8271 14.8706 15.8155 14.7205 15.9595C14.6771 16.0819 14.6609 16.2092 14.6718 16.3414C14.066 16.3414 13.4603 16.3414 12.8545 16.3414C12.8577 16.017 12.8685 15.6929 12.8869 15.3692C16.5648 15.3692 20.2427 15.3692 23.9206 15.3692Z" fill="#F1FAFE"/>
<path fill-rule="evenodd" clip-rule="evenodd" d="M23.9206 15.3692C24.1585 15.3692 24.3965 15.3692 24.6345 15.3692C24.6529 15.6929 24.6637 16.017 24.6669 16.3414C24.429 16.3414 24.191 16.3414 23.953 16.3414C23.9293 16.018 23.9184 15.6939 23.9206 15.3692Z" fill="#C7EDFC"/>
<path fill-rule="evenodd" clip-rule="evenodd" d="M22.3305 17.3484C22.3305 17.1979 22.3305 17.0474 22.3305 16.897C19.9507 16.897 17.5708 16.897 15.191 16.897C15.191 17.0474 15.191 17.1979 15.191 17.3484C15.159 17.1931 15.1482 17.0311 15.1586 16.8622C17.56 16.8622 19.9615 16.8622 22.3629 16.8622C22.3733 17.0311 22.3625 17.1931 22.3305 17.3484Z" fill="#677681"/>
<path fill-rule="evenodd" clip-rule="evenodd" d="M12.7896 16.8622C13.417 16.8622 14.0444 16.8622 14.6718 16.8622C14.6718 17.0243 14.6718 17.1863 14.6718 17.3484C14.0444 17.3484 13.417 17.3484 12.7896 17.3484C12.7896 17.1863 12.7896 17.0243 12.7896 16.8622Z" fill="#788A96"/>
<path fill-rule="evenodd" clip-rule="evenodd" d="M22.3305 17.3484C19.9507 17.3484 17.5708 17.3484 15.191 17.3484C15.191 17.1979 15.191 17.0474 15.191 16.897C17.5708 16.897 19.9507 16.897 22.3305 16.897C22.3305 17.0474 22.3305 17.1979 22.3305 17.3484Z" fill="#798C97"/>
<path fill-rule="evenodd" clip-rule="evenodd" d="M22.8496 16.897C23.239 16.897 23.6285 16.897 24.0179 16.897C24.0179 17.0474 24.0179 17.1979 24.0179 17.3484C23.6285 17.3484 23.239 17.3484 22.8496 17.3484C22.8496 17.1979 22.8496 17.0474 22.8496 16.897Z" fill="#798B97"/>
<path fill-rule="evenodd" clip-rule="evenodd" d="M22.8496 16.897C23.4714 16.8624 24.0988 16.8508 24.7318 16.8622C24.7318 17.0243 24.7318 17.1863 24.7318 17.3484C24.4939 17.3484 24.2558 17.3484 24.0179 17.3484C24.0179 17.1979 24.0179 17.0474 24.0179 16.897C23.6285 16.897 23.239 16.897 22.8496 16.897Z" fill="#596B75"/>
<path fill-rule="evenodd" clip-rule="evenodd" d="M12.7247 17.8692C13.3737 17.8692 14.0227 17.8692 14.6718 17.8692C14.6718 18.0544 14.6718 18.2396 14.6718 18.4248C14.0659 18.4306 13.4601 18.4248 12.8545 18.4074C12.8042 18.3652 12.7663 18.3132 12.7409 18.2511C12.7247 18.1243 12.7193 17.997 12.7247 17.8692Z" fill="#F1FAFE"/>
<path fill-rule="evenodd" clip-rule="evenodd" d="M15.1586 17.8692C17.56 17.8692 19.9615 17.8692 22.3629 17.8692C22.3629 18.0544 22.3629 18.2396 22.3629 18.4248C19.9615 18.4248 17.56 18.4248 15.1586 18.4248C15.1586 18.2396 15.1586 18.0544 15.1586 17.8692Z" fill="#F1FAFE"/>
<path fill-rule="evenodd" clip-rule="evenodd" d="M24.0503 17.8692C24.0665 18.0622 24.0449 18.2474 23.9854 18.4248C23.6068 18.4248 23.2282 18.4248 22.8496 18.4248C22.8496 18.2396 22.8496 18.0544 22.8496 17.8692C23.2498 17.8692 23.6501 17.8692 24.0503 17.8692Z" fill="#F1FAFF"/>
<path fill-rule="evenodd" clip-rule="evenodd" d="M24.0504 17.8692C24.2992 17.8692 24.548 17.8692 24.7968 17.8692C24.8021 17.997 24.7967 18.1243 24.7805 18.2511C24.7655 18.3008 24.7384 18.3413 24.6994 18.3727C24.4651 18.4223 24.2271 18.4397 23.9855 18.4248C24.045 18.2474 24.0666 18.0622 24.0504 17.8692Z" fill="#C7EDFC"/>
</g>
<path d="M5.66797 18.1961L5.25312 18.6144L5.87891 19.2418L6.51172 19.8693H5.26016H4.01562V19.3115V18.7538H2.25781H0.5V25.3769V32H1.09766H1.69531V25.9695V19.939H2.25781H2.82031V25.9695V32H3.41797H4.01562V30.0131V28.0261H5.26016H6.51172L5.87891 28.6536L5.24609 29.281L5.68906 29.7133L6.125 30.1525L7.07422 29.2113L8.02344 28.2702L8.95859 29.1974C9.47188 29.6993 9.92188 30.1176 9.95703 30.1176C9.99922 30.1176 10.2172 29.9294 10.4492 29.6993L10.8641 29.281L10.2383 28.6536L9.60547 28.0261H11.5391H13.4727L12.8398 28.6536L12.2141 29.281L12.6289 29.6993C12.8609 29.9294 13.0648 30.1176 13.0859 30.1176C13.107 30.1176 13.55 29.7063 14.0703 29.2113L15.0195 28.312L15.9336 29.2183C16.4398 29.7133 16.8828 30.1176 16.918 30.1176C16.9602 30.1176 17.1781 29.9294 17.4102 29.6993L17.825 29.281L17.1992 28.6536L16.5664 28.0261H18.5H20.4336L19.8008 28.6536L19.175 29.281L19.5898 29.6993C19.8219 29.9294 20.0398 30.1176 20.082 30.1176C20.1172 30.1176 20.5672 29.6993 21.0805 29.1974L22.0156 28.2702L22.9297 29.1765C23.4289 29.6715 23.8648 30.0898 23.9 30.1037C23.9281 30.1107 24.1391 29.9294 24.3711 29.6993L24.7859 29.281L24.1602 28.6536L23.5273 28.0261H25.4609H27.3945L26.7617 28.6536L26.1359 29.281L26.5508 29.6993C26.7828 29.9294 27.0008 30.1176 27.043 30.1176C27.0781 30.1176 27.5281 29.6993 28.0414 29.1974L28.9766 28.2702L29.9258 29.2113L30.875 30.1525L31.3109 29.7133L31.7539 29.281L31.1211 28.6536L30.4883 28.0261H31.7398H32.9844V30.0131V32H33.582H34.1797V25.9695V19.939H34.7422H35.3047V25.9695V32H35.9023H36.5V25.3769V18.7538H34.7422H32.9844V19.3115V19.8693H31.7398H30.4883L31.1211 19.2418L31.7469 18.6144L31.332 18.1961C31.1 17.966 30.882 17.7778 30.8398 17.7778C30.8047 17.7778 30.3617 18.1891 29.8555 18.6841L28.9414 19.5904L28.0273 18.6841C27.5281 18.1891 27.0852 17.7778 27.043 17.7778C27.0078 17.7778 26.7969 17.959 26.5719 18.1752L26.1641 18.5725L26.8109 19.2209L27.4648 19.8693H25.5102H23.5484L23.9773 19.3952C24.2094 19.1373 24.4836 18.8514 24.582 18.7608L24.7648 18.5935L24.357 18.1821C24.1391 17.959 23.9211 17.7778 23.8789 17.7778C23.8367 17.7778 23.3937 18.1891 22.8945 18.6841L21.9805 19.5904L21.0664 18.6841C20.5602 18.1891 20.1172 17.7778 20.082 17.7778C20.0469 17.7778 19.8359 17.959 19.6109 18.1752L19.2031 18.5725L19.85 19.2209L20.5039 19.8693H18.5H16.4961L17.15 19.2209L17.7969 18.5725L17.3891 18.1752C17.1641 17.959 16.9531 17.7778 16.918 17.7778C16.8758 17.7778 16.4328 18.1891 15.9336 18.6841L15.0195 19.5904L14.1055 18.6841C13.5992 18.1891 13.1562 17.7778 13.1211 17.7778C13.0789 17.7778 12.868 17.959 12.643 18.1821L12.2422 18.5865L12.8891 19.2279L13.5359 19.8693H11.5391H9.53516L10.1891 19.2209L10.8359 18.5725L10.4281 18.1752C10.2031 17.959 9.99219 17.7778 9.95703 17.7778C9.91484 17.7778 9.47188 18.1891 8.97266 18.6841L8.05859 19.5904L7.14453 18.6841C6.63828 18.1891 6.19531 17.7778 6.16016 17.7778C6.11797 17.7778 5.9 17.966 5.66797 18.1961ZM5.87891 21.7516L5.24609 22.3791L5.68906 22.8113L6.125 23.2505L7.07422 22.3094L8.02344 21.3682L8.95859 22.2954C9.47188 22.7974 9.92188 23.2157 9.95703 23.2157C9.99922 23.2157 10.2172 23.0275 10.4492 22.7974L10.8641 22.3791L10.2383 21.7516L9.60547 21.1242H11.5391H13.4727L12.8398 21.7516L12.207 22.3791L12.65 22.8113L13.0859 23.2505L14.0562 22.2885L15.0266 21.3333L15.9617 22.2745C16.482 22.7904 16.925 23.2157 16.9461 23.2157C16.9742 23.2157 17.1781 23.0275 17.4102 22.7974L17.825 22.3791L17.1992 21.7516L16.5664 21.1242H18.5H20.4336L19.8008 21.7516L19.175 22.3791L19.5898 22.7974C19.8219 23.0275 20.0469 23.2157 20.0891 23.2157C20.1313 23.2157 20.5742 22.7904 21.0664 22.2675L21.9664 21.3264L22.9437 22.2885L23.9141 23.2505L24.35 22.8113L24.793 22.3791L24.1602 21.7516L23.5273 21.1242H25.4609H27.3945L26.7617 21.7516L26.1359 22.3791L26.5508 22.7974C26.7828 23.0275 27.0008 23.2157 27.043 23.2157C27.0781 23.2157 27.5281 22.7974 28.0414 22.2954L28.9766 21.3682L29.9258 22.3094L30.875 23.2505L31.3109 22.8113L31.7539 22.3791L31.1211 21.7516L30.4883 21.1242H31.7398H32.9844V23.9477V26.7712H31.7398H30.4883L31.1211 26.1438L31.7469 25.5163L31.332 25.098C31.1 24.868 30.882 24.6797 30.8398 24.6797C30.8047 24.6797 30.3617 25.0911 29.8555 25.5861L28.9414 26.4924L28.0273 25.5861C27.5281 25.0911 27.0852 24.6797 27.043 24.6797C27.0078 24.6797 26.7969 24.861 26.5719 25.0771L26.1641 25.4745L26.8109 26.1229L27.4648 26.7712H25.4961H23.5273L24.1602 26.1438L24.7859 25.5163L24.3711 25.098C24.1391 24.868 23.9211 24.6797 23.8789 24.6797C23.8367 24.6797 23.3937 25.0911 22.8945 25.5861L21.9805 26.4924L21.0664 25.5861C20.5602 25.0911 20.1172 24.6797 20.082 24.6797C20.0398 24.6797 19.8289 24.861 19.6039 25.0841L19.2102 25.4815L19.85 26.1298L20.4898 26.7712H18.493H16.4961L17.1641 26.1508L17.832 25.5233L17.4102 25.105C17.1781 24.868 16.9602 24.6797 16.918 24.6797C16.8828 24.6797 16.4398 25.0911 15.9336 25.5861L15.0195 26.4924L14.1055 25.5861C13.6062 25.0911 13.1633 24.6797 13.1211 24.6797C13.0789 24.6797 12.8609 24.868 12.6289 25.098L12.2141 25.5163L12.8398 26.1438L13.4727 26.7712H11.5039H9.53516L10.1891 26.1229L10.8359 25.4745L10.4281 25.0771C10.2031 24.861 9.99219 24.6797 9.95703 24.6797C9.92188 24.6797 9.47891 25.0911 8.97266 25.5861L8.05859 26.4924L7.14453 25.5861C6.64531 25.0911 6.20234 24.6797 6.16016 24.6797C6.11797 24.6797 5.9 24.868 5.66797 25.098L5.25312 25.5163L5.87891 26.1438L6.51172 26.7712H5.26016H4.01562V23.9477V21.1242H5.26016H6.51172L5.87891 21.7516Z" fill="#363432"/>
<defs>
<clipPath id="clip0_902_3395">
<rect width="16.6154" height="17.7778" fill="white" transform="translate(19.8846)"/>
</clipPath>
<clipPath id="clip1_902_3395">
<rect width="16.6154" height="17.7778" fill="white" transform="translate(0.5)"/>
</clipPath>
<clipPath id="clip2_902_3395">
<rect width="16.6154" height="17.7778" fill="white" transform="translate(10.4692 1.18518)"/>
</clipPath>
</defs>
</svg>