<svg width="24" height="24" viewBox="0 0 24 24" fill="none" xmlns="http://www.w3.org/2000/svg">
<g opacity="0.98">
<path fill-rule="evenodd" clip-rule="evenodd" d="M17.2734 -0.0234375C17.7735 -0.0234375 18.2734 -0.0234375 18.7734 -0.0234375C21.7011 0.544875 23.4355 2.29488 23.9766 5.22656C23.9766 5.71092 23.9766 6.19533 23.9766 6.67969C23.8075 7.8037 23.3778 8.81934 22.6875 9.72656C20.8756 11.5931 19.0397 13.4369 17.1797 15.2578C17.1641 15.2422 17.1484 15.2265 17.1328 15.2109C17.6392 13.6643 17.5923 12.1331 16.9922 10.6172C17.9915 9.59438 18.9993 8.57878 20.0156 7.57031C20.7075 6.57722 20.7543 5.56158 20.1562 4.52344C19.2035 3.32242 18.0395 3.0646 16.6641 3.75C16.5547 3.82813 16.4453 3.90625 16.3359 3.98438C14.6094 5.71092 12.8828 7.43752 11.1562 9.16406C10.3626 10.2219 10.3313 11.3001 11.0625 12.3984C11.5088 12.946 12.0791 13.2898 12.7734 13.4297C12.7082 13.7587 12.5754 14.0555 12.375 14.3203C11.7578 14.9375 11.1406 15.5547 10.5234 16.1719C10.3415 16.1519 10.1697 16.0894 10.0078 15.9844C7.78397 14.4877 6.8543 12.4018 7.21875 9.72656C7.44989 8.56106 7.96552 7.54542 8.76562 6.67969C10.5716 4.85808 12.3919 3.05338 14.2266 1.26563C15.1338 0.575334 16.1494 0.145645 17.2734 -0.0234375Z" fill="#F5C136"/>
<path fill-rule="evenodd" clip-rule="evenodd" d="M6.67969 23.9766C6.19533 23.9766 5.71092 23.9766 5.22656 23.9766C2.63717 23.5203 0.941855 22.036 0.140625 19.5234C0.0877116 19.2509 0.0330241 18.9853 -0.0234375 18.7266C-0.0234375 18.2422 -0.0234375 17.7578 -0.0234375 17.2734C0.145451 16.1502 0.575138 15.1346 1.26563 14.2266C3.07813 12.3516 4.92188 10.5078 6.79688 8.69531C6.71981 9.06666 6.64167 9.44166 6.5625 9.82031C6.46875 10.5078 6.46875 11.1953 6.5625 11.8828C6.6593 12.3951 6.78431 12.895 6.9375 13.3828C5.95313 14.3672 4.96875 15.3516 3.98438 16.3359C3.29537 17.2853 3.21724 18.2852 3.75 19.3359C4.69411 20.6013 5.87381 20.8904 7.28906 20.2031C7.39842 20.125 7.50783 20.0469 7.61719 19.9688C9.35939 18.2265 11.1015 16.4844 12.8438 14.7422C13.691 13.495 13.605 12.3153 12.5859 11.2031C12.174 10.8644 11.7053 10.6378 11.1797 10.5234C11.2421 10.2579 11.3437 10.008 11.4844 9.77344C12.1158 9.09511 12.7643 8.43103 13.4297 7.78125C13.5298 7.75148 13.6235 7.76714 13.7109 7.82813C16.039 9.24206 17.0624 11.3124 16.7813 14.0391C16.5652 15.2524 16.0495 16.3149 15.2344 17.2266C13.4128 19.0638 11.5768 20.8841 9.72656 22.6875C8.81855 23.378 7.80295 23.8077 6.67969 23.9766Z" fill="#F5C136"/>
</g>
</svg>
