<svg width="78" height="96" viewBox="0 0 78 96" fill="none" xmlns="http://www.w3.org/2000/svg"><path d="M58.758 54.63c-2.099 0-3.795-1.647-3.795-3.684V31.353c0-.017.131-3.701-1.688-7.41-2.256-4.61-6.558-7.284-12.784-7.947h-2.99c-6.331.68-10.669 3.422-12.898 8.167-1.714 3.65-1.583 7.156-1.583 7.198v19.593c0 2.037-1.697 3.684-3.795 3.684-2.099 0-3.795-1.647-3.795-3.684V31.616c-.035-.908-.079-5.535 2.256-10.518 2.37-5.05 7.625-11.315 19.22-12.47.131-.017.254-.017.385-.017h3.393c.13 0 .262 0 .384.017 11.595 1.155 16.85 7.42 19.22 12.47 2.335 4.983 2.291 9.61 2.256 10.518v19.33c0 2.037-1.696 3.684-3.795 3.684z" fill="#CECDC9"/><path d="M58.758 55.241c-2.44 0-4.433-1.927-4.433-4.304V31.32c0-.026.104-3.592-1.627-7.123-2.151-4.397-6.27-6.953-12.25-7.598h-2.921c-6.078.654-10.231 3.286-12.356 7.81-1.644 3.498-1.522 6.876-1.522 6.91v19.618c0 2.369-1.985 4.304-4.433 4.304-2.449 0-4.433-1.927-4.433-4.304v-19.32c-.035-.884-.088-5.654 2.317-10.765 2.44-5.195 7.835-11.638 19.727-12.827.149-.017.297-.025.455-.025h3.393c.148 0 .306 0 .454.025 11.893 1.18 17.297 7.624 19.728 12.827 2.396 5.11 2.343 9.89 2.308 10.79v19.304c0 2.368-1.985 4.304-4.433 4.304zM37.5 15.368h3.061c6.462.688 10.94 3.48 13.291 8.294 1.863 3.803 1.75 7.538 1.75 7.7v19.575c0 1.698 1.416 3.073 3.165 3.073s3.165-1.375 3.165-3.073v-19.32c.035-.884.079-5.4-2.195-10.264-2.3-4.907-7.406-10.985-18.704-12.114a4 4 0 0 0-.323-.017h-3.393c-.105 0-.219 0-.324.017-11.298 1.12-16.404 7.208-18.704 12.114-2.282 4.864-2.23 9.38-2.204 10.238v19.355c0 1.698 1.417 3.073 3.166 3.073s3.165-1.375 3.165-3.073V31.387c0-.034-.14-3.684 1.636-7.479 2.326-4.957 6.829-7.827 13.405-8.523h.07z" fill="#525458"/><path d="M19.863 29.002c.568-2.59 1.434-5.144 2.675-7.504a20.4 20.4 0 0 1 2.003-3.082c.918-1.188 1.932-2.309 3.078-3.302a18 18 0 0 1 3.856-2.555c1.408-.688 2.895-1.197 4.416-1.588a46 46 0 0 1 3.55-.73h-.236c-.131 0-.262 0-.384.017-11.596 1.155-16.92 6.554-19.29 11.605-1.82 3.88-2.117 8.412-2.178 10.271.052.051.105.094.157.145.543.466 1.12.908 1.723 1.324.079-1.554.315-3.099.647-4.61z" fill="#B3B0A6" style="mix-blend-mode:screen"/><path d="M54.622 39.494v11.673c0 2.037 1.696 3.684 3.795 3.684 2.098 0 3.795-1.647 3.795-3.684V39.494zm-39.192 0v11.452c0 2.037 1.696 3.684 3.795 3.684 2.098 0 3.795-1.647 3.795-3.684V39.494z" fill="#A9A69B" style="mix-blend-mode:multiply"/><path d="M64.057 42.873h-50.14S7.62 42.822 7.62 49.91l4.03 31.605s.508 5.865 9.83 5.865H56.5c9.322 0 9.83-5.865 9.83-5.865l4.03-31.605c0-7.097-6.296-7.037-6.296-7.037z" fill="#8E8D8D"/><path d="M56.502 88H21.48c-9.48 0-10.397-5.976-10.45-6.41L7 49.987v-.076c0-2.445.708-4.363 2.107-5.713 2.02-1.944 4.705-1.944 4.827-1.936h50.14c.22 0 2.842.043 4.819 1.936C70.292 45.547 71 47.465 71 49.91v.077L66.969 81.59c-.053.433-.97 6.41-10.45 6.41zM8.259 49.876l4.023 31.57v.026c.026.212.612 5.306 9.199 5.306H56.5c3.621 0 6.367-.943 7.932-2.717 1.128-1.282 1.268-2.572 1.268-2.589v-.025l4.031-31.57c0-2.08-.586-3.694-1.723-4.797-1.626-1.58-3.9-1.596-3.934-1.596h-50.14s-2.31.017-3.944 1.596c-1.137 1.103-1.723 2.716-1.723 4.796z" fill="#3B3B3C"/><path d="M64.057 42.873h-50.14S7.62 42.822 7.62 49.91l4.03 31.604s.508 5.866 9.83 5.866H56.5c9.322 0 9.83-5.866 9.83-5.866l4.03-31.604c0-7.097-6.296-7.037-6.296-7.037zm-2.143 35.271s-.42 4.924-8.246 4.924H24.296c-7.817 0-8.246-4.924-8.246-4.924l-3.384-26.51c0-5.952 5.282-5.91 5.282-5.91h42.051s5.282-.042 5.282 5.91l-3.384 26.51z" fill="#1C1B14" style="mix-blend-mode:multiply" opacity=".48"/><path d="M8.828 45.479c.227.144.454.288.682.441 1.285.824 2.588 1.647 3.935 2.394a4.8 4.8 0 0 1 1.425-1.579 50 50 0 0 1-2.099-3.42 4 4 0 0 1-.148-.264c-1.11.246-2.702.874-3.795 2.436zm9.907 39.397c.463-.806.918-1.621 1.346-2.445-1.469-.518-2.404-1.282-2.999-2.029-1.076.688-2.16 1.384-3.218 2.097-.498.331-.988.68-1.469 1.019.735 1.23 2.204 2.7 5.098 3.42.42-.687.83-1.374 1.233-2.07zM65.001 49.41c.088-.043.166-.086.245-.12a61 61 0 0 1 3.078-1.34c.551-.23 1.11-.45 1.67-.672-.62-2.08-1.967-3.183-3.218-3.76-1.224 1.078-2.474 2.122-3.725 3.175.796.543 1.548 1.392 1.95 2.716M61.416 79.63c-.41.747-1.136 1.638-2.422 2.326.035.093.061.187.088.28a78 78 0 0 0 1.757 4.618c2.379-.662 3.725-1.85 4.495-2.937a80 80 0 0 1-3.918-4.287" fill="#78776F" style="mix-blend-mode:multiply" opacity=".48"/><path d="M43.175 53.025c0-2.41-2.011-4.363-4.494-4.363-2.484 0-4.495 1.953-4.495 4.363 0 1.724 1.023 3.21 2.518 3.922l-1.95 7.938h7.853l-1.95-7.938c1.486-.713 2.518-2.198 2.518-3.922" fill="#231F20"/><path d="m14.477 65.725-1.732-13.047s-.612-4.296 1.907-5.866c0 0 .839-1.036 4.538-1.138 3.699-.11 15.792.272 15.792.272s-18.993-.323-20.383 3.59c-1.12 3.15-.114 16.198-.114 16.198zM63.13 68.28l-1.172 10.272s-.507 3.42-5.43 4.405l-10.974.051s9.514-.704 11.98-1.68c2.465-.977 3.244-3.48 3.419-4.236.166-.764 2.186-8.803 2.186-8.803z" fill="#9B9999" style="mix-blend-mode:screen"/><path d="M21.28 72.21a1.8 1.8 0 0 0-1.347-1.332c-.752-.17-1.574.068-2.055.67-.14.17-.227.357-.28.552-.017.034-.035.06-.044.094-.052.118-.078.246-.105.365a2.6 2.6 0 0 0-.026.738c.026.246.088.476.201.705.114.238.315.433.56.56.708.39 1.618.28 2.247-.22.35-.28.621-.62.778-1.028.132-.348.158-.73.07-1.086zm1.643 1.164c-.271 0-.568.186-.656.441-.078.238.07.458.332.458.263 0 .569-.186.656-.441.079-.238-.07-.458-.332-.458m1.635 4.983c-.009-.051-.035-.094-.061-.145s-.044-.093-.079-.144c-.183-.23-.454-.331-.743-.348-.114 0-.219 0-.323.034a3 3 0 0 0-.377-.128.48.48 0 0 0-.306.034.6.6 0 0 0-.262.221c-.218.297-.245.68-.183 1.027.052.314.2.62.463.815.385.28.944.145 1.285-.127a1.8 1.8 0 0 0 .403-.416 1.2 1.2 0 0 0 .122-.238c.018-.034.026-.076.035-.11.035-.161.052-.297.017-.458zm2.799-4.211c-.385 0-.743.662-.236.662.385 0 .743-.662.236-.662m29.696-17.012c-.21-.407-.595-.764-.997-.984a2.4 2.4 0 0 0-1.574-.264c-.56.094-1.05.382-1.47.739-.655.569-1.127 1.468-.97 2.334.053.263.184.518.376.713.123.247.297.467.525.629.7.492 1.679.356 2.422.034.796-.34 1.618-1.01 1.836-1.868.123-.475.07-.908-.157-1.35zm1.267-5.492s-.026-.06-.043-.077a.09.09 0 0 0-.079-.042l-.166-.042h-.079c-.044-.009-.087 0-.13.008-.036 0-.062.017-.088.034a.4.4 0 0 0-.123.085c-.035.042-.079.085-.096.144l-.017.077v.076l.026.068s.052.05.087.068c.026.017.044.017.07.017.044.008.079 0 .123 0l.192-.043.07-.025s.07-.034.105-.068c.026-.017.044-.034.052-.06a.2.2 0 0 0 .053-.093l.017-.06v-.059zm-5.622-2.708a.9.9 0 0 0-.429-.382 2.3 2.3 0 0 0-.795-.204 2.65 2.65 0 0 0-1.583.39c-.525.323-.91 1.002-.63 1.596.026.06.061.11.105.162a.9.9 0 0 0 .131.28c.132.204.333.356.569.433.236.076.524.05.77.008a2.87 2.87 0 0 0 1.486-.747c.42-.399.673-.993.384-1.536z" fill="#fff" style="mix-blend-mode:screen" opacity=".36"/><path d="M59.92 51.328a.33.33 0 0 0-.13-.204 1 1 0 0 0-.158-.102c-.026-.076-.061-.144-.096-.212a.6.6 0 0 0-.088-.119c-.07-.068-.14-.144-.218-.195a1 1 0 0 0-.481-.17 1.45 1.45 0 0 0-.735.093 1.4 1.4 0 0 0-.315.17 1.6 1.6 0 0 0-.288.246 1.9 1.9 0 0 0-.402.663c-.044.118-.07.246-.096.373-.01.06-.018.119-.018.187 0 .093 0 .204.035.297.026.085.061.17.122.246a.55.55 0 0 0 .202.17l.105.05a1 1 0 0 0 .244.298l-.105-.102c.097.102.202.17.341.204.15.025.298.034.446 0 .306-.077.586-.255.796-.475a3 3 0 0 0 .402-.544c.035-.034.079-.06.114-.093.035-.034.07-.06.096-.094.123-.127.254-.322.254-.509l-.018-.161zm1.356 10.407c0-.085-.009-.161-.06-.229l-.088-.085s-.018-.008-.018-.017a.6.6 0 0 0-.324-.093h-.13c-.07.025-.14.05-.202.093a.4.4 0 0 0-.122.085.5.5 0 0 0-.14.153l-.053.11-.026.12c0 .059 0 .11.035.16a.2.2 0 0 0 .061.094v.017s.044.05.07.076v.068a.2.2 0 0 0 .088.119.16.16 0 0 0 .079.05.24.24 0 0 0 .157.035h.114l.122-.051a.4.4 0 0 0 .166-.11.4.4 0 0 0 .131-.145c.035-.068.07-.136.097-.204v-.025a.6.6 0 0 0 .035-.136l.026-.102zm-7.502 14.381c-.018-.077-.062-.153-.097-.221q-.04-.075-.096-.136c-.079-.076-.148-.153-.245-.204a1.4 1.4 0 0 0-.62-.187 1.33 1.33 0 0 0-1.155.603.8.8 0 0 0-.14.408v.127c0 .119.018.246.062.356.043.11.087.23.166.332.07.093.157.178.253.246.228.17.542.22.822.153a1.43 1.43 0 0 0 1.015-.9.8.8 0 0 0 .07-.357c0-.076 0-.161-.027-.237zM30.96 73.552a.62.62 0 0 0-.56.382c-.07.204.061.39.28.39.218 0 .48-.16.56-.382.07-.203-.062-.39-.28-.39" fill="#fff" style="mix-blend-mode:screen" opacity=".36"/></svg>