<svg width="27" height="32" viewBox="0 0 27 32" fill="none" xmlns="http://www.w3.org/2000/svg">
<path fill-rule="evenodd" clip-rule="evenodd" d="M1.01193 0C1.77657 0 2.54121 0 3.30585 0C3.61216 0.155657 3.76082 0.405657 3.75189 0.75C3.71596 1.01828 3.5885 1.23703 3.36957 1.40625C2.95053 1.49234 2.52572 1.52359 2.09517 1.5C2.07397 2.45924 2.09521 3.41757 2.15889 4.375C3.0993 4.80492 4.03386 5.25284 4.96258 5.71875C5.46679 6.1541 5.46679 6.59163 4.96258 7.03125C4.02022 7.46219 3.08564 7.91006 2.15889 8.375C2.07393 12.8958 2.07393 17.4167 2.15889 21.9375C3.07221 22.3854 3.98556 22.8333 4.89886 23.2812C5.14131 23.5369 5.21567 23.839 5.12188 24.1875C5.07186 24.2991 4.99756 24.3929 4.89886 24.4688C3.98556 24.9167 3.07221 25.3646 2.15889 25.8125C2.09518 27.3744 2.07395 28.9369 2.09517 30.5C4.38922 30.5104 6.68315 30.5 8.97695 30.4688C10.4418 29.719 11.9287 29.0211 13.4374 28.375C13.7294 28.38 13.9525 28.505 14.1064 28.75C14.1967 29.3283 14.2286 29.9116 14.202 30.5C16.7722 30.5104 19.3422 30.5 21.9121 30.4688C21.4962 30.3193 21.1245 30.1005 20.797 29.8125C20.5945 29.3474 20.7113 28.9828 21.1475 28.7188C22.3872 28.142 23.6192 27.5483 24.8433 26.9375C24.896 26.669 24.9279 26.3982 24.9388 26.125C25.0439 25.7199 25.3094 25.5116 25.7353 25.5C26.078 25.5133 26.301 25.6799 26.4044 26C26.5502 26.6124 26.529 27.2166 26.3407 27.8125C26.2663 27.8854 26.192 27.9583 26.1177 28.0312C25.1697 28.5066 24.2139 28.9649 23.2503 29.4062C24.0574 29.8021 24.8645 30.1979 25.6716 30.5938C25.9718 30.8525 26.0674 31.1754 25.9584 31.5625C25.8504 31.7411 25.7123 31.8869 25.5442 32C21.4024 32 17.2606 32 13.1188 32C12.9064 31.8979 12.7684 31.7312 12.7046 31.5C12.6149 31.1233 12.5937 30.7483 12.6409 30.375C11.5307 30.9455 10.4156 31.4872 9.29555 32C6.53436 32 3.77311 32 1.01193 32C0.742004 31.849 0.582704 31.6199 0.534028 31.3125C0.491546 29.3125 0.491546 27.3125 0.534028 25.3125C0.5603 25.0631 0.677118 24.8651 0.884489 24.7188C1.44674 24.4534 1.99899 24.1722 2.54121 23.875C1.99899 23.5778 1.44674 23.2966 0.884489 23.0312C0.677118 22.8849 0.5603 22.6869 0.534028 22.4375C0.491546 17.5833 0.491546 12.7292 0.534028 7.875C0.5603 7.62556 0.677118 7.42763 0.884489 7.28125C1.50243 6.97819 2.11839 6.67613 2.73237 6.375C2.17666 6.0608 1.60318 5.77955 1.01193 5.53125C0.831391 5.4375 0.693328 5.30208 0.597748 5.125C0.494133 3.64896 0.472895 2.16979 0.534028 0.6875C0.582704 0.380149 0.742004 0.150982 1.01193 0Z" fill="#000002"/>
<path fill-rule="evenodd" clip-rule="evenodd" d="M5.15374 0C12.0992 0 19.0447 0 25.9902 0C26.2601 0.150982 26.4194 0.380149 26.4681 0.6875C26.5106 5.22917 26.5106 9.77081 26.4681 14.3125C26.4478 14.5296 26.3522 14.7066 26.1814 14.8438C25.8203 15.0417 25.4592 15.2396 25.0981 15.4375C25.4299 15.6314 25.7698 15.8085 26.1177 15.9688C26.325 16.1151 26.4419 16.3131 26.4681 16.5625C26.5106 19.0208 26.5106 21.4792 26.4681 23.9375C26.4296 24.3816 26.1853 24.6316 25.7353 24.6875C25.3482 24.6309 25.0827 24.4226 24.9388 24.0625C24.9282 21.7289 24.8963 19.3956 24.8433 17.0625C24.0639 16.7064 23.3099 16.3106 22.5812 15.875C22.3374 15.4871 22.3905 15.1434 22.7405 14.8438C23.4414 14.5 24.1423 14.1562 24.8433 13.8125C24.907 9.70856 24.9282 5.60438 24.907 1.5C18.365 1.51042 11.8231 1.5 5.28118 1.46875C5.14819 1.41924 5.03133 1.34633 4.93072 1.25C4.86107 1.07442 4.78671 0.90775 4.7077 0.75C4.75141 0.437094 4.90013 0.187094 5.15374 0Z" fill="#000002"/>
<path fill-rule="evenodd" clip-rule="evenodd" d="M3.75189 0.75C4.0705 0.75 4.3891 0.75 4.7077 0.75C4.78671 0.90775 4.86107 1.07442 4.93072 1.25C5.03133 1.34633 5.14819 1.41924 5.28118 1.46875C11.8231 1.5 18.365 1.51042 24.907 1.5C24.9282 5.60438 24.907 9.70856 24.8433 13.8125C24.1423 14.1562 23.4414 14.5 22.7405 14.8438C22.3905 15.1434 22.3374 15.4871 22.5812 15.875C23.3099 16.3106 24.0639 16.7064 24.8433 17.0625C24.8963 19.3956 24.9282 21.7289 24.9388 24.0625C25.0827 24.4226 25.3482 24.6309 25.7353 24.6875C25.7353 24.9583 25.7353 25.2292 25.7353 25.5C25.3094 25.5116 25.0439 25.7199 24.9388 26.125C24.9279 26.3982 24.896 26.669 24.8433 26.9375C23.6192 27.5483 22.3872 28.142 21.1475 28.7188C20.7113 28.9828 20.5945 29.3474 20.797 29.8125C21.1245 30.1005 21.4962 30.3193 21.9121 30.4688C19.3422 30.5 16.7722 30.5104 14.202 30.5C14.2286 29.9116 14.1967 29.3283 14.1064 28.75C13.9525 28.505 13.7294 28.38 13.4374 28.375C11.9287 29.0211 10.4418 29.719 8.97695 30.4688C6.68315 30.5 4.38922 30.5104 2.09517 30.5C2.07395 28.9369 2.09518 27.3744 2.15889 25.8125C3.07221 25.3646 3.98556 24.9167 4.89886 24.4688C4.99756 24.3929 5.07186 24.2991 5.12188 24.1875C5.21567 23.839 5.14131 23.5369 4.89886 23.2812C3.98556 22.8333 3.07221 22.3854 2.15889 21.9375C2.07393 17.4167 2.07393 12.8958 2.15889 8.375C3.08564 7.91006 4.02022 7.46219 4.96258 7.03125C5.46679 6.59163 5.46679 6.1541 4.96258 5.71875C4.03386 5.25284 3.0993 4.80492 2.15889 4.375C2.09521 3.41757 2.07397 2.45924 2.09517 1.5C2.52572 1.52359 2.95053 1.49234 3.36957 1.40625C3.5885 1.23703 3.71596 1.01828 3.75189 0.75Z" fill="#F6E4C0"/>
<path fill-rule="evenodd" clip-rule="evenodd" d="M6.23698 4.9375C11.0798 4.92708 15.9225 4.9375 20.7652 4.96875C21.3344 5.22712 21.4725 5.63337 21.1794 6.1875C21.0787 6.28381 20.9619 6.35675 20.8289 6.40625C15.9437 6.44794 11.0585 6.44794 6.17326 6.40625C5.70944 6.16692 5.57136 5.80234 5.75908 5.3125C5.89506 5.14671 6.05436 5.02171 6.23698 4.9375Z" fill="#030305"/>
<path fill-rule="evenodd" clip-rule="evenodd" d="M6.23698 9.5625C11.0585 9.55206 15.88 9.5625 20.7015 9.59375C21.3214 9.81275 21.4807 10.219 21.1794 10.8125C21.0647 10.9261 20.9266 10.999 20.7652 11.0312C15.9012 11.0729 11.0372 11.0729 6.17326 11.0312C5.70944 10.7919 5.57136 10.4273 5.75908 9.9375C5.89347 9.77363 6.05277 9.64863 6.23698 9.5625Z" fill="#020203"/>
<path fill-rule="evenodd" clip-rule="evenodd" d="M6.17326 14.1875C11.0373 14.1771 15.9012 14.1875 20.7652 14.2188C21.3546 14.4644 21.4927 14.8707 21.1794 15.4375C21.0647 15.5511 20.9266 15.624 20.7652 15.6563C15.9012 15.6979 11.0372 15.6979 6.17326 15.6563C5.65764 15.3674 5.54077 14.9612 5.8228 14.4375C5.93826 14.3452 6.05506 14.2619 6.17326 14.1875Z" fill="#000002"/>
<path fill-rule="evenodd" clip-rule="evenodd" d="M6.17326 18.8125C11.0373 18.8021 15.9012 18.8125 20.7652 18.8438C21.2967 19.0434 21.456 19.4079 21.2431 19.9375C21.1236 20.1054 20.9643 20.2201 20.7652 20.2812C15.9224 20.3229 11.0797 20.3229 6.23698 20.2812C5.66815 20.0241 5.53007 19.6179 5.8228 19.0625C5.93826 18.9702 6.05506 18.8869 6.17326 18.8125Z" fill="#010102"/>
<path fill-rule="evenodd" clip-rule="evenodd" d="M6.17326 23.4375C11.0585 23.4271 15.9437 23.4375 20.8289 23.4688C21.3135 23.7016 21.4516 24.0661 21.2431 24.5625C21.1181 24.7272 20.9588 24.8418 20.7652 24.9062C15.9224 24.9479 11.0797 24.9479 6.23698 24.9062C5.66719 24.6464 5.52918 24.2401 5.8228 23.6875C5.93826 23.5952 6.05506 23.5119 6.17326 23.4375Z" fill="#030305"/>
</svg>
