<svg width="19" height="19" viewBox="0 0 19 19" fill="none" xmlns="http://www.w3.org/2000/svg">
<g clip-path="url(#clip0_902_5878)">
<path d="M9.5338 18.0676C14.523 18.0676 18.5676 14.023 18.5676 9.0338C18.5676 4.04457 14.523 0 9.5338 0C4.54457 0 0.5 4.04457 0.5 9.0338C0.5 14.023 4.54457 18.0676 9.5338 18.0676Z" fill="#0088CC"/>
<path fill-rule="evenodd" clip-rule="evenodd" d="M7.01729 5.96875H12.0827C12.2763 5.96875 12.4376 6.00101 12.6312 6.0978C12.857 6.19459 12.9861 6.35591 13.0506 6.48497C13.0506 6.48497 13.0506 6.51723 13.0828 6.51723C13.1796 6.67855 13.2442 6.87213 13.2442 7.09797C13.2442 7.29156 13.2119 7.48514 13.0828 7.67872L9.88875 13.1635C9.82422 13.2926 9.69517 13.3571 9.53385 13.3571C9.4048 13.3571 9.27574 13.2926 9.17895 13.1635L6.04939 7.67872C5.98486 7.54966 5.8558 7.38835 5.8558 7.13024C5.82354 6.90439 5.88807 6.71081 5.98486 6.51723C6.08165 6.32365 6.24297 6.16233 6.46881 6.0978C6.66239 5.96875 6.88824 5.96875 7.01729 5.96875ZM9.14669 6.74308H7.01729C6.88824 6.74308 6.82371 6.74308 6.79145 6.77534C6.72692 6.8076 6.69466 6.83987 6.66239 6.90439C6.63013 6.93666 6.63013 7.00118 6.63013 7.06571C6.63013 7.09797 6.66239 7.13024 6.72692 7.25929L9.14669 11.4536V6.74308ZM9.92101 6.74308V11.4858L12.373 7.25929C12.4053 7.19477 12.4053 7.13024 12.4053 7.06571C12.4053 7.00118 12.4053 6.93666 12.373 6.90439C12.3408 6.87213 12.3408 6.83987 12.3085 6.83987L12.2763 6.8076C12.2117 6.77534 12.1472 6.77534 12.0504 6.77534H9.92101V6.74308Z" fill="white"/>
</g>
<defs>
<clipPath id="clip0_902_5878">
<rect width="18.0676" height="18.0676" fill="white" transform="translate(0.5)"/>
</clipPath>
</defs>
</svg>
