<svg width="45" height="50" viewBox="0 0 45 50" fill="none" xmlns="http://www.w3.org/2000/svg"><path style="mix-blend-mode:multiply" opacity=".6" d="M44.58 1.99 0 2.34l.42 45.104 44.58-.35z" fill="url(#a)"/><path d="m44.335 2.034-44.3.347.418 44.822 44.3-.348z" fill="url(#b)"/><path d="M41.878 4.551 2.52 4.86l.341 36.523 39.358-.309z" fill="url(#c)"/><path opacity=".6" d="m14.054 45.044-.741.397.741.398-.741.397.741.397-.741.397.741.397-.741.397.741.398-.741.397.741.397-.741.397.422.225c.986.01 1.983-.063 2.958-.047 1.858.031 3.722.23 5.575.319 1.88.088 3.762.078 5.649.068 1.448-.011 2.895-.011 4.343-.063l.434-.23-.742-.397.741-.397-.74-.398.74-.397-.74-.397.74-.397-.74-.397.74-.398-.74-.397.74-.397-.74-.397.74-.397-.58-.309c-.309.01-.617.047-.907.068-.958.084-1.898.053-2.856.021-2.115-.068-4.23-.01-6.35-.057s-4.247-.204-6.367-.225c-.638-.005-1.271-.031-1.904 0l-.422.225.741.397z" fill="url(#duu)"/><path style="mix-blend-mode:multiply" opacity=".3" d="m14.054 49.01-.741.398.422.225h.279a.3.3 0 0 1-.068-.115c-.029-.11.097-.22.165-.293.28-.314-.12-.408-.325-.57-.028-.02-.034-.078 0-.099.103-.073.82-.33.467-.491-.165-.078-.347-.13-.495-.24-.04-.032-.023-.09.017-.11.598-.418 1.55-.706 1.806-1.417.075-.203.052-.501.223-.668.205-.204.507-.324.804-.372.889-.146 1.8-.094 2.684-.235.57-.089 1.271-.26 1.847-.11 1.186.309-.262 1.427-.684 1.746-1.191.899-2.496 1.641-3.961 2.106q-.394.163-.787.319c-.365.146-.661.392-1.015.56.673-.022 1.34-.048 2.001-.038 1.858.032 3.722.23 5.575.32 1.88.088 3.762.078 5.649.067q.982 0 1.966-.015c0-.006 0-.016.006-.021-.604-.09-1.317-.037-1.75-.424-.416-.37-.091-.841.256-1.15.667-.59 1.42-1.081 2.127-1.625.245-.188.495-.376.809-.45.257-.056.45.069.667.168.034.016.051.068.028.1-.062.078-.142.13-.228.193-.193.146-.04.193.143.25.143.048.33.147.376.288.057.199-.348.25-.576.303.229.13.514.267.588.497.057.172-.217.266-.348.282-.08.01-.177.005-.25.026-.15.042.256.34.295.36.057.027.143.063.143.136 0 .277-.541.356-.81.455.194.105.496.277.32.45-.086.083-.24.125-.4.151.331-.005.656-.016.987-.026l.433-.23-.74-.397.74-.397-.74-.398.74-.397-.74-.397.74-.397-.74-.397.74-.397-.74-.398.74-.397-.74-.397.74-.397-.581-.308c-.308.01-.616.047-.907.068-.957.083-1.898.052-2.855.02-2.115-.068-4.23-.01-6.35-.057s-4.247-.204-6.367-.225c-.639-.005-1.272-.031-1.904 0l-.422.225.74.397-.74.397.74.397-.74.398.74.397-.74.397.74.397-.74.397.74.398-.74.397.74.397zm9.593-2.717c.821-.45 1.665-.888 2.56-1.197.541-.188 1.96-.6 1.915.366-.034.7-.781 1.181-1.351 1.547-1.46.936-3.694 1.897-5.53 1.876-.239 0-.66-.02-.729-.292-.051-.204.177-.418.314-.544.803-.731 1.852-1.228 2.821-1.761z" fill="url(#euu)"/><path style="mix-blend-mode:multiply" opacity=".3" d="M30.499 44.752c-1.02.768-2.149 1.395-3.243 2.064-1.448.894-3.358 1.761-3.985 1.902-3.597.81-4.355.261-2.98-.444.666-.34 1.544-1.009 2.17-1.406.337-.214 1.443-.935 1.5-1.317.103-.637-1.214-.14-2.07.429-2.502 1.667-4.64 2.937-7.689 3.512-.188.036-.37.062-.558.089l.09.046c.987.011 1.985-.062 2.96-.047 1.858.032 3.722.23 5.574.32 1.881.088 3.762.078 5.649.067 1.448-.01 2.895-.01 4.343-.062l.314-.168c-.468.047-.958-.031-1.425-.047-.775-.026-1.54.09-2.314.11-.365.01-.736.016-1.09-.047-.239-.042-.615-.094-.786-.277-.496-.528 3.392-3.068 3.876-3.538.53-.507 1.09-.894 1.745-1.087l-.462-.246c-.308.01-.616.047-.907.068-.227.021-.45.032-.678.042l-.028.026z" fill="url(#fuu)"/><path opacity=".8" d="M26.075 49.032c.183-1.009 5.746-4.515 4.065-3.763-1.175.716-2.885 1.876-3.324 2.153-.484.303-.969.601-1.47.889a23 23 0 0 1-3.021 1.447c-.12.047-.24.089-.36.136l.303.016c1.447.068 2.89.078 4.337.073-.803-.23-.575-.68-.53-.946z" fill="url(#guu)"/><path style="mix-blend-mode:screen" opacity=".8" d="M13.73 49.633c.985.01 1.983-.063 2.958-.047.615.01 1.23.041 1.846.078-.028-.444.81-1.181 1.078-1.406a14 14 0 0 1 1.22-.899c.61-.407 1.55-.914 1.818-1.614a1 1 0 0 0-.37 0 5 5 0 0 0-.388.235c-2.503 1.667-4.64 2.937-7.69 3.512-.188.036-.37.062-.558.088l.09.047z" fill="url(#huu)"/><path style="mix-blend-mode:multiply" opacity=".3" d="M31.827 46.957h.433l-.091-.047.741-.397-.741-.398.741-.397-.741-.397.741-.397-.77-.413h-.034q-.377.016-.73.058l-.182.015c-.923.079-1.818.053-2.77.021h-.074c-1.152-.042-2.326-.036-3.454-.036-.947 0-1.927 0-2.89-.021-.947-.021-1.91-.063-2.84-.11a98 98 0 0 0-3.527-.115c-.16 0-.314 0-.474-.01-.233 0-.467-.01-.7-.01-.234 0-.49 0-.736.02h-.028l-.61.324.74.397-.74.397.74.398-.74.397.74.397-.74.397.16.084c.13-.005.261-.021.387-.026l-.108-.058.74-.397-.74-.397.74-.397-.74-.398.74-.397-.74-.397.233-.125c.462-.026.935-.016 1.397-.01.16 0 .313.004.473.01a98 98 0 0 1 3.523.115c.934.041 1.898.083 2.844.11.963.02 1.95.02 2.896.02 1.128 0 2.297 0 3.448.037h.074c.912.031 1.858.063 2.8-.021l.181-.016c.223-.02.456-.042.684-.052l.388.204-.74.397.74.397-.74.397.74.398-.74.397z" fill="url(#iuu)"/><path style="mix-blend-mode:multiply" opacity=".3" d="M31.924 46.957q.214.001.427-.005l-.262-.141.741-.398-.74-.397.74-.397-.74-.397.74-.397-.77-.413h-.034c-.25.01-.496.037-.73.057l-.182.016c-.923.084-1.818.052-2.77.021h-.074c-1.151-.037-2.326-.037-3.454-.037-.947 0-1.927 0-2.89-.02-.946-.021-1.91-.063-2.839-.105a112 112 0 0 0-3.528-.12c-.16 0-.314 0-.473-.005-.234 0-.468-.01-.707-.01-.24 0-.49 0-.735.02h-.023l-.61.324.74.397-.74.397.74.398-.74.397.74.397-.74.397.33.178.388-.032-.274-.146.741-.397-.74-.397.74-.397-.74-.398.74-.397-.74-.397.233-.125c.462-.026.935-.016 1.397-.01a98 98 0 0 1 3.996.12c.934.041 1.898.083 2.844.11.963.02 1.95.02 2.896.02 1.128 0 2.297 0 3.448.037h.074c.912.031 1.858.062 2.799-.021l.182-.016c.223-.02.456-.042.684-.052l.388.204-.741.397.741.397-.741.397.741.397-.741.397.274.147z" fill="url(#juu)"/><mask id="kuu" style="mask-type:luminance" maskUnits="userSpaceOnUse" x="2" y="4" width="41" height="38"><path d="m42.004 4.582-39.655.31.342 36.623 39.655-.31z" fill="#fff"/></mask><g mask="url(#kuu)"><mask id="luu" style="mask-type:luminance" maskUnits="userSpaceOnUse" x="1" y="4" width="43" height="60"><path d="M43.238 4.036H1.308v59.65h41.93z" fill="#fff"/></mask><g mask="url(#luu)"><path d="M44.03 1.522H.568V65.4h43.464z" fill="url(#muu)"/><path d="M4.477 5.954v.277l-.222.993h-.348l.245-1.045H3.81v-.23h.661zm.342 0v.115c0 .057-.006.11-.023.146a.3.3 0 0 1-.08.1.3.3 0 0 1-.13.052v-.089c.034-.016.056-.042.056-.073h-.057v-.246h.234zm.855.434v.423c0 .094 0 .167-.017.21a.3.3 0 0 1-.2.204.7.7 0 0 1-.376 0 .3.3 0 0 1-.13-.085.3.3 0 0 1-.07-.12.6.6 0 0 1-.022-.193v-.444q0-.174.034-.262a.3.3 0 0 1 .131-.14.5.5 0 0 1 .24-.053q.11-.002.205.036a.3.3 0 0 1 .137.09.3.3 0 0 1 .063.12 1 1 0 0 1 .017.209zm-.347-.105c0-.068 0-.11-.012-.125q-.009-.025-.051-.026c-.029 0-.04.01-.051.026-.012.015-.012.057-.012.125v.622c0 .073 0 .12.012.136.005.016.022.02.05.02.03 0 .04-.01.052-.025a.4.4 0 0 0 .012-.12zm.672-.329v.115c0 .057-.006.11-.023.146a.23.23 0 0 1-.08.1.3.3 0 0 1-.13.052v-.089c.033-.016.056-.042.056-.073h-.057v-.246H6zm.313 0v.115c0 .057-.005.11-.022.146a.23.23 0 0 1-.08.1.3.3 0 0 1-.131.052v-.089a.1.1 0 0 0 .057-.073h-.057v-.246h.233zm-1.886 3.58h-.348v-.11q.002-.022-.022-.037-.018-.015-.052-.015a.07.07 0 0 0-.045.015.05.05 0 0 0-.017.037v.298a.2.2 0 0 1 .08-.078.32.32 0 0 1 .296.02q.076.046.09.115a.7.7 0 0 1 .024.178v.1c0 .088 0 .156-.012.198a.26.26 0 0 1-.057.12.4.4 0 0 1-.13.084.6.6 0 0 1-.2.031.6.6 0 0 1-.228-.037.29.29 0 0 1-.194-.24c0-.047-.006-.141-.006-.282v-.178q-.001-.225.006-.303.002-.077.063-.146a.3.3 0 0 1 .142-.105.65.65 0 0 1 .45.006.24.24 0 0 1 .132.12q.041.08.04.198zm-.348.397c0-.047 0-.073-.017-.094q-.015-.025-.057-.026-.034.001-.051.026t-.017.094v.23c0 .057 0 .094.017.11a.06.06 0 0 0 .051.026c.017 0 .029-.006.046-.021q.024-.024.023-.11v-.235zM4.75 9.2v.114a.4.4 0 0 1-.022.147.2.2 0 0 1-.08.099.4.4 0 0 1-.13.052v-.094a.1.1 0 0 0 .056-.068h-.057V9.2zm.924.334h-.348v-.11q.002-.022-.022-.037-.018-.015-.052-.015a.07.07 0 0 0-.045.015.1.1 0 0 0-.023.037v.298a.2.2 0 0 1 .08-.078.32.32 0 0 1 .296.02q.076.046.091.115a.7.7 0 0 1 .023.178v.1c0 .088 0 .156-.011.198a.26.26 0 0 1-.057.12.34.34 0 0 1-.137.084.6.6 0 0 1-.2.031.6.6 0 0 1-.228-.037.3.3 0 0 1-.136-.099.3.3 0 0 1-.057-.14c0-.048-.006-.142-.006-.283v-.178q-.002-.225.006-.303.001-.077.062-.146a.3.3 0 0 1 .143-.105.65.65 0 0 1 .45.006.24.24 0 0 1 .131.12q.042.08.04.198zm-.348.397c0-.047 0-.073-.017-.094a.06.06 0 0 0-.051-.026q-.034.001-.051.026-.018.024-.017.094v.23c0 .057 0 .094.017.11a.06.06 0 0 0 .051.026c.017 0 .029-.006.046-.021q.024-.024.022-.11zM6 9.2v.114a.35.35 0 0 1-.024.147.2.2 0 0 1-.08.099.4.4 0 0 1-.13.052v-.094c.034-.016.056-.042.056-.068h-.056V9.2zm.313 0v.114c0 .058-.006.11-.023.147a.2.2 0 0 1-.08.099.4.4 0 0 1-.131.052v-.094a.1.1 0 0 0 .057-.068h-.057V9.2zm-1.876 3.579H4.09v-.11c0-.015-.012-.026-.023-.036q-.017-.016-.051-.016c-.017 0-.035 0-.046.016a.05.05 0 0 0-.017.036v.298a.2.2 0 0 1 .08-.078.32.32 0 0 1 .296.02q.075.047.091.116a.7.7 0 0 1 .017.177v.1c0 .088 0 .156-.011.198a.26.26 0 0 1-.057.12.33.33 0 0 1-.131.09.6.6 0 0 1-.2.03.6.6 0 0 1-.228-.036.3.3 0 0 1-.136-.1.26.26 0 0 1-.057-.14 3 3 0 0 1-.012-.283v-.177q-.001-.226.006-.303c0-.053.023-.1.057-.147a.3.3 0 0 1 .142-.104.5.5 0 0 1 .211-.037q.146.002.24.042c.062.031.108.068.13.12.03.053.04.12.04.199zm-.347.397c0-.047 0-.073-.017-.094a.06.06 0 0 0-.052-.026q-.034-.001-.051.02-.017.025-.017.095v.23c0 .057 0 .094.017.11a.06.06 0 0 0 .051.026c.017 0 .029-.005.046-.021s.023-.047.023-.11v-.24zm.667-.736v.114c0 .058-.006.11-.023.147a.23.23 0 0 1-.08.099.3.3 0 0 1-.131.052v-.094c.034-.015.057-.042.057-.068h-.057v-.25zm.917.428v.423c0 .094 0 .167-.017.21a.3.3 0 0 1-.068.125.4.4 0 0 1-.131.083.7.7 0 0 1-.376 0 .3.3 0 0 1-.132-.083.3.3 0 0 1-.068-.115.6.6 0 0 1-.023-.199v-.444q0-.174.034-.261a.3.3 0 0 1 .131-.141.5.5 0 0 1 .24-.053q.11-.002.205.037a.3.3 0 0 1 .137.089.3.3 0 0 1 .063.12 1 1 0 0 1 .017.209zm-.347-.105c0-.068 0-.11-.012-.125q-.009-.025-.051-.026c-.029 0-.04.01-.051.026-.012.02-.012.063-.012.125v.622c0 .073 0 .12.012.13q.008.026.05.027c.03 0 .04-.01.052-.026a.4.4 0 0 0 .012-.12zM6 12.44v.114a.35.35 0 0 1-.024.147.23.23 0 0 1-.08.099.3.3 0 0 1-.13.052v-.094c.034-.015.056-.042.056-.068h-.056v-.25zm.313 0v.114c0 .058-.006.11-.023.147a.23.23 0 0 1-.08.099.3.3 0 0 1-.131.052v-.094a.1.1 0 0 0 .057-.068h-.057v-.25zm-1.955 3.24v.203h-.434v.215a.28.28 0 0 1 .211-.09c.097 0 .166.027.217.074q.075.07.074.282v.183c0 .089 0 .157-.011.198a.23.23 0 0 1-.063.115.3.3 0 0 1-.131.084.6.6 0 0 1-.205.026.6.6 0 0 1-.234-.041c-.069-.027-.12-.069-.143-.126a.6.6 0 0 1-.045-.261v-.068h.347v.078c0 .084 0 .141.012.178q.009.054.068.052c.017 0 .029 0 .04-.016q.018-.015.017-.03v-.403a.2.2 0 0 0-.017-.1q-.015-.024-.057-.026c-.017 0-.028 0-.04.016l-.023.026v.073H3.6l.018-.643h.746zm.392 0v.114a.4.4 0 0 1-.022.147.26.26 0 0 1-.21.151v-.094a.1.1 0 0 0 .056-.068h-.057v-.25zm.924.34h-.348v-.11q.002-.023-.022-.037-.018-.015-.052-.016c-.017 0-.034 0-.045.016a.1.1 0 0 0-.023.036v.298a.16.16 0 0 1 .08-.078.32.32 0 0 1 .296.02q.076.048.091.11a.7.7 0 0 1 .023.178v.1c0 .088 0 .156-.011.198a.26.26 0 0 1-.057.12.34.34 0 0 1-.137.084.6.6 0 0 1-.2.031.6.6 0 0 1-.228-.036.3.3 0 0 1-.136-.105.3.3 0 0 1-.057-.14c0-.048-.006-.142-.006-.283v-.178q-.002-.225.006-.303.001-.077.062-.146a.3.3 0 0 1 .143-.105.65.65 0 0 1 .45.006.24.24 0 0 1 .131.12q.042.08.04.198zm-.348.396c0-.047 0-.073-.017-.094a.06.06 0 0 0-.051-.026q-.034.001-.051.026-.018.024-.017.094v.23c0 .058 0 .094.017.11a.06.06 0 0 0 .051.026c.017 0 .029-.005.046-.02.017-.016.022-.048.022-.11v-.24zM6 15.68v.114a.35.35 0 0 1-.024.147.26.26 0 0 1-.21.151v-.094c.034-.015.056-.042.056-.068h-.056v-.25zm.313 0v.114c0 .058-.006.11-.023.147a.26.26 0 0 1-.211.151v-.094a.1.1 0 0 0 .057-.068h-.057v-.25zm-1.944 3.245v.204h-.434v.214a.28.28 0 0 1 .211-.089c.097 0 .166.026.217.073q.075.07.074.282v.183c0 .09 0 .157-.011.199a.29.29 0 0 1-.194.199.7.7 0 0 1-.445-.01.27.27 0 0 1-.142-.126.6.6 0 0 1-.046-.262v-.068h.348v.079c0 .083 0 .14.011.172 0 .037.029.052.063.052.017 0 .034 0 .04-.015q.017-.015.017-.032v-.401a.2.2 0 0 0-.017-.1.06.06 0 0 0-.051-.026c-.018 0-.029 0-.04.015a.1.1 0 0 0-.023.026v.074h-.342l.017-.638h.747zm.388 0v.115c0 .057-.006.11-.023.146a.23.23 0 0 1-.08.1.4.4 0 0 1-.131.052v-.094c.034-.016.057-.042.057-.073h-.057v-.246zm.917.428v.424c0 .094 0 .167-.017.209a.34.34 0 0 1-.068.125.3.3 0 0 1-.131.084.7.7 0 0 1-.376 0 .3.3 0 0 1-.132-.084.3.3 0 0 1-.068-.12.6.6 0 0 1-.023-.193v-.445q0-.173.034-.26a.3.3 0 0 1 .131-.142.5.5 0 0 1 .24-.052q.11-.002.205.036a.3.3 0 0 1 .137.09.3.3 0 0 1 .063.12 1 1 0 0 1 .017.208zm-.347-.11c0-.067 0-.11-.012-.125q-.009-.024-.051-.026c-.029 0-.04.01-.051.026-.012.016-.012.058-.012.126v.622c0 .073 0 .12.012.135q.008.022.05.021c.03 0 .04-.01.052-.026a.4.4 0 0 0 .012-.12zM6 18.925v.115c0 .057-.006.11-.024.146a.23.23 0 0 1-.08.1.4.4 0 0 1-.13.052v-.094c.034-.016.056-.042.056-.073h-.056v-.246zm.313 0v.115c0 .057-.006.11-.023.146a.23.23 0 0 1-.08.1.4.4 0 0 1-.131.052v-.094a.1.1 0 0 0 .057-.073h-.057v-.246zm-1.938 3.24v.831h.096v.22h-.096v.224h-.348v-.225h-.41v-.219l.302-.831h.461zm-.348.831v-.543l-.154.543zm.723-.831v.115c0 .057-.005.11-.022.146a.2.2 0 0 1-.08.1.4.4 0 0 1-.13.052v-.094a.1.1 0 0 0 .056-.068h-.057v-.251zm.924.335h-.348v-.11q.002-.023-.022-.037-.018-.016-.052-.016c-.017 0-.034 0-.045.016a.1.1 0 0 0-.023.037v.297a.2.2 0 0 1 .08-.078.32.32 0 0 1 .296.02q.076.047.091.116a.7.7 0 0 1 .023.178v.099c0 .089 0 .157-.011.199a.26.26 0 0 1-.057.12.34.34 0 0 1-.137.083.6.6 0 0 1-.2.032.6.6 0 0 1-.228-.037.3.3 0 0 1-.136-.1.3.3 0 0 1-.057-.14c0-.047-.006-.141-.006-.282v-.178q-.002-.227.006-.303.001-.078.062-.147a.3.3 0 0 1 .143-.104.7.7 0 0 1 .21-.031q.146.001.24.041a.24.24 0 0 1 .131.12q.042.08.04.2zm-.348.396c0-.047 0-.078-.017-.094a.06.06 0 0 0-.051-.026q-.034.001-.051.026-.018.023-.017.095v.23c0 .057 0 .094.017.11a.06.06 0 0 0 .051.025c.017 0 .029-.005.046-.02q.024-.017.022-.11zM6 22.165v.115c0 .057-.006.11-.024.146a.2.2 0 0 1-.08.1.4.4 0 0 1-.13.052v-.094c.034-.016.056-.042.056-.068h-.056v-.251zm.313 0v.115c0 .057-.006.11-.023.146a.2.2 0 0 1-.08.1.4.4 0 0 1-.131.052v-.094a.1.1 0 0 0 .057-.068h-.057v-.251zm-1.927 3.24v.831h.097v.22h-.097v.224h-.348v-.224h-.41v-.22l.302-.83h.462zm-.348.831v-.538l-.153.538zm.719-.831v.115a.4.4 0 0 1-.023.146.23.23 0 0 1-.08.1.3.3 0 0 1-.13.052v-.094c.033-.016.056-.042.056-.068h-.057v-.251zm.917.429v.423c0 .094 0 .167-.017.209a.34.34 0 0 1-.068.125.26.26 0 0 1-.131.084.7.7 0 0 1-.376 0 .27.27 0 0 1-.132-.084.3.3 0 0 1-.068-.115.6.6 0 0 1-.023-.198v-.444q0-.174.034-.262a.3.3 0 0 1 .132-.14.5.5 0 0 1 .239-.053q.11-.002.205.037a.3.3 0 0 1 .137.088.3.3 0 0 1 .063.12 1 1 0 0 1 .017.21zm-.347-.11c0-.068 0-.11-.012-.126q-.008-.024-.051-.026c-.029 0-.04.01-.051.026-.012.016-.012.058-.012.126v.622c0 .073 0 .12.012.13q.008.023.051.021c.028 0 .04-.01.051-.026a.4.4 0 0 0 .012-.12v-.632zM6 25.405v.115a.4.4 0 0 1-.023.146.23.23 0 0 1-.08.1.3.3 0 0 1-.131.052v-.094c.034-.016.057-.042.057-.068h-.057v-.251zm.313 0v.115a.4.4 0 0 1-.023.146.23.23 0 0 1-.08.1.3.3 0 0 1-.13.052v-.094a.1.1 0 0 0 .056-.068H6.08v-.251zM4.266 29.2a.23.23 0 0 1 .12.078q.041.056.04.26a.54.54 0 0 1-.04.236.23.23 0 0 1-.131.125.6.6 0 0 1-.24.042.5.5 0 0 1-.256-.052.27.27 0 0 1-.126-.125.7.7 0 0 1-.028-.257v-.099h.348v.204c0 .057 0 .089.01.104q.012.022.047.021c.022 0 .045-.01.05-.026.012-.02.012-.068.012-.146v-.089a.24.24 0 0 0-.017-.104.1.1 0 0 0-.051-.047.7.7 0 0 0-.137-.011v-.183c.086 0 .131 0 .154-.01a.07.07 0 0 0 .04-.037c.011-.02.011-.052.011-.089v-.073c0-.047 0-.073-.017-.089-.011-.015-.023-.02-.045-.02q-.034-.001-.052.02c-.011.016-.011.047-.011.094v.105h-.348v-.11q-.001-.182.091-.245a.53.53 0 0 1 .291-.063c.165 0 .28.031.336.089a.34.34 0 0 1 .092.245c0 .073-.012.12-.035.157a.24.24 0 0 1-.114.084zm.484-.555v.115c0 .058-.005.11-.022.146a.23.23 0 0 1-.08.1.3.3 0 0 1-.13.052v-.094a.1.1 0 0 0 .056-.068h-.057v-.25zm.924.34h-.348v-.11q.002-.022-.022-.037-.018-.015-.052-.015c-.017 0-.034 0-.045.015a.1.1 0 0 0-.023.037v.298a.2.2 0 0 1 .08-.078.32.32 0 0 1 .296.02q.076.046.091.115a.7.7 0 0 1 .023.178v.1c0 .088 0 .156-.011.198a.26.26 0 0 1-.057.12.34.34 0 0 1-.137.084.6.6 0 0 1-.2.031.6.6 0 0 1-.228-.036.3.3 0 0 1-.136-.1.26.26 0 0 1-.057-.14c0-.048-.006-.147-.006-.283v-.178q-.002-.225.006-.303.001-.078.062-.146a.3.3 0 0 1 .143-.105.65.65 0 0 1 .45.006.24.24 0 0 1 .131.12q.042.08.04.198zm-.348.397c0-.047 0-.073-.017-.094a.06.06 0 0 0-.051-.026c-.023 0-.04.005-.051.026q-.018.024-.017.094v.23c0 .057 0 .094.017.11a.06.06 0 0 0 .051.026c.017 0 .029-.005.046-.021s.022-.047.022-.11zM6 28.645v.115c0 .058-.006.11-.024.146a.23.23 0 0 1-.08.1.3.3 0 0 1-.13.052v-.094c.034-.016.056-.042.056-.068h-.056v-.25zm.313 0v.115a.4.4 0 0 1-.023.146.23.23 0 0 1-.08.1.3.3 0 0 1-.131.052v-.094a.1.1 0 0 0 .057-.068h-.057v-.25zM39.42 5.954v.277l-.223.993h-.348l.245-1.045h-.342v-.23h.661zm.341 0v.115c0 .057-.005.11-.022.146a.23.23 0 0 1-.08.1.3.3 0 0 1-.131.052v-.089a.1.1 0 0 0 .057-.073h-.057v-.246h.233zm.855.434v.423c0 .094 0 .167-.017.21a.3.3 0 0 1-.2.204.7.7 0 0 1-.376 0 .3.3 0 0 1-.13-.085.3.3 0 0 1-.07-.12.7.7 0 0 1-.022-.193v-.444q0-.174.034-.262a.3.3 0 0 1 .132-.14.5.5 0 0 1 .239-.053q.11-.002.205.036a.4.4 0 0 1 .137.09.3.3 0 0 1 .063.12 1 1 0 0 1 .017.209zm-.347-.105c0-.068 0-.11-.012-.125q-.008-.025-.051-.026-.043.001-.051.026a.5.5 0 0 0-.012.125v.622c0 .073 0 .12.012.136q.008.022.05.02c.03 0 .04-.01.052-.025a.4.4 0 0 0 .012-.12zm.672-.329v.115c0 .057-.006.11-.023.146a.23.23 0 0 1-.08.1.3.3 0 0 1-.13.052v-.089a.1.1 0 0 0 .056-.073h-.057v-.246h.234zm.314 0v.115c0 .057-.006.11-.023.146a.23.23 0 0 1-.08.1.3.3 0 0 1-.131.052v-.089a.1.1 0 0 0 .057-.073h-.057v-.246h.234zm-1.665 3.58h-.347v-.11q.001-.022-.023-.037-.018-.015-.051-.015a.07.07 0 0 0-.046.015.05.05 0 0 0-.017.037v.298a.2.2 0 0 1 .08-.078.3.3 0 0 1 .125-.027q.096 0 .165.047c.046.032.08.068.092.115a.7.7 0 0 1 .022.178v.1c0 .088 0 .156-.011.198a.26.26 0 0 1-.057.12.3.3 0 0 1-.131.084.6.6 0 0 1-.2.031.6.6 0 0 1-.228-.037.29.29 0 0 1-.194-.24c0-.047-.005-.141-.005-.282v-.178q-.001-.225.005-.303c0-.052.023-.1.058-.146a.3.3 0 0 1 .142-.105.65.65 0 0 1 .45.006.27.27 0 0 1 .137.12q.042.08.04.198zm-.347.397c0-.047 0-.073-.018-.094a.06.06 0 0 0-.05-.026q-.035.001-.052.026t-.017.094v.23c0 .057 0 .094.017.11a.06.06 0 0 0 .051.026c.017 0 .029-.006.046-.021q.024-.024.023-.11zm.672-.731v.114c0 .058-.006.11-.023.147a.2.2 0 0 1-.08.099.4.4 0 0 1-.13.052v-.094a.1.1 0 0 0 .056-.068h-.057V9.2zm.923.334h-.347v-.11q.001-.022-.023-.037-.018-.015-.052-.015a.07.07 0 0 0-.045.015.1.1 0 0 0-.023.037v.298a.2.2 0 0 1 .08-.078.32.32 0 0 1 .296.02q.076.046.092.115a.7.7 0 0 1 .017.178v.1c0 .088 0 .156-.012.198a.23.23 0 0 1-.062.12.3.3 0 0 1-.132.084.6.6 0 0 1-.2.031.6.6 0 0 1-.227-.037.26.26 0 0 1-.137-.099.3.3 0 0 1-.057-.14c0-.048-.006-.142-.006-.283v-.178q-.002-.225.006-.303c0-.052.023-.1.057-.146a.3.3 0 0 1 .143-.105.65.65 0 0 1 .45.006.27.27 0 0 1 .137.12q.041.08.04.198zm-.347.397c0-.047 0-.073-.017-.094a.06.06 0 0 0-.052-.026q-.035.001-.051.026-.018.024-.017.094v.23c0 .057 0 .094.017.11a.06.06 0 0 0 .051.026c.017 0 .029-.006.046-.021q.024-.024.023-.11zm.672-.731v.114a.4.4 0 0 1-.022.147.2.2 0 0 1-.08.099.4.4 0 0 1-.131.052v-.094a.1.1 0 0 0 .057-.068h-.057V9.2zm.314 0v.114c0 .058-.006.11-.023.147a.2.2 0 0 1-.08.099.4.4 0 0 1-.13.052v-.094a.1.1 0 0 0 .056-.068h-.057V9.2zm-1.887 3.579h-.347v-.11q.001-.022-.023-.036-.018-.016-.051-.016c-.018 0-.035 0-.046.016a.05.05 0 0 0-.017.036v.298a.2.2 0 0 1 .08-.078.3.3 0 0 1 .125-.026q.096 0 .165.047.076.046.092.115a.7.7 0 0 1 .022.177v.1c0 .088 0 .156-.011.198a.26.26 0 0 1-.057.12.33.33 0 0 1-.131.09.6.6 0 0 1-.2.03.6.6 0 0 1-.228-.036.3.3 0 0 1-.136-.1.26.26 0 0 1-.057-.14c0-.047-.006-.142-.006-.283v-.177q-.001-.226.005-.303c0-.053.023-.1.058-.147a.3.3 0 0 1 .142-.104.5.5 0 0 1 .21-.037q.147.002.24.042a.3.3 0 0 1 .137.12q.042.08.04.199zm-.347.397c0-.047 0-.073-.018-.094a.06.06 0 0 0-.05-.026q-.035-.001-.052.02-.017.025-.017.095v.23c0 .057 0 .094.017.11a.06.06 0 0 0 .051.026c.017 0 .029-.005.046-.021s.023-.047.023-.11v-.24zm.672-.736v.114c0 .058-.006.11-.023.147a.23.23 0 0 1-.08.099.3.3 0 0 1-.13.052v-.094a.1.1 0 0 0 .056-.068h-.057v-.25zm.912.428v.423c0 .094 0 .167-.017.21a.3.3 0 0 1-.068.125.4.4 0 0 1-.131.083.7.7 0 0 1-.376 0 .3.3 0 0 1-.132-.083.3.3 0 0 1-.068-.115.8.8 0 0 1-.023-.199v-.444q0-.174.034-.261a.3.3 0 0 1 .131-.141.5.5 0 0 1 .24-.053q.11-.002.205.037a.4.4 0 0 1 .137.089.3.3 0 0 1 .062.12 1 1 0 0 1 .018.209zm-.348-.105c0-.068 0-.11-.011-.125q-.009-.025-.051-.026-.043.001-.052.026a.5.5 0 0 0-.011.125v.622c0 .073 0 .12.011.13q.009.026.052.027.042-.001.051-.026a.4.4 0 0 0 .011-.12zm.673-.323v.114c0 .058-.006.11-.023.147a.23.23 0 0 1-.08.099.3.3 0 0 1-.13.052v-.094c.033-.015.056-.042.056-.068h-.057v-.25zm.313 0v.114c0 .058-.005.11-.023.147a.23.23 0 0 1-.08.099.3.3 0 0 1-.13.052v-.094a.1.1 0 0 0 .057-.068h-.057v-.25zm-1.943 3.24v.203h-.433v.215a.28.28 0 0 1 .21-.09c.097 0 .166.027.217.074q.075.07.074.282v.183c0 .089 0 .157-.011.198a.23.23 0 0 1-.063.115.3.3 0 0 1-.131.084.6.6 0 0 1-.205.026.7.7 0 0 1-.24-.041.25.25 0 0 1-.142-.126.6.6 0 0 1-.046-.261v-.068h.348v.078c0 .084 0 .141.011.178q.009.054.069.052c.017 0 .034 0 .04-.016q.017-.015.017-.03v-.403c0-.047 0-.079-.017-.1a.06.06 0 0 0-.052-.026c-.017 0-.028 0-.04.016q-.015.016-.022.026v.073h-.342l.017-.643h.747zm.388 0v.114c0 .058-.006.11-.023.147a.3.3 0 0 1-.08.099.3.3 0 0 1-.131.052v-.094a.1.1 0 0 0 .057-.068h-.057v-.25zm.929.34h-.348v-.11q.001-.023-.023-.037-.018-.015-.051-.016c-.017 0-.035 0-.046.016a.1.1 0 0 0-.023.036v.298a.16.16 0 0 1 .08-.078.32.32 0 0 1 .296.02q.076.048.092.11a.7.7 0 0 1 .017.178v.1c0 .088 0 .156-.012.198a.26.26 0 0 1-.057.12.3.3 0 0 1-.13.084.6.6 0 0 1-.2.031.6.6 0 0 1-.228-.036.3.3 0 0 1-.137-.105.3.3 0 0 1-.057-.14c0-.048-.006-.142-.006-.283v-.178q-.002-.225.006-.303.002-.077.063-.146a.3.3 0 0 1 .142-.105.65.65 0 0 1 .45.006.27.27 0 0 1 .137.12q.042.08.04.198zm-.348.396c0-.047 0-.073-.017-.094a.06.06 0 0 0-.052-.026q-.034.001-.051.026t-.017.094v.23c0 .058 0 .094.017.11a.06.06 0 0 0 .051.026c.017 0 .029-.005.046-.02.017-.016.023-.048.023-.11v-.24zm.667-.736v.114c0 .058-.006.11-.023.147a.26.26 0 0 1-.21.151v-.094c.033-.015.056-.042.056-.068h-.057v-.25zm.313 0v.114a.4.4 0 0 1-.022.147.3.3 0 0 1-.08.099.3.3 0 0 1-.131.052v-.094a.1.1 0 0 0 .057-.068h-.057v-.25zm-1.949 3.245v.204h-.433v.214a.28.28 0 0 1 .21-.089c.097 0 .166.026.217.073q.075.07.074.282v.183c0 .09 0 .157-.011.199a.29.29 0 0 1-.194.199.7.7 0 0 1-.445-.01.27.27 0 0 1-.142-.126.6.6 0 0 1-.046-.262v-.068h.348v.079c0 .083 0 .14.011.172q.009.054.069.052c.017 0 .034 0 .04-.015q.017-.015.017-.032v-.401c0-.048 0-.08-.017-.1a.06.06 0 0 0-.052-.026c-.017 0-.028 0-.04.015-.01.01-.017.016-.022.026-.006.01 0 .037 0 .074h-.342l.017-.638h.747zm.388 0v.115c0 .057-.006.11-.023.146a.3.3 0 0 1-.08.1.4.4 0 0 1-.131.052v-.094a.1.1 0 0 0 .057-.074h-.057v-.245zm.911.428v.424c0 .094 0 .167-.017.209a.3.3 0 0 1-.074.125.3.3 0 0 1-.13.084.7.7 0 0 1-.376 0 .27.27 0 0 1-.132-.084.3.3 0 0 1-.069-.12.7.7 0 0 1-.022-.194v-.444q0-.174.034-.261a.3.3 0 0 1 .13-.141.5.5 0 0 1 .24-.052q.111-.002.206.036a.4.4 0 0 1 .136.09.3.3 0 0 1 .063.12 1 1 0 0 1 .017.208zm-.347-.11c0-.067 0-.11-.012-.125q-.008-.024-.051-.026c-.029 0-.04.01-.051.026a.5.5 0 0 0-.012.126v.622c0 .073 0 .12.012.135q.008.022.051.021.044-.001.051-.026a.4.4 0 0 0 .012-.12zm.678-.318v.115c0 .057-.006.11-.023.146a.23.23 0 0 1-.08.1.4.4 0 0 1-.13.052v-.094c.034-.016.056-.042.056-.074h-.057v-.245zm.308 0v.115c0 .057-.006.11-.023.146a.3.3 0 0 1-.08.1.4.4 0 0 1-.13.052v-.094a.1.1 0 0 0 .056-.074h-.057v-.245zm-1.944 3.24v.831h.097v.22h-.097v.224h-.348v-.225h-.41v-.219l.302-.831h.462zm-.348.831v-.543l-.154.543zm.724-.831v.115c0 .057-.005.11-.023.146a.2.2 0 0 1-.08.1.4.4 0 0 1-.13.052v-.094a.1.1 0 0 0 .057-.068h-.057v-.251zm.929.335h-.347v-.11c0-.016-.012-.027-.023-.037q-.018-.016-.051-.016c-.018 0-.035 0-.046.016a.05.05 0 0 0-.017.037v.297a.2.2 0 0 1 .08-.078.32.32 0 0 1 .296.02q.075.047.091.116a.7.7 0 0 1 .023.178v.099c0 .089 0 .157-.011.199a.23.23 0 0 1-.063.12.3.3 0 0 1-.131.083.6.6 0 0 1-.2.032.6.6 0 0 1-.228-.037.26.26 0 0 1-.137-.1.3.3 0 0 1-.056-.14c0-.047-.006-.141-.006-.282v-.178q-.002-.227.006-.303c0-.053.022-.1.056-.147a.3.3 0 0 1 .143-.104.7.7 0 0 1 .21-.031q.147.001.24.041a.27.27 0 0 1 .137.12q.042.08.04.2zm-.347.396c0-.047 0-.078-.017-.094a.06.06 0 0 0-.052-.026q-.035.001-.051.026-.017.023-.017.095v.23c0 .057 0 .094.017.11a.06.06 0 0 0 .051.025c.017 0 .029-.005.046-.02q.024-.017.023-.11zm.666-.731v.115c0 .057-.005.11-.022.146a.2.2 0 0 1-.08.1.4.4 0 0 1-.13.052v-.094a.1.1 0 0 0 .056-.068h-.057v-.251zm.314 0v.115c0 .057-.005.11-.023.146a.2.2 0 0 1-.08.1.4.4 0 0 1-.13.052v-.094a.1.1 0 0 0 .057-.068h-.057v-.251zm-1.938 3.24v.831h.097v.22h-.097v.224h-.348v-.224h-.41v-.22l.302-.83h.462zm-.348.831v-.538l-.154.538zm.724-.831v.115c0 .058-.005.11-.023.146a.23.23 0 0 1-.08.1.3.3 0 0 1-.13.052v-.094a.1.1 0 0 0 .057-.068h-.057v-.251zm.912.429v.423c0 .094 0 .167-.017.209a.34.34 0 0 1-.068.125.3.3 0 0 1-.131.084.7.7 0 0 1-.376 0 .27.27 0 0 1-.132-.084.3.3 0 0 1-.068-.115.7.7 0 0 1-.023-.198v-.444q0-.174.034-.262a.3.3 0 0 1 .131-.14.47.47 0 0 1 .24-.053q.11-.002.205.037a.4.4 0 0 1 .137.088.3.3 0 0 1 .063.12 1 1 0 0 1 .017.21zm-.348-.11c0-.068 0-.11-.01-.126q-.01-.024-.052-.026-.044.001-.051.026a.5.5 0 0 0-.012.126v.622c0 .073 0 .12.011.13q.009.023.052.021t.051-.026a.4.4 0 0 0 .011-.12v-.632zm.674-.319v.115a.4.4 0 0 1-.024.146.23.23 0 0 1-.08.1.3.3 0 0 1-.13.052v-.094a.1.1 0 0 0 .056-.068h-.056v-.251zm.313 0v.115a.4.4 0 0 1-.023.146.23.23 0 0 1-.08.1.3.3 0 0 1-.131.052v-.094a.1.1 0 0 0 .057-.068h-.057v-.251zM39.419 29.2a.23.23 0 0 1 .12.078q.041.056.04.26a.54.54 0 0 1-.04.236.23.23 0 0 1-.131.125.6.6 0 0 1-.24.042.53.53 0 0 1-.262-.052.27.27 0 0 1-.125-.125.7.7 0 0 1-.029-.257v-.099h.348v.204c0 .057 0 .089.011.104q.01.022.046.021.042-.001.051-.026a.7.7 0 0 0 .011-.146v-.089c0-.047 0-.084-.017-.104a.1.1 0 0 0-.05-.047.7.7 0 0 0-.138-.01v-.184c.08 0 .131 0 .154-.01.023-.005.034-.021.046-.037a.4.4 0 0 0 .011-.089v-.073c0-.047 0-.073-.017-.089q-.018-.021-.045-.02-.034-.001-.052.02c-.011.016-.011.047-.011.094v.105h-.348v-.11q-.001-.182.091-.245a.53.53 0 0 1 .291-.063c.165 0 .28.031.336.089a.34.34 0 0 1 .092.245c0 .073-.012.12-.035.157a.24.24 0 0 1-.114.084zm.485-.555v.115c0 .058-.006.11-.023.147a.23.23 0 0 1-.08.099.3.3 0 0 1-.131.052v-.094a.1.1 0 0 0 .057-.068h-.057v-.25zm.929.34h-.348v-.11c0-.016-.011-.026-.023-.037q-.017-.015-.051-.015c-.017 0-.034 0-.046.015-.011.016-.017.021-.017.037v.298a.2.2 0 0 1 .08-.078.3.3 0 0 1 .126-.027.3.3 0 0 1 .165.047q.076.046.091.115a.7.7 0 0 1 .023.178v.1c0 .088 0 .156-.012.198a.23.23 0 0 1-.062.12.3.3 0 0 1-.131.084.6.6 0 0 1-.2.031.6.6 0 0 1-.228-.036.33.33 0 0 1-.137-.1.26.26 0 0 1-.057-.14c0-.048-.005-.147-.005-.283v-.178q-.001-.225.005-.303c0-.052.023-.1.057-.146a.3.3 0 0 1 .143-.105.65.65 0 0 1 .45.006.24.24 0 0 1 .131.12q.042.08.04.198zm-.348.397c0-.047 0-.073-.017-.094a.06.06 0 0 0-.051-.026c-.023 0-.04.005-.052.026q-.017.024-.017.094v.23c0 .057 0 .094.017.11a.06.06 0 0 0 .052.026c.017 0 .028-.005.045-.021s.023-.047.023-.11zm.667-.737v.115c0 .058-.006.11-.023.147a.23.23 0 0 1-.08.099.3.3 0 0 1-.13.052v-.094c.034-.016.056-.042.056-.068h-.057v-.25zm.313 0v.115a.4.4 0 0 1-.022.147.23.23 0 0 1-.08.099.3.3 0 0 1-.131.052v-.094a.1.1 0 0 0 .057-.068h-.057v-.25zm-3.157-2.707H6.296v.136h32.012zm0 3.235H6.296v.136h32.012zm2.947-1.583H3.815v.067h37.44zm0-3.235H3.815v.067h37.44zm0-3.235H3.815v.068h37.44zm0-3.235H3.815v.068h37.44zm0-3.24H3.815v.068h37.44zm0-3.235H3.815v.068h37.44zm0-3.235H3.815v.068h37.44zm-2.947 14.528H6.296v.136h32.012zm0-6.47H6.296v.136h32.012zm0 3.235H6.296v.136h32.012zm0-9.71H6.296v.136h32.012zm0 3.235H6.296v.136h32.012zm0-6.469H6.296v.135h32.012z" fill="#64541C"/></g></g><path opacity=".6" d="m32.636 4.94.741-.397-.74-.397.74-.397-.74-.398.74-.397-.74-.397.74-.397-.74-.397.74-.397-.74-.398.74-.397-.422-.225c-.986-.005-1.983.063-2.958.048-1.858-.032-3.722-.23-5.575-.32-1.88-.088-3.762-.078-5.649-.067-1.447.01-2.895.01-4.343.062l-.433.23.74.398-.74.397.74.397-.74.397.74.397-.74.397.74.398-.74.397.74.397-.74.397.74.397-.74.398.581.308c.308-.016.616-.047.906-.073.958-.084 1.904-.053 2.862-.021 2.115.068 4.23.01 6.344.057 2.12.047 4.247.204 6.367.225.639.005 1.271.037 1.904 0l.422-.225-.741-.397z" fill="url(#nuu)"/><path style="mix-blend-mode:multiply" opacity=".3" d="m32.636.974.741-.398-.421-.224h-.28a.3.3 0 0 1 .069.115c.028.11-.097.22-.165.292-.28.314.12.408.324.57.029.02.035.078 0 .1-.102.072-.82.328-.467.49.165.079.348.131.496.246.045.031.023.089-.017.115-.599.418-1.55.706-1.807 1.416-.074.204-.051.502-.223.67-.205.208-.507.323-.803.37-.89.147-1.796.094-2.685.235-.57.09-1.271.262-1.847.11-1.185-.308.262-1.426.684-1.745 1.192-.894 2.497-1.641 3.962-2.106q.393-.164.786-.32c.365-.145.662-.391 1.015-.553-.672.016-1.34.047-2 .037-1.859-.032-3.723-.23-5.575-.32-1.881-.088-3.762-.078-5.65-.067q-.982 0-1.966.015c0 .006 0 .016-.005.021.604.09 1.316.037 1.75.424.416.37.09.841-.257 1.155-.667.59-1.42 1.076-2.126 1.625-.245.188-.496.381-.81.45-.256.057-.45-.069-.667-.168-.034-.016-.05-.068-.028-.1.063-.078.142-.13.228-.193.194-.146.04-.193-.143-.25-.142-.047-.33-.142-.376-.288-.057-.198.348-.25.576-.303-.228-.13-.513-.266-.593-.496-.057-.173.217-.267.348-.283.08-.01.17 0 .25-.026.149-.042-.256-.34-.296-.36-.057-.026-.142-.063-.142-.136 0-.277.541-.356.81-.455-.195-.104-.497-.277-.32-.45.085-.083.24-.125.399-.15-.33.004-.656.015-.986.025l-.433.23.74.397-.74.398.74.397-.74.397.74.397-.74.397.74.397-.74.398.74.397-.74.397.74.397-.74.397.581.309c.308-.016.616-.047.906-.074.958-.083 1.904-.052 2.862-.02 2.115.067 4.23.01 6.344.057 2.12.047 4.247.204 6.367.225.639.005 1.271.036 1.904 0l.422-.225-.741-.397.74-.397-.74-.397.74-.398-.74-.397.74-.397-.74-.397.74-.397-.74-.398.74-.397-.74-.397zM23.043 3.69c-.82.45-1.664.889-2.56 1.192-.54.183-1.966.6-1.915-.366.035-.7.781-1.181 1.351-1.547 1.46-.936 3.694-1.897 5.53-1.876.239 0 .66.02.73.292.05.204-.177.419-.314.544-.804.732-1.853 1.228-2.822 1.761" fill="url(#ouu)"/><path style="mix-blend-mode:multiply" opacity=".3" d="M16.191 5.238c1.02-.768 2.15-1.395 3.244-2.07 1.448-.893 3.357-1.76 3.984-1.902 3.597-.81 4.355-.261 2.981.444-.666.34-1.539 1.01-2.171 1.406-.337.215-1.442.936-1.5 1.317-.102.638 1.215.147 2.07-.428 2.502-1.667 4.64-2.932 7.69-3.512a10 10 0 0 1 .558-.089l-.091-.047c-.987-.005-1.984.063-2.959.047-1.858-.031-3.722-.23-5.575-.319-1.88-.089-3.762-.078-5.648-.068-1.448.01-2.896.01-4.344.063l-.313.167c.467-.047.957.032 1.425.047.775.026 1.539-.089 2.314-.11.365-.01.735-.015 1.089.048.239.041.615.094.786.277.496.527-3.386 3.067-3.876 3.538-.53.506-1.089.893-1.744 1.087l.462.245c.307-.016.615-.047.906-.073.228-.02.45-.031.678-.042l.029-.026z" fill="url(#puu)"/><path opacity=".8" d="M20.615.958c-.183 1.009-5.746 4.515-4.064 3.763 1.174-.716 2.884-1.876 3.323-2.153.484-.303.969-.601 1.47-.889A23 23 0 0 1 24.365.232l.36-.136-.303-.016a86 86 0 0 0-4.337-.073c.803.23.575.68.53.951" fill="url(#quu)"/><path style="mix-blend-mode:screen" opacity=".8" d="M32.961.357c-.986-.005-1.983.063-2.958.047a44 44 0 0 1-1.847-.078c.029.444-.81 1.18-1.077 1.405-.388.324-.798.617-1.22.9-.61.407-1.55.914-1.819 1.614.126.026.251.02.371 0 .137-.073.268-.157.388-.235 2.502-1.667 4.64-2.932 7.69-3.512a10 10 0 0 1 .558-.089l-.091-.047z" fill="url(#ruu)"/><path style="mix-blend-mode:multiply" opacity=".6" d="M32.231 5.682c-.239 0-.473 0-.706-.01-.16 0-.314-.006-.473-.006-1.175-.01-2.372-.068-3.529-.12-.929-.042-1.892-.083-2.838-.104-.964-.021-1.944-.021-2.89-.021-1.135 0-2.303 0-3.455-.037h-.074c-.946-.031-1.847-.062-2.77.021l-.183.016c-.239.02-.484.042-.73.052h-.033l-.77-.413.741-.397-.74-.397.74-.397-.74-.397.74-.398-.74-.397.74-.413.741-.026-1.043.44.741.396-.74.398.74.397-.74.397.74.397-.74.397.387.204c.233-.01.461-.031.684-.052l.182-.016c.935-.084 1.881-.052 2.799-.02h.074c1.151.041 2.32.036 3.449.036.951 0 1.932 0 2.895.02.947.022 1.91.063 2.845.105 1.157.052 2.348.105 3.522.12.16 0 .314 0 .473.006.456.01.93.015 1.397-.01l.234-.126-.741-.397.74-.398-.74-.397.74-.397-.74-.397.74-.397-.74-.397.906-.486.507.01-.974.476.74.397-.74.397.74.397-.74.397.74.397-.74.398.74.397-.61.324h-.022q-.367.021-.736.02z" fill="url(#suu)"/><path style="mix-blend-mode:multiply" opacity=".8" d="M32.312 5.776c-.24 0-.474 0-.707-.01-.16 0-.314-.006-.473-.006a87 87 0 0 1-3.529-.12 125 125 0 0 0-2.838-.104c-.964-.021-1.944-.021-2.89-.021-1.135 0-2.303 0-3.455-.037h-.074c-.946-.031-1.847-.062-2.77.021l-.183.016c-.239.02-.484.042-.73.057h-.033l-.77-.412.741-.398-.74-.397.74-.397-.74-.397.74-.397-.74-.398.74-.412.741-.027-1.043.44.747.397-.747.397.747.397-.747.397.747.397-.747.398.388.203c.233-.01.461-.031.684-.052l.182-.016c.935-.083 1.881-.052 2.799-.02h.074c1.151.041 2.32.036 3.449.036.951 0 1.932 0 2.895.021.946.02 1.91.063 2.845.11 1.157.052 2.348.104 3.522.115.16 0 .314 0 .473.005.456.01.93.016 1.397-.01l.234-.126-.741-.397.74-.397-.74-.397.74-.398-.74-.397.74-.397-.74-.397.906-.486.507.01-.974.476.74.397-.74.397.74.397-.74.397.74.398-.74.397.74.397-.61.324h-.028q-.367.022-.735.02z" fill="url(#tuu)"/><path fill-rule="evenodd" clip-rule="evenodd" d="M21.197 9.004h3.225a8.8 8.8 0 0 1 1.806.13q.137.175.387.13l1.29.647a.85.85 0 0 0 .387.389q.494.407.903.906-.014.297.258.39.363.704.645 1.424a.6.6 0 0 0 .13.518v.648q.537-.044 1.031.13v3.238q.188.945-.774.842a.94.94 0 0 0-.258.324q.62.342 1.161.777-.014.297.258.389.17.828.13 1.684v.647q-.164 1.43-1.549 1.878.63.284 1.29.454a.9.9 0 0 0 .516.13q.585.368 1.29.518.196.228.517.259.509.386 1.032.777.152.175.387.259l.903 1.036.258.389.774 1.295q.01.215.129.389.231.738.516 1.425a.6.6 0 0 0 .129.518q.115.8.387 1.554a.9.9 0 0 0 .129.518l.387 1.555.129.518v1.943q-.126.376-.129.777A6.6 6.6 0 0 1 37.323 41l-.516-.389a.9.9 0 0 0-.258-.323q.914-.96 1.16-2.267h-5.16q-.164 1.335-.645 2.59-.174.412-.516.13l-.258-.26q-.192.007-.258-.194.459-1.095.645-2.266H15.263v-1.037h16.514v-2.072h-7.741v-1.037h13.288a15 15 0 0 0-.774-2.979 6.7 6.7 0 0 0-.903-2.137 167 167 0 0 0-9.289 0q-2.565 1.513-5.418.647l-2.451-1.23a10.9 10.9 0 0 1-2.516-2.98 11.3 11.3 0 0 0-4.709 2.397q3.03.097 6.063.065v1.036q-3.483-.033-6.966.065-.53.9-.903 1.878 12.965.195 25.93.13v1.036q-13.094-.033-26.188.065-.432 1.312-.774 2.655a5.8 5.8 0 0 0-.387 2.461h4.128v1.037h-3.87a4.4 4.4 0 0 0 1.16 2.267q-.17.138-.257.323-.255.19-.516.389a1.4 1.4 0 0 1-.387-.389.39.39 0 0 0-.258-.259l-.645-1.295-.13-.518a4.2 4.2 0 0 1-.257-1.684v-.648q.13-1.176.387-2.331.129 0 .129-.13l.258-.907.645-2.59q.27-.487.387-1.037 1.29-2.72 4-4.015l1.031-.39q.13 0 .13-.129a8.8 8.8 0 0 0 1.805-.583l-.903-.453a.39.39 0 0 0-.258-.259 2.25 2.25 0 0 1-.387-1.555v-.647q-.179-1.714 1.42-2.332a.63.63 0 0 0 .128-.518h-.774a.39.39 0 0 1-.258-.259v-2.591q-.032-.586.065-1.166.461-.18.967-.13.106-1.137.516-2.201.13 0 .13-.13.128 0 .128-.13a6.9 6.9 0 0 1 1.936-1.942q.128 0 .128-.13.13 0 .13-.13a6.4 6.4 0 0 1 2.45-.518" fill="#010101"/><path fill-rule="evenodd" clip-rule="evenodd" d="M20.552 10.04a93 93 0 0 1 4.902.065q3.124.901 3.741 4.08H16.81q.661-3.188 3.742-4.144" fill="#BFC6CE"/><path fill-rule="evenodd" clip-rule="evenodd" d="M15.778 15.222h14.45v2.073h-14.45z" fill="#A7AFBB"/><path fill-rule="evenodd" clip-rule="evenodd" d="M16.81 18.331h12.385v.518H16.81z" fill="#EDBD99"/><path fill-rule="evenodd" clip-rule="evenodd" d="M16.81 19.886h12.385q.05.444-.129.841l-2.064 1.166q-.792.15-1.548-.13-1.565-1.152-3.483-.777a20 20 0 0 1-1.935.907 2.1 2.1 0 0 1-1.033 0l-2.064-1.166a1.6 1.6 0 0 1-.129-.841" fill="#4B5B78"/><path fill-rule="evenodd" clip-rule="evenodd" d="M15.65 20.015q.223 1.39.064 2.85-.57-.588-.452-1.425a1.9 1.9 0 0 1 .387-1.425m14.578 0q.668.533.516 1.425.12.837-.451 1.425a32 32 0 0 1-.065-2.85" fill="#CF9375"/><path fill-rule="evenodd" clip-rule="evenodd" d="M16.81 21.829q2.565 2.213 5.29.194a5 5 0 0 1 2.064.13q2.576 1.752 4.967-.325.497 3.63-2.516 5.635-3.615 2.445-7.224 0-2.982-2.005-2.58-5.635" fill="#ECBB98"/><path fill-rule="evenodd" clip-rule="evenodd" d="M18.488 28.176h-1.162v-.518q-3.032.032-6.063-.065a11.3 11.3 0 0 1 4.709-2.396 10.9 10.9 0 0 0 2.516 2.979" fill="#A5ADB8"/><path fill-rule="evenodd" clip-rule="evenodd" d="M29.84 25.197q2.745.632 4.903 2.396a84 84 0 0 1-6.58 0 6.65 6.65 0 0 0 1.677-2.396" fill="#A5ADB9"/><path fill-rule="evenodd" clip-rule="evenodd" d="M17.326 28.176h1.162l2.45 1.23q2.855.866 5.42-.647 4.643-.13 9.288 0 .639.993.903 2.137v.389h-1.161v-.518q-12.966.065-25.931-.13.374-.978.903-1.878 3.483-.098 6.966-.065z" fill="#BFC6CF"/><path fill-rule="evenodd" clip-rule="evenodd" d="M36.549 30.896q.534 1.43.774 2.98H24.035v.647h-1.032v-.648H9.586v.648H8.425q.342-1.343.774-2.655 13.095-.098 26.189-.065v-.518h1.16z" fill="#A7AFBA"/><path fill-rule="evenodd" clip-rule="evenodd" d="M23.003 34.523v.389H14.23q-.057 1.312.13 2.59.19 1.445.773 2.785a1.1 1.1 0 0 1-.258.324l-.516.26a.39.39 0 0 1-.258-.26 31 31 0 0 1-.903-3.238v-2.461H9.586v-1.037h13.417z" fill="#010101"/><path fill-rule="evenodd" clip-rule="evenodd" d="M8.425 34.523h1.16v.389h3.613v2.461q-.474.19-1.032.13v-.519H8.038a5.8 5.8 0 0 1 .387-2.46m14.578-.001h1.032v.389h7.74v2.072H15.263v.518h-.903a14 14 0 0 1-.129-2.59h8.773z" fill="#BFC6CF"/><path fill-rule="evenodd" clip-rule="evenodd" d="M32.808 34.912q2.454-.065 4.902.13.32.943.258 1.942h-5.16z" fill="#BEC5CE"/><path fill-rule="evenodd" clip-rule="evenodd" d="M14.36 37.503h.902v.518h16.255a10 10 0 0 1-.645 2.267q.066.2.258.194-.066.163-.258.13H14.875q.15-.129.258-.325a10.3 10.3 0 0 1-.774-2.785" fill="#A7AFBB"/><path fill-rule="evenodd" clip-rule="evenodd" d="M36.807 40.611h-4.903q.481-1.255.646-2.59h5.16a4.4 4.4 0 0 1-1.161 2.267q.171.138.258.323m-23.609-3.238a31 31 0 0 0 .903 3.238H9.2a.9.9 0 0 1 .258-.323 4.4 4.4 0 0 1-1.161-2.267h3.87v-.519q.558.06 1.032-.129" fill="#A5ADB9"/><defs><linearGradient id="auu" x1=".199" y1="24.889" x2="44.783" y2="24.473" gradientUnits="userSpaceOnUse"><stop stop-color="#E4C494"/><stop offset=".47" stop-color="#9D6C3F"/><stop offset=".87" stop-color="#8C662C"/></linearGradient><linearGradient id="buu" x1=".238" y1="24.79" x2="44.537" y2="24.376" gradientUnits="userSpaceOnUse"><stop stop-color="#AB923A"/><stop offset=".47" stop-color="#DDCA88"/><stop offset=".74" stop-color="#E1C560"/><stop offset=".95" stop-color="#F1C164"/></linearGradient><linearGradient id="duu" x1="32.688" y1="47.192" x2="13.307" y2="47.192" gradientUnits="userSpaceOnUse"><stop stop-color="#9F9C95"/><stop offset=".3" stop-color="#F4EDD7"/><stop offset=".53" stop-color="#F8F8FC"/><stop offset=".9" stop-color="#D8D3C5"/><stop offset=".95" stop-color="#D3CEBD"/></linearGradient><linearGradient id="euu" x1="32.688" y1="47.192" x2="13.307" y2="47.192" gradientUnits="userSpaceOnUse"><stop stop-color="#9F9C95"/><stop offset=".3" stop-color="#F4EDD7"/><stop offset=".95" stop-color="#D3CEBD"/></linearGradient><linearGradient id="fuu" x1="32.688" y1="47.297" x2="13.307" y2="47.297" gradientUnits="userSpaceOnUse"><stop stop-color="#9F9C95"/><stop offset=".3" stop-color="#F4EDD7"/><stop offset=".95" stop-color="#D3CEBD"/></linearGradient><linearGradient id="guu" x1="33.332" y1="44.872" x2="21.874" y2="52.422" gradientUnits="userSpaceOnUse"><stop offset=".18" stop-color="#9F9C95"/><stop offset=".43" stop-color="#F4EDD7"/><stop offset=".65" stop-color="#F8F8FC"/><stop offset=".91" stop-color="#D8D3C5"/><stop offset=".95" stop-color="#D3CEBD"/></linearGradient><linearGradient id="huu" x1="25.671" y1="45.353" x2="13.79" y2="51.652" gradientUnits="userSpaceOnUse"><stop offset=".18" stop-color="#9F9C95"/><stop offset=".43" stop-color="#F4EDD7"/><stop offset=".65" stop-color="#F8F8FC"/><stop offset=".91" stop-color="#D8D3C5"/><stop offset=".95" stop-color="#D3CEBD"/></linearGradient><linearGradient id="iuu" x1="22.997" y1="46.042" x2="22.997" y2="49.042" gradientUnits="userSpaceOnUse"><stop stop-color="#9F9C95"/><stop offset=".25" stop-color="#A6A39A"/><stop offset=".63" stop-color="#BCB7AB"/><stop offset=".95" stop-color="#D3CEBD"/></linearGradient><linearGradient id="juu" x1="22.923" y1="46.042" x2="22.923" y2="49.042" gradientUnits="userSpaceOnUse"><stop stop-color="#9F9C95"/><stop offset=".25" stop-color="#A6A39A"/><stop offset=".63" stop-color="#BCB7AB"/><stop offset=".95" stop-color="#D3CEBD"/></linearGradient><linearGradient id="nuu" x1="-.579" y1="2.792" x2="-.009" y2="2.792" gradientUnits="userSpaceOnUse"><stop stop-color="#9F9C95"/><stop offset=".3" stop-color="#F4EDD7"/><stop offset=".53" stop-color="#F8F8FC"/><stop offset=".9" stop-color="#D8D3C5"/><stop offset=".95" stop-color="#D3CEBD"/></linearGradient><linearGradient id="ouu" x1="-.578" y1="2.792" x2="-.008" y2="2.792" gradientUnits="userSpaceOnUse"><stop stop-color="#9F9C95"/><stop offset=".3" stop-color="#F4EDD7"/><stop offset=".95" stop-color="#D3CEBD"/></linearGradient><linearGradient id="puu" x1="13.997" y1="2.693" x2="33.377" y2="2.693" gradientUnits="userSpaceOnUse"><stop stop-color="#9F9C95"/><stop offset=".3" stop-color="#F4EDD7"/><stop offset=".95" stop-color="#D3CEBD"/></linearGradient><linearGradient id="quu" x1="13.358" y1="5.113" x2="24.816" y2="-2.438" gradientUnits="userSpaceOnUse"><stop offset=".18" stop-color="#9F9C95"/><stop offset=".43" stop-color="#F4EDD7"/><stop offset=".65" stop-color="#F8F8FC"/><stop offset=".91" stop-color="#D8D3C5"/><stop offset=".95" stop-color="#D3CEBD"/></linearGradient><linearGradient id="ruu" x1="21.019" y1="4.632" x2="32.902" y2="-1.662" gradientUnits="userSpaceOnUse"><stop offset=".18" stop-color="#9F9C95"/><stop offset=".43" stop-color="#F4EDD7"/><stop offset=".65" stop-color="#F8F8FC"/><stop offset=".91" stop-color="#D8D3C5"/><stop offset=".95" stop-color="#D3CEBD"/></linearGradient><linearGradient id="suu" x1="-.579" y1="6.461" x2="-.098" y2="1.826" gradientUnits="userSpaceOnUse"><stop stop-color="#9F9C95"/><stop offset=".25" stop-color="#A6A39A"/><stop offset=".63" stop-color="#BCB7AB"/><stop offset=".95" stop-color="#D3CEBD"/></linearGradient><linearGradient id="tuu" x1="23.881" y1="6.456" x2="23.881" y2="1.836" gradientUnits="userSpaceOnUse"><stop stop-color="#9F9C95"/><stop offset=".25" stop-color="#A6A39A"/><stop offset=".63" stop-color="#BCB7AB"/><stop offset=".95" stop-color="#D3CEBD"/></linearGradient><radialGradient id="cuu" cx="0" cy="0" r="1" gradientUnits="userSpaceOnUse" gradientTransform="matrix(80.56872 -.63173 .57918 73.86733 4.834 -12.331)"><stop offset=".19" stop-color="#C09F4A"/><stop offset=".63" stop-color="#CD9138"/><stop offset=".92" stop-color="#AD7219"/></radialGradient><radialGradient id="muu" cx="0" cy="0" r="1" gradientUnits="userSpaceOnUse" gradientTransform="matrix(62.8392 0 0 57.4655 21.687 15.038)"><stop offset=".31" stop-color="#FFFAE8"/><stop offset=".43" stop-color="#E8E1C9"/><stop offset=".51" stop-color="#E1CE8B"/><stop offset=".62" stop-color="#CF9662"/><stop offset=".64" stop-color="#865E39"/><stop offset=".76" stop-color="#8E6A34"/><stop offset="1" stop-color="#7B550A"/></radialGradient></defs></svg>
