<svg width="45" height="50" viewBox="0 0 45 50" fill="none" xmlns="http://www.w3.org/2000/svg">
<path style="mix-blend-mode:multiply" opacity="0.6" d="M44.5793 1.99029L0 2.33983L0.420742 47.4435L45 47.094L44.5793 1.99029Z" fill="url(#paint0_linear_862_1978)"/>
<path d="M44.3345 2.03398L0.0345459 2.38133L0.452655 47.2028L44.7526 46.8555L44.3345 2.03398Z" fill="url(#paint1_linear_862_1978)"/>
<path d="M41.8784 4.55137L2.52026 4.85997L2.86096 41.383L42.2191 41.0744L41.8784 4.55137Z" fill="url(#paint2_radial_862_1978)"/>
<path opacity="0.6" d="M14.054 45.0441L13.313 45.4413L14.054 45.8385L13.313 46.2357L14.054 46.6328L13.313 47.03L14.054 47.4272L13.313 47.8244L14.054 48.2215L13.313 48.6187L14.054 49.0159L13.313 49.4131L13.7348 49.6378C14.7209 49.6482 15.7184 49.5751 16.6931 49.5907C18.5514 49.6221 20.4153 49.8207 22.2679 49.9095C24.1489 49.9984 26.03 49.9879 27.9167 49.9775C29.3646 49.967 30.8124 49.967 32.2603 49.9148L32.6935 49.6848L31.9524 49.2876L32.6935 48.8905L31.9524 48.4933L32.6935 48.0961L31.9524 47.6989L32.6935 47.3018L31.9524 46.9046L32.6935 46.5074L31.9524 46.1102L32.6935 45.7131L31.9524 45.3159L32.6935 44.9187L32.1121 44.6104C31.8042 44.6208 31.4964 44.6574 31.2057 44.6783C30.2481 44.7619 29.3076 44.7306 28.35 44.6992C26.2352 44.6313 24.1204 44.6888 22 44.6417C19.8795 44.5947 17.7534 44.4379 15.6329 44.417C14.9945 44.4118 14.3618 44.3857 13.7291 44.417L13.3073 44.6417L14.0483 45.0389L14.054 45.0441Z" fill="url(#paint3_linear_862_1978)"/>
<path style="mix-blend-mode:multiply" opacity="0.3" d="M14.0539 49.0108L13.3129 49.4079L13.7347 49.6327C13.8259 49.6327 13.9228 49.6327 14.014 49.6327C13.9855 49.6013 13.957 49.5647 13.9456 49.5177C13.9171 49.4079 14.0425 49.2982 14.1109 49.225C14.3902 48.9115 13.9912 48.8174 13.786 48.6554C13.7575 48.6345 13.7518 48.577 13.786 48.5561C13.8886 48.4829 14.6068 48.2269 14.2534 48.0649C14.0881 47.9865 13.9057 47.9342 13.7575 47.8245C13.7176 47.7931 13.7347 47.7356 13.7746 47.7147C14.3731 47.2966 15.325 47.0092 15.5815 46.2985C15.6556 46.0947 15.6328 45.7968 15.8038 45.6296C16.009 45.4258 16.3111 45.3056 16.6076 45.2585C17.4968 45.1122 18.4088 45.1645 19.2923 45.0234C19.8623 44.9345 20.5635 44.7621 21.1392 44.9136C22.3248 45.2219 20.877 46.3403 20.4552 46.6591C19.2638 47.558 17.9585 48.3 16.4936 48.7652C16.2313 48.8749 15.9691 48.9794 15.7069 49.0839C15.3421 49.2303 15.0457 49.4759 14.6923 49.6431C15.3649 49.6222 16.0318 49.5961 16.6931 49.6065C18.5513 49.6379 20.4153 49.8365 22.2678 49.9253C24.1489 50.0142 26.0299 50.0037 27.9167 49.9933C28.5722 49.9933 29.2277 49.988 29.8832 49.9776C29.8832 49.9723 29.8832 49.9619 29.8889 49.9567C29.2847 49.8678 28.5722 49.9201 28.139 49.5334C27.7229 49.1623 28.0478 48.692 28.3955 48.3837C29.0624 47.7931 29.8148 47.3019 30.5216 46.7584C30.7667 46.5702 31.0175 46.3821 31.331 46.3089C31.5876 46.2515 31.7814 46.3769 31.998 46.4762C32.0322 46.4919 32.0493 46.5441 32.0265 46.5755C31.9638 46.6539 31.884 46.7061 31.7985 46.7688C31.6047 46.9152 31.7586 46.9622 31.941 47.0197C32.0835 47.0667 32.2716 47.166 32.3172 47.3071C32.3742 47.5057 31.9695 47.5579 31.7415 47.6102C31.9695 47.7409 32.2545 47.8767 32.3286 48.1067C32.3856 48.2791 32.112 48.3732 31.9809 48.3889C31.9011 48.3993 31.8042 48.3941 31.7301 48.415C31.5819 48.4568 31.9866 48.7547 32.0265 48.7756C32.0835 48.8017 32.169 48.8383 32.169 48.9115C32.169 49.1885 31.6275 49.2668 31.3595 49.3661C31.5534 49.4707 31.8555 49.6431 31.6788 49.8156C31.5933 49.8992 31.4394 49.941 31.2797 49.9671C31.6104 49.9619 31.9353 49.9514 32.2659 49.941L32.6991 49.7111L31.9581 49.3139L32.6991 48.9167L31.9581 48.5195L32.6991 48.1224L31.9581 47.7252L32.6991 47.328L31.9581 46.9308L32.6991 46.5337L31.9581 46.1365L32.6991 45.7393L31.9581 45.3421L32.6991 44.945L32.1177 44.6366C31.8099 44.6471 31.5021 44.6837 31.2113 44.7046C30.2537 44.7882 29.3132 44.7568 28.3556 44.7255C26.2408 44.6575 24.1261 44.715 22.0056 44.668C19.8851 44.621 17.759 44.4642 15.6385 44.4433C15.0001 44.438 14.3674 44.4119 13.7347 44.4433L13.3129 44.668L14.0539 45.0652L13.3129 45.4623L14.0539 45.8595L13.3129 46.2567L14.0539 46.6539L13.3129 47.051L14.0539 47.4482L13.3129 47.8454L14.0539 48.2426L13.3129 48.6397L14.0539 49.0369V49.0108ZM23.6472 46.2933C24.4681 45.8438 25.3117 45.4049 26.2066 45.0965C26.7481 44.9084 28.1675 44.4955 28.1219 45.4623C28.0877 46.1626 27.3409 46.6434 26.7709 47.0092C25.3117 47.9447 23.0772 48.9063 21.2418 48.8853C21.0024 48.8853 20.5806 48.8644 20.5122 48.5927C20.4609 48.3889 20.6889 48.1746 20.8257 48.0492C21.6294 47.3176 22.6782 46.8211 23.6472 46.288V46.2933Z" fill="url(#paint4_linear_862_1978)"/>
<path style="mix-blend-mode:multiply" opacity="0.3" d="M30.499 44.7517C29.4787 45.5199 28.3501 46.147 27.2556 46.8159C25.8078 47.7096 23.8983 48.5771 23.2712 48.7182C19.6744 49.5282 18.9163 48.9795 20.2901 48.274C20.957 47.9343 21.8348 47.2654 22.4618 46.8682C22.7981 46.6539 23.904 45.9327 23.961 45.5512C24.0636 44.9137 22.7468 45.4101 21.8918 45.9798C19.3894 47.6469 17.2519 48.9168 14.2023 49.4916C14.0142 49.5282 13.8318 49.5543 13.6437 49.5805L13.7349 49.6275C14.721 49.638 15.7185 49.5648 16.6933 49.5805C18.5515 49.6118 20.4155 49.8104 22.268 49.8993C24.1491 49.9881 26.0301 49.9776 27.9169 49.9672C29.3647 49.9567 30.8125 49.9567 32.2604 49.9045L32.5739 49.7373C32.1065 49.7843 31.6163 49.7059 31.1488 49.6902C30.3736 49.6641 29.6098 49.7791 28.8346 49.8C28.4698 49.8104 28.0993 49.8156 27.7459 49.7529C27.5064 49.7111 27.1302 49.6589 26.9592 49.476C26.4633 48.9481 30.3508 46.4083 30.8353 45.938C31.3654 45.4311 31.9241 45.0443 32.5796 44.851L32.1179 44.6053C31.8101 44.6158 31.5023 44.6524 31.2115 44.6733C30.9835 44.6942 30.7612 44.7046 30.5332 44.7151C30.5218 44.7255 30.5161 44.7308 30.5047 44.7412L30.499 44.7517Z" fill="url(#paint5_linear_862_1978)"/>
<path opacity="0.8" d="M26.0754 49.0317C26.2578 48.0231 31.8211 44.5165 30.1396 45.269C28.9654 45.985 27.2553 47.1451 26.8164 47.4221C26.3319 47.7252 25.8474 48.0231 25.3458 48.3105C24.3824 48.8593 23.3678 49.3505 22.3247 49.7581C22.205 49.8052 22.0853 49.847 21.9656 49.894C22.0682 49.8992 22.1651 49.9044 22.2677 49.9097C23.7155 49.9776 25.1577 49.9881 26.6055 49.9828C25.8018 49.7529 26.0298 49.3035 26.0754 49.0369V49.0317Z" fill="url(#paint6_linear_862_1978)"/>
<path style="mix-blend-mode:screen" opacity="0.8" d="M13.7292 49.6326C14.7153 49.6431 15.7128 49.5699 16.6876 49.5856C17.3032 49.596 17.9188 49.6274 18.5344 49.664C18.5059 49.2198 19.3438 48.4829 19.6117 48.2582C19.9993 47.9342 20.4098 47.6415 20.8316 47.3593C21.4415 46.9517 22.382 46.4448 22.6499 45.7445C22.5245 45.7184 22.3991 45.7236 22.2794 45.7445C22.1426 45.8177 22.0115 45.9013 21.8918 45.9797C19.3894 47.6468 17.2519 48.9167 14.2023 49.4915C14.0142 49.5281 13.8318 49.5542 13.6437 49.5804L13.7349 49.6274L13.7292 49.6326Z" fill="url(#paint7_linear_862_1978)"/>
<path style="mix-blend-mode:multiply" opacity="0.3" d="M31.827 46.9569C31.9695 46.9569 32.1177 46.9569 32.2602 46.9569L32.169 46.9099L32.91 46.5127L32.169 46.1155L32.91 45.7184L32.169 45.3212L32.91 44.924L32.1405 44.5112H32.1063C31.8555 44.5216 31.6104 44.5425 31.3767 44.5687L31.1943 44.5843C30.2708 44.6627 29.3759 44.6366 28.424 44.6052H28.3499C27.1985 44.5634 26.0242 44.5687 24.8956 44.5687C23.9494 44.5687 22.9689 44.5686 22.0056 44.5477C21.0594 44.5268 20.0961 44.485 19.1669 44.438C18.0098 44.3857 16.8128 44.3335 15.6385 44.323C15.4789 44.323 15.325 44.323 15.1654 44.3126C14.9317 44.3126 14.698 44.3021 14.4643 44.3021C14.2306 44.3021 13.9741 44.3021 13.729 44.323H13.7005L13.0906 44.647L13.8316 45.0442L13.0906 45.4414L13.8316 45.8386L13.0906 46.2357L13.8316 46.6329L13.0906 47.0301L13.2502 47.1137C13.3813 47.1085 13.5124 47.0928 13.6378 47.0876L13.5295 47.0301L14.2705 46.6329L13.5295 46.2357L14.2705 45.8386L13.5295 45.4414L14.2705 45.0442L13.5295 44.647L13.7632 44.5216C14.2249 44.4955 14.698 44.5059 15.1597 44.5112C15.3193 44.5112 15.4732 44.5164 15.6328 44.5216C16.8071 44.5321 17.9984 44.5843 19.1555 44.6366C20.0904 44.6784 21.0537 44.7202 21.9999 44.7463C22.9632 44.7672 23.9494 44.7672 24.8956 44.7672C26.0242 44.7672 27.1928 44.7672 28.3442 44.8038H28.4183C29.3303 44.8352 30.2765 44.8665 31.2171 44.7829L31.3995 44.7672C31.6218 44.7463 31.8555 44.7254 32.0835 44.715L32.4711 44.9188L31.7301 45.316L32.4711 45.7131L31.7301 46.1103L32.4711 46.5075L31.7301 46.9047L31.827 46.9569Z" fill="url(#paint8_linear_862_1978)"/>
<path style="mix-blend-mode:multiply" opacity="0.3" d="M31.9238 46.957C32.0664 46.957 32.2089 46.957 32.3514 46.9518L32.0892 46.8107L32.8302 46.4135L32.0892 46.0163L32.8302 45.6191L32.0892 45.222L32.8302 44.8248L32.0607 44.4119H32.0265C31.7756 44.4224 31.5305 44.4485 31.2968 44.4694L31.1144 44.4851C30.191 44.5687 29.2961 44.5374 28.3442 44.506H28.2701C27.1186 44.4694 25.9444 44.4694 24.8158 44.4694C23.8695 44.4694 22.8891 44.4694 21.9258 44.4485C20.9796 44.4276 20.0162 44.3858 19.0871 44.344C17.93 44.2917 16.7329 44.2395 15.5587 44.2238C15.3991 44.2238 15.2452 44.2238 15.0856 44.2186C14.8519 44.2186 14.6182 44.2081 14.3788 44.2081C14.1394 44.2081 13.8886 44.2081 13.6435 44.229H13.6207L13.0107 44.553L13.7518 44.9502L13.0107 45.3474L13.7518 45.7446L13.0107 46.1417L13.7518 46.5389L13.0107 46.9361L13.3414 47.1138C13.4725 47.1033 13.5979 47.0929 13.729 47.0824L13.4554 46.9361L14.1964 46.5389L13.4554 46.1417L14.1964 45.7446L13.4554 45.3474L14.1964 44.9502L13.4554 44.553L13.6891 44.4276C14.1508 44.4015 14.6239 44.4119 15.0856 44.4172C15.2452 44.4172 15.3991 44.4172 15.5587 44.4224C16.7329 44.4328 17.9243 44.4851 19.0814 44.5374C20.0162 44.5792 20.9796 44.621 21.9258 44.6471C22.8891 44.668 23.8752 44.668 24.8215 44.668C25.9501 44.668 27.1186 44.668 28.2701 44.7046H28.3442C29.2562 44.736 30.2024 44.7673 31.1429 44.6837L31.3253 44.668C31.5476 44.6471 31.7813 44.6262 32.0093 44.6158L32.397 44.8196L31.6559 45.2167L32.397 45.6139L31.6559 46.0111L32.397 46.4083L31.6559 46.8054L31.9295 46.9518L31.9238 46.957Z" fill="url(#paint9_linear_862_1978)"/>
<mask id="mask0_862_1978" style="mask-type:luminance" maskUnits="userSpaceOnUse" x="2" y="4" width="41" height="38">
<path d="M42.0039 4.5819L2.34937 4.89282L2.69099 41.5151L42.3455 41.2042L42.0039 4.5819Z" fill="white"/>
</mask>
<g mask="url(#mask0_862_1978)">
<mask id="mask1_862_1978" style="mask-type:luminance" maskUnits="userSpaceOnUse" x="1" y="4" width="43" height="60">
<path d="M43.2383 4.03589H1.30798V63.6851H43.2383V4.03589Z" fill="white"/>
</mask>
<g mask="url(#mask1_862_1978)">
<path d="M44.0307 1.52222H0.567017V65.3993H44.0307V1.52222Z" fill="url(#paint10_radial_862_1978)"/>
<path d="M4.47698 5.95405V6.23102L4.25467 7.22396H3.90696L4.15207 6.17877H3.81006V5.94882H4.47128L4.47698 5.95405Z" fill="#64541C"/>
<path d="M4.81903 5.95398V6.06895C4.81903 6.12644 4.81333 6.1787 4.79623 6.21528C4.77913 6.25186 4.75063 6.28844 4.71643 6.31457C4.67653 6.3407 4.63663 6.36161 4.58533 6.36683V6.27799C4.61953 6.26231 4.64233 6.23618 4.64233 6.20483H4.58533V5.95921H4.81903V5.95398Z" fill="#64541C"/>
<path d="M5.67425 6.38774V6.81105C5.67425 6.90511 5.67425 6.97828 5.65715 7.02009C5.64575 7.06189 5.62295 7.1037 5.58875 7.14028C5.55455 7.17686 5.50895 7.20822 5.45765 7.2239C5.40635 7.23958 5.34934 7.25003 5.28664 7.25003C5.20114 7.25003 5.13274 7.23958 5.08144 7.2239C5.02444 7.20822 4.98453 7.17686 4.95033 7.14028C4.91613 7.1037 4.89333 7.06189 4.88193 7.02009C4.86483 6.97828 4.85913 6.91557 4.85913 6.82672V6.38252C4.85913 6.26755 4.87053 6.1787 4.89333 6.12122C4.91613 6.06373 4.96173 6.0167 5.02444 5.98012C5.09284 5.94354 5.16694 5.92786 5.26384 5.92786C5.33794 5.92786 5.40635 5.93831 5.46905 5.96444C5.53175 5.99057 5.57735 6.0167 5.60585 6.05328C5.63435 6.08986 5.65715 6.12644 5.66855 6.17348C5.67995 6.21529 5.68565 6.28845 5.68565 6.38252L5.67425 6.38774ZM5.32654 6.28322C5.32654 6.21529 5.32654 6.17348 5.31514 6.1578C5.30944 6.14212 5.29234 6.13167 5.26384 6.13167C5.23534 6.13167 5.22394 6.14212 5.21254 6.1578C5.20114 6.17348 5.20114 6.21529 5.20114 6.28322V6.90511C5.20114 6.97828 5.20114 7.02531 5.21254 7.04099C5.21824 7.05667 5.23534 7.0619 5.26384 7.0619C5.29234 7.0619 5.30374 7.05144 5.31514 7.03576C5.32084 7.02009 5.32654 6.97828 5.32654 6.91557V6.28322Z" fill="#64541C"/>
<path d="M5.99896 5.95398V6.06895C5.99896 6.12644 5.99326 6.1787 5.97616 6.21528C5.95906 6.25186 5.93626 6.28844 5.89636 6.31457C5.85646 6.3407 5.81656 6.36161 5.76526 6.36683V6.27799C5.79946 6.26231 5.82226 6.23618 5.82226 6.20483H5.76526V5.95921H5.99896V5.95398ZM6.31247 5.95398V6.06895C6.31247 6.12644 6.30677 6.1787 6.28967 6.21528C6.27257 6.25186 6.24977 6.28844 6.20987 6.31457C6.16997 6.3407 6.13007 6.36161 6.07877 6.36683V6.27799C6.11297 6.26231 6.13007 6.23618 6.13577 6.20483H6.07877V5.95921H6.31247V5.95398Z" fill="#64541C"/>
<path d="M4.42605 9.53376H4.07834C4.07834 9.47628 4.07834 9.4397 4.07834 9.42402C4.07834 9.40834 4.07264 9.39789 4.05554 9.38744C4.04414 9.37698 4.02704 9.37176 4.00424 9.37176C3.98713 9.37176 3.97003 9.37698 3.95863 9.38744C3.94723 9.39789 3.94153 9.40834 3.94153 9.42402C3.94153 9.4397 3.94153 9.47105 3.94153 9.51809V9.7219C3.95863 9.69054 3.98713 9.66441 4.02134 9.64351C4.05554 9.62783 4.09544 9.61738 4.14674 9.61738C4.20944 9.61738 4.26644 9.63306 4.31774 9.66441C4.36904 9.69577 4.39755 9.73235 4.40895 9.77938C4.42035 9.82119 4.43175 9.88391 4.43175 9.95707V10.0564C4.43175 10.1452 4.43175 10.2131 4.42035 10.2549C4.41465 10.2968 4.39185 10.3386 4.36334 10.3751C4.32914 10.4117 4.28354 10.4379 4.23224 10.4588C4.17524 10.4797 4.11254 10.4901 4.03274 10.4901C3.94153 10.4901 3.86173 10.4797 3.80473 10.4535C3.74773 10.4326 3.69643 10.396 3.66793 10.3542C3.63373 10.3072 3.61662 10.2654 3.61092 10.2131C3.61092 10.1661 3.60522 10.072 3.60522 9.93094V9.75325C3.60522 9.6017 3.60522 9.50241 3.61092 9.45015C3.61092 9.39789 3.63373 9.35086 3.67363 9.30382C3.70783 9.25679 3.75343 9.22543 3.81613 9.1993C3.87883 9.1784 3.94723 9.16272 4.02704 9.16272C4.12394 9.16272 4.20374 9.1784 4.26644 9.20453C4.32914 9.23066 4.37474 9.27246 4.39755 9.32472C4.42605 9.37698 4.43745 9.44492 4.43745 9.52331L4.42605 9.53376ZM4.07834 9.93094C4.07834 9.8839 4.07834 9.85777 4.06124 9.83687C4.04984 9.82119 4.03274 9.81074 4.00424 9.81074C3.98143 9.81074 3.96433 9.82119 3.95293 9.83687C3.94153 9.85255 3.93583 9.8839 3.93583 9.93094V10.1609C3.93583 10.2184 3.93583 10.2549 3.95293 10.2706C3.96433 10.2863 3.98143 10.2968 4.00424 10.2968C4.02134 10.2968 4.03274 10.2915 4.04984 10.2759C4.06694 10.2602 4.07264 10.2236 4.07264 10.1661V9.93094H4.07834Z" fill="#64541C"/>
<path d="M4.75092 9.19934V9.31431C4.75092 9.3718 4.74522 9.42406 4.72812 9.46064C4.71102 9.50245 4.68822 9.5338 4.64832 9.55993C4.60841 9.58606 4.56851 9.60174 4.51721 9.61219V9.51813C4.55141 9.50245 4.56851 9.47632 4.57421 9.45019H4.51721V9.19934H4.75092Z" fill="#64541C"/>
<path d="M5.67414 9.53376H5.32643C5.32643 9.47628 5.32643 9.4397 5.32643 9.42402C5.32643 9.40834 5.32073 9.39789 5.30363 9.38744C5.29223 9.37698 5.27513 9.37176 5.25233 9.37176C5.23523 9.37176 5.21813 9.37698 5.20673 9.38744C5.19533 9.39789 5.18963 9.40834 5.18393 9.42402C5.18393 9.4397 5.18393 9.47105 5.18393 9.51809V9.7219C5.20103 9.69054 5.22953 9.66441 5.26373 9.64351C5.29793 9.62783 5.34353 9.61738 5.38913 9.61738C5.45184 9.61738 5.50884 9.63306 5.56014 9.66441C5.61144 9.69577 5.63994 9.73235 5.65134 9.77938C5.66274 9.82119 5.67414 9.88391 5.67414 9.95707V10.0564C5.67414 10.1452 5.67414 10.2131 5.66274 10.2549C5.65704 10.2968 5.63424 10.3386 5.60574 10.3751C5.57154 10.4117 5.52594 10.4379 5.46894 10.4588C5.41193 10.4797 5.34923 10.4901 5.26943 10.4901C5.17823 10.4901 5.09843 10.4797 5.04142 10.4535C4.98442 10.4326 4.93882 10.396 4.90462 10.3542C4.87042 10.3072 4.85332 10.2654 4.84762 10.2131C4.84762 10.1661 4.84192 10.072 4.84192 9.93094V9.75325C4.84192 9.6017 4.84192 9.50241 4.84762 9.45015C4.84762 9.39789 4.87042 9.35086 4.91032 9.30382C4.94452 9.25679 4.99012 9.22543 5.05282 9.1993C5.11553 9.1784 5.18393 9.16272 5.26373 9.16272C5.36063 9.16272 5.44043 9.1784 5.50314 9.20453C5.56584 9.23066 5.61144 9.27246 5.63424 9.32472C5.66274 9.37698 5.67414 9.44492 5.67414 9.52331V9.53376ZM5.32643 9.93094C5.32643 9.8839 5.32643 9.85777 5.30933 9.83687C5.29793 9.82119 5.28083 9.81074 5.25803 9.81074C5.23523 9.81074 5.21813 9.82119 5.20673 9.83687C5.19533 9.85255 5.18963 9.8839 5.18963 9.93094V10.1609C5.18963 10.2184 5.18963 10.2549 5.20673 10.2706C5.21813 10.2863 5.23523 10.2968 5.25803 10.2968C5.27513 10.2968 5.28653 10.2915 5.30363 10.2759C5.32073 10.2602 5.32643 10.2236 5.32643 10.1661V9.93094Z" fill="#64541C"/>
<path d="M5.99921 9.19934V9.31431C5.99921 9.3718 5.99351 9.42406 5.97641 9.46064C5.95931 9.50245 5.93651 9.5338 5.89661 9.55993C5.85671 9.58606 5.8168 9.60174 5.7655 9.61219V9.51813C5.7997 9.50245 5.8225 9.47632 5.8225 9.45019H5.7655V9.19934H5.99921ZM6.31272 9.19934V9.31431C6.31272 9.3718 6.30702 9.42406 6.28992 9.46064C6.27282 9.50245 6.25002 9.5338 6.21011 9.55993C6.17021 9.58606 6.13031 9.60174 6.07901 9.61219V9.51813C6.11321 9.50245 6.13031 9.47632 6.13601 9.45019H6.07901V9.19934H6.31272Z" fill="#64541C"/>
<path d="M4.43745 12.779H4.08974C4.08974 12.7215 4.08974 12.6797 4.08974 12.6693C4.08974 12.6536 4.07834 12.6431 4.06694 12.6327C4.05554 12.6222 4.03844 12.617 4.01564 12.617C3.99854 12.617 3.98143 12.617 3.97003 12.6327C3.95863 12.6431 3.95293 12.6536 3.95293 12.6693C3.95293 12.685 3.95293 12.7163 3.95293 12.7633V12.9672C3.97003 12.9358 3.99854 12.9097 4.03274 12.8888C4.06694 12.8731 4.11254 12.8626 4.15814 12.8626C4.22084 12.8626 4.27784 12.8783 4.32914 12.9097C4.38045 12.941 4.40895 12.9776 4.42035 13.0246C4.43175 13.0665 4.43745 13.1292 4.43745 13.2023V13.3016C4.43745 13.3905 4.43745 13.4584 4.42605 13.5002C4.42035 13.542 4.39755 13.5838 4.36905 13.6204C4.33484 13.657 4.29494 13.6883 4.23794 13.7093C4.18094 13.7302 4.11824 13.7406 4.03844 13.7406C3.94723 13.7406 3.86743 13.7302 3.81043 13.704C3.75343 13.6831 3.70783 13.6465 3.67363 13.6047C3.63943 13.5629 3.62233 13.5159 3.61662 13.4636C3.61092 13.4166 3.60522 13.3225 3.60522 13.1814V13.0037C3.60522 12.8522 3.60522 12.7529 3.61092 12.7006C3.61092 12.6484 3.63373 12.6013 3.66793 12.5543C3.70213 12.5073 3.74773 12.4759 3.81043 12.4498C3.87313 12.4237 3.94153 12.4132 4.02134 12.4132C4.11824 12.4132 4.19804 12.4289 4.26074 12.455C4.32344 12.4864 4.36905 12.523 4.39185 12.5752C4.42035 12.6275 4.43175 12.6954 4.43175 12.7738L4.43745 12.779ZM4.08974 13.1762C4.08974 13.1292 4.08974 13.103 4.07264 13.0821C4.06124 13.0665 4.04414 13.056 4.02134 13.056C3.99853 13.056 3.98143 13.0612 3.97003 13.0769C3.95863 13.0926 3.95293 13.1239 3.95293 13.171V13.4009C3.95293 13.4584 3.95293 13.495 3.97003 13.5107C3.98143 13.5263 3.99853 13.5368 4.02134 13.5368C4.03844 13.5368 4.04984 13.5316 4.06694 13.5159C4.08404 13.5002 4.08974 13.4689 4.08974 13.4061V13.1657V13.1762Z" fill="#64541C"/>
<path d="M4.75666 12.4395V12.5544C4.75666 12.6119 4.75096 12.6642 4.73385 12.7008C4.71675 12.7373 4.69395 12.7739 4.65405 12.8C4.61415 12.8262 4.57425 12.8471 4.52295 12.8523V12.7582C4.55715 12.7426 4.57995 12.7164 4.57995 12.6903H4.52295V12.4395H4.75666Z" fill="#64541C"/>
<path d="M5.67425 12.8679V13.2912C5.67425 13.3852 5.67425 13.4584 5.65715 13.5002C5.64575 13.5472 5.62295 13.5838 5.58875 13.6256C5.55455 13.6622 5.50895 13.6883 5.45765 13.7093C5.40635 13.7249 5.34934 13.7354 5.28664 13.7354C5.20114 13.7354 5.13274 13.7249 5.08144 13.7093C5.02444 13.6936 4.98453 13.6622 4.95033 13.6256C4.91613 13.5891 4.89333 13.5472 4.88193 13.5107C4.86483 13.4689 4.85913 13.4061 4.85913 13.3121V12.8679C4.85913 12.7529 4.87053 12.6641 4.89333 12.6066C4.91613 12.5491 4.96173 12.502 5.02444 12.4655C5.09284 12.4289 5.16694 12.4132 5.26384 12.4132C5.33794 12.4132 5.40635 12.4237 5.46905 12.4498C5.53175 12.4759 5.57735 12.502 5.60585 12.5386C5.63435 12.5752 5.65715 12.6118 5.66855 12.6588C5.67995 12.7006 5.68565 12.7738 5.68565 12.8679H5.67425ZM5.32654 12.7633C5.32654 12.6954 5.32654 12.6536 5.31514 12.6379C5.30944 12.6222 5.29234 12.6118 5.26384 12.6118C5.23534 12.6118 5.22394 12.6222 5.21254 12.6379C5.20114 12.6588 5.20114 12.7006 5.20114 12.7633V13.3852C5.20114 13.4584 5.20114 13.5054 5.21254 13.5159C5.21824 13.5316 5.23534 13.542 5.26384 13.542C5.29234 13.542 5.30374 13.5316 5.31514 13.5159C5.32084 13.5002 5.32654 13.4584 5.32654 13.3957V12.7633Z" fill="#64541C"/>
<path d="M5.99921 12.4395V12.5544C5.99921 12.6119 5.99351 12.6642 5.97641 12.7008C5.95931 12.7373 5.93651 12.7739 5.89661 12.8C5.85671 12.8262 5.8168 12.8471 5.7655 12.8523V12.7582C5.7997 12.7426 5.8225 12.7164 5.8225 12.6903H5.7655V12.4395H5.99921ZM6.31272 12.4395V12.5544C6.31272 12.6119 6.30702 12.6642 6.28992 12.7008C6.27282 12.7373 6.25002 12.7739 6.21011 12.8C6.17021 12.8262 6.13031 12.8471 6.07901 12.8523V12.7582C6.11321 12.7426 6.13031 12.7164 6.13601 12.6903H6.07901V12.4395H6.31272Z" fill="#64541C"/>
<path d="M4.35757 15.6794V15.8833H3.92436V16.0975C3.97566 16.04 4.04976 16.0087 4.13526 16.0087C4.23217 16.0087 4.30057 16.0348 4.35187 16.0818C4.40317 16.1289 4.42597 16.223 4.42597 16.3641V16.547C4.42597 16.6358 4.42597 16.7037 4.41457 16.7455C4.40317 16.7874 4.38607 16.8292 4.35187 16.8605C4.32337 16.8971 4.27777 16.9232 4.22077 16.9441C4.16377 16.965 4.09536 16.9703 4.01556 16.9703C3.92436 16.9703 3.85026 16.9546 3.78185 16.9285C3.71345 16.9023 3.66215 16.8605 3.63935 16.803C3.61085 16.7455 3.59375 16.6567 3.59375 16.5417V16.4738H3.94146V16.5522C3.94146 16.6358 3.94146 16.6933 3.95286 16.7299C3.95856 16.7665 3.98136 16.7821 4.02126 16.7821C4.03836 16.7821 4.04976 16.7821 4.06116 16.7664C4.07256 16.756 4.07826 16.7455 4.07826 16.7351C4.07826 16.7246 4.07826 16.6724 4.07826 16.5835V16.3327C4.07826 16.2857 4.07256 16.2543 4.06116 16.2334C4.04976 16.2177 4.03266 16.2073 4.00416 16.2073C3.98706 16.2073 3.97566 16.2073 3.96426 16.2229C3.95286 16.2334 3.94716 16.2439 3.94146 16.2491C3.94146 16.2595 3.94146 16.2857 3.94146 16.3222H3.59945L3.61655 15.6794H4.36327H4.35757Z" fill="#64541C"/>
<path d="M4.75092 15.6794V15.7944C4.75092 15.8519 4.74522 15.9041 4.72812 15.9407C4.71102 15.9773 4.68822 16.0087 4.64832 16.04C4.60841 16.0662 4.56851 16.0871 4.51721 16.0923V15.9982C4.55141 15.9825 4.56851 15.9564 4.57421 15.9303H4.51721V15.6794H4.75092Z" fill="#64541C"/>
<path d="M5.67414 16.0192H5.32643C5.32643 15.9617 5.32643 15.9251 5.32643 15.9094C5.32643 15.8937 5.32073 15.8833 5.30363 15.8728C5.29223 15.8624 5.27513 15.8572 5.25233 15.8572C5.23523 15.8572 5.21813 15.8572 5.20673 15.8728C5.19533 15.8833 5.18963 15.8937 5.18393 15.9094C5.18393 15.9251 5.18393 15.9565 5.18393 16.0035V16.2073C5.20103 16.1707 5.22953 16.1446 5.26373 16.1289C5.29793 16.1132 5.34353 16.1028 5.38913 16.1028C5.45184 16.1028 5.50884 16.1185 5.56014 16.1498C5.61144 16.1812 5.63994 16.2178 5.65134 16.2596C5.66274 16.3014 5.67414 16.3641 5.67414 16.4373V16.5365C5.67414 16.6254 5.67414 16.6933 5.66274 16.7351C5.65704 16.7769 5.63424 16.8187 5.60574 16.8553C5.57154 16.8919 5.52594 16.918 5.46894 16.9389C5.41193 16.9598 5.34923 16.9703 5.26943 16.9703C5.17823 16.9703 5.09843 16.9598 5.04142 16.9337C4.98442 16.9128 4.93882 16.8762 4.90462 16.8292C4.87042 16.7822 4.85332 16.7404 4.84762 16.6881C4.84762 16.6411 4.84192 16.547 4.84192 16.4059V16.2282C4.84192 16.0767 4.84192 15.9774 4.84762 15.9251C4.84762 15.8728 4.87042 15.8258 4.91032 15.7788C4.94452 15.7317 4.99012 15.7004 5.05282 15.6743C5.11553 15.6534 5.18393 15.6377 5.26373 15.6377C5.36063 15.6377 5.44043 15.6534 5.50314 15.6795C5.56584 15.7056 5.61144 15.7474 5.63424 15.7997C5.66274 15.8519 5.67414 15.9199 5.67414 15.9983V16.0192ZM5.32643 16.4163C5.32643 16.3693 5.32643 16.3432 5.30933 16.3223C5.29793 16.3066 5.28083 16.2961 5.25803 16.2961C5.23523 16.2961 5.21813 16.3066 5.20673 16.3223C5.19533 16.338 5.18963 16.3693 5.18963 16.4163V16.6463C5.18963 16.7038 5.18963 16.7404 5.20673 16.756C5.21813 16.7717 5.23523 16.7822 5.25803 16.7822C5.27513 16.7822 5.28653 16.7769 5.30363 16.7613C5.32073 16.7456 5.32643 16.7142 5.32643 16.6515V16.4111V16.4163Z" fill="#64541C"/>
<path d="M5.99921 15.6794V15.7944C5.99921 15.8519 5.99351 15.9041 5.97641 15.9407C5.95931 15.9773 5.93651 16.0087 5.89661 16.04C5.85671 16.0662 5.8168 16.0871 5.7655 16.0923V15.9982C5.7997 15.9825 5.8225 15.9564 5.8225 15.9303H5.7655V15.6794H5.99921ZM6.31272 15.6794V15.7944C6.31272 15.8519 6.30702 15.9041 6.28992 15.9407C6.27282 15.9773 6.25002 16.0087 6.21011 16.04C6.17021 16.0662 6.13031 16.0871 6.07901 16.0923V15.9982C6.11321 15.9825 6.13031 15.9564 6.13601 15.9303H6.07901V15.6794H6.31272Z" fill="#64541C"/>
<path d="M4.36864 18.9248V19.1286H3.93543V19.3429C3.99243 19.2854 4.06083 19.254 4.14634 19.254C4.24324 19.254 4.31164 19.2802 4.36294 19.3272C4.41424 19.3742 4.43704 19.4683 4.43704 19.6094V19.7923C4.43704 19.8812 4.43704 19.9491 4.42564 19.9909C4.41424 20.0327 4.39714 20.0693 4.36294 20.1059C4.33444 20.1425 4.28884 20.1686 4.23184 20.1895C4.17484 20.2104 4.11213 20.2208 4.02663 20.2208C3.93543 20.2208 3.86133 20.2052 3.78723 20.179C3.71882 20.1529 3.67322 20.1059 3.64472 20.0536C3.61622 19.9961 3.59912 19.9073 3.59912 19.7923V19.7244H3.94683V19.8028C3.94683 19.8864 3.94683 19.9439 3.95823 19.9752C3.95823 20.0118 3.98673 20.0275 4.02093 20.0275C4.03803 20.0275 4.05513 20.0275 4.06083 20.0118C4.07223 20.0014 4.07793 19.9909 4.07793 19.9805C4.07793 19.97 4.07793 19.9177 4.07793 19.8289V19.5781C4.07793 19.531 4.07223 19.4997 4.06083 19.4788C4.04943 19.4631 4.03233 19.4526 4.00953 19.4526C3.99243 19.4526 3.98103 19.4526 3.96963 19.4683C3.95823 19.4788 3.95253 19.484 3.94683 19.4944C3.94683 19.5049 3.94683 19.531 3.94683 19.5676H3.60482L3.62192 18.93H4.36864V18.9248Z" fill="#64541C"/>
<path d="M4.75666 18.9248V19.0398C4.75666 19.0973 4.75096 19.1496 4.73385 19.1861C4.71675 19.2227 4.69395 19.2593 4.65405 19.2854C4.61415 19.3116 4.57425 19.3272 4.52295 19.3377V19.2436C4.55715 19.2279 4.57995 19.2018 4.57995 19.1705H4.52295V18.9248H4.75666Z" fill="#64541C"/>
<path d="M5.67425 19.3534V19.7767C5.67425 19.8707 5.67425 19.9439 5.65715 19.9857C5.64575 20.0275 5.62295 20.0693 5.58875 20.1111C5.55455 20.1477 5.50895 20.1791 5.45765 20.1948C5.40635 20.2104 5.34934 20.2209 5.28664 20.2209C5.20114 20.2209 5.13274 20.2104 5.08144 20.1948C5.02444 20.1791 4.98453 20.1477 4.95033 20.1111C4.91613 20.0746 4.89333 20.0327 4.88193 19.9909C4.86483 19.9491 4.85913 19.8864 4.85913 19.7976V19.3534C4.85913 19.2384 4.87053 19.1496 4.89333 19.0921C4.91613 19.0346 4.96173 18.9876 5.02444 18.951C5.09284 18.9144 5.16694 18.8987 5.26384 18.8987C5.33794 18.8987 5.40635 18.9092 5.46905 18.9353C5.53175 18.9614 5.57735 18.9876 5.60585 19.0241C5.63435 19.0607 5.65715 19.0973 5.66855 19.1443C5.67995 19.1861 5.68565 19.2593 5.68565 19.3534H5.67425ZM5.32654 19.2436C5.32654 19.1757 5.32654 19.1339 5.31514 19.1182C5.30944 19.1025 5.29234 19.0921 5.26384 19.0921C5.23534 19.0921 5.22394 19.1025 5.21254 19.1182C5.20114 19.1339 5.20114 19.1757 5.20114 19.2436V19.8655C5.20114 19.9387 5.20114 19.9857 5.21254 20.0014C5.21824 20.0171 5.23534 20.0223 5.26384 20.0223C5.29234 20.0223 5.30374 20.0118 5.31514 19.9962C5.32084 19.9805 5.32654 19.9387 5.32654 19.876V19.2436Z" fill="#64541C"/>
<path d="M5.99921 18.9248V19.0398C5.99921 19.0973 5.99351 19.1496 5.97641 19.1861C5.95931 19.2227 5.93651 19.2593 5.89661 19.2854C5.85671 19.3116 5.8168 19.3272 5.7655 19.3377V19.2436C5.7997 19.2279 5.8225 19.2018 5.8225 19.1705H5.7655V18.9248H5.99921ZM6.31272 18.9248V19.0398C6.31272 19.0973 6.30702 19.1496 6.28992 19.1861C6.27282 19.2227 6.25002 19.2593 6.21011 19.2854C6.17021 19.3116 6.13031 19.3272 6.07901 19.3377V19.2436C6.11321 19.2279 6.13031 19.2018 6.13601 19.1705H6.07901V18.9248H6.31272Z" fill="#64541C"/>
<path d="M4.37457 22.165V22.996H4.47148V23.2155H4.37457V23.4402H4.02687V23.2155H3.61646V22.996L3.91856 22.165H4.38028H4.37457ZM4.02687 22.996V22.4525L3.87296 22.996H4.02687Z" fill="#64541C"/>
<path d="M4.75092 22.165V22.28C4.75092 22.3375 4.74522 22.3898 4.72812 22.4263C4.71102 22.4681 4.68822 22.4995 4.64832 22.5256C4.60841 22.5518 4.56851 22.5674 4.51721 22.5779V22.4838C4.55141 22.4681 4.56851 22.442 4.57421 22.4159H4.51721V22.165H4.75092Z" fill="#64541C"/>
<path d="M5.67414 22.4994H5.32643C5.32643 22.4419 5.32643 22.4053 5.32643 22.3896C5.32643 22.3739 5.32073 22.3635 5.30363 22.353C5.29223 22.3426 5.27513 22.3374 5.25233 22.3374C5.23523 22.3374 5.21813 22.3374 5.20673 22.353C5.19533 22.3635 5.18963 22.3739 5.18393 22.3896C5.18393 22.4053 5.18393 22.4367 5.18393 22.4837V22.6875C5.20103 22.6561 5.22953 22.63 5.26373 22.6091C5.29793 22.5934 5.34353 22.583 5.38913 22.583C5.45184 22.583 5.50884 22.5987 5.56014 22.63C5.61144 22.6614 5.63994 22.6979 5.65134 22.745C5.66274 22.7868 5.67414 22.8495 5.67414 22.9227V23.022C5.67414 23.1108 5.67414 23.1787 5.66274 23.2205C5.65704 23.2624 5.63424 23.3042 5.60574 23.3407C5.57154 23.3773 5.52594 23.4035 5.46894 23.4244C5.41193 23.4453 5.34923 23.4557 5.26943 23.4557C5.17823 23.4557 5.09843 23.4453 5.04142 23.4191C4.98442 23.3982 4.93882 23.3617 4.90462 23.3198C4.87042 23.2728 4.85332 23.231 4.84762 23.1787C4.84762 23.1317 4.84192 23.0376 4.84192 22.8965V22.7189C4.84192 22.5673 4.84192 22.468 4.84762 22.4158C4.84762 22.3635 4.87042 22.3165 4.91032 22.2694C4.94452 22.2224 4.99012 22.191 5.05282 22.1649C5.11553 22.144 5.18393 22.1335 5.26373 22.1335C5.36063 22.1335 5.44043 22.1492 5.50314 22.1754C5.56584 22.2015 5.61144 22.2433 5.63424 22.2955C5.66274 22.3478 5.67414 22.4157 5.67414 22.4941V22.4994ZM5.32643 22.8965C5.32643 22.8495 5.32643 22.8181 5.30933 22.8025C5.29793 22.7868 5.28083 22.7763 5.25803 22.7763C5.23523 22.7763 5.21813 22.7868 5.20673 22.8025C5.19533 22.8181 5.18963 22.8495 5.18963 22.8965V23.1265C5.18963 23.184 5.18963 23.2205 5.20673 23.2362C5.21813 23.2519 5.23523 23.2624 5.25803 23.2624C5.27513 23.2624 5.28653 23.2571 5.30363 23.2414C5.32073 23.231 5.32643 23.1944 5.32643 23.1317V22.8965Z" fill="#64541C"/>
<path d="M5.99921 22.165V22.28C5.99921 22.3375 5.99351 22.3898 5.97641 22.4263C5.95931 22.4681 5.93651 22.4995 5.89661 22.5256C5.85671 22.5518 5.8168 22.5674 5.7655 22.5779V22.4838C5.7997 22.4681 5.8225 22.442 5.8225 22.4159H5.7655V22.165H5.99921ZM6.31272 22.165V22.28C6.31272 22.3375 6.30702 22.3898 6.28992 22.4263C6.27282 22.4681 6.25002 22.4995 6.21011 22.5256C6.17021 22.5518 6.13031 22.5674 6.07901 22.5779V22.4838C6.11321 22.4681 6.13031 22.442 6.13601 22.4159H6.07901V22.165H6.31272Z" fill="#64541C"/>
<path d="M4.38617 25.4051V26.236H4.48307V26.4555H4.38617V26.6802H4.03846V26.4555H3.62805V26.236L3.93016 25.4051H4.39187H4.38617ZM4.03846 26.236V25.6977L3.88456 26.236H4.03846Z" fill="#64541C"/>
<path d="M4.75678 25.405V25.52C4.75678 25.5775 4.75108 25.6297 4.73398 25.6663C4.71688 25.7029 4.69408 25.7395 4.65418 25.7656C4.61427 25.7918 4.57437 25.8127 4.52307 25.8179V25.7238C4.55727 25.7081 4.58007 25.682 4.58007 25.6559H4.52307V25.405H4.75678Z" fill="#64541C"/>
<path d="M5.67437 25.8336V26.2569C5.67437 26.3509 5.67437 26.4241 5.65727 26.4659C5.64587 26.5077 5.62307 26.5495 5.58887 26.5913C5.55467 26.6331 5.50907 26.6593 5.45777 26.6749C5.40647 26.6906 5.34947 26.7011 5.28676 26.7011C5.20126 26.7011 5.13286 26.6906 5.08156 26.6749C5.02456 26.6593 4.98466 26.6279 4.95046 26.5913C4.91625 26.5547 4.89345 26.5129 4.88205 26.4764C4.86495 26.4345 4.85925 26.3718 4.85925 26.2778V25.8336C4.85925 25.7186 4.87065 25.6298 4.89345 25.5723C4.91625 25.5148 4.96186 25.4677 5.02456 25.4312C5.09296 25.3946 5.16706 25.3789 5.26396 25.3789C5.33807 25.3789 5.40647 25.3894 5.46917 25.4155C5.53187 25.4416 5.57747 25.4677 5.60597 25.5043C5.63447 25.5409 5.65727 25.5775 5.66867 25.6245C5.68007 25.6663 5.68577 25.7395 5.68577 25.8336H5.67437ZM5.32667 25.7238C5.32667 25.6559 5.32667 25.6141 5.31527 25.5984C5.30957 25.5827 5.29246 25.5723 5.26396 25.5723C5.23546 25.5723 5.22406 25.5827 5.21266 25.5984C5.20126 25.6141 5.20126 25.6559 5.20126 25.7238V26.3457C5.20126 26.4189 5.20126 26.4659 5.21266 26.4764C5.21836 26.492 5.23546 26.4973 5.26396 26.4973C5.29246 26.4973 5.30386 26.4868 5.31527 26.4711C5.32097 26.4555 5.32667 26.4136 5.32667 26.3509V25.7186V25.7238Z" fill="#64541C"/>
<path d="M5.99933 25.405V25.52C5.99933 25.5775 5.99363 25.6297 5.97653 25.6663C5.95943 25.7029 5.93663 25.7395 5.89673 25.7656C5.85683 25.7918 5.81693 25.8127 5.76562 25.8179V25.7238C5.79983 25.7081 5.82263 25.682 5.82263 25.6559H5.76562V25.405H5.99933ZM6.31284 25.405V25.52C6.31284 25.5775 6.30714 25.6297 6.29004 25.6663C6.27294 25.7029 6.25014 25.7395 6.21024 25.7656C6.17034 25.7918 6.13043 25.8127 6.07913 25.8179V25.7238C6.11333 25.7081 6.13043 25.682 6.13613 25.6559H6.07913V25.405H6.31284Z" fill="#64541C"/>
<path d="M4.26604 29.1991C4.31734 29.2147 4.35724 29.2409 4.38574 29.2775C4.41424 29.314 4.42564 29.4029 4.42564 29.5388C4.42564 29.638 4.41424 29.7164 4.38574 29.7739C4.36294 29.8314 4.31734 29.8732 4.25464 29.8993C4.19194 29.9255 4.11214 29.9412 4.01523 29.9412C3.90693 29.9412 3.82143 29.9255 3.75873 29.8889C3.69602 29.8523 3.65612 29.8157 3.63332 29.7635C3.61052 29.7164 3.60482 29.6276 3.60482 29.5074V29.4081H3.95253V29.6119C3.95253 29.6694 3.95253 29.7008 3.96393 29.7164C3.96963 29.7321 3.98673 29.7373 4.00953 29.7373C4.03233 29.7373 4.05513 29.7269 4.06083 29.7112C4.07223 29.6903 4.07223 29.6433 4.07223 29.5649V29.476C4.07223 29.429 4.06653 29.3924 4.05513 29.3715C4.04373 29.3506 4.02663 29.3349 4.00383 29.3245C3.98103 29.3193 3.93543 29.314 3.86703 29.314V29.1311C3.95253 29.1311 3.99813 29.1311 4.02093 29.1207C4.03803 29.1154 4.05513 29.0998 4.06083 29.0841C4.07223 29.0632 4.07223 29.0318 4.07223 28.9953V28.9221C4.07223 28.8751 4.07223 28.8489 4.05513 28.8333C4.04373 28.8176 4.03233 28.8123 4.00953 28.8123C3.98673 28.8123 3.96963 28.8176 3.95823 28.8333C3.94683 28.8489 3.94683 28.8803 3.94683 28.9273V29.0318H3.59912V28.9221C3.59912 28.8019 3.62762 28.7183 3.69032 28.6765C3.75303 28.6347 3.84993 28.6138 3.98103 28.6138C4.14634 28.6138 4.26034 28.6451 4.31734 28.7026C4.37434 28.7601 4.40854 28.8437 4.40854 28.9482C4.40854 29.0214 4.39714 29.0684 4.37434 29.105C4.35154 29.1364 4.31734 29.1677 4.26034 29.1886L4.26604 29.1991Z" fill="#64541C"/>
<path d="M4.75092 28.6452V28.7602C4.75092 28.8177 4.74522 28.87 4.72812 28.9065C4.71102 28.9431 4.68822 28.9797 4.64832 29.0058C4.60841 29.032 4.56851 29.0529 4.51721 29.0581V28.964C4.55141 28.9484 4.56851 28.9222 4.57421 28.8961H4.51721V28.6452H4.75092Z" fill="#64541C"/>
<path d="M5.67414 28.9848H5.32643C5.32643 28.9273 5.32643 28.8907 5.32643 28.8751C5.32643 28.8594 5.32073 28.8489 5.30363 28.8385C5.29223 28.828 5.27513 28.8228 5.25233 28.8228C5.23523 28.8228 5.21813 28.8228 5.20673 28.8385C5.19533 28.8489 5.18963 28.8594 5.18393 28.8751C5.18393 28.8907 5.18393 28.9221 5.18393 28.9691V29.1729C5.20103 29.1416 5.22953 29.1155 5.26373 29.0946C5.29793 29.0789 5.34353 29.0684 5.38913 29.0684C5.45184 29.0684 5.50884 29.0841 5.56014 29.1155C5.61144 29.1468 5.63994 29.1834 5.65134 29.2304C5.66274 29.2722 5.67414 29.3349 5.67414 29.4081V29.5074C5.67414 29.5962 5.67414 29.6642 5.66274 29.706C5.65704 29.7478 5.63424 29.7896 5.60574 29.8262C5.57154 29.8628 5.52594 29.8889 5.46894 29.9098C5.41193 29.9307 5.34923 29.9412 5.26943 29.9412C5.17823 29.9412 5.09843 29.9307 5.04142 29.9046C4.98442 29.8837 4.93882 29.8471 4.90462 29.8053C4.87042 29.7635 4.85332 29.7164 4.84762 29.6642C4.84762 29.6171 4.84192 29.5178 4.84192 29.382V29.2043C4.84192 29.0527 4.84192 28.9534 4.84762 28.9012C4.84762 28.8489 4.87042 28.8019 4.91032 28.7549C4.94452 28.7078 4.99012 28.6765 5.05282 28.6503C5.11553 28.6294 5.18393 28.6138 5.26373 28.6138C5.36063 28.6138 5.44043 28.6294 5.50314 28.6556C5.56584 28.6817 5.61144 28.7235 5.63424 28.7758C5.66274 28.828 5.67414 28.896 5.67414 28.9743V28.9848ZM5.32643 29.382C5.32643 29.3349 5.32643 29.3088 5.30933 29.2879C5.29793 29.2722 5.28083 29.2618 5.25803 29.2618C5.23523 29.2618 5.21813 29.267 5.20673 29.2879C5.19533 29.3036 5.18963 29.3349 5.18963 29.382V29.6119C5.18963 29.6694 5.18963 29.706 5.20673 29.7217C5.21813 29.7373 5.23523 29.7478 5.25803 29.7478C5.27513 29.7478 5.28653 29.7426 5.30363 29.7269C5.32073 29.7112 5.32643 29.6799 5.32643 29.6171V29.382Z" fill="#64541C"/>
<path d="M5.99921 28.6452V28.7602C5.99921 28.8177 5.99351 28.87 5.97641 28.9065C5.95931 28.9431 5.93651 28.9797 5.89661 29.0058C5.85671 29.032 5.8168 29.0529 5.7655 29.0581V28.964C5.7997 28.9484 5.8225 28.9222 5.8225 28.8961H5.7655V28.6452H5.99921ZM6.31272 28.6452V28.7602C6.31272 28.8177 6.30702 28.87 6.28992 28.9065C6.27282 28.9431 6.25002 28.9797 6.21011 29.0058C6.17021 29.032 6.13031 29.0529 6.07901 29.0581V28.964C6.11321 28.9484 6.13031 28.9222 6.13601 28.8961H6.07901V28.6452H6.31272Z" fill="#64541C"/>
<path d="M39.4192 5.95405V6.23102L39.1969 7.22396H38.8492L39.0943 6.17877H38.7523V5.94882H39.4135L39.4192 5.95405Z" fill="#64541C"/>
<path d="M39.7614 5.95398V6.06895C39.7614 6.12644 39.7557 6.1787 39.7386 6.21528C39.7215 6.25186 39.6987 6.28844 39.6588 6.31457C39.6189 6.3407 39.579 6.36161 39.5277 6.36683V6.27799C39.5619 6.26231 39.579 6.23618 39.5847 6.20483H39.5277V5.95921H39.7614V5.95398Z" fill="#64541C"/>
<path d="M40.6163 6.38774V6.81105C40.6163 6.90511 40.6163 6.97828 40.5992 7.02009C40.5878 7.06189 40.565 7.1037 40.5308 7.14028C40.4966 7.17686 40.451 7.20822 40.3997 7.2239C40.3484 7.23958 40.2914 7.25003 40.2287 7.25003C40.1432 7.25003 40.0748 7.23958 40.0235 7.2239C39.9665 7.20822 39.9266 7.17686 39.8924 7.14028C39.8582 7.1037 39.8353 7.06189 39.8239 7.02009C39.8125 6.97828 39.8011 6.91557 39.8011 6.82672V6.38252C39.8011 6.26755 39.8126 6.1787 39.8354 6.12122C39.8582 6.06373 39.9038 6.0167 39.9665 5.98012C40.0349 5.94354 40.109 5.92786 40.2059 5.92786C40.28 5.92786 40.3484 5.93831 40.4111 5.96444C40.4738 5.99057 40.5137 6.0167 40.5479 6.05328C40.5764 6.08986 40.5992 6.12644 40.6106 6.17348C40.622 6.21529 40.6277 6.28845 40.6277 6.38252L40.6163 6.38774ZM40.2686 6.28322C40.2686 6.21529 40.2686 6.17348 40.2572 6.1578C40.2515 6.14212 40.2344 6.13167 40.2059 6.13167C40.1774 6.13167 40.1603 6.14212 40.1546 6.1578C40.1489 6.17348 40.1432 6.21529 40.1432 6.28322V6.90511C40.1432 6.97828 40.1432 7.02531 40.1546 7.04099C40.1603 7.05667 40.1774 7.0619 40.2059 7.0619C40.2344 7.0619 40.2458 7.05144 40.2572 7.03576C40.2629 7.02009 40.2686 6.97828 40.2686 6.91557V6.28322Z" fill="#64541C"/>
<path d="M40.9411 5.95398V6.06895C40.9411 6.12644 40.9354 6.1787 40.9183 6.21528C40.9012 6.25186 40.8784 6.28844 40.8385 6.31457C40.7986 6.3407 40.7587 6.36161 40.7074 6.36683V6.27799C40.7416 6.26231 40.7587 6.23618 40.7644 6.20483H40.7074V5.95921H40.9411V5.95398ZM41.2546 5.95398V6.06895C41.2546 6.12644 41.2489 6.1787 41.2318 6.21528C41.2147 6.25186 41.1919 6.28844 41.152 6.31457C41.1121 6.3407 41.0722 6.36161 41.0209 6.36683V6.27799C41.0551 6.26231 41.0722 6.23618 41.0779 6.20483H41.0209V5.95921H41.2546V5.95398Z" fill="#64541C"/>
<path d="M39.5903 9.53376H39.2426C39.2426 9.47628 39.2426 9.4397 39.2426 9.42402C39.2426 9.40834 39.2369 9.39789 39.2198 9.38744C39.2084 9.37698 39.1913 9.37176 39.1685 9.37176C39.1514 9.37176 39.1343 9.37698 39.1229 9.38744C39.1115 9.39789 39.1058 9.40834 39.1058 9.42402C39.1058 9.4397 39.1058 9.47105 39.1058 9.51809V9.7219C39.1229 9.69054 39.1514 9.66441 39.1856 9.64351C39.2198 9.62783 39.2597 9.61738 39.311 9.61738C39.3737 9.61738 39.4307 9.63306 39.4763 9.66441C39.5219 9.69577 39.5561 9.73235 39.5675 9.77938C39.5789 9.82119 39.5903 9.88391 39.5903 9.95707V10.0564C39.5903 10.1452 39.5903 10.2131 39.5789 10.2549C39.5732 10.2968 39.5504 10.3386 39.5219 10.3751C39.4877 10.4117 39.4478 10.4379 39.3908 10.4588C39.3338 10.4797 39.2711 10.4901 39.1913 10.4901C39.1001 10.4901 39.0203 10.4797 38.9633 10.4535C38.9063 10.4326 38.855 10.396 38.8265 10.3542C38.7923 10.3072 38.7752 10.2654 38.7695 10.2131C38.7695 10.1661 38.7638 10.072 38.7638 9.93094V9.75325C38.7638 9.6017 38.7638 9.50241 38.7695 9.45015C38.7695 9.39789 38.7923 9.35086 38.8265 9.30382C38.8607 9.25679 38.9063 9.22543 38.969 9.1993C39.0317 9.1784 39.1001 9.16272 39.1799 9.16272C39.2768 9.16272 39.3566 9.1784 39.4193 9.20453C39.482 9.23066 39.5276 9.27246 39.5561 9.32472C39.5846 9.37698 39.596 9.44492 39.596 9.52331L39.5903 9.53376ZM39.2426 9.93094C39.2426 9.8839 39.2426 9.85777 39.2255 9.83687C39.2141 9.82119 39.197 9.81074 39.1742 9.81074C39.1514 9.81074 39.1343 9.82119 39.1229 9.83687C39.1115 9.85255 39.1058 9.8839 39.1058 9.93094V10.1609C39.1058 10.2184 39.1058 10.2549 39.1229 10.2706C39.1343 10.2863 39.1514 10.2968 39.1742 10.2968C39.1913 10.2968 39.2027 10.2915 39.2198 10.2759C39.2369 10.2602 39.2426 10.2236 39.2426 10.1661V9.93094Z" fill="#64541C"/>
<path d="M39.9149 9.19934V9.31431C39.9149 9.3718 39.9092 9.42406 39.8921 9.46064C39.875 9.50245 39.8522 9.5338 39.8123 9.55993C39.7724 9.58606 39.7325 9.60174 39.6812 9.61219V9.51813C39.7154 9.50245 39.7325 9.47632 39.7382 9.45019H39.6812V9.19934H39.9149Z" fill="#64541C"/>
<path d="M40.8383 9.53376H40.4906C40.4906 9.47628 40.4906 9.4397 40.4906 9.42402C40.4906 9.40834 40.4849 9.39789 40.4678 9.38744C40.4564 9.37698 40.4393 9.37176 40.4165 9.37176C40.3994 9.37176 40.3823 9.37698 40.3709 9.38744C40.3595 9.39789 40.3538 9.40834 40.3481 9.42402C40.3481 9.4397 40.3481 9.47105 40.3481 9.51809V9.7219C40.3652 9.69054 40.3937 9.66441 40.4279 9.64351C40.4621 9.62783 40.502 9.61738 40.5533 9.61738C40.616 9.61738 40.673 9.63306 40.7243 9.66441C40.7756 9.69577 40.8041 9.73235 40.8155 9.77938C40.8269 9.82119 40.8326 9.88391 40.8326 9.95707V10.0564C40.8326 10.1452 40.8326 10.2131 40.8212 10.2549C40.8155 10.2968 40.7927 10.3386 40.7585 10.3751C40.73 10.4117 40.6844 10.4379 40.6274 10.4588C40.5704 10.4797 40.5077 10.4901 40.4279 10.4901C40.3367 10.4901 40.2569 10.4797 40.1999 10.4535C40.1372 10.4326 40.0916 10.396 40.0631 10.3542C40.0289 10.3072 40.0118 10.2654 40.0061 10.2131C40.0061 10.1661 40.0004 10.072 40.0004 9.93094V9.75325C40.0004 9.6017 40.0004 9.50241 40.0061 9.45015C40.0061 9.39789 40.0289 9.35086 40.0631 9.30382C40.0973 9.25679 40.1429 9.22543 40.2056 9.1993C40.2683 9.1784 40.3367 9.16272 40.4165 9.16272C40.5134 9.16272 40.5932 9.1784 40.6559 9.20453C40.7186 9.23066 40.7642 9.27246 40.7927 9.32472C40.8212 9.37698 40.8326 9.44492 40.8326 9.52331L40.8383 9.53376ZM40.4906 9.93094C40.4906 9.8839 40.4906 9.85777 40.4735 9.83687C40.4621 9.82119 40.445 9.81074 40.4222 9.81074C40.3994 9.81074 40.3823 9.82119 40.3709 9.83687C40.3595 9.85255 40.3538 9.8839 40.3538 9.93094V10.1609C40.3538 10.2184 40.3538 10.2549 40.3709 10.2706C40.3823 10.2863 40.3994 10.2968 40.4222 10.2968C40.4393 10.2968 40.4507 10.2915 40.4678 10.2759C40.4849 10.2602 40.4906 10.2236 40.4906 10.1661V9.93094Z" fill="#64541C"/>
<path d="M41.1633 9.19934V9.31431C41.1633 9.3718 41.1576 9.42406 41.1405 9.46064C41.1234 9.50245 41.1006 9.5338 41.0607 9.55993C41.0208 9.58606 40.9809 9.60174 40.9296 9.61219V9.51813C40.9638 9.50245 40.9809 9.47632 40.9866 9.45019H40.9296V9.19934H41.1633ZM41.4768 9.19934V9.31431C41.4768 9.3718 41.4711 9.42406 41.454 9.46064C41.4369 9.50245 41.4141 9.5338 41.3742 9.55993C41.3343 9.58606 41.2944 9.60174 41.2431 9.61219V9.51813C41.2773 9.50245 41.2944 9.47632 41.3001 9.45019H41.2431V9.19934H41.4768Z" fill="#64541C"/>
<path d="M39.5903 12.779H39.2426C39.2426 12.7215 39.2426 12.6797 39.2426 12.6693C39.2426 12.6536 39.2369 12.6431 39.2198 12.6327C39.2084 12.6222 39.1913 12.617 39.1685 12.617C39.1514 12.617 39.1343 12.617 39.1229 12.6327C39.1115 12.6431 39.1058 12.6536 39.1058 12.6693C39.1058 12.685 39.1058 12.7163 39.1058 12.7633V12.9672C39.1229 12.9358 39.1514 12.9097 39.1856 12.8888C39.2198 12.8731 39.2597 12.8626 39.311 12.8626C39.3737 12.8626 39.4307 12.8783 39.4763 12.9097C39.5276 12.941 39.5561 12.9776 39.5675 13.0246C39.5789 13.0665 39.5903 13.1292 39.5903 13.2023V13.3016C39.5903 13.3905 39.5903 13.4584 39.5789 13.5002C39.5732 13.542 39.5504 13.5838 39.5219 13.6204C39.4877 13.657 39.4478 13.6883 39.3908 13.7093C39.3338 13.7302 39.2711 13.7406 39.1913 13.7406C39.1001 13.7406 39.0203 13.7302 38.9633 13.704C38.9063 13.6831 38.855 13.6465 38.8265 13.6047C38.7923 13.5629 38.7752 13.5159 38.7695 13.4636C38.7695 13.4166 38.7638 13.3225 38.7638 13.1814V13.0037C38.7638 12.8522 38.7638 12.7529 38.7695 12.7006C38.7695 12.6484 38.7923 12.6013 38.8265 12.5543C38.8607 12.5073 38.9063 12.4759 38.969 12.4498C39.0317 12.4237 39.1001 12.4132 39.1799 12.4132C39.2768 12.4132 39.3566 12.4289 39.4193 12.455C39.482 12.4864 39.5276 12.523 39.5561 12.5752C39.5846 12.6275 39.596 12.6954 39.596 12.7738L39.5903 12.779ZM39.2426 13.1762C39.2426 13.1292 39.2426 13.103 39.2255 13.0821C39.2141 13.0665 39.197 13.056 39.1742 13.056C39.1514 13.056 39.1343 13.0612 39.1229 13.0769C39.1115 13.0926 39.1058 13.1239 39.1058 13.171V13.4009C39.1058 13.4584 39.1058 13.495 39.1229 13.5107C39.1343 13.5263 39.1514 13.5368 39.1742 13.5368C39.1913 13.5368 39.2027 13.5316 39.2198 13.5159C39.2369 13.5002 39.2426 13.4689 39.2426 13.4061V13.1657V13.1762Z" fill="#64541C"/>
<path d="M39.9149 12.4395V12.5544C39.9149 12.6119 39.9092 12.6642 39.8921 12.7008C39.875 12.7373 39.8522 12.7739 39.8123 12.8C39.7724 12.8262 39.7325 12.8471 39.6812 12.8523V12.7582C39.7154 12.7426 39.7325 12.7164 39.7382 12.6903H39.6812V12.4395H39.9149Z" fill="#64541C"/>
<path d="M40.8271 12.8679V13.2912C40.8271 13.3852 40.8271 13.4584 40.81 13.5002C40.7986 13.5472 40.7758 13.5838 40.7416 13.6256C40.7074 13.6622 40.6618 13.6883 40.6105 13.7093C40.5592 13.7249 40.5022 13.7354 40.4395 13.7354C40.354 13.7354 40.2856 13.7249 40.2343 13.7093C40.1773 13.6936 40.1374 13.6622 40.1032 13.6256C40.069 13.5891 40.0462 13.5472 40.0348 13.5107C40.0234 13.4689 40.012 13.4061 40.012 13.3121V12.8679C40.012 12.7529 40.0234 12.6641 40.0462 12.6066C40.069 12.5491 40.1146 12.502 40.1773 12.4655C40.2457 12.4289 40.3198 12.4132 40.4167 12.4132C40.4908 12.4132 40.5592 12.4237 40.6219 12.4498C40.6789 12.4759 40.7245 12.502 40.7587 12.5386C40.7872 12.5752 40.81 12.6118 40.8214 12.6588C40.8328 12.7006 40.8385 12.7738 40.8385 12.8679H40.8271ZM40.4794 12.7633C40.4794 12.6954 40.4794 12.6536 40.468 12.6379C40.4623 12.6222 40.4452 12.6118 40.4167 12.6118C40.3882 12.6118 40.3711 12.6222 40.3654 12.6379C40.3597 12.6588 40.354 12.7006 40.354 12.7633V13.3852C40.354 13.4584 40.354 13.5054 40.3654 13.5159C40.3711 13.5316 40.3882 13.542 40.4167 13.542C40.4452 13.542 40.4623 13.5316 40.468 13.5159C40.4737 13.5002 40.4794 13.4584 40.4794 13.3957V12.7633Z" fill="#64541C"/>
<path d="M41.1518 12.4395V12.5544C41.1518 12.6119 41.1461 12.6642 41.129 12.7008C41.1119 12.7373 41.0891 12.7739 41.0492 12.8C41.0093 12.8262 40.9694 12.8471 40.9181 12.8523V12.7582C40.9523 12.7426 40.9751 12.7164 40.9751 12.6903H40.9181V12.4395H41.1518ZM41.4653 12.4395V12.5544C41.4653 12.6119 41.4596 12.6642 41.4425 12.7008C41.4254 12.7373 41.4026 12.7739 41.3627 12.8C41.3228 12.8262 41.2829 12.8471 41.2316 12.8523V12.7582C41.2658 12.7426 41.2829 12.7164 41.2886 12.6903H41.2316V12.4395H41.4653Z" fill="#64541C"/>
<path d="M39.5218 15.6794V15.8833H39.0886V16.0975C39.1399 16.04 39.214 16.0087 39.2995 16.0087C39.3964 16.0087 39.4648 16.0348 39.5161 16.0818C39.5674 16.1289 39.5902 16.223 39.5902 16.3641V16.547C39.5902 16.6358 39.5902 16.7037 39.5788 16.7455C39.5674 16.7874 39.5503 16.8292 39.5161 16.8605C39.4876 16.8971 39.442 16.9232 39.385 16.9441C39.328 16.965 39.2596 16.9703 39.1798 16.9703C39.0886 16.9703 39.0145 16.9546 38.9404 16.9285C38.872 16.9023 38.8264 16.8605 38.7979 16.803C38.7694 16.7455 38.7523 16.6567 38.7523 16.5417V16.4738H39.1V16.5522C39.1 16.6358 39.1 16.6933 39.1114 16.7299C39.1171 16.7665 39.1399 16.7821 39.1798 16.7821C39.1969 16.7821 39.214 16.7821 39.2197 16.7664C39.2311 16.756 39.2368 16.7455 39.2368 16.7351C39.2368 16.7246 39.2368 16.6724 39.2368 16.5835V16.3327C39.2368 16.2857 39.2368 16.2543 39.2197 16.2334C39.2083 16.2177 39.1912 16.2073 39.1684 16.2073C39.1513 16.2073 39.1399 16.2073 39.1285 16.2229C39.1171 16.2334 39.1114 16.2439 39.1057 16.2491C39.1057 16.2595 39.1057 16.2857 39.1057 16.3222H38.7637L38.7808 15.6794H39.5275H39.5218Z" fill="#64541C"/>
<path d="M39.9097 15.6794V15.7944C39.9097 15.8519 39.904 15.9042 39.8869 15.9407C39.8698 15.9773 39.8413 16.0087 39.8071 16.04C39.7672 16.0662 39.7273 16.0871 39.676 16.0923V15.9982C39.7102 15.9826 39.7273 15.9564 39.733 15.9303H39.676V15.6794H39.9097Z" fill="#64541C"/>
<path d="M40.8385 16.0192H40.4907C40.4907 15.9617 40.4907 15.9251 40.4907 15.9094C40.4907 15.8938 40.485 15.8833 40.4679 15.8729C40.4565 15.8624 40.4394 15.8572 40.4166 15.8572C40.3995 15.8572 40.3824 15.8572 40.371 15.8729C40.3596 15.8833 40.3539 15.8938 40.3482 15.9094C40.3482 15.9251 40.3482 15.9565 40.3482 16.0035V16.2073C40.3653 16.1707 40.3938 16.1446 40.428 16.1289C40.4622 16.1133 40.5021 16.1028 40.5534 16.1028C40.6161 16.1028 40.6731 16.1185 40.7244 16.1498C40.7757 16.1812 40.8043 16.2178 40.8157 16.2596C40.8271 16.3014 40.8328 16.3641 40.8328 16.4373V16.5366C40.8328 16.6254 40.8327 16.6933 40.8213 16.7351C40.8156 16.777 40.7928 16.8188 40.7643 16.8553C40.7301 16.8919 40.6902 16.9181 40.6332 16.939C40.5762 16.9599 40.5135 16.9703 40.4337 16.9703C40.3425 16.9703 40.2627 16.9599 40.2057 16.9337C40.1487 16.9076 40.0974 16.8763 40.0689 16.8292C40.0347 16.7822 40.0176 16.7404 40.0119 16.6881C40.0119 16.6411 40.0062 16.547 40.0062 16.4059V16.2282C40.0062 16.0767 40.0062 15.9774 40.0119 15.9251C40.0119 15.8729 40.0347 15.8258 40.0746 15.7788C40.1088 15.7318 40.1544 15.7004 40.2171 15.6743C40.2798 15.6534 40.3482 15.6377 40.428 15.6377C40.5249 15.6377 40.6047 15.6534 40.6674 15.6795C40.7301 15.7056 40.7757 15.7474 40.8042 15.7997C40.8327 15.852 40.8441 15.9199 40.8441 15.9983L40.8385 16.0192ZM40.4907 16.4164C40.4907 16.3693 40.4907 16.3432 40.4736 16.3223C40.4622 16.3066 40.4451 16.2962 40.4223 16.2962C40.3995 16.2962 40.3824 16.3066 40.371 16.3223C40.3596 16.338 40.3539 16.3693 40.3539 16.4164V16.6463C40.3539 16.7038 40.3539 16.7404 40.371 16.7561C40.3824 16.7717 40.3995 16.7822 40.4223 16.7822C40.4394 16.7822 40.4508 16.777 40.4679 16.7613C40.485 16.7456 40.4907 16.7142 40.4907 16.6515V16.4111V16.4164Z" fill="#64541C"/>
<path d="M41.1579 15.6794V15.7944C41.1579 15.8519 41.1522 15.9042 41.1351 15.9407C41.118 15.9773 41.0952 16.0087 41.0553 16.04C41.0154 16.0662 40.9755 16.0871 40.9242 16.0923V15.9982C40.9584 15.9826 40.9812 15.9564 40.9812 15.9303H40.9242V15.6794H41.1579ZM41.4714 15.6794V15.7944C41.4714 15.8519 41.4657 15.9042 41.4486 15.9407C41.4315 15.9773 41.403 16.0087 41.3688 16.04C41.3289 16.0662 41.289 16.0871 41.2377 16.0923V15.9982C41.2719 15.9826 41.289 15.9564 41.2947 15.9303H41.2377V15.6794H41.4714Z" fill="#64541C"/>
<path d="M39.5218 18.9248V19.1286H39.0886V19.3429C39.1399 19.2854 39.214 19.254 39.2995 19.254C39.3964 19.254 39.4648 19.2802 39.5161 19.3272C39.5674 19.3742 39.5902 19.4683 39.5902 19.6094V19.7923C39.5902 19.8812 39.5902 19.9491 39.5788 19.9909C39.5674 20.0327 39.5503 20.0693 39.5161 20.1059C39.4876 20.1425 39.442 20.1686 39.385 20.1895C39.328 20.2104 39.2596 20.2208 39.1798 20.2208C39.0886 20.2208 39.0145 20.2052 38.9404 20.179C38.872 20.1529 38.8264 20.1059 38.7979 20.0536C38.7694 19.9961 38.7523 19.9073 38.7523 19.7923V19.7244H39.1V19.8028C39.1 19.8864 39.1 19.9439 39.1114 19.9752C39.1171 20.0118 39.1399 20.0275 39.1798 20.0275C39.1969 20.0275 39.214 20.0275 39.2197 20.0118C39.2311 20.0014 39.2368 19.9909 39.2368 19.9805C39.2368 19.97 39.2368 19.9177 39.2368 19.8289V19.5781C39.2368 19.531 39.2368 19.4997 39.2197 19.4788C39.2083 19.4631 39.1912 19.4526 39.1684 19.4526C39.1513 19.4526 39.1399 19.4526 39.1285 19.4683C39.1171 19.4788 39.1114 19.484 39.1057 19.4944C39.1 19.5049 39.1057 19.531 39.1057 19.5676H38.7637L38.7808 18.93H39.5275L39.5218 18.9248Z" fill="#64541C"/>
<path d="M39.9097 18.9248V19.0398C39.9097 19.0973 39.904 19.1495 39.8869 19.1861C39.8698 19.2227 39.8413 19.2593 39.8071 19.2854C39.7672 19.3115 39.7273 19.3272 39.676 19.3377V19.2436C39.7102 19.2279 39.7273 19.2018 39.733 19.1704H39.676V18.9248H39.9097Z" fill="#64541C"/>
<path d="M40.8214 19.3533V19.7766C40.8214 19.8707 40.8214 19.9439 40.8043 19.9857C40.7929 20.0275 40.7701 20.0693 40.7302 20.1111C40.696 20.1477 40.6504 20.1791 40.5991 20.1947C40.5478 20.2104 40.4908 20.2209 40.4281 20.2209C40.3426 20.2209 40.2742 20.2104 40.2229 20.1947C40.1659 20.1791 40.126 20.1477 40.0918 20.1111C40.0576 20.0745 40.0348 20.0327 40.0234 19.9909C40.012 19.9491 40.0006 19.8864 40.0006 19.7975V19.3533C40.0006 19.2384 40.012 19.1495 40.0348 19.092C40.0576 19.0346 40.1032 18.9875 40.1659 18.9509C40.2343 18.9144 40.3141 18.8987 40.4053 18.8987C40.4794 18.8987 40.5478 18.9091 40.6105 18.9353C40.6732 18.9614 40.7131 18.9875 40.7473 19.0241C40.7758 19.0607 40.7986 19.0973 40.81 19.1443C40.8214 19.1861 40.8271 19.2593 40.8271 19.3533H40.8214ZM40.4737 19.2436C40.4737 19.1757 40.4737 19.1338 40.4623 19.1182C40.4566 19.1025 40.4395 19.092 40.411 19.092C40.3825 19.092 40.3711 19.1025 40.3597 19.1182C40.354 19.1338 40.3483 19.1757 40.3483 19.2436V19.8655C40.3483 19.9387 40.3483 19.9857 40.3597 20.0014C40.3654 20.017 40.3825 20.0223 40.411 20.0223C40.4395 20.0223 40.4566 20.0118 40.4623 19.9961C40.468 19.9805 40.4737 19.9387 40.4737 19.8759V19.2436Z" fill="#64541C"/>
<path d="M41.152 18.9248V19.0398C41.152 19.0973 41.1463 19.1495 41.1292 19.1861C41.1121 19.2227 41.0893 19.2593 41.0494 19.2854C41.0095 19.3115 40.9696 19.3272 40.9183 19.3377V19.2436C40.9525 19.2279 40.9753 19.2018 40.9753 19.1704H40.9183V18.9248H41.152ZM41.4598 18.9248V19.0398C41.4598 19.0973 41.4541 19.1495 41.437 19.1861C41.4199 19.2227 41.3914 19.2593 41.3572 19.2854C41.3173 19.3115 41.2774 19.3272 41.2261 19.3377V19.2436C41.2603 19.2279 41.2774 19.2018 41.2831 19.1704H41.2261V18.9248H41.4598Z" fill="#64541C"/>
<path d="M39.5161 22.165V22.996H39.613V23.2155H39.5161V23.4402H39.1683V23.2155H38.7579V22.996L39.06 22.165H39.5218H39.5161ZM39.1683 22.996V22.4525L39.0144 22.996H39.1683Z" fill="#64541C"/>
<path d="M39.8923 22.165V22.28C39.8923 22.3375 39.8866 22.3898 39.8695 22.4263C39.8524 22.4681 39.8296 22.4995 39.7897 22.5256C39.7498 22.5518 39.7099 22.5674 39.6586 22.5779V22.4838C39.6928 22.4681 39.7099 22.442 39.7156 22.4159H39.6586V22.165H39.8923Z" fill="#64541C"/>
<path d="M40.8213 22.4994H40.4736C40.4736 22.4419 40.4736 22.4053 40.4736 22.3896C40.4736 22.3739 40.4622 22.3635 40.4508 22.353C40.4394 22.3426 40.4223 22.3374 40.3995 22.3374C40.3824 22.3374 40.3653 22.3374 40.3539 22.353C40.3425 22.3635 40.3368 22.3739 40.3368 22.3896C40.3368 22.4053 40.3368 22.4367 40.3368 22.4837V22.6875C40.3539 22.6561 40.3824 22.63 40.4166 22.6091C40.4508 22.5934 40.4907 22.583 40.542 22.583C40.6047 22.583 40.6617 22.5987 40.713 22.63C40.7643 22.6614 40.7928 22.6979 40.8042 22.745C40.8156 22.7868 40.827 22.8495 40.827 22.9227V23.022C40.827 23.1108 40.827 23.1787 40.8156 23.2205C40.8099 23.2624 40.7871 23.3042 40.7529 23.3407C40.7187 23.3773 40.6788 23.4035 40.6218 23.4244C40.5648 23.4453 40.5021 23.4557 40.4223 23.4557C40.3311 23.4557 40.2513 23.4453 40.1943 23.4191C40.1316 23.3982 40.086 23.3617 40.0575 23.3198C40.0233 23.2728 40.0062 23.231 40.0005 23.1787C40.0005 23.1317 39.9948 23.0376 39.9948 22.8965V22.7189C39.9948 22.5673 39.9948 22.468 40.0005 22.4158C40.0005 22.3635 40.0233 22.3165 40.0575 22.2694C40.0917 22.2224 40.1373 22.191 40.2 22.1649C40.2627 22.144 40.3311 22.1335 40.4109 22.1335C40.5078 22.1335 40.5876 22.1492 40.6503 22.1754C40.713 22.2015 40.7586 22.2433 40.7871 22.2955C40.8156 22.3478 40.827 22.4157 40.827 22.4941L40.8213 22.4994ZM40.4736 22.8965C40.4736 22.8495 40.4736 22.8181 40.4565 22.8025C40.4451 22.7868 40.428 22.7763 40.4052 22.7763C40.3824 22.7763 40.3653 22.7868 40.3539 22.8025C40.3425 22.8181 40.3368 22.8495 40.3368 22.8965V23.1265C40.3368 23.184 40.3368 23.2205 40.3539 23.2362C40.3653 23.2519 40.3824 23.2624 40.4052 23.2624C40.4223 23.2624 40.4337 23.2571 40.4508 23.2414C40.4679 23.231 40.4736 23.1944 40.4736 23.1317V22.8965Z" fill="#64541C"/>
<path d="M41.1408 22.165V22.28C41.1408 22.3375 41.1351 22.3898 41.118 22.4263C41.1009 22.4681 41.0781 22.4995 41.0382 22.5256C40.9983 22.5518 40.9584 22.5674 40.9071 22.5779V22.4838C40.9413 22.4681 40.9584 22.442 40.9641 22.4159H40.9071V22.165H41.1408ZM41.4543 22.165V22.28C41.4543 22.3375 41.4486 22.3898 41.4315 22.4263C41.4144 22.4681 41.3916 22.4995 41.3517 22.5256C41.3118 22.5518 41.2719 22.5674 41.2206 22.5779V22.4838C41.2548 22.4681 41.2719 22.442 41.2776 22.4159H41.2206V22.165H41.4543Z" fill="#64541C"/>
<path d="M39.5161 25.4051V26.236H39.613V26.4555H39.5161V26.6802H39.1683V26.4555H38.7579V26.236L39.06 25.4051H39.5218H39.5161ZM39.1683 26.236V25.6977L39.0144 26.236H39.1683Z" fill="#64541C"/>
<path d="M39.8923 25.405V25.52C39.8923 25.5775 39.8866 25.6297 39.8695 25.6663C39.8524 25.7029 39.8296 25.7395 39.7897 25.7656C39.7498 25.7918 39.7099 25.8127 39.6586 25.8179V25.7238C39.6928 25.7081 39.7099 25.682 39.7156 25.6559H39.6586V25.405H39.8923Z" fill="#64541C"/>
<path d="M40.8043 25.8336V26.2569C40.8043 26.3509 40.8043 26.4241 40.7872 26.4659C40.7758 26.5077 40.753 26.5495 40.7188 26.5913C40.6846 26.6279 40.639 26.6593 40.5877 26.6749C40.5364 26.6906 40.4793 26.7011 40.4166 26.7011C40.3311 26.7011 40.2627 26.6906 40.2114 26.6749C40.1544 26.6593 40.1145 26.6279 40.0803 26.5913C40.0461 26.5547 40.0233 26.5129 40.0119 26.4764C40.0005 26.4398 39.9891 26.3718 39.9891 26.2778V25.8336C39.9891 25.7186 40.0005 25.6298 40.0233 25.5723C40.0461 25.5148 40.0917 25.4677 40.1544 25.4312C40.2171 25.3946 40.2969 25.3789 40.3938 25.3789C40.4679 25.3789 40.5364 25.3894 40.5991 25.4155C40.6618 25.4416 40.7017 25.4677 40.7359 25.5043C40.7644 25.5409 40.7872 25.5775 40.7986 25.6245C40.81 25.6663 40.8157 25.7395 40.8157 25.8336H40.8043ZM40.4565 25.7238C40.4565 25.6559 40.4565 25.6141 40.4451 25.5984C40.4394 25.5827 40.4223 25.5723 40.3938 25.5723C40.3653 25.5723 40.3482 25.5827 40.3425 25.5984C40.3368 25.6141 40.3311 25.6559 40.3311 25.7238V26.3457C40.3311 26.4189 40.3311 26.4659 40.3425 26.4764C40.3482 26.492 40.3653 26.4973 40.3938 26.4973C40.4223 26.4973 40.4394 26.4868 40.4451 26.4711C40.4508 26.4555 40.4565 26.4136 40.4565 26.3509V25.7186V25.7238Z" fill="#64541C"/>
<path d="M41.1292 25.405V25.52C41.1292 25.5775 41.1235 25.6297 41.1064 25.6663C41.0893 25.7029 41.0665 25.7395 41.0266 25.7656C40.9867 25.7918 40.9468 25.8127 40.8955 25.8179V25.7238C40.9297 25.7081 40.9468 25.682 40.9525 25.6559H40.8955V25.405H41.1292ZM41.4427 25.405V25.52C41.4427 25.5775 41.437 25.6297 41.4199 25.6663C41.4028 25.7029 41.38 25.7395 41.3401 25.7656C41.3002 25.7918 41.2603 25.8127 41.209 25.8179V25.7238C41.2432 25.7081 41.2603 25.682 41.266 25.6559H41.209V25.405H41.4427Z" fill="#64541C"/>
<path d="M39.419 29.1991C39.4703 29.2148 39.5102 29.2409 39.5387 29.2775C39.5672 29.3141 39.5786 29.4029 39.5786 29.5388C39.5786 29.6381 39.5672 29.7165 39.5387 29.7739C39.5159 29.8314 39.4703 29.8732 39.4076 29.8994C39.3449 29.9255 39.2651 29.9412 39.1682 29.9412C39.0599 29.9412 38.9687 29.9255 38.906 29.8889C38.8433 29.8523 38.8034 29.8157 38.7806 29.7635C38.7578 29.7165 38.7521 29.6276 38.7521 29.5074V29.4081H39.0998V29.6119C39.0998 29.6694 39.0998 29.7008 39.1112 29.7164C39.1169 29.7321 39.134 29.7374 39.1568 29.7374C39.1853 29.7374 39.2024 29.7269 39.2081 29.7112C39.2138 29.6903 39.2195 29.6433 39.2195 29.5649V29.4761C39.2195 29.429 39.2195 29.3924 39.2024 29.3715C39.191 29.3506 39.1739 29.335 39.1511 29.3245C39.1283 29.3193 39.0827 29.3141 39.0143 29.3141V29.1311C39.0941 29.1311 39.1454 29.1311 39.1682 29.1207C39.191 29.1155 39.2024 29.0998 39.2138 29.0841C39.2195 29.0632 39.2252 29.0319 39.2252 28.9953V28.9221C39.2252 28.8751 39.2252 28.8489 39.2081 28.8333C39.1967 28.8176 39.1796 28.8124 39.1625 28.8124C39.1397 28.8124 39.1226 28.8176 39.1112 28.8333C39.0998 28.8489 39.0998 28.8803 39.0998 28.9273V29.0318H38.7521V28.9221C38.7521 28.8019 38.7806 28.7183 38.8433 28.6765C38.906 28.6347 39.0029 28.6138 39.134 28.6138C39.2993 28.6138 39.4133 28.6451 39.4703 28.7026C39.5273 28.7601 39.5615 28.8437 39.5615 28.9482C39.5615 29.0214 39.5501 29.0684 39.5273 29.105C39.5045 29.1364 39.4703 29.1677 39.4133 29.1886L39.419 29.1991Z" fill="#64541C"/>
<path d="M39.9037 28.6453V28.7602C39.9037 28.8177 39.8981 28.87 39.881 28.9066C39.8639 28.9431 39.841 28.9797 39.8011 29.0058C39.7612 29.032 39.7213 29.0529 39.67 29.0581V28.964C39.7042 28.9484 39.7213 28.9222 39.727 28.8961H39.67V28.6453H39.9037Z" fill="#64541C"/>
<path d="M40.8328 28.9848H40.4851C40.4851 28.9273 40.4851 28.8907 40.4851 28.8751C40.4851 28.8594 40.4737 28.8489 40.4623 28.8385C40.4509 28.828 40.4338 28.8228 40.411 28.8228C40.3939 28.8228 40.3768 28.8228 40.3654 28.8385C40.354 28.8542 40.3483 28.8594 40.3483 28.8751C40.3483 28.8907 40.3483 28.9221 40.3483 28.9691V29.173C40.3654 29.1416 40.3939 29.1155 40.4281 29.0946C40.4623 29.0789 40.5022 29.0684 40.5535 29.0684C40.6162 29.0684 40.6732 29.0841 40.7188 29.1155C40.7701 29.1468 40.7986 29.1834 40.81 29.2304C40.8214 29.2722 40.8328 29.335 40.8328 29.4081V29.5074C40.8328 29.5963 40.8328 29.6642 40.8214 29.706C40.8157 29.7478 40.7929 29.7896 40.7587 29.8262C40.7245 29.8628 40.6846 29.8889 40.6276 29.9098C40.5706 29.9307 40.5079 29.9412 40.4281 29.9412C40.3369 29.9412 40.2571 29.9307 40.2001 29.9046C40.1431 29.8785 40.0918 29.8471 40.0633 29.8053C40.0291 29.7635 40.012 29.7165 40.0063 29.6642C40.0063 29.6172 40.0006 29.5179 40.0006 29.382V29.2043C40.0006 29.0528 40.0006 28.9535 40.0063 28.9012C40.0063 28.8489 40.0291 28.8019 40.0633 28.7549C40.0975 28.7078 40.1431 28.6765 40.2058 28.6504C40.2685 28.6295 40.3369 28.6138 40.4167 28.6138C40.5136 28.6138 40.5934 28.6294 40.6561 28.6556C40.7188 28.6817 40.7644 28.7235 40.7872 28.7758C40.8157 28.828 40.8271 28.896 40.8271 28.9744L40.8328 28.9848ZM40.4851 29.382C40.4851 29.335 40.4851 29.3088 40.468 29.2879C40.4566 29.2722 40.4395 29.2618 40.4167 29.2618C40.3939 29.2618 40.3768 29.267 40.3654 29.2879C40.354 29.3036 40.3483 29.335 40.3483 29.382V29.6119C40.3483 29.6694 40.3483 29.706 40.3654 29.7217C40.3768 29.7374 40.3939 29.7478 40.4167 29.7478C40.4338 29.7478 40.4452 29.7426 40.4623 29.7269C40.4794 29.7112 40.4851 29.6799 40.4851 29.6172V29.382Z" fill="#64541C"/>
<path d="M41.152 28.6453V28.7602C41.152 28.8177 41.1463 28.87 41.1292 28.9066C41.1121 28.9431 41.0893 28.9797 41.0494 29.0058C41.0095 29.032 40.9696 29.0529 40.9183 29.0581V28.964C40.9525 28.9484 40.9753 28.9222 40.9753 28.8961H40.9183V28.6453H41.152ZM41.4655 28.6453V28.7602C41.4655 28.8177 41.4598 28.87 41.4427 28.9066C41.4256 28.9431 41.4028 28.9797 41.3629 29.0058C41.323 29.032 41.2831 29.0529 41.2318 29.0581V28.964C41.266 28.9484 41.2831 28.9222 41.2888 28.8961H41.2318V28.6453H41.4655Z" fill="#64541C"/>
<path d="M38.3076 25.9381H6.29553V26.074H38.3076V25.9381Z" fill="#64541C"/>
<path d="M38.3076 29.173H6.29553V29.3088H38.3076V29.173Z" fill="#64541C"/>
<path d="M41.2545 27.5894H3.81592V27.6573H41.2545V27.5894Z" fill="#64541C"/>
<path d="M41.2545 24.3545H3.81592V24.4224H41.2545V24.3545Z" fill="#64541C"/>
<path d="M41.2545 21.1196H3.81592V21.1876H41.2545V21.1196Z" fill="#64541C"/>
<path d="M41.2545 17.8849H3.81592V17.9528H41.2545V17.8849Z" fill="#64541C"/>
<path d="M41.2545 14.6448H3.81592V14.7127H41.2545V14.6448Z" fill="#64541C"/>
<path d="M41.2545 11.4098H3.81592V11.4777H41.2545V11.4098Z" fill="#64541C"/>
<path d="M41.2545 8.17493H3.81592V8.24286H41.2545V8.17493Z" fill="#64541C"/>
<path d="M38.3076 22.7032H6.29553V22.8391H38.3076V22.7032Z" fill="#64541C"/>
<path d="M38.3076 16.2334H6.29553V16.3693H38.3076V16.2334Z" fill="#64541C"/>
<path d="M38.3076 19.4684H6.29553V19.6043H38.3076V19.4684Z" fill="#64541C"/>
<path d="M38.3076 9.75842H6.29553V9.8943H38.3076V9.75842Z" fill="#64541C"/>
<path d="M38.3076 12.9933H6.29553V13.1292H38.3076V12.9933Z" fill="#64541C"/>
<path d="M38.3076 6.52356H6.29553V6.65943H38.3076V6.52356Z" fill="#64541C"/>
</g>
</g>
<path opacity="0.6" d="M32.6361 4.9401L33.3771 4.54293L32.6361 4.14575L33.3771 3.74858L32.6361 3.3514L33.3771 2.95423L32.6361 2.55706L33.3771 2.15988L32.6361 1.76271L33.3771 1.36553L32.6361 0.968359L33.3771 0.571184L32.9553 0.346467C31.9692 0.341241 30.9716 0.409181 29.9969 0.393503C28.1387 0.362147 26.2747 0.16356 24.4222 0.0747187C22.5411 -0.0141229 20.6601 -0.00366947 18.7733 0.00678247C17.3255 0.0172344 15.8776 0.0172319 14.4298 0.0694916L13.9966 0.299436L14.7376 0.696611L13.9966 1.09378L14.7376 1.49096L13.9966 1.88813L14.7376 2.28531L13.9966 2.68248L14.7376 3.07965L13.9966 3.47683L14.7376 3.874L13.9966 4.27117L14.7376 4.66835L13.9966 5.06552L14.578 5.37385C14.8858 5.35818 15.1936 5.32682 15.4843 5.30069C16.4419 5.21708 17.3882 5.24843 18.3458 5.27979C20.4606 5.34772 22.5753 5.29024 24.6901 5.33727C26.8105 5.38431 28.9367 5.54109 31.0571 5.56199C31.6956 5.56722 32.3283 5.59857 32.961 5.56199L33.3828 5.33727L32.6418 4.9401H32.6361Z" fill="url(#paint11_linear_862_1978)"/>
<path style="mix-blend-mode:multiply" opacity="0.3" d="M32.6365 0.973586L33.3775 0.576412L32.9557 0.351695C32.8645 0.351695 32.7676 0.351695 32.6764 0.351695C32.7049 0.38305 32.7334 0.419633 32.7448 0.466667C32.7733 0.576412 32.6479 0.686156 32.5795 0.75932C32.3002 1.07288 32.6992 1.16695 32.9044 1.32895C32.9329 1.34986 32.9386 1.40734 32.9044 1.42825C32.8018 1.50141 32.0836 1.75748 32.437 1.91949C32.6023 1.99788 32.7847 2.05014 32.9329 2.16511C32.9785 2.19646 32.9557 2.25395 32.9158 2.28008C32.3173 2.69816 31.3654 2.98559 31.1089 3.69632C31.0348 3.90013 31.0576 4.19801 30.8865 4.36524C30.6813 4.57428 30.3792 4.68925 30.0828 4.73628C29.1936 4.88261 28.2873 4.83035 27.3981 4.97146C26.828 5.0603 26.1269 5.23275 25.5512 5.0812C24.3656 4.77287 25.8134 3.65451 26.2352 3.33572C27.4266 2.44208 28.7319 1.69477 30.1968 1.22966C30.459 1.11991 30.7212 1.01539 30.9834 0.910873C31.3483 0.764546 31.6447 0.518927 31.9981 0.356922C31.3255 0.3726 30.6585 0.403955 29.9973 0.393503C28.1391 0.362147 26.2751 0.16356 24.4226 0.0747187C22.5415 -0.0141229 20.6605 -0.00366947 18.7737 0.00678247C18.1182 0.00678247 17.4627 0.0120078 16.8072 0.0224597C16.8072 0.0276857 16.8072 0.0381381 16.8015 0.0433641C17.4057 0.132206 18.1182 0.0799446 18.5514 0.466667C18.9675 0.837711 18.6426 1.30805 18.2949 1.62161C17.628 2.21214 16.8756 2.69816 16.1688 3.24688C15.9236 3.43502 15.6728 3.62838 15.3593 3.69632C15.1028 3.7538 14.909 3.62838 14.6924 3.52909C14.6582 3.51341 14.6411 3.46115 14.6639 3.42979C14.7266 3.3514 14.8064 3.29914 14.8919 3.23643C15.0857 3.09011 14.9318 3.04307 14.7494 2.98558C14.6069 2.93855 14.4188 2.84448 14.3732 2.69815C14.3162 2.49957 14.7209 2.44731 14.9489 2.39505C14.7209 2.2644 14.4359 2.12852 14.3561 1.89858C14.2991 1.72612 14.5727 1.63206 14.7038 1.61638C14.7836 1.60593 14.8748 1.61638 14.9546 1.59025C15.1028 1.54844 14.6981 1.25056 14.6582 1.22966C14.6012 1.20353 14.5157 1.16695 14.5157 1.09378C14.5157 0.816805 15.0572 0.738418 15.3251 0.639125C15.1313 0.534605 14.8292 0.362148 15.0059 0.189691C15.0914 0.106075 15.2453 0.0642669 15.4049 0.038137C15.0743 0.043363 14.7494 0.0538165 14.4188 0.0642685L13.9856 0.294209L14.7266 0.691384L13.9856 1.08856L14.7266 1.48573L13.9856 1.8829L14.7266 2.28008L13.9856 2.67725L14.7266 3.07443L13.9856 3.4716L14.7266 3.86878L13.9856 4.26595L14.7266 4.66312L13.9856 5.0603L14.567 5.36863C14.8748 5.35295 15.1826 5.32159 15.4733 5.29546C16.431 5.21185 17.3772 5.2432 18.3348 5.27456C20.4496 5.3425 22.5643 5.28501 24.6791 5.33205C26.7995 5.37908 28.9257 5.53586 31.0462 5.55676C31.6846 5.56199 32.3173 5.59334 32.95 5.55676L33.3718 5.33205L32.6308 4.93487L33.3718 4.5377L32.6308 4.14052L33.3718 3.74335L32.6308 3.34618L33.3718 2.949L32.6308 2.55183L33.3718 2.15466L32.6308 1.75748L33.3718 1.36031L32.6308 0.963132L32.6365 0.973586ZM23.0431 3.69109C22.2223 4.14052 21.3787 4.5795 20.4838 4.88261C19.9423 5.06552 18.5172 5.4836 18.5685 4.51679C18.6027 3.81651 19.3494 3.33573 19.9195 2.96991C21.3787 2.03446 23.6132 1.07288 25.4486 1.09378C25.688 1.09378 26.1098 1.11469 26.1782 1.38644C26.2295 1.59025 26.0015 1.80452 25.8647 1.92994C25.061 2.66158 24.0122 3.15804 23.0431 3.69109Z" fill="url(#paint12_linear_862_1978)"/>
<path style="mix-blend-mode:multiply" opacity="0.3" d="M16.1914 5.23803C17.2117 4.46981 18.3404 3.84269 19.4348 3.16854C20.8826 2.2749 22.7922 1.40739 23.4192 1.26629C27.016 0.456262 27.7741 1.00499 26.4004 1.71049C25.7335 2.05018 24.8613 2.71911 24.2286 3.11628C23.8923 3.33055 22.7865 4.05173 22.7295 4.43323C22.6269 5.0708 23.9436 4.57955 24.7986 4.0047C27.301 2.33761 29.4385 1.07293 32.4881 0.492846C32.6762 0.456264 32.8586 0.430131 33.0467 0.404001L32.9555 0.356969C31.9694 0.351744 30.9719 0.419679 29.9972 0.404001C28.1389 0.372645 26.275 0.174058 24.4224 0.0852167C22.5414 -0.00362481 20.6603 0.00682858 18.7736 0.0172805C17.3257 0.0277325 15.8779 0.0277339 14.43 0.0799936L14.1165 0.247225C14.584 0.200191 15.0742 0.278578 15.5416 0.294256C16.3168 0.320386 17.0806 0.205415 17.8558 0.184511C18.2206 0.17406 18.5912 0.168836 18.9446 0.231547C19.184 0.273355 19.5602 0.325614 19.7312 0.508523C20.2271 1.03635 16.3453 3.57617 15.8551 4.0465C15.325 4.55342 14.7664 4.94015 14.1108 5.13351L14.5726 5.37913C14.8804 5.36345 15.1882 5.3321 15.4789 5.30597C15.7069 5.28506 15.9292 5.27461 16.1572 5.26416C16.1686 5.25371 16.1743 5.24848 16.1857 5.23803H16.1914Z" fill="url(#paint13_linear_862_1978)"/>
<path opacity="0.8" d="M20.6147 0.958144C20.4323 1.96676 14.869 5.47338 16.5505 4.72084C17.7247 4.00488 19.4348 2.84472 19.8737 2.56774C20.3582 2.26463 20.8427 1.96676 21.3443 1.67933C22.3076 1.1306 23.3223 0.63936 24.3654 0.231735C24.4851 0.184701 24.6048 0.142892 24.7245 0.0958583C24.6219 0.0906323 24.525 0.085407 24.4224 0.080181C22.9746 0.0122434 21.5324 0.00179176 20.0846 0.00701773C20.8883 0.23696 20.6603 0.686394 20.6147 0.958144Z" fill="url(#paint14_linear_862_1978)"/>
<path style="mix-blend-mode:screen" opacity="0.8" d="M32.9613 0.356916C31.9751 0.35169 30.9776 0.419626 30.0029 0.403948C29.3873 0.393496 28.7717 0.362143 28.156 0.325562C28.1845 0.769769 27.3466 1.50663 27.0787 1.73135C26.6911 2.05536 26.2807 2.34801 25.8589 2.63021C25.249 3.03784 24.3084 3.54476 24.0405 4.24504C24.1659 4.27117 24.2913 4.26594 24.411 4.24504C24.5478 4.17188 24.6789 4.08826 24.7986 4.00987C27.301 2.34278 29.4386 1.0781 32.4882 0.498016C32.6763 0.461434 32.8587 0.435305 33.0468 0.409175L32.9556 0.362143L32.9613 0.356916Z" fill="url(#paint15_linear_862_1978)"/>
<path style="mix-blend-mode:multiply" opacity="0.6" d="M32.2315 5.68212C31.9921 5.68212 31.7584 5.68211 31.5247 5.67166C31.3651 5.67166 31.2112 5.66643 31.0516 5.66643C29.8774 5.65598 28.6803 5.5985 27.5232 5.54624C26.5941 5.50443 25.6308 5.46262 24.6845 5.44172C23.7212 5.42081 22.7408 5.42082 21.7946 5.42082C20.6602 5.42082 19.4917 5.42082 18.3403 5.38423H18.2662C17.3199 5.35288 16.4193 5.32152 15.4959 5.40514L15.3135 5.42082C15.0741 5.44172 14.829 5.46262 14.5839 5.47308H14.5497L13.7802 5.06022L14.5212 4.66305L13.7802 4.26587L14.5212 3.8687L13.7802 3.47153L14.5212 3.07435L13.7802 2.67718L14.5212 2.26433L15.2622 2.2382L14.2191 2.67718L14.9601 3.07435L14.2191 3.47153L14.9601 3.8687L14.2191 4.26587L14.9601 4.66305L14.2191 5.06022L14.6067 5.26404C14.8404 5.25358 15.0684 5.23268 15.2907 5.21178L15.4731 5.1961C16.4079 5.11248 17.3541 5.14384 18.2719 5.1752H18.346C19.4974 5.217 20.6659 5.21178 21.7946 5.21178C22.7465 5.21178 23.7269 5.21178 24.6902 5.23268C25.6365 5.25359 26.5998 5.29539 27.5346 5.3372C28.6917 5.38946 29.8831 5.44172 31.0573 5.4574C31.2169 5.4574 31.3708 5.4574 31.5304 5.46262C31.9864 5.47307 32.4595 5.4783 32.927 5.45217L33.1607 5.32675L32.4196 4.92957L33.1607 4.5324L32.4196 4.13522L33.1607 3.73805L32.4196 3.34088L33.1607 2.9437L32.4196 2.54653L33.326 2.06052L33.8333 2.07097L32.8586 2.54653L33.5996 2.9437L32.8586 3.34088L33.5996 3.73805L32.8586 4.13522L33.5996 4.5324L32.8586 4.92957L33.5996 5.32675L32.9897 5.65076H32.9669C32.7218 5.66643 32.4767 5.67166 32.2315 5.67166V5.68212Z" fill="url(#paint16_linear_862_1978)"/>
<path style="mix-blend-mode:multiply" opacity="0.8" d="M32.3115 5.77617C32.0721 5.77617 31.8384 5.77616 31.6047 5.76571C31.4451 5.76571 31.2912 5.76048 31.1316 5.76048C29.9516 5.75003 28.7603 5.69777 27.6032 5.64029C26.674 5.59848 25.7107 5.55667 24.7645 5.53577C23.8012 5.51486 22.8207 5.51487 21.8745 5.51487C20.7402 5.51487 19.5717 5.51487 18.4202 5.47829H18.3461C17.3999 5.44693 16.4993 5.41557 15.5759 5.49919L15.3934 5.51487C15.154 5.53577 14.9089 5.55667 14.6638 5.57235H14.6296L13.8601 5.1595L14.6011 4.76233L13.8601 4.36515L14.6011 3.96798L13.8601 3.5708L14.6011 3.17363L13.8601 2.77645L14.6011 2.3636L15.3421 2.33748L14.299 2.77645L15.0457 3.17363L14.299 3.5708L15.0457 3.96798L14.299 4.36515L15.0457 4.76233L14.299 5.1595L14.6866 5.36331C14.9203 5.35286 15.1483 5.33195 15.3706 5.31105L15.5531 5.29537C16.4879 5.21176 17.4341 5.24311 18.3518 5.27447H18.4259C19.5774 5.31628 20.7459 5.31105 21.8745 5.31105C22.8264 5.31105 23.8069 5.31105 24.7702 5.33195C25.7164 5.35286 26.6797 5.39467 27.6146 5.4417C28.7717 5.49396 29.963 5.54622 31.1373 5.55667C31.2969 5.55667 31.4508 5.55667 31.6104 5.5619C32.0664 5.57235 32.5395 5.57758 33.0069 5.55145L33.2406 5.42602L32.4996 5.02885L33.2406 4.63168L32.4996 4.2345L33.2406 3.83733L32.4996 3.44016L33.2406 3.04298L32.4996 2.64581L33.4059 2.15979L33.9132 2.17024L32.9385 2.64581L33.6795 3.04298L32.9385 3.44016L33.6795 3.83733L32.9385 4.2345L33.6795 4.63168L32.9385 5.02885L33.6795 5.42602L33.0696 5.75003H33.0411C32.796 5.76571 32.5509 5.77094 32.3058 5.77094L32.3115 5.77617Z" fill="url(#paint17_linear_862_1978)"/>
<path fill-rule="evenodd" clip-rule="evenodd" d="M21.1967 9.00437C21.4118 9.00437 21.6267 9.00437 21.8417 9.00437C22.4868 9.00437 23.1318 9.00437 23.7769 9.00437C23.9919 9.00437 24.2069 9.00437 24.4219 9.00437C25.0301 8.98533 25.6322 9.02851 26.2281 9.1339C26.3195 9.251 26.4485 9.29418 26.6151 9.26344C27.0402 9.47682 27.4702 9.69272 27.9052 9.91113C27.9912 10.0838 28.1203 10.2134 28.2922 10.2997C28.6216 10.5713 28.9226 10.8736 29.1953 11.2065C29.1859 11.4043 29.2719 11.5338 29.4533 11.5951C29.6946 12.0647 29.9096 12.5397 30.0984 13.02C30.0638 13.2271 30.1069 13.3999 30.2274 13.5382C30.2274 13.7541 30.2274 13.9699 30.2274 14.1858C30.5859 14.1572 30.9299 14.2004 31.2594 14.3154C31.2594 14.5313 31.2594 14.7472 31.2594 14.9631C31.2594 15.6108 31.2594 16.2584 31.2594 16.9061C31.2594 17.122 31.2594 17.3379 31.2594 17.5538C31.3842 18.1843 31.1262 18.465 30.4854 18.3958C30.3748 18.4851 30.2889 18.593 30.2274 18.7196C30.6403 18.9479 31.0273 19.207 31.3884 19.4969C31.379 19.6947 31.4651 19.8242 31.6465 19.8855C31.7591 20.4384 31.802 20.9997 31.7755 21.5695C31.7755 21.7854 31.7755 22.0012 31.7755 22.2171C31.6666 23.1695 31.1506 23.7955 30.2274 24.0954C30.6464 24.2845 31.0764 24.4356 31.5175 24.5488C31.6733 24.6439 31.8453 24.687 32.0335 24.6783C32.4228 24.9245 32.8528 25.0971 33.3236 25.1965C33.4544 25.3486 33.6264 25.4348 33.8396 25.4556C34.1787 25.7131 34.5227 25.9722 34.8717 26.2328C34.9736 26.3495 35.1026 26.4359 35.2587 26.4919C35.5634 26.8406 35.8646 27.186 36.1618 27.5282C36.2478 27.6577 36.3338 27.7872 36.4198 27.9168C36.6798 28.3532 36.9378 28.7849 37.1939 29.2121C37.2012 29.3558 37.2442 29.4853 37.3229 29.6007C37.4767 30.0932 37.6486 30.5683 37.8389 31.0257C37.8043 31.2328 37.8474 31.4055 37.9679 31.5438C38.0449 32.0774 38.174 32.5955 38.355 33.0982C38.3463 33.2872 38.3893 33.4599 38.484 33.6164C38.613 34.1345 38.742 34.6527 38.871 35.1708C38.914 35.3435 38.957 35.5163 39 35.689C39 36.3367 39 36.9844 39 37.632C38.9161 37.8827 38.8732 38.1418 38.871 38.4093C38.5509 39.3985 38.0349 40.2622 37.3229 41C37.1485 40.8674 36.9765 40.7378 36.8068 40.6114C36.7484 40.4873 36.6625 40.3793 36.5488 40.2875C37.1579 39.6474 37.5449 38.8917 37.7099 38.0206C35.9898 38.0206 34.2696 38.0206 32.5495 38.0206C32.4404 38.9108 32.2253 39.7743 31.9045 40.6114C31.788 40.886 31.6159 40.9293 31.3884 40.7409C31.3024 40.6545 31.2165 40.5683 31.1304 40.4818C31.0018 40.4857 30.9158 40.421 30.8724 40.2875C31.178 39.5562 31.3931 38.8006 31.5175 38.0206C26.0991 38.0206 20.6807 38.0206 15.2623 38.0206C15.2623 37.848 15.2623 37.6752 15.2623 37.5025C15.2623 37.3298 15.2623 37.157 15.2623 36.9844C20.7667 36.9844 26.271 36.9844 31.7755 36.9844C31.7755 36.2935 31.7755 35.6026 31.7755 34.9118C29.1953 34.9118 26.6151 34.9118 24.0349 34.9118C24.0349 34.7822 24.0349 34.6527 24.0349 34.5231C24.0349 34.3072 24.0349 34.0914 24.0349 33.8755C28.4642 33.8755 32.8936 33.8755 37.3229 33.8755C37.1626 32.8427 36.9046 31.8495 36.5488 30.8961C36.3735 30.1335 36.0725 29.4211 35.6458 28.7588C32.5495 28.6724 29.4533 28.6724 26.3571 28.7588C24.6473 29.7676 22.8412 29.9834 20.9387 29.4064C20.1188 28.9948 19.3017 28.5847 18.4875 28.1758C17.4656 27.3287 16.627 26.3355 15.9718 25.1965C14.2043 25.6281 12.6347 26.4268 11.263 27.5929C13.2837 27.6577 15.3048 27.6793 17.3264 27.6577C17.3264 27.8304 17.3264 28.0032 17.3264 28.1758C17.3264 28.3485 17.3264 28.5213 17.3264 28.694C15.0038 28.6724 12.6817 28.694 10.3599 28.7588C10.0072 29.3592 9.70618 29.9852 9.45685 30.637C18.1 30.7666 26.7437 30.8097 35.3877 30.7666C35.3877 30.9393 35.3877 31.1121 35.3877 31.2847C35.3877 31.4574 35.3877 31.6302 35.3877 31.8029C26.6581 31.7812 17.9284 31.8029 9.19883 31.8676C8.91102 32.7427 8.653 33.6279 8.42477 34.5231C8.11806 35.3129 7.98905 36.1333 8.03774 36.9844C9.41385 36.9844 10.7899 36.9844 12.166 36.9844C12.166 37.157 12.166 37.3298 12.166 37.5025C12.166 37.6752 12.166 37.848 12.166 38.0206C10.8759 38.0206 9.58585 38.0206 8.29576 38.0206C8.46072 38.8917 8.84775 39.6474 9.45685 40.2875C9.34325 40.3793 9.25724 40.4873 9.19883 40.6114C9.02919 40.7378 8.85718 40.8674 8.68279 41C8.52346 40.8912 8.39445 40.7617 8.29576 40.6114C8.25276 40.4818 8.16675 40.3954 8.03774 40.3523C7.82444 39.9239 7.60942 39.4922 7.39269 39.0569C7.34969 38.8843 7.30669 38.7115 7.26369 38.5388C7.06212 38.0003 6.97612 37.439 7.00567 36.8548C7.00567 36.6389 7.00567 36.4231 7.00567 36.2071C7.09338 35.423 7.22239 34.6458 7.39269 33.8755C7.4787 33.8755 7.5217 33.8323 7.5217 33.7459C7.60771 33.4437 7.69372 33.1414 7.77972 32.8392C7.99474 31.9755 8.20975 31.1121 8.42477 30.2484C8.6043 29.9237 8.73331 29.5783 8.8118 29.2121C9.67187 27.3986 11.005 26.0601 12.8111 25.1965C13.1558 25.0668 13.4998 24.9373 13.8432 24.8079C13.9292 24.8079 13.9722 24.7647 13.9722 24.6783C14.5931 24.5497 15.1952 24.3554 15.7783 24.0954C15.4739 23.9426 15.1728 23.7914 14.8752 23.642C14.8322 23.5125 14.7462 23.4261 14.6172 23.383C14.2986 22.9173 14.1696 22.3991 14.2302 21.8285C14.2302 21.6126 14.2302 21.3967 14.2302 21.1808C14.111 20.0382 14.584 19.261 15.6493 18.8492C15.7691 18.6952 15.8121 18.5225 15.7783 18.331C15.5203 18.331 15.2623 18.331 15.0042 18.331C14.8752 18.2879 14.7892 18.2015 14.7462 18.072C14.7462 17.4243 14.7462 16.7766 14.7462 16.1289C14.7462 15.913 14.7462 15.6971 14.7462 15.4812C14.725 15.0902 14.7465 14.7016 14.8107 14.3154C15.1179 14.1943 15.4404 14.1511 15.7783 14.1858C15.8489 13.4272 16.021 12.6932 16.2943 11.9837C16.3804 11.9837 16.4234 11.9405 16.4234 11.8542C16.5094 11.8542 16.5524 11.811 16.5524 11.7246C17.0684 10.9474 17.7134 10.2997 18.4875 9.78159C18.5735 9.78159 18.6165 9.73841 18.6165 9.65205C18.7025 9.65205 18.7455 9.60887 18.7455 9.52252C19.5289 9.18835 20.3459 9.01563 21.1967 9.00437Z" fill="#010101"/>
<path fill-rule="evenodd" clip-rule="evenodd" d="M20.5517 10.0407C22.1863 10.0191 23.8205 10.0407 25.454 10.1054C27.5365 10.7063 28.7836 12.0665 29.1953 14.1858C25.067 14.1858 20.9387 14.1858 16.8104 14.1858C17.251 12.0599 18.4981 10.6781 20.5517 10.0407Z" fill="#BFC6CE"/>
<path fill-rule="evenodd" clip-rule="evenodd" d="M15.7783 15.2221C20.5946 15.2221 25.4111 15.2221 30.2274 15.2221C30.2274 15.913 30.2274 16.6039 30.2274 17.2947C25.4111 17.2947 20.5946 17.2947 15.7783 17.2947C15.7783 16.6039 15.7783 15.913 15.7783 15.2221Z" fill="#A7AFBB"/>
<path fill-rule="evenodd" clip-rule="evenodd" d="M16.8104 18.331C20.9387 18.331 25.067 18.331 29.1953 18.331C29.1953 18.5037 29.1953 18.6765 29.1953 18.8492C25.067 18.8492 20.9387 18.8492 16.8104 18.8492C16.8104 18.6765 16.8104 18.5037 16.8104 18.331Z" fill="#EDBD99"/>
<path fill-rule="evenodd" clip-rule="evenodd" d="M16.8104 19.8855C20.9387 19.8855 25.067 19.8855 29.1953 19.8855C29.2283 20.1824 29.1854 20.4631 29.0663 20.7275C28.3783 21.1161 27.6901 21.5047 27.0021 21.8933C26.474 21.9927 25.9579 21.9495 25.454 21.7638C24.4114 20.9948 23.2503 20.7357 21.9708 20.9865C21.3452 21.3221 20.7001 21.6244 20.0356 21.8933C19.6915 21.9797 19.3476 21.9797 19.0035 21.8933C18.3155 21.5047 17.6274 21.1161 16.9394 20.7275C16.8203 20.4631 16.7773 20.1824 16.8104 19.8855Z" fill="#4B5B78"/>
<path fill-rule="evenodd" clip-rule="evenodd" d="M15.6493 20.015C15.7983 20.9418 15.8198 21.8917 15.7138 22.8648C15.3338 22.4728 15.1833 21.9978 15.2623 21.4399C15.2033 20.9019 15.3323 20.427 15.6493 20.015Z" fill="#CF9375"/>
<path fill-rule="evenodd" clip-rule="evenodd" d="M30.2274 20.015C30.6717 20.3709 30.8438 20.8458 30.7434 21.4399C30.8224 21.9978 30.6718 22.4728 30.2919 22.8648C30.2274 21.9158 30.2059 20.9659 30.2274 20.015Z" fill="#CF9375"/>
<path fill-rule="evenodd" clip-rule="evenodd" d="M16.8104 21.8285C18.5194 23.304 20.2825 23.3687 22.0998 22.0228C22.7969 21.9228 23.4851 21.966 24.1639 22.1524C25.8813 23.3212 27.5369 23.2133 29.1308 21.8285C29.4625 24.2487 28.6239 26.127 26.6151 27.4634C24.2048 29.0922 21.7966 29.0922 19.3906 27.4634C17.4029 26.1262 16.5428 24.2479 16.8104 21.8285Z" fill="#ECBB98"/>
<path fill-rule="evenodd" clip-rule="evenodd" d="M18.4875 28.1758C18.1005 28.1758 17.7134 28.1758 17.3264 28.1758C17.3264 28.0032 17.3264 27.8304 17.3264 27.6577C15.3048 27.6793 13.2837 27.6577 11.263 27.5929C12.6347 26.4268 14.2043 25.6281 15.9718 25.1965C16.627 26.3355 17.4656 27.3287 18.4875 28.1758Z" fill="#A5ADB8"/>
<path fill-rule="evenodd" clip-rule="evenodd" d="M29.8403 25.1965C31.6696 25.6184 33.3037 26.4172 34.7427 27.5929C32.5495 27.6793 30.3564 27.6793 28.1632 27.5929C28.9011 26.9173 29.4603 26.1185 29.8403 25.1965Z" fill="#A5ADB9"/>
<path fill-rule="evenodd" clip-rule="evenodd" d="M17.3264 28.1758C17.7134 28.1758 18.1005 28.1758 18.4875 28.1758C19.3017 28.5847 20.1188 28.9948 20.9387 29.4064C22.8412 29.9834 24.6473 29.7676 26.3571 28.7588C29.4533 28.6724 32.5495 28.6724 35.6458 28.7588C36.0725 29.4211 36.3735 30.1335 36.5488 30.8961C36.5488 31.0257 36.5488 31.1552 36.5488 31.2847C36.1618 31.2847 35.7748 31.2847 35.3877 31.2847C35.3877 31.1121 35.3877 30.9393 35.3877 30.7666C26.7437 30.8097 18.1 30.7666 9.45685 30.637C9.70618 29.9852 10.0072 29.3592 10.3599 28.7588C12.6817 28.694 15.0038 28.6724 17.3264 28.694C17.3264 28.5213 17.3264 28.3485 17.3264 28.1758Z" fill="#BFC6CF"/>
<path fill-rule="evenodd" clip-rule="evenodd" d="M36.5488 30.8961C36.9046 31.8495 37.1626 32.8427 37.3229 33.8755C32.8936 33.8755 28.4642 33.8755 24.0349 33.8755C24.0349 34.0914 24.0349 34.3072 24.0349 34.5231C23.6908 34.5231 23.3469 34.5231 23.0028 34.5231C23.0028 34.3072 23.0028 34.0914 23.0028 33.8755C18.5305 33.8755 14.0582 33.8755 9.58585 33.8755C9.58585 34.0914 9.58585 34.3072 9.58585 34.5231C9.19883 34.5231 8.8118 34.5231 8.42477 34.5231C8.653 33.6279 8.91102 32.7427 9.19883 31.8676C17.9284 31.8029 26.6581 31.7812 35.3877 31.8029C35.3877 31.6302 35.3877 31.4574 35.3877 31.2847C35.7748 31.2847 36.1618 31.2847 36.5488 31.2847C36.5488 31.1552 36.5488 31.0257 36.5488 30.8961Z" fill="#A7AFBA"/>
<path fill-rule="evenodd" clip-rule="evenodd" d="M23.0028 34.5231C23.0028 34.6527 23.0028 34.7822 23.0028 34.9118C20.0786 34.9118 17.1544 34.9118 14.2302 34.9118C14.1923 35.7868 14.2353 36.6504 14.3592 37.5025C14.4861 38.4652 14.7441 39.3936 15.1333 40.2875C15.0616 40.4185 14.9756 40.5264 14.8752 40.6114C14.7067 40.696 14.5346 40.7824 14.3592 40.8705C14.2273 40.8245 14.1413 40.7381 14.1012 40.6114C13.7368 39.5351 13.4358 38.4556 13.1981 37.373C13.1981 36.5526 13.1981 35.7321 13.1981 34.9118C11.994 34.9118 10.7899 34.9118 9.58585 34.9118C9.58585 34.7822 9.58585 34.6527 9.58585 34.5231C9.58585 34.3072 9.58585 34.0914 9.58585 33.8755C14.0582 33.8755 18.5305 33.8755 23.0028 33.8755C23.0028 34.0914 23.0028 34.3072 23.0028 34.5231Z" fill="#010101"/>
<path fill-rule="evenodd" clip-rule="evenodd" d="M8.42477 34.5231C8.8118 34.5231 9.19883 34.5231 9.58585 34.5231C9.58585 34.6527 9.58585 34.7822 9.58585 34.9118C10.7899 34.9118 11.994 34.9118 13.1981 34.9118C13.1981 35.7321 13.1981 36.5526 13.1981 37.373C12.8823 37.499 12.5383 37.5421 12.166 37.5025C12.166 37.3298 12.166 37.157 12.166 36.9844C10.7899 36.9844 9.41385 36.9844 8.03774 36.9844C7.98905 36.1333 8.11806 35.3129 8.42477 34.5231Z" fill="#BFC6CF"/>
<path fill-rule="evenodd" clip-rule="evenodd" d="M23.0028 34.5231C23.3469 34.5231 23.6908 34.5231 24.0349 34.5231C24.0349 34.6527 24.0349 34.7822 24.0349 34.9118C26.6151 34.9118 29.1953 34.9118 31.7755 34.9118C31.7755 35.6026 31.7755 36.2935 31.7755 36.9844C26.271 36.9844 20.7667 36.9844 15.2623 36.9844C15.2623 37.157 15.2623 37.3298 15.2623 37.5025C14.9613 37.5025 14.6602 37.5025 14.3592 37.5025C14.2353 36.6504 14.1923 35.7868 14.2302 34.9118C17.1544 34.9118 20.0786 34.9118 23.0028 34.9118C23.0028 34.7822 23.0028 34.6527 23.0028 34.5231Z" fill="#BFC6CF"/>
<path fill-rule="evenodd" clip-rule="evenodd" d="M32.8076 34.9118C34.4439 34.8688 36.0781 34.9119 37.7099 35.0413C37.9232 35.6701 38.0091 36.3178 37.9679 36.9844C36.2478 36.9844 34.5276 36.9844 32.8076 36.9844C32.8076 36.2935 32.8076 35.6026 32.8076 34.9118Z" fill="#BEC5CE"/>
<path fill-rule="evenodd" clip-rule="evenodd" d="M14.3592 37.5025C14.6602 37.5025 14.9613 37.5025 15.2623 37.5025C15.2623 37.6752 15.2623 37.848 15.2623 38.0206C20.6807 38.0206 26.0991 38.0206 31.5175 38.0206C31.3931 38.8006 31.178 39.5562 30.8724 40.2875C30.9158 40.421 31.0018 40.4857 31.1304 40.4818C31.0863 40.5904 31.0004 40.6337 30.8724 40.6114C30.2274 40.6114 29.5823 40.6114 28.9373 40.6114C28.7222 40.6114 28.5073 40.6114 28.2922 40.6114C27.6472 40.6114 27.0021 40.6114 26.3571 40.6114C26.142 40.6114 25.9271 40.6114 25.712 40.6114C25.067 40.6114 24.4219 40.6114 23.7769 40.6114C23.5618 40.6114 23.3469 40.6114 23.1318 40.6114C22.4868 40.6114 21.8417 40.6114 21.1967 40.6114C20.9816 40.6114 20.7667 40.6114 20.5517 40.6114C19.9066 40.6114 19.2616 40.6114 18.6165 40.6114C18.4015 40.6114 18.1865 40.6114 17.9715 40.6114C17.3264 40.6114 16.6814 40.6114 16.0363 40.6114C15.8213 40.6114 15.6063 40.6114 15.3913 40.6114C15.2193 40.6114 15.0472 40.6114 14.8752 40.6114C14.9756 40.5264 15.0616 40.4185 15.1333 40.2875C14.7441 39.3936 14.4861 38.4652 14.3592 37.5025Z" fill="#A7AFBB"/>
<path fill-rule="evenodd" clip-rule="evenodd" d="M36.8068 40.6114C36.7639 40.6114 36.7208 40.6114 36.6778 40.6114C36.4628 40.6114 36.2478 40.6114 36.0328 40.6114C35.3877 40.6114 34.7427 40.6114 34.0976 40.6114C33.8826 40.6114 33.6677 40.6114 33.4526 40.6114C32.9366 40.6114 32.4205 40.6114 31.9045 40.6114C32.2253 39.7743 32.4404 38.9108 32.5495 38.0206C34.2696 38.0206 35.9898 38.0206 37.7099 38.0206C37.5449 38.8917 37.1579 39.6474 36.5488 40.2875C36.6625 40.3793 36.7484 40.4873 36.8068 40.6114Z" fill="#A5ADB9"/>
<path fill-rule="evenodd" clip-rule="evenodd" d="M13.1981 37.373C13.4358 38.4556 13.7368 39.5351 14.1012 40.6114C13.8862 40.6114 13.6712 40.6114 13.4561 40.6114C13.2411 40.6114 13.0261 40.6114 12.8111 40.6114C12.166 40.6114 11.521 40.6114 10.8759 40.6114C10.6609 40.6114 10.4459 40.6114 10.2309 40.6114C9.88687 40.6114 9.54286 40.6114 9.19883 40.6114C9.25724 40.4873 9.34325 40.3793 9.45685 40.2875C8.84775 39.6474 8.46072 38.8917 8.29576 38.0206C9.58585 38.0206 10.8759 38.0206 12.166 38.0206C12.166 37.848 12.166 37.6752 12.166 37.5025C12.5383 37.5421 12.8823 37.499 13.1981 37.373Z" fill="#A5ADB9"/>
<defs>
<linearGradient id="paint0_linear_862_1978" x1="0.198947" y1="24.8892" x2="44.7833" y2="24.4733" gradientUnits="userSpaceOnUse">
<stop stop-color="#E4C494"/>
<stop offset="0.47" stop-color="#9D6C3F"/>
<stop offset="0.87" stop-color="#8C662C"/>
</linearGradient>
<linearGradient id="paint1_linear_862_1978" x1="0.237876" y1="24.7895" x2="44.5372" y2="24.3763" gradientUnits="userSpaceOnUse">
<stop stop-color="#AB923A"/>
<stop offset="0.47" stop-color="#DDCA88"/>
<stop offset="0.74" stop-color="#E1C560"/>
<stop offset="0.95" stop-color="#F1C164"/>
</linearGradient>
<radialGradient id="paint2_radial_862_1978" cx="0" cy="0" r="1" gradientUnits="userSpaceOnUse" gradientTransform="translate(4.83385 -12.3313) rotate(-0.44924) scale(80.5712 73.8696)">
<stop offset="0.19" stop-color="#C09F4A"/>
<stop offset="0.63" stop-color="#CD9138"/>
<stop offset="0.92" stop-color="#AD7219"/>
</radialGradient>
<linearGradient id="paint3_linear_862_1978" x1="32.6878" y1="47.192" x2="13.3073" y2="47.192" gradientUnits="userSpaceOnUse">
<stop stop-color="#9F9C95"/>
<stop offset="0.3" stop-color="#F4EDD7"/>
<stop offset="0.53" stop-color="#F8F8FC"/>
<stop offset="0.9" stop-color="#D8D3C5"/>
<stop offset="0.95" stop-color="#D3CEBD"/>
</linearGradient>
<linearGradient id="paint4_linear_862_1978" x1="32.6877" y1="47.1921" x2="13.3072" y2="47.1921" gradientUnits="userSpaceOnUse">
<stop stop-color="#9F9C95"/>
<stop offset="0.3" stop-color="#F4EDD7"/>
<stop offset="0.95" stop-color="#D3CEBD"/>
</linearGradient>
<linearGradient id="paint5_linear_862_1978" x1="32.6879" y1="47.2967" x2="13.3074" y2="47.2967" gradientUnits="userSpaceOnUse">
<stop stop-color="#9F9C95"/>
<stop offset="0.3" stop-color="#F4EDD7"/>
<stop offset="0.95" stop-color="#D3CEBD"/>
</linearGradient>
<linearGradient id="paint6_linear_862_1978" x1="33.3317" y1="44.8718" x2="21.8742" y2="52.4222" gradientUnits="userSpaceOnUse">
<stop offset="0.18" stop-color="#9F9C95"/>
<stop offset="0.43" stop-color="#F4EDD7"/>
<stop offset="0.65" stop-color="#F8F8FC"/>
<stop offset="0.91" stop-color="#D8D3C5"/>
<stop offset="0.95" stop-color="#D3CEBD"/>
</linearGradient>
<linearGradient id="paint7_linear_862_1978" x1="25.671" y1="45.3526" x2="13.7895" y2="51.6523" gradientUnits="userSpaceOnUse">
<stop offset="0.18" stop-color="#9F9C95"/>
<stop offset="0.43" stop-color="#F4EDD7"/>
<stop offset="0.65" stop-color="#F8F8FC"/>
<stop offset="0.91" stop-color="#D8D3C5"/>
<stop offset="0.95" stop-color="#D3CEBD"/>
</linearGradient>
<linearGradient id="paint8_linear_862_1978" x1="22.9974" y1="46.0424" x2="22.9974" y2="49.0421" gradientUnits="userSpaceOnUse">
<stop stop-color="#9F9C95"/>
<stop offset="0.25" stop-color="#A6A39A"/>
<stop offset="0.63" stop-color="#BCB7AB"/>
<stop offset="0.95" stop-color="#D3CEBD"/>
</linearGradient>
<linearGradient id="paint9_linear_862_1978" x1="22.9233" y1="46.0424" x2="22.9233" y2="49.0422" gradientUnits="userSpaceOnUse">
<stop stop-color="#9F9C95"/>
<stop offset="0.25" stop-color="#A6A39A"/>
<stop offset="0.63" stop-color="#BCB7AB"/>
<stop offset="0.95" stop-color="#D3CEBD"/>
</linearGradient>
<radialGradient id="paint10_radial_862_1978" cx="0" cy="0" r="1" gradientUnits="userSpaceOnUse" gradientTransform="translate(21.6868 15.0376) scale(62.8392 57.4655)">
<stop offset="0.31" stop-color="#FFFAE8"/>
<stop offset="0.43" stop-color="#E8E1C9"/>
<stop offset="0.51" stop-color="#E1CE8B"/>
<stop offset="0.62" stop-color="#CF9662"/>
<stop offset="0.64" stop-color="#865E39"/>
<stop offset="0.76" stop-color="#8E6A34"/>
<stop offset="1" stop-color="#7B550A"/>
</radialGradient>
<linearGradient id="paint11_linear_862_1978" x1="-0.57871" y1="2.79222" x2="-0.00869483" y2="2.79222" gradientUnits="userSpaceOnUse">
<stop stop-color="#9F9C95"/>
<stop offset="0.3" stop-color="#F4EDD7"/>
<stop offset="0.53" stop-color="#F8F8FC"/>
<stop offset="0.9" stop-color="#D8D3C5"/>
<stop offset="0.95" stop-color="#D3CEBD"/>
</linearGradient>
<linearGradient id="paint12_linear_862_1978" x1="-0.578293" y1="2.79222" x2="-0.00827761" y2="2.79222" gradientUnits="userSpaceOnUse">
<stop stop-color="#9F9C95"/>
<stop offset="0.3" stop-color="#F4EDD7"/>
<stop offset="0.95" stop-color="#D3CEBD"/>
</linearGradient>
<linearGradient id="paint13_linear_862_1978" x1="13.9968" y1="2.69298" x2="33.3774" y2="2.69298" gradientUnits="userSpaceOnUse">
<stop stop-color="#9F9C95"/>
<stop offset="0.3" stop-color="#F4EDD7"/>
<stop offset="0.95" stop-color="#D3CEBD"/>
</linearGradient>
<linearGradient id="paint14_linear_862_1978" x1="13.3584" y1="5.11279" x2="24.8159" y2="-2.43754" gradientUnits="userSpaceOnUse">
<stop offset="0.18" stop-color="#9F9C95"/>
<stop offset="0.43" stop-color="#F4EDD7"/>
<stop offset="0.65" stop-color="#F8F8FC"/>
<stop offset="0.91" stop-color="#D8D3C5"/>
<stop offset="0.95" stop-color="#D3CEBD"/>
</linearGradient>
<linearGradient id="paint15_linear_862_1978" x1="21.0194" y1="4.63176" x2="32.9016" y2="-1.66238" gradientUnits="userSpaceOnUse">
<stop offset="0.18" stop-color="#9F9C95"/>
<stop offset="0.43" stop-color="#F4EDD7"/>
<stop offset="0.65" stop-color="#F8F8FC"/>
<stop offset="0.91" stop-color="#D8D3C5"/>
<stop offset="0.95" stop-color="#D3CEBD"/>
</linearGradient>
<linearGradient id="paint16_linear_862_1978" x1="-0.578532" y1="6.46078" x2="-0.0984433" y2="1.82648" gradientUnits="userSpaceOnUse">
<stop stop-color="#9F9C95"/>
<stop offset="0.25" stop-color="#A6A39A"/>
<stop offset="0.63" stop-color="#BCB7AB"/>
<stop offset="0.95" stop-color="#D3CEBD"/>
</linearGradient>
<linearGradient id="paint17_linear_862_1978" x1="23.881" y1="6.45554" x2="23.881" y2="1.83578" gradientUnits="userSpaceOnUse">
<stop stop-color="#9F9C95"/>
<stop offset="0.25" stop-color="#A6A39A"/>
<stop offset="0.63" stop-color="#BCB7AB"/>
<stop offset="0.95" stop-color="#D3CEBD"/>
</linearGradient>
</defs>
</svg>
