<svg width="32" height="32" viewBox="0 0 32 32" fill="none" xmlns="http://www.w3.org/2000/svg">
<path fill-rule="evenodd" clip-rule="evenodd" d="M32 19.9744C32 21.4776 32 22.9808 32 24.484C31.8298 24.9458 31.4964 25.1963 31 25.2356C31.029 26.8882 30.9978 28.5375 30.9063 30.1836C30.5757 31.1519 29.9194 31.7574 28.9375 32C19.9792 32 11.0208 32 2.0625 32C0.979169 31.7077 0.291667 31.0187 0 29.9331C0 23.1269 0 16.3208 0 9.51468C0.285151 8.45643 0.951819 7.76747 2 7.44779C2.07854 4.75298 3.22438 2.65477 5.4375 1.15315C8.00631 -0.318968 10.6105 -0.381601 13.25 0.965253C15.6284 2.40237 16.8784 4.52146 17 7.32252C17.6462 7.33292 18.292 7.32252 18.9375 7.2912C20.7673 4.93995 23.1423 4.10485 26.0625 4.78588C28.5108 5.58992 30.0211 7.24968 30.5938 9.76521C30.7563 10.8111 30.7042 11.8446 30.4375 12.8656C30.6898 13.2149 30.8669 13.6011 30.9688 14.0243C31 15.757 31.0104 17.4898 31 19.2228C31.4964 19.2621 31.8298 19.5126 32 19.9744Z" fill="#020100"/>
<path fill-rule="evenodd" clip-rule="evenodd" d="M8.6875 0.683403C11.6652 0.529376 13.9256 1.71941 15.4688 4.2535C16.7404 7.00259 16.4384 9.56009 14.5625 11.9261C13.9375 11.9678 13.3125 11.9678 12.6875 11.9261C14.6519 10.3634 15.3498 8.34864 14.7813 5.88196C14.0024 3.65892 12.4504 2.35406 10.125 1.96738C7.71256 1.80332 5.88962 2.75325 4.65625 4.81719C3.5897 7.08502 3.8397 9.19363 5.40625 11.1431C5.67919 11.4412 5.98128 11.7021 6.3125 11.9261C5.6875 11.9678 5.0625 11.9678 4.4375 11.9261C2.66339 9.71116 2.29881 7.27893 3.34375 4.62929C4.4726 2.4202 6.25385 1.1049 8.6875 0.683403Z" fill="#FBB000"/>
<path fill-rule="evenodd" clip-rule="evenodd" d="M8.75 2.68767C11.6889 2.55475 13.5118 3.91181 14.2188 6.75882C14.4048 8.81789 13.6444 10.415 11.9375 11.5503C11.6603 11.71 11.3687 11.8353 11.0625 11.9261C8.40019 12.6209 6.43144 11.7754 5.15625 9.38942C4.30524 7.09034 4.81566 5.15915 6.6875 3.59585C7.32131 3.1526 8.00881 2.84988 8.75 2.68767Z" fill="#FD9E00"/>
<path fill-rule="evenodd" clip-rule="evenodd" d="M9.3125 4.31613C9.48575 4.29859 9.642 4.34034 9.78125 4.44139C9.86481 4.66222 9.89606 4.89188 9.875 5.13036C10.7356 5.20917 11.1001 5.66848 10.9688 6.50829C10.8286 6.6199 10.6723 6.65122 10.5 6.60224C10.3674 6.37895 10.2424 6.14933 10.125 5.91327C9.72225 5.85598 9.32644 5.87685 8.9375 5.97591C8.57919 6.37375 8.62088 6.7287 9.0625 7.04067C9.53981 7.02908 9.99813 7.11264 10.4375 7.2912C11.2784 8.08677 11.2576 8.85929 10.375 9.60863C10.2326 9.67039 10.0868 9.72262 9.9375 9.76521C9.90431 10.0164 9.84181 10.2565 9.75 10.4855C9.565 10.614 9.38794 10.6036 9.21875 10.4542C9.13519 10.2333 9.10394 10.0037 9.125 9.76521C8.265 9.68805 7.90044 9.2287 8.03125 8.38729C8.26225 8.20408 8.47056 8.22494 8.65625 8.44992C8.65994 8.65799 8.73288 8.83549 8.875 8.9823C9.22919 9.02408 9.58331 9.02408 9.9375 8.9823C10.4033 8.65316 10.4241 8.29822 10 7.91754C9.69463 7.84087 9.38213 7.7991 9.0625 7.79227C8.25181 7.56472 7.88719 7.03234 7.96875 6.19512C8.12788 5.58657 8.51325 5.23165 9.125 5.13036C9.08369 4.82872 9.14619 4.55732 9.3125 4.31613Z" fill="#090400"/>
<path fill-rule="evenodd" clip-rule="evenodd" d="M23.5 5.31826C26.2189 5.17177 28.2085 6.29916 29.4688 8.70045C29.9532 9.87445 30.0678 11.0853 29.8125 12.3332C29.5476 12.2342 29.2768 12.1403 29 12.0513C28.9365 12.0188 28.8949 11.9666 28.875 11.8947C29.2121 9.5745 28.358 7.85209 26.3125 6.72751C24.2022 5.85607 22.3376 6.22143 20.7188 7.82359C19.6903 9.02301 19.3258 10.4009 19.625 11.9574C19.2917 11.9574 18.9583 11.9574 18.625 11.9574C18.3238 9.48211 19.1988 7.55088 21.25 6.16381C21.9526 5.73795 22.7026 5.4561 23.5 5.31826Z" fill="#F9AF00"/>
<path fill-rule="evenodd" clip-rule="evenodd" d="M23.6875 7.00936C25.7593 6.91409 27.2071 7.81181 28.0313 9.70258C28.2765 10.4255 28.3078 11.1562 28.125 11.8947C27.2927 11.9573 26.4594 11.9782 25.625 11.9574C25.6379 11.2917 25.3254 10.8637 24.6875 10.6734C24.4167 10.6525 24.1458 10.6316 23.875 10.6108C23.5255 10.2871 23.5463 9.99489 23.9375 9.7339C24.2119 9.68555 24.4827 9.69594 24.75 9.76522C24.8415 9.92199 24.9144 10.089 24.9688 10.2663C25.3541 10.4751 25.5728 10.3602 25.625 9.9218C25.5186 9.36624 25.1853 9.06354 24.625 9.01362C24.6353 8.84532 24.6248 8.67828 24.5938 8.51255C24.3646 8.26202 24.1354 8.26202 23.9063 8.51255C23.8752 8.67828 23.8648 8.84532 23.875 9.01362C23.2579 9.13124 22.9245 9.50704 22.875 10.141C22.8874 10.7485 23.1791 11.1556 23.75 11.3624C24.0696 11.3692 24.3821 11.411 24.6875 11.4876C24.8463 11.6034 24.9088 11.76 24.875 11.9574C24.4578 11.9678 24.0411 11.9574 23.625 11.9261C23.375 11.5503 23.125 11.5503 22.875 11.9261C22.0266 11.9775 21.1828 11.9671 20.3438 11.8947C20.0344 10.0205 20.6698 8.56949 22.25 7.54174C22.7113 7.29396 23.1904 7.11652 23.6875 7.00936Z" fill="#FC9E00"/>
<path fill-rule="evenodd" clip-rule="evenodd" d="M16.9375 8.13675C17.4375 8.13675 17.9375 8.13675 18.4375 8.13675C18.1526 8.7981 17.9547 9.48706 17.8438 10.2036C17.7987 10.79 17.8091 11.3745 17.875 11.9574C17.0831 11.9678 16.2914 11.9574 15.5 11.9261C16.354 10.8089 16.8331 9.54575 16.9375 8.13675Z" fill="#253137"/>
<path fill-rule="evenodd" clip-rule="evenodd" d="M1.9375 8.26202C2.00932 8.28025 2.05099 8.33242 2.0625 8.4186C2.23741 9.71786 2.71658 10.887 3.5 11.9261C2.26851 12.1493 1.3831 11.7005 0.84375 10.5794C0.636854 9.53278 1.00144 8.76033 1.9375 8.26202Z" fill="#253137"/>
<path fill-rule="evenodd" clip-rule="evenodd" d="M0.75 11.8321C1.16381 12.2589 1.66381 12.5407 2.25 12.6777C11.0417 12.6985 19.8333 12.7194 28.625 12.7403C29.4756 12.8828 30.0068 13.3735 30.2188 14.2122C30.2499 14.5037 30.2604 14.796 30.25 15.089C20.8333 15.0995 11.4166 15.089 2 15.0577C1.32569 14.8245 0.919444 14.3548 0.78125 13.6485C0.750013 13.0434 0.739594 12.4379 0.75 11.8321Z" fill="#36464E"/>
<path fill-rule="evenodd" clip-rule="evenodd" d="M0.75 15.2143C1.06442 15.4757 1.41859 15.674 1.8125 15.8093C11.2916 15.8406 20.7708 15.8511 30.25 15.8406C30.25 16.968 30.25 18.0954 30.25 19.2228C28.7915 19.2124 27.3332 19.2228 25.875 19.2541C24.3879 19.6462 23.5546 20.6066 23.375 22.1353C23.4511 23.7775 24.2845 24.8004 25.875 25.2043C27.3332 25.2356 28.7915 25.2461 30.25 25.2356C30.25 26.1543 30.25 27.0728 30.25 27.9915C20.9582 28.0219 11.6665 28.0532 2.375 28.0854C1.54989 27.8432 1.01864 27.3108 0.78125 26.4883C0.75 22.7303 0.739581 18.9724 0.75 15.2143Z" fill="#36464E"/>
<path fill-rule="evenodd" clip-rule="evenodd" d="M26 19.9744C27.7139 19.9442 29.4222 19.9755 31.125 20.0684C31.1563 20.0997 31.1875 20.131 31.2188 20.1623C31.2292 20.8408 31.2396 21.5194 31.25 22.1979C31.2592 22.924 31.2279 23.6443 31.1563 24.3587C31.1094 24.398 31.0573 24.4293 31 24.4527C29.3125 24.4945 27.625 24.4945 25.9375 24.4527C24.3998 23.9074 23.8686 22.853 24.3438 21.2897C24.7168 20.6183 25.2688 20.1799 26 19.9744Z" fill="#445963"/>
<path fill-rule="evenodd" clip-rule="evenodd" d="M26.4375 20.9766C27.5299 20.9335 28.0404 21.4554 27.9688 22.5424C27.7084 23.2617 27.198 23.5644 26.4375 23.4506C25.7198 23.1897 25.4177 22.6782 25.5313 21.9161C25.6782 21.4453 25.9803 21.1321 26.4375 20.9766Z" fill="#020303"/>
<path fill-rule="evenodd" clip-rule="evenodd" d="M26.5625 21.7282C27.0724 21.6858 27.2911 21.9154 27.2188 22.4171C27.0796 22.6903 26.8609 22.7842 26.5625 22.699C26.2899 22.5595 26.1962 22.3403 26.2813 22.0413C26.3453 21.9043 26.4391 21.7999 26.5625 21.7282Z" fill="#F4F4F4"/>
<path fill-rule="evenodd" clip-rule="evenodd" d="M0.75 27.9915C1.17794 28.4357 1.69878 28.7176 2.3125 28.837C11.6248 28.7994 20.9373 28.7681 30.25 28.7431C30.3913 29.6667 30.0996 30.4079 29.375 30.9666C29.1418 31.1001 28.8918 31.1836 28.625 31.2171C19.8333 31.2589 11.0417 31.2589 2.25 31.2171C1.41304 31.0047 0.923456 30.4723 0.78125 29.6199C0.750013 29.0775 0.7396 28.5347 0.75 27.9915Z" fill="#36464E"/>
</svg>
