<svg width="32" height="32" viewBox="0 0 32 32" fill="none" xmlns="http://www.w3.org/2000/svg">
<rect width="32" height="32" rx="16" fill="#7289DA"/>
<path d="M23.222 11.2213C21.901 10.1973 20.3156 9.68532 18.6422 9.59998L18.378 9.85599C19.8752 10.1973 21.1964 10.88 22.4294 11.8186C20.9321 11.0506 19.2587 10.5387 17.4973 10.368C16.9688 10.2826 16.5284 10.2826 16 10.2826C15.4716 10.2826 15.0312 10.2826 14.5028 10.368C12.7413 10.5387 11.0679 11.0506 9.57066 11.8186C10.8037 10.88 12.1248 10.1973 13.622 9.85599L13.3578 9.59998C11.6844 9.68532 10.0991 10.1973 8.778 11.2213C7.28076 13.952 6.4881 17.024 6.40002 20.1813C7.7211 21.5466 9.57066 22.4 11.5083 22.4C11.5083 22.4 12.1248 21.7173 12.5651 21.1199C11.4202 20.864 10.3633 20.2666 9.65874 19.328C10.2752 19.6693 10.8917 20.0106 11.5083 20.2666C12.301 20.608 13.0936 20.7786 13.8863 20.9493C14.5909 21.0346 15.2954 21.1199 16 21.1199C16.7046 21.1199 17.4092 21.0346 18.1138 20.9493C18.9064 20.7786 19.6991 20.608 20.4917 20.2666C21.1083 20.0106 21.7248 19.6693 22.3413 19.328C21.6367 20.2666 20.5798 20.864 19.4349 21.1199C19.8752 21.7173 20.4917 22.4 20.4917 22.4C22.4294 22.4 24.2789 21.5466 25.6 20.1813C25.5119 17.024 24.7193 13.952 23.222 11.2213ZM13.0936 18.6453C12.2129 18.6453 11.4202 17.8773 11.4202 16.9387C11.4202 16 12.2129 15.232 13.0936 15.232C13.9744 15.232 14.767 16 14.767 16.9387C14.767 17.8773 13.9744 18.6453 13.0936 18.6453ZM18.9064 18.6453C18.0257 18.6453 17.233 17.8773 17.233 16.9387C17.233 16 18.0257 15.232 18.9064 15.232C19.7872 15.232 20.5798 16 20.5798 16.9387C20.5798 17.8773 19.7872 18.6453 18.9064 18.6453Z" fill="white"/>
</svg>
