<svg width="32" height="32" viewBox="0 0 32 32" fill="none" xmlns="http://www.w3.org/2000/svg">
<g clip-path="url(#clip0_1038_7123)">
<rect width="32" height="32" rx="16" fill="#111111"/>
<path d="M23.9747 12.2209C23.4228 12.2209 22.8763 12.1122 22.3663 11.901C21.8564 11.6898 21.3931 11.3802 21.0028 10.9899C20.6126 10.5997 20.303 10.1363 20.0918 9.62643C19.8806 9.11651 19.7718 8.56999 19.7718 8.01807H16.7692V19.776C16.7686 20.3121 16.5993 20.8343 16.2853 21.2688C15.9714 21.7033 15.5286 22.028 15.0198 22.1968C14.511 22.3655 13.962 22.3699 13.4505 22.2093C12.9391 22.0486 12.4912 21.731 12.1704 21.3016C11.8495 20.8722 11.6719 20.3526 11.6628 19.8166C11.6537 19.2807 11.8135 18.7554 12.1196 18.3153C12.4257 17.8752 12.8625 17.5426 13.3682 17.3647C13.8739 17.1867 14.4227 17.1724 14.937 17.3238V14.405C13.8441 14.2577 12.7323 14.4472 11.75 14.9484C10.7677 15.4495 9.96167 16.2384 9.43953 17.2097C8.9174 18.1811 8.70402 19.2885 8.82787 20.3843C8.95173 21.4801 9.40694 22.512 10.1327 23.3423C10.8585 24.1725 11.8203 24.7616 12.8896 25.0308C13.959 25.3001 15.0851 25.2367 16.1175 24.8491C17.1499 24.4615 18.0395 23.7682 18.6674 22.8617C19.2954 21.9552 19.6319 20.8787 19.632 19.776L19.7191 13.8327C20.9528 14.7384 22.4439 15.2257 23.9744 15.2234L23.9747 12.2209Z" fill="url(#paint0_linear_1038_7123)"/>
<path d="M23.181 11.4029C22.0663 11.4029 20.9973 10.9601 20.2092 10.1719C19.421 9.38371 18.9783 8.31472 18.9783 7.20007H15.9756V18.958C15.975 19.4941 15.8058 20.0164 15.4918 20.4508C15.1778 20.8853 14.7351 21.21 14.2262 21.3788C13.7174 21.5476 13.1684 21.552 12.657 21.3913C12.1456 21.2307 11.6977 20.9131 11.3768 20.4837C11.0559 20.0542 10.8783 19.5347 10.8692 18.9987C10.8601 18.4627 11.0199 17.9375 11.326 17.4974C11.6321 17.0573 12.069 16.7247 12.5746 16.5467C13.0803 16.3688 13.6292 16.3545 14.1434 16.5059V13.587C13.0505 13.4397 11.9387 13.6292 10.9564 14.1304C9.97412 14.6315 9.16809 15.4204 8.64596 16.3917C8.12382 17.3631 7.91044 18.4705 8.0343 19.5663C8.15815 20.6621 8.61336 21.694 9.33913 22.5243C10.0649 23.3545 11.0267 23.9436 12.0961 24.2128C13.1655 24.4821 14.2915 24.4187 15.3239 24.0311C16.3563 23.6435 17.2459 22.9502 17.8739 22.0437C18.5019 21.1372 18.8384 20.0607 18.8384 18.958L18.926 13.0147C20.1597 13.9204 21.6508 14.4077 23.1813 14.4054L23.181 11.4029Z" fill="url(#paint1_linear_1038_7123)"/>
<path d="M23.181 12.1457C22.1421 11.9458 21.2168 11.3615 20.5898 10.5093C19.7973 9.88911 19.2538 9.00511 19.058 8.01807H16.7694V19.776C16.7693 20.334 16.5867 20.8767 16.2493 21.3212C15.912 21.7657 15.4384 22.0876 14.901 22.2378C14.3635 22.388 13.7917 22.3581 13.2728 22.1529C12.7539 21.9476 12.3164 21.5782 12.0271 21.1011C11.5126 20.7662 11.1358 20.2574 10.9655 19.6676C10.7953 19.0779 10.8429 18.4466 11.0996 17.889C11.3564 17.3314 11.8053 16.8849 12.3641 16.631C12.923 16.377 13.5545 16.3326 14.1434 16.5059V14.358C13.1333 14.371 12.147 14.6661 11.2958 15.2099C10.4445 15.7538 9.76224 16.5248 9.32594 17.4359C8.88964 18.3469 8.71669 19.3618 8.82662 20.366C8.93654 21.3701 9.32496 22.3236 9.94804 23.1186C10.7391 23.7787 11.7018 24.1996 12.7235 24.3319C13.7452 24.4643 14.7834 24.3026 15.7165 23.866C16.6496 23.4293 17.4389 22.7356 17.9918 21.8664C18.5448 20.9971 18.8384 19.9882 18.8384 18.958L18.926 13.0148C20.1597 13.9204 21.6508 14.4077 23.1813 14.4054L23.181 12.1457Z" fill="url(#paint2_linear_1038_7123)"/>
</g>
<defs>
<linearGradient id="paint0_linear_1038_7123" x1="9.99697" y1="23.2231" x2="22.4869" y2="10.7331" gradientUnits="userSpaceOnUse">
<stop stop-color="#B5053C"/>
<stop offset="0.233" stop-color="#C90441"/>
<stop offset="0.737" stop-color="#F0014B"/>
<stop offset="1" stop-color="#FF004F"/>
</linearGradient>
<linearGradient id="paint1_linear_1038_7123" x1="9.01731" y1="22.591" x2="22.1739" y2="9.43446" gradientUnits="userSpaceOnUse">
<stop stop-color="#00B2C9"/>
<stop offset="0.283" stop-color="#00C8D4"/>
<stop offset="0.741" stop-color="#00E6E4"/>
<stop offset="1" stop-color="#00F1EA"/>
</linearGradient>
<linearGradient id="paint2_linear_1038_7123" x1="1.64639" y1="30.7678" x2="30.7685" y2="1.64574" gradientUnits="userSpaceOnUse">
<stop stop-color="#DDE3E4"/>
<stop offset="1" stop-color="#FCF7F7"/>
</linearGradient>
<clipPath id="clip0_1038_7123">
<rect width="32" height="32" fill="white"/>
</clipPath>
</defs>
</svg>
