<svg width="32" height="32" viewBox="0 0 32 32" fill="none" xmlns="http://www.w3.org/2000/svg">
<rect width="32" height="32" rx="16" fill="#0077FF"/>
<path d="M16.786 21.6C10.7727 21.6 7.34286 17.3958 7.19995 10.4H10.2121C10.311 15.5348 12.5316 17.7097 14.2905 18.1582V10.4H17.1267V14.8285C18.8637 14.6379 20.6885 12.6198 21.3041 10.4H24.1404C23.9084 11.5513 23.446 12.6413 22.782 13.602C22.1181 14.5627 21.2669 15.3733 20.2818 15.9832C21.3814 16.5405 22.3527 17.3292 23.1316 18.2974C23.9104 19.2656 24.479 20.3912 24.8 21.6H21.6779C21.3898 20.5501 20.8043 19.6103 19.9947 18.8983C19.1851 18.1863 18.1874 17.7338 17.1267 17.5976V21.6H16.786Z" fill="white"/>
</svg>
