<?xml version="1.0" standalone="no"?>
<!DOCTYPE svg PUBLIC "-//W3C//DTD SVG 20010904//EN"
 "http://www.w3.org/TR/2001/REC-SVG-20010904/DTD/svg10.dtd">
<svg version="1.0" xmlns="http://www.w3.org/2000/svg"
 width="774.000000pt" height="774.000000pt" viewBox="0 0 774.000000 774.000000"
 preserveAspectRatio="xMidYMid meet">

<g transform="translate(0.000000,774.000000) scale(0.100000,-0.100000)"
fill="#000000" stroke="none">
<path d="M4593 6978 c-4 -7 -8 -24 -9 -38 -4 -47 -54 -139 -85 -155 -20 -11
-29 -23 -29 -40 0 -13 -3 -26 -7 -28 -5 -2 -42 0 -83 4 -163 19 -502 28 -713
19 -300 -13 -551 -48 -857 -121 -233 -55 -375 -109 -572 -215 -160 -86 -255
-153 -342 -240 -182 -183 -252 -431 -173 -620 28 -68 41 -195 57 -554 5 -124
12 -270 15 -325 8 -140 32 -683 50 -1105 8 -195 19 -427 25 -515 16 -267 30
-556 29 -625 -2 -90 26 -227 61 -304 32 -73 96 -171 130 -201 13 -11 35 -37
50 -57 24 -32 26 -42 19 -85 -4 -26 -14 -66 -22 -88 -9 -24 -13 -59 -11 -85 3
-25 6 -96 7 -157 2 -72 7 -117 15 -125 6 -6 12 -27 12 -45 0 -19 11 -60 25
-93 14 -33 25 -68 25 -79 0 -28 101 -92 170 -107 30 -7 82 -24 115 -38 33 -14
85 -28 115 -31 81 -9 197 -55 209 -83 16 -34 72 -54 129 -46 72 9 230 -14 329
-48 48 -16 120 -39 158 -49 39 -11 86 -27 105 -37 29 -14 64 -17 205 -17 197
0 238 9 387 80 77 37 104 45 128 40 26 -6 31 -3 39 18 11 27 11 27 181 51 58
9 113 20 123 26 25 15 70 4 135 -33 59 -33 94 -37 120 -15 51 45 106 57 280
63 145 5 256 24 330 57 69 31 135 39 218 27 86 -12 154 1 154 29 0 20 41 152
64 204 19 44 24 159 8 208 -5 19 -13 51 -16 71 -8 44 -36 81 -121 153 -36 31
-40 39 -39 78 1 45 41 134 123 273 23 39 53 106 68 150 31 93 33 162 19 735
-5 199 -4 469 3 695 6 204 16 712 22 1130 l12 760 26 45 c24 41 26 55 26 160
0 102 -3 122 -26 178 -47 110 -91 174 -194 277 -122 123 -243 211 -395 289
-63 32 -117 60 -118 61 -8 8 23 82 44 108 28 34 31 68 7 83 -18 11 -33 45 -52
119 -8 32 -31 61 -106 133 -95 91 -120 106 -132 76 -4 -11 -17 -15 -47 -12
-32 2 -42 -1 -44 -15 -4 -18 -56 -25 -66 -8 -10 16 -75 22 -98 9 -13 -6 -35
-11 -50 -9 -14 1 -29 -3 -33 -9 -5 -8 -18 1 -37 24 -31 38 -78 49 -95 24z
m537 -97 c0 -22 -4 -43 -10 -46 -6 -4 -10 12 -10 39 0 25 5 46 10 46 6 0 10
-18 10 -39z m-535 -57 c-3 -60 -7 -70 -38 -103 -43 -45 -69 -94 -60 -116 3
-10 0 -21 -8 -26 -24 -15 26 -11 57 5 15 8 32 12 38 8 6 -3 19 -5 29 -4 36 6
63 -23 76 -85 16 -72 26 -90 51 -98 11 -4 30 -25 41 -48 12 -23 38 -62 58 -87
53 -64 74 -97 69 -112 -8 -23 -106 85 -147 162 -28 51 -41 68 -41 52 0 -13 5
-32 11 -43 21 -40 -47 8 -121 84 -38 39 -70 68 -70 62 0 -5 25 -41 55 -80 30
-38 58 -77 61 -85 3 -8 36 -33 74 -54 62 -35 143 -110 248 -229 l23 -26 -37
-55 c-20 -31 -41 -53 -46 -50 -5 3 -20 23 -33 43 -13 21 -54 72 -92 112 -37
41 -94 103 -125 138 -32 35 -58 60 -58 56 0 -20 76 -140 121 -192 49 -56 59
-83 17 -47 -21 17 -21 16 1 -9 14 -15 32 -27 42 -27 18 0 115 -107 105 -117
-3 -3 -34 21 -69 53 -44 41 -98 76 -175 115 -62 31 -112 53 -112 49 0 -11 42
-45 105 -86 174 -110 235 -153 226 -158 -5 -4 -70 28 -144 69 -74 41 -138 75
-141 75 -20 0 0 -27 147 -201 12 -14 29 -28 37 -31 8 -3 12 -8 9 -12 -6 -7
-58 30 -177 127 -26 21 -89 59 -140 84 -112 55 -129 72 -31 31 38 -16 82 -28
97 -26 23 3 15 10 -62 55 -49 29 -154 80 -233 114 -79 35 -143 65 -143 68 1 3
11 19 24 34 l23 29 94 -18 c95 -17 155 -40 178 -68 8 -9 18 -16 23 -16 5 0 21
-9 35 -20 14 -11 31 -20 37 -20 6 0 -6 11 -27 25 -20 14 -44 39 -52 55 -9 17
-24 30 -34 30 -19 0 -116 69 -108 76 2 3 42 -6 88 -19 90 -26 178 -43 168 -33
-10 11 -221 66 -252 66 -25 0 -27 -2 -17 -21 7 -11 9 -23 7 -25 -3 -3 -30 -2
-61 3 l-56 8 77 107 c130 178 224 301 262 341 30 31 33 39 21 47 -11 7 -11 10
-2 10 7 0 23 21 35 48 25 52 36 72 42 72 2 0 2 -30 0 -66z m105 32 c0 -3 -13
-11 -30 -20 -24 -12 -30 -12 -30 -1 0 7 6 16 13 18 15 7 47 8 47 3z m-72 -213
c15 -11 13 -12 -14 -13 -17 0 -46 -3 -63 -6 -27 -6 -31 -4 -31 16 0 13 17 39
43 64 l42 41 3 -44 c2 -27 10 -50 20 -58z m-558 -163 c21 -7 19 -8 -17 -9 -24
-1 -43 4 -43 9 0 12 24 12 60 0z m928 -168 c9 -10 27 -31 39 -45 26 -30 45
-34 66 -12 18 17 27 11 20 -16 -3 -10 -14 -19 -24 -19 -15 0 -19 -7 -19 -33 0
-18 5 -38 12 -45 9 -9 9 -15 1 -23 -8 -8 -17 5 -33 49 -17 46 -34 71 -71 103
-47 40 -54 59 -23 59 8 0 22 -8 32 -18z m-89 -18 c2 -2 -10 -4 -27 -4 -18 0
-32 5 -32 10 0 9 47 4 59 -6z m175 -25 c-8 -13 -21 -11 -27 5 -4 10 0 12 14 9
10 -3 16 -9 13 -14z m-154 -30 c0 -30 -1 -31 -22 -17 -38 25 -33 39 15 47 4 0
7 -13 7 -30z m61 -79 c11 -41 25 -80 30 -87 7 -8 7 -18 0 -30 -8 -15 -10 -16
-15 -3 -74 220 -78 236 -51 209 8 -8 24 -48 36 -89z m-836 -55 c22 -13 88 -61
147 -107 108 -84 144 -129 240 -299 12 -21 28 -39 35 -39 8 0 11 5 8 10 -4 6
14 10 46 10 l53 0 -29 -30 c-15 -16 -42 -36 -59 -44 -28 -12 -365 -71 -371
-64 -1 2 -21 66 -44 143 -39 132 -41 147 -41 268 0 70 -4 127 -9 127 -14 0
-20 -36 -27 -150 -8 -126 13 -242 55 -305 52 -79 47 -95 -30 -110 -35 -6 -37
-5 -63 39 -37 63 -46 65 -30 4 7 -29 14 -54 14 -56 0 -2 -10 0 -21 3 -15 5
-20 3 -17 -6 3 -8 28 -22 57 -33 48 -17 53 -17 70 -2 19 17 41 21 41 7 0 -17
34 -22 46 -7 7 10 41 20 90 27 43 6 120 20 169 31 50 11 104 21 120 22 17 0
39 10 50 21 11 11 31 29 44 40 l24 20 -18 -27 c-9 -16 -21 -28 -26 -28 -5 0
-9 -9 -9 -19 0 -24 -12 -33 -67 -47 -27 -7 -44 -7 -46 -1 -1 5 -56 -13 -122
-42 -113 -49 -185 -64 -185 -40 0 8 -4 8 -13 1 -15 -13 -32 -10 -140 25 -80
26 -100 25 -77 -2 12 -14 132 -55 209 -70 l34 -7 -54 -34 c-64 -40 -346 -183
-406 -206 -22 -9 -46 -25 -52 -37 -10 -19 -9 -22 14 -31 15 -6 49 -10 76 -10
42 0 49 -3 49 -20 0 -13 -7 -20 -20 -20 -13 0 -20 -7 -20 -20 0 -13 7 -20 20
-20 11 0 20 4 20 9 0 4 15 3 34 -3 l34 -10 -37 -44 -36 -43 -32 38 c-18 21
-40 55 -49 76 -13 29 -36 49 -103 91 -47 29 -120 70 -161 91 -74 36 -103 55
-67 42 11 -4 31 -10 45 -13 25 -6 26 -5 11 10 -8 9 -25 18 -38 21 -12 2 -31 7
-42 10 -11 4 -19 2 -19 -5 0 -6 -5 -8 -11 -5 -7 5 -5 13 6 25 16 18 18 18 58
0 23 -10 53 -21 67 -25 49 -15 2 23 -50 40 l-49 16 46 65 c46 63 63 77 63 51
0 -19 146 -307 153 -301 5 5 -60 207 -103 315 l-22 57 55 73 c106 144 259 356
340 472 91 132 89 131 172 82z m549 -231 c10 -25 -1 -29 -14 -5 -6 12 -7 21
-1 21 5 0 12 -7 15 -16z m-191 -25 c28 -23 36 -36 31 -51 -4 -13 2 -28 17 -44
12 -13 17 -24 11 -24 -9 0 -80 92 -106 138 -12 21 8 13 47 -19z m1383 -236
c-10 -19 -15 -22 -16 -11 0 9 5 20 10 23 6 3 11 25 12 48 l1 42 4 -37 c2 -21
-2 -49 -11 -65z m-1353 -241 c-34 -31 -74 -75 -90 -97 -47 -68 -292 -373 -306
-382 -5 -3 16 28 47 69 57 76 70 101 39 77 -10 -8 12 19 50 59 37 40 67 77 67
83 0 22 -61 -1 -123 -45 -94 -67 -236 -146 -260 -145 -12 0 -31 4 -42 9 -18 8
-17 9 7 9 61 2 262 105 317 164 21 22 35 27 71 27 25 0 55 7 67 15 20 14 73
130 73 159 0 9 15 17 38 21 20 3 48 13 62 20 50 28 44 14 -17 -43z m-2635 -98
c46 -50 110 -111 143 -135 33 -24 62 -54 65 -66 6 -24 20 -30 26 -12 2 6 73
-25 158 -70 311 -160 557 -236 998 -307 21 -3 32 -11 32 -21 0 -9 12 -31 26
-50 26 -34 26 -34 9 -76 -9 -23 -18 -66 -20 -94 -2 -35 -14 -77 -36 -123 -40
-81 -53 -89 -185 -97 l-82 -5 -56 41 c-31 23 -56 46 -56 51 0 5 -26 30 -57 55
-53 44 -59 46 -111 44 -50 -3 -56 -1 -69 24 -12 23 -20 27 -59 27 -25 0 -97
-14 -161 -31 -130 -35 -163 -34 -272 7 -73 28 -81 29 -81 11 0 -21 35 -48 52
-42 9 4 46 -8 83 -26 54 -25 72 -30 86 -21 9 6 55 21 101 33 46 12 102 27 126
34 54 14 109 8 115 -13 3 -10 18 -48 32 -87 25 -66 26 -72 15 -155 -12 -84
-10 -189 2 -160 3 8 14 67 23 130 17 114 17 115 -4 169 -12 29 -20 56 -17 58
2 3 21 9 42 13 37 9 40 7 94 -46 75 -73 138 -123 164 -129 26 -6 169 0 217 10
l36 7 7 -53 c11 -78 30 -119 58 -119 33 0 193 -165 203 -208 10 -47 67 -84
106 -70 16 5 36 7 45 4 11 -4 14 -1 12 12 -2 13 -15 18 -49 20 l-46 3 -13 60
c-15 69 -36 95 -25 30 4 -27 3 -41 -4 -41 -6 0 -11 7 -11 15 0 8 -17 29 -37
47 -21 18 -65 61 -98 96 -34 34 -69 62 -77 62 -22 0 -42 61 -42 130 0 38 8 73
26 115 15 33 30 87 33 119 4 32 11 70 16 83 15 40 10 67 -16 95 -49 53 -39 56
118 36 78 -9 233 -23 345 -30 l202 -12 2 -260 c2 -274 3 -315 9 -331 2 -5 6
121 9 280 5 229 6 175 6 -255 1 -333 6 -614 13 -723 10 -130 10 -185 2 -209
-36 -104 -61 -432 -60 -803 l1 -211 -79 -11 c-72 -11 -104 -21 -175 -58 -24
-12 -30 -12 -42 1 -18 17 -42 18 -52 2 -5 -7 -12 3 -18 27 -6 21 -17 40 -24
43 -17 5 -15 -23 4 -60 15 -28 14 -31 -6 -53 -15 -16 -20 -33 -18 -55 3 -28
11 -37 66 -69 l63 -36 75 -164 c73 -161 114 -274 114 -313 0 -17 -6 -19 -47
-16 -49 3 -56 12 -67 88 -7 48 -26 80 -53 91 -16 6 -46 19 -68 29 -22 10 -57
21 -78 25 -35 6 -41 12 -62 58 -13 29 -29 75 -35 102 -7 28 -18 63 -26 78 -8
16 -14 38 -15 50 0 21 -1 20 -10 -3 -6 -15 -8 -54 -4 -95 l7 -70 -36 42 c-42
48 -98 72 -121 53 -10 -8 -29 -10 -54 -6 -37 6 -40 4 -68 -40 l-30 -46 58
-111 58 -112 -36 -37 c-37 -38 -63 -40 -63 -6 0 11 -16 38 -35 59 -44 49 -53
83 -32 119 11 18 15 42 12 70 -5 51 -6 52 -47 57 -18 1 -42 7 -53 12 -11 5
-28 12 -37 15 -14 4 -18 17 -18 63 0 92 -11 163 -25 163 -7 0 -25 -20 -39 -44
-14 -25 -38 -54 -52 -65 -22 -17 -28 -34 -37 -96 -12 -83 -22 -91 -61 -49 -21
24 -24 33 -19 83 3 31 11 73 18 94 7 20 9 39 5 42 -16 10 -31 -25 -39 -95 -13
-99 -26 -105 -28 -13 -1 52 -7 81 -18 92 -8 10 -15 23 -15 29 0 7 -8 12 -17
12 -25 1 -72 40 -55 47 17 7 15 27 -8 67 -14 22 -17 37 -10 41 5 3 10 20 10
36 0 17 5 39 10 50 13 23 -3 25 -40 4 -14 -8 -35 -14 -46 -15 -32 0 -92 -71
-99 -117 -3 -21 -14 -56 -24 -78 -11 -22 -22 -70 -25 -108 -8 -96 -13 -102
-59 -63 -34 29 -39 39 -51 110 -8 42 -16 79 -19 82 -2 2 -16 0 -30 -5 -18 -7
-27 -19 -29 -40 -3 -30 -3 -30 -40 25 -32 49 -35 59 -26 80 9 19 9 36 0 70 -7
24 -12 54 -12 67 0 22 1 22 20 -3 21 -28 27 -26 36 18 5 25 1 36 -20 57 -14
14 -26 28 -26 30 0 2 11 15 25 29 14 14 23 31 21 38 -45 140 -48 147 -93 189
-45 41 -46 44 -53 118 -9 88 -16 111 -37 111 -10 0 -12 6 -8 20 4 12 2 20 -6
20 -8 0 -10 14 -7 44 3 26 1 49 -6 56 -8 8 -8 13 1 18 7 4 19 28 28 52 9 25
25 60 36 79 20 33 20 34 0 47 -41 29 -50 44 -46 78 4 28 1 35 -17 39 -19 5
-20 8 -7 23 8 10 9 15 3 12 -6 -4 -10 6 -11 27 -1 25 4 36 17 40 10 3 24 12
30 20 17 20 -4 45 -33 42 -20 -2 -22 3 -25 66 l-3 68 27 -3 c15 -2 29 3 31 10
3 8 -6 12 -25 12 l-30 0 -8 78 c-4 42 -8 148 -8 234 l-1 157 52 48 c46 42 53
53 55 90 1 30 -4 48 -18 64 -16 18 -19 38 -21 127 l-1 106 -39 19 c-65 33 -73
45 -73 103 0 54 15 82 23 42 2 -13 5 -3 6 22 1 55 -8 90 -23 90 -8 0 -17 84
-29 278 -10 152 -20 293 -24 312 -6 41 -16 49 105 -86z m2463 59 c-8 -17 -348
-149 -357 -140 -7 7 272 137 296 138 14 0 34 4 45 9 11 5 21 9 23 9 1 1 -2 -7
-7 -16z m1527 -522 c-4 -272 -10 -501 -13 -510 -5 -12 -11 -9 -32 14 -25 30
-25 32 -19 145 4 63 11 265 16 447 9 320 10 334 32 367 13 19 23 34 23 33 1
-1 -3 -224 -7 -496z m-3778 399 c0 -5 -4 -10 -9 -10 -6 0 -13 5 -16 10 -3 6 1
10 9 10 9 0 16 -4 16 -10z m1328 -17 c26 -15 96 -60 155 -99 60 -40 121 -76
137 -79 21 -5 32 -16 44 -50 10 -24 33 -58 53 -76 39 -34 34 -49 -18 -49 -46
0 -440 29 -539 40 -117 14 -133 18 -126 36 3 7 51 69 106 138 l101 124 46 -49
c49 -52 63 -60 62 -31 0 9 -22 35 -48 57 -35 29 -45 43 -38 53 12 16 11 16 65
-15z m717 -33 c-11 -5 -67 -27 -125 -48 -100 -38 -109 -40 -185 -33 -84 7 -80
15 15 26 63 8 282 54 289 61 2 2 9 4 15 3 6 0 2 -4 -9 -9z m-1957 -17 c2 -8
-5 -13 -17 -13 -12 0 -21 6 -21 16 0 18 31 15 38 -3z m3599 -120 c-2 -27 -3
-5 -3 47 0 52 1 74 3 48 2 -27 2 -69 0 -95z m-16 -60 c1 -193 8 -202 29 -38 5
45 7 -54 3 -274 l-5 -345 -24 -25 -24 -26 0 133 c0 72 -4 132 -9 132 -5 0 -10
-55 -10 -122 -2 -100 -5 -126 -19 -141 -16 -18 -16 -20 6 -34 12 -9 22 -24 22
-34 0 -10 4 -20 9 -23 15 -10 20 -158 11 -346 -12 -227 -11 -351 0 -366 5 -5
12 -62 15 -125 9 -175 18 -204 27 -84 11 160 18 402 10 377 -4 -13 -8 77 -9
200 -1 123 -6 264 -10 313 -8 86 0 145 19 145 4 0 8 -11 8 -25 0 -18 8 -29 26
-37 l25 -12 -6 -430 c-3 -237 -7 -665 -9 -951 l-3 -520 -38 -105 c-43 -119
-80 -178 -189 -300 -42 -46 -76 -88 -76 -92 0 -5 -25 -24 -56 -44 -31 -20 -80
-54 -108 -75 -32 -25 -80 -48 -128 -63 -43 -13 -92 -35 -110 -48 -34 -24 -84
-46 -128 -55 -14 -3 -36 -15 -50 -27 -53 -44 -104 -62 -263 -91 -45 -8 -133
-24 -195 -35 -128 -23 -366 -40 -399 -29 -15 6 -20 14 -16 28 3 12 9 19 13 16
9 -5 34 23 43 48 9 25 27 12 27 -19 0 -24 3 -25 33 -19 17 4 36 14 40 21 4 8
19 14 32 14 18 0 27 9 40 44 12 30 37 62 80 100 45 40 67 68 77 98 17 51 29
54 40 11 13 -51 28 -39 28 21 0 85 22 83 32 -3 2 -14 8 -26 13 -28 11 -3 35
112 35 166 0 16 5 31 11 33 14 5 13 140 -1 434 -5 109 -10 344 -10 521 0 279
2 324 16 337 19 20 33 20 58 1 29 -22 32 -19 28 20 -3 26 -9 35 -21 34 -32 -3
-39 2 -60 37 -20 33 -21 49 -22 302 0 147 -4 402 -8 567 -6 215 -5 304 3 317
14 23 23 23 29 1 4 -14 5 -12 6 5 0 12 5 22 10 22 11 0 21 -114 10 -118 -5 -2
-7 -8 -3 -13 11 -19 22 -8 28 30 4 27 12 40 26 44 16 4 22 -2 30 -31 26 -88
33 -429 22 -1054 -7 -395 -7 -637 -1 -671 5 -28 12 -88 15 -132 6 -76 7 -79
20 -50 9 23 13 207 15 815 1 432 3 808 3 835 0 28 -7 105 -17 172 -18 127 -20
226 -9 355 8 81 15 99 33 81 8 -8 12 -75 12 -200 0 -163 1 -177 8 -103 5 47 6
138 3 203 -4 83 -3 117 5 117 6 0 12 -17 12 -37 1 -27 3 -30 6 -13 11 67 18
43 23 -75 l6 -130 2 131 2 132 25 4 25 5 2 -186 3 -186 2 186 3 186 141 52
c77 29 197 79 266 112 69 32 127 59 129 59 2 0 1 -161 -3 -357 -3 -216 -1
-368 4 -382 10 -25 30 488 24 632 -1 41 2 67 9 67 5 0 10 -13 10 -29 0 -17 5
-33 10 -36 6 -4 10 -67 10 -156 0 -93 -4 -149 -10 -149 -16 0 -12 -30 5 -36
11 -5 15 -23 15 -78 0 -39 4 -77 9 -85 12 -19 16 67 19 399 3 233 9 297 26
279 6 -6 -10 -657 -20 -791 -4 -63 -3 -98 3 -98 10 0 31 446 36 756 2 118 5
143 20 158 16 17 17 6 18 -226 0 -134 4 -265 9 -293 4 -31 8 70 9 258 1 226 4
306 12 301 8 -5 10 -55 6 -173 -3 -91 -2 -206 2 -256 6 -70 8 -30 10 183 0
174 5 272 11 272 6 0 10 -70 11 -187z m-3371 67 c108 -45 177 -80 191 -96 8
-10 22 -13 40 -9 20 5 30 2 37 -11 7 -13 21 -18 49 -17 21 1 92 -11 158 -27
173 -42 216 -51 255 -57 99 -14 352 -72 364 -84 9 -8 -147 9 -322 36 -153 24
-423 86 -532 122 -112 36 -262 106 -277 129 -10 16 -25 24 -44 24 -22 0 -27 4
-22 16 3 8 11 13 17 10 6 -3 45 -19 86 -36z m1718 -77 c-14 -16 -36 -47 -48
-70 -15 -27 -31 -43 -42 -43 -15 0 -17 4 -9 18 14 26 105 122 116 122 5 0 -3
-12 -17 -27z m2 -77 c0 -2 -8 -10 -17 -17 -16 -13 -17 -12 -4 4 13 16 21 21
21 13z m-39 -733 c1 -404 12 -794 17 -629 2 52 11 57 17 10 1 -16 6 -110 10
-209 7 -187 0 -257 -31 -299 -15 -19 -16 -15 -10 69 3 50 1 205 -5 345 -13
306 -18 1190 -7 1190 4 0 9 -215 9 -477z m699 325 c0 -50 -3 -88 -7 -85 -12
12 -16 177 -4 177 7 0 11 -33 11 -92z m-673 -155 c-3 -10 -5 -4 -5 12 0 17 2
24 5 18 2 -7 2 -21 0 -30z m120 -100 c-2 -16 -4 -3 -4 27 0 30 2 43 4 28 2
-16 2 -40 0 -55z m372 -1575 c0 -61 -3 -86 -9 -73 -12 28 -12 165 0 165 6 0
10 -37 9 -92z m-22 -220 c-2 -13 -4 -3 -4 22 0 25 2 35 4 23 2 -13 2 -33 0
-45z m-1941 -583 c7 -19 14 -55 14 -81 0 -54 -19 -126 -33 -121 -12 4 -19 237
-6 237 6 0 17 -16 25 -35z m-75 -213 c85 -43 209 -98 277 -122 67 -23 122 -46
122 -50 0 -4 -7 -13 -15 -20 -38 -32 -369 123 -516 242 -19 15 -31 28 -28 28
3 0 75 -35 160 -78z m1547 -188 c-3 -35 -4 -37 -15 -19 -6 11 -9 33 -6 48 8
41 25 18 21 -29z m-41 -56 c-2 -18 -4 -6 -4 27 0 33 2 48 4 33 2 -15 2 -42 0
-60z m-44 -6 c22 -24 13 -32 -35 -32 -42 0 -46 5 -21 32 20 23 36 23 56 0z
m-313 -82 c0 -26 -30 -26 -61 0 l-24 19 43 1 c35 0 42 -3 42 -20z m88 -7 c5
-18 -10 -16 -34 2 -18 15 -18 15 5 13 14 -2 26 -9 29 -15z"/>
<path d="M4504 6500 c3 -14 9 -41 12 -61 l6 -35 -63 4 c-58 4 -63 3 -50 -12 7
-9 28 -16 45 -16 56 0 76 -11 97 -52 11 -22 22 -38 25 -36 6 7 -55 211 -67
222 -9 8 -10 5 -5 -14z"/>
<path d="M4731 6209 c23 -43 161 -249 171 -255 6 -4 15 0 20 9 5 9 15 14 22
11 8 -3 17 -1 20 5 13 21 -24 68 -108 134 -47 37 -94 79 -105 92 -23 31 -36
33 -20 4z"/>
<path d="M4165 6021 c-7 -12 12 -24 25 -16 11 7 4 25 -10 25 -5 0 -11 -4 -15
-9z"/>
<path d="M3945 5940 c-3 -5 -1 -10 4 -10 6 0 11 5 11 10 0 6 -2 10 -4 10 -3 0
-8 -4 -11 -10z"/>
<path d="M3993 5891 c-12 -10 -19 -21 -16 -25 11 -10 55 -7 48 4 -3 6 -1 10 4
10 6 0 11 7 11 15 0 20 -20 18 -47 -4z"/>
<path d="M3918 5783 c-30 -15 -32 -21 -19 -41 11 -19 41 -12 58 14 20 30 -2
45 -39 27z"/>
<path d="M4395 5720 c-3 -5 -1 -10 4 -10 6 0 11 5 11 10 0 6 -2 10 -4 10 -3 0
-8 -4 -11 -10z"/>
<path d="M3806 5660 c-14 -17 -30 -29 -37 -28 -18 5 -22 -21 -4 -28 17 -7 67
34 86 69 17 30 -16 20 -45 -13z"/>
<path d="M4330 5670 c0 -5 5 -10 10 -10 6 0 10 5 10 10 0 6 -4 10 -10 10 -5 0
-10 -4 -10 -10z"/>
<path d="M4406 5629 c-44 -11 -85 -24 -91 -29 -7 -6 -21 -8 -31 -4 -14 4 -16
3 -5 -4 7 -5 10 -15 6 -22 -6 -9 -3 -9 12 -1 11 5 56 17 99 26 118 24 154 35
154 45 0 15 -55 10 -144 -11z"/>
<path d="M3900 5520 c0 -5 5 -10 10 -10 6 0 10 5 10 10 0 6 -4 10 -10 10 -5 0
-10 -4 -10 -10z"/>
<path d="M4291 5444 c0 -11 3 -14 6 -6 3 7 2 16 -1 19 -3 4 -6 -2 -5 -13z"/>
<path d="M3750 5430 c0 -24 26 -38 42 -22 8 8 8 15 -2 27 -18 21 -40 19 -40
-5z"/>
<path d="M4073 5354 c-6 -13 -7 -24 -3 -24 9 0 25 39 18 45 -2 2 -8 -7 -15
-21z"/>
<path d="M3880 5350 c0 -5 5 -10 11 -10 5 0 7 5 4 10 -3 6 -8 10 -11 10 -2 0
-4 -4 -4 -10z"/>
<path d="M1840 5192 c0 -14 113 -122 129 -122 8 0 -14 29 -50 65 -61 62 -79
75 -79 57z"/>
<path d="M1935 4943 c4 -36 7 -111 7 -165 0 -55 4 -98 9 -98 5 0 14 -11 19
-25 5 -14 14 -25 19 -25 18 0 53 -44 78 -99 23 -52 24 -53 43 -36 20 18 19 18
-5 41 -14 13 -25 27 -25 32 0 5 -24 37 -54 70 l-54 60 -7 129 c-7 147 -12 183
-27 183 -7 0 -8 -23 -3 -67z"/>
<path d="M2080 4965 c0 -8 5 -15 10 -15 6 0 10 7 10 15 0 8 -4 15 -10 15 -5 0
-10 -7 -10 -15z"/>
<path d="M2045 4450 c3 -5 10 -10 16 -10 5 0 9 5 9 10 0 6 -7 10 -16 10 -8 0
-12 -4 -9 -10z"/>
<path d="M2103 4364 c-8 -21 13 -42 28 -27 13 13 5 43 -11 43 -6 0 -13 -7 -17
-16z"/>
<path d="M2060 4259 c0 -5 5 -7 10 -4 6 3 10 8 10 11 0 2 -4 4 -10 4 -5 0 -10
-5 -10 -11z"/>
<path d="M2166 4193 c-4 -5 -20 -8 -34 -8 -20 0 -28 -6 -30 -22 -3 -17 2 -23
17 -23 11 0 23 5 26 11 4 6 13 8 20 5 8 -3 19 1 25 9 18 22 -4 47 -24 28z"/>
<path d="M1990 4114 c0 -8 5 -12 10 -9 6 3 10 10 10 16 0 5 -4 9 -10 9 -5 0
-10 -7 -10 -16z"/>
<path d="M2066 4071 c-6 -9 31 -47 39 -40 2 3 2 15 -2 27 -5 22 -27 30 -37 13z"/>
<path d="M2200 4050 c0 -5 5 -10 10 -10 6 0 10 5 10 10 0 6 -4 10 -10 10 -5 0
-10 -4 -10 -10z"/>
<path d="M2142 4028 c2 -6 10 -14 16 -16 7 -2 10 2 6 12 -7 18 -28 22 -22 4z"/>
<path d="M4051 3984 c0 -11 3 -14 6 -6 3 7 2 16 -1 19 -3 4 -6 -2 -5 -13z"/>
<path d="M2185 3950 c3 -5 8 -10 11 -10 2 0 4 5 4 10 0 6 -5 10 -11 10 -5 0
-7 -4 -4 -10z"/>
<path d="M2159 3890 c-11 -7 -11 -14 -3 -27 14 -23 48 -23 52 -1 4 21 -29 40
-49 28z"/>
<path d="M3142 3838 c5 -15 37 -18 41 -3 1 6 -9 12 -22 13 -16 3 -22 -1 -19
-10z"/>
<path d="M2364 3789 c-10 -17 13 -36 27 -22 12 12 4 33 -11 33 -5 0 -12 -5
-16 -11z"/>
<path d="M2097 3723 c-16 -15 -4 -93 14 -93 11 0 32 78 24 90 -7 11 -28 13
-38 3z"/>
<path d="M1924 3695 c-7 -18 13 -45 33 -45 19 0 28 27 13 45 -16 19 -39 19
-46 0z"/>
<path d="M1992 3694 c4 -21 22 -23 26 -1 2 10 -3 17 -13 17 -10 0 -15 -6 -13
-16z"/>
<path d="M3589 3670 c0 -3 -2 -16 -4 -30 -10 -72 -42 -199 -53 -213 -8 -9 -25
-17 -38 -19 -16 -2 -33 -16 -46 -38 l-22 -35 31 29 c17 15 36 25 42 21 17 -10
71 50 71 79 0 15 9 60 20 102 14 53 17 80 10 92 -5 9 -10 15 -11 12z"/>
<path d="M2460 3650 c0 -5 5 -10 10 -10 6 0 10 5 10 10 0 6 -4 10 -10 10 -5 0
-10 -4 -10 -10z"/>
<path d="M3362 3648 c3 -7 15 -14 29 -16 23 -2 23 -2 5 13 -24 18 -39 20 -34
3z"/>
<path d="M2398 3525 c-9 -16 26 -45 41 -36 17 11 4 34 -14 27 -8 -3 -15 0 -18
7 -2 6 -6 7 -9 2z"/>
<path d="M2045 3440 c-3 -5 -1 -10 4 -10 6 0 11 5 11 10 0 6 -2 10 -4 10 -3 0
-8 -4 -11 -10z"/>
<path d="M2155 3419 c-10 -15 3 -25 16 -12 7 7 7 13 1 17 -6 3 -14 1 -17 -5z"/>
<path d="M2015 3410 c-7 -12 2 -30 16 -30 12 0 12 27 0 35 -5 3 -12 1 -16 -5z"/>
<path d="M1962 3323 c2 -10 10 -18 18 -18 8 0 16 8 18 18 2 12 -3 17 -18 17
-15 0 -20 -5 -18 -17z"/>
<path d="M2192 3319 c2 -6 8 -10 13 -10 5 0 11 4 13 10 2 6 -4 11 -13 11 -9 0
-15 -5 -13 -11z"/>
<path d="M3340 3321 c0 -6 11 -13 25 -17 22 -5 25 -11 25 -54 0 -56 -16 -107
-41 -136 -11 -11 -19 -34 -19 -52 0 -54 -22 -187 -33 -193 -6 -4 -6 -13 0 -23
14 -26 29 -1 36 59 16 137 27 188 43 206 20 22 20 23 33 124 6 39 7 73 3 76
-14 13 -72 21 -72 10z"/>
<path d="M2040 3270 c0 -5 7 -10 15 -10 8 0 15 5 15 10 0 6 -7 10 -15 10 -8 0
-15 -4 -15 -10z"/>
<path d="M1990 3254 c0 -8 5 -12 10 -9 6 3 10 10 10 16 0 5 -4 9 -10 9 -5 0
-10 -7 -10 -16z"/>
<path d="M2586 3251 c-4 -5 -2 -12 3 -15 5 -4 12 -2 15 3 4 5 2 12 -3 15 -5 4
-12 2 -15 -3z"/>
<path d="M2160 3200 c0 -5 5 -10 10 -10 6 0 10 5 10 10 0 6 -4 10 -10 10 -5 0
-10 -4 -10 -10z"/>
<path d="M2250 3035 c0 -8 4 -15 9 -15 5 0 11 7 15 15 3 9 0 15 -9 15 -8 0
-15 -7 -15 -15z"/>
<path d="M1990 3014 c-12 -32 -13 -44 -1 -44 12 0 41 57 33 64 -11 12 -23 5
-32 -20z"/>
<path d="M2050 2974 c0 -8 5 -12 10 -9 6 3 10 10 10 16 0 5 -4 9 -10 9 -5 0
-10 -7 -10 -16z"/>
<path d="M2162 2951 c4 -13 18 -16 19 -4 0 4 -5 9 -11 12 -7 2 -11 -2 -8 -8z"/>
<path d="M2190 2920 c0 -5 5 -10 10 -10 6 0 10 5 10 10 0 6 -4 10 -10 10 -5 0
-10 -4 -10 -10z"/>
<path d="M2130 2855 c0 -8 7 -15 15 -15 8 0 15 7 15 15 0 8 -7 15 -15 15 -8 0
-15 -7 -15 -15z"/>
<path d="M2030 2840 c0 -15 5 -20 18 -18 9 2 17 10 17 18 0 8 -8 16 -17 18
-13 2 -18 -3 -18 -18z"/>
<path d="M2120 2820 c0 -5 5 -10 11 -10 5 0 7 5 4 10 -3 6 -8 10 -11 10 -2 0
-4 -4 -4 -10z"/>
<path d="M2020 2740 c0 -5 5 -10 10 -10 6 0 10 5 10 10 0 6 -4 10 -10 10 -5 0
-10 -4 -10 -10z"/>
<path d="M3370 2681 c0 -6 13 -14 29 -17 18 -4 32 -14 35 -28 26 -89 38 -177
40 -273 0 -61 4 -115 9 -119 4 -4 7 7 7 25 0 25 4 32 15 27 16 -6 22 19 6 28
-5 3 -12 36 -15 73 -17 169 -48 283 -76 283 -10 0 -25 3 -34 6 -9 3 -16 1 -16
-5z"/>
<path d="M2120 2610 c0 -5 5 -10 10 -10 6 0 10 5 10 10 0 6 -4 10 -10 10 -5 0
-10 -4 -10 -10z"/>
<path d="M2440 2590 c0 -5 7 -10 15 -10 8 0 15 5 15 10 0 6 -7 10 -15 10 -8 0
-15 -4 -15 -10z"/>
<path d="M2960 2480 c0 -5 5 -10 10 -10 6 0 10 5 10 10 0 6 -4 10 -10 10 -5 0
-10 -4 -10 -10z"/>
<path d="M2200 2421 c0 -10 7 -24 16 -31 12 -11 18 -10 31 3 13 13 14 19 3 31
-18 22 -50 20 -50 -3z"/>
<path d="M2730 2420 c0 -5 5 -10 10 -10 6 0 10 5 10 10 0 6 -4 10 -10 10 -5 0
-10 -4 -10 -10z"/>
<path d="M2886 2381 c-4 -7 -5 -15 -2 -18 9 -9 19 4 14 18 -4 11 -6 11 -12 0z"/>
<path d="M2227 2274 c-14 -15 -6 -34 14 -34 14 0 19 5 17 17 -3 18 -20 27 -31
17z"/>
<path d="M2754 2245 c-4 -9 -2 -21 4 -27 15 -15 44 -1 40 19 -4 23 -36 29 -44
8z"/>
<path d="M3275 2200 c-4 -6 -3 -16 3 -22 6 -6 12 -6 17 2 4 6 3 16 -3 22 -6 6
-12 6 -17 -2z"/>
<path d="M3344 2196 c-8 -22 3 -33 18 -18 9 9 9 15 0 24 -9 9 -13 7 -18 -6z"/>
<path d="M3400 2180 c0 -5 5 -10 10 -10 6 0 10 5 10 10 0 6 -4 10 -10 10 -5 0
-10 -4 -10 -10z"/>
<path d="M2197 2123 c-12 -11 -8 -23 8 -23 8 0 15 7 15 15 0 16 -12 20 -23 8z"/>
<path d="M3030 2119 c0 -5 5 -7 10 -4 6 3 10 8 10 11 0 2 -4 4 -10 4 -5 0 -10
-5 -10 -11z"/>
<path d="M2170 2064 c0 -9 5 -14 12 -12 18 6 21 28 4 28 -9 0 -16 -7 -16 -16z"/>
<path d="M3152 2043 c4 -21 33 -25 33 -3 0 8 -8 16 -18 18 -14 3 -18 -1 -15
-15z"/>
<path d="M2850 2040 c0 -5 5 -10 10 -10 6 0 10 5 10 10 0 6 -4 10 -10 10 -5 0
-10 -4 -10 -10z"/>
<path d="M3330 2030 c0 -5 7 -10 15 -10 8 0 15 5 15 10 0 6 -7 10 -15 10 -8 0
-15 -4 -15 -10z"/>
<path d="M2820 2010 c0 -5 4 -10 9 -10 6 0 13 5 16 10 3 6 -1 10 -9 10 -9 0
-16 -4 -16 -10z"/>
<path d="M3207 1953 c-10 -10 -8 -43 2 -43 12 0 41 29 41 41 0 10 -33 12 -43
2z"/>
<path d="M3100 1935 c0 -8 5 -15 10 -15 6 0 10 7 10 15 0 8 -4 15 -10 15 -5 0
-10 -7 -10 -15z"/>
<path d="M3315 1880 c3 -5 8 -10 11 -10 2 0 4 5 4 10 0 6 -5 10 -11 10 -5 0
-7 -4 -4 -10z"/>
<path d="M3010 1840 c0 -5 5 -10 10 -10 6 0 10 5 10 10 0 6 -4 10 -10 10 -5 0
-10 -4 -10 -10z"/>
<path d="M3035 1780 c3 -5 8 -10 11 -10 2 0 4 5 4 10 0 6 -5 10 -11 10 -5 0
-7 -4 -4 -10z"/>
<path d="M3290 5047 c0 -13 9 -17 38 -17 22 0 88 -2 148 -5 108 -5 109 -5 64
11 -25 8 -91 18 -147 21 -92 5 -103 4 -103 -10z"/>
<path d="M3230 4991 c0 -15 10 -18 88 -26 79 -8 100 6 35 24 -47 13 -123 14
-123 2z"/>
<path d="M3275 4933 c-88 -10 -100 -14 -81 -25 13 -7 72 -8 175 -4 175 8 231
14 231 27 0 9 -261 10 -325 2z"/>
<path d="M5704 4775 c0 -66 1 -92 3 -57 2 34 2 88 0 120 -2 31 -3 3 -3 -63z"/>
<path d="M5789 4733 c0 -16 -2 -62 -3 -103 -2 -41 0 -122 4 -180 6 -91 7 -77
8 103 1 114 0 207 -3 207 -3 0 -5 -12 -6 -27z"/>
<path d="M4903 4270 c0 -30 2 -43 4 -27 2 15 2 39 0 55 -2 15 -4 2 -4 -28z"/>
<path d="M5528 3781 c-12 -52 -9 -331 3 -302 5 13 8 94 7 180 -2 99 -6 144
-10 122z"/>
<path d="M5842 2885 c0 -94 3 -150 8 -135 4 14 8 75 8 135 0 61 -4 121 -8 135
-5 15 -8 -41 -8 -135z"/>
<path d="M4790 2255 c-2 -31 -2 -386 -1 -420 1 -26 3 -28 12 -12 6 11 9 71 7
152 -2 74 0 135 3 135 11 0 19 -58 20 -144 l2 -81 10 100 c6 71 6 109 -2 131
-6 17 -11 37 -11 45 0 24 -39 116 -40 94z"/>
<path d="M4757 2210 c-4 -19 -9 -127 -11 -240 -3 -162 -2 -188 5 -125 12 103
21 297 17 355 l-3 45 -8 -35z"/>
<path d="M4721 2074 c0 -11 3 -14 6 -6 3 7 2 16 -1 19 -3 4 -6 -2 -5 -13z"/>
<path d="M4698 2030 c-10 -75 -10 -240 0 -240 16 0 32 101 30 183 -1 63 -3 71
-7 37 l-5 -45 -6 60 -5 60 -7 -55z"/>
</g>
</svg>
