<svg id="a" xmlns="http://www.w3.org/2000/svg" viewBox="0 0 482.8 335.3">
  <defs>
    <style>
      #a .b{fill:#424142}#a .c{fill:#fbfaf9}#a .e{fill:#7c756c}#a .f{fill:#9c6937}#a .h{fill:#b67b3f}#a .i{fill:#bea083}#a .k{fill:#736d67}#a .l{fill:#a5a3a0}
    </style>
  </defs>
  <path d="M238 104.6c3.7-2 7.5-3.7 11-6.2 2.7-1 5-2.6 7.4-4l52.6-31c21.6-12.8 43.5-25.3 65-38.1 12.4-7.4 25-14.6 37.3-21.9 3.5-2 7.3-2.7 11.2-3.1a55.1 55.1 0 0 1 55.1 31c6.7 14.2 7 28.4.4 42.6-1 2.3-2.7 4.1-4.8 5.5-5.2 3.2-10.3 6.5-15.4 9.9-.4.3-1.2.5-1.2 1.1 0 .8 1 .8 1.5 1.1 5.6 2.7 11.2 5.6 16.6 8.8 3.3 2 3.4 5 0 7l-29.1 17.9c-3.3 2-6.8 3.8-10 6-12.6 8.7-26 16.3-39 24.2-19.7 11.9-39.2 24.2-58.8 36.2-4 2.3-7.8 4.7-11.7 7.2-2.5 1.6-5.3 3-7.7 4.9-.6.1-1.2.3-1.5 1h-.2c-.5 0-.7.2-.9.6l-.9.5c-.4 0-.7.2-.8.6l-.3.1c-.4 0-.6.2-.8.6l-.2.1c-.7 0-1.3.3-1.5 1h-.3c-1.3.4-2.4 1-3.3 2.1l-.2.1c-.5 0-1 .3-1.3.5l-12 7.4c-.7.5-1.7.6-2 1.6l-.3.1c-.5 0-.7.1-.8.6l-.3.1c-.4 0-.7.2-.8.6l-.2.1c-6.4 3.4-12.5 7.2-18.3 11.4l-2.4 1.3c-.6.3-1.4.2-1.7 1l-.3.1c-.6 0-1 .3-1.4.6l-7.1 4.5c-2 1.3-4.4 2.2-6.1 4h-.3c-.7.1-1.2.3-1.5 1l-1 .6c-.4-.1-.7 0-.8.5l-2.4 1.5c-1.3.3-2.4 1-3.2 2l-4.6 2.6a19 19 0 0 0-5.4 3.4l-1 .5c-1.8.3-3.2 1.6-4.7 2.6-.9.5-2 .6-2.5 1.8l-.5.2c-.8 0-1.4.1-1.5 1a8.5 8.5 0 0 0-4.3 2.8l-.3.1c-.4 0-.7.2-.8.6h-.3a9.1 9.1 0 0 0-4.3 2.8l-2 1.2c-.7 0-1.2.2-1.5 1h-.3c-.7 0-1.2.3-1.5 1l-.3.1c-.4 0-.7.2-.8.6l-.2.1c-1.2.3-2.2 1-3 2l-.6.2c-.5-.1-.9.2-1 .6l-.8.4c-1 .2-2 .5-2.5 1.7l-1 .4c-.4 0-.7.2-.8.6l-1.3.8c-.4 0-.7.1-.8.5-.6.2-1.1.4-1.5.9-1 .4-2 1-2.7 1.7-6 3.6-12.1 7.1-18 10.8-6.3 4-12.6 7.8-19 11.4-7.6 4.4-14.8 9.2-22.2 13.8l-21.7 13.4c-3.4 2.1-7.2 2.3-11 2.6-3.2.2-6.4 0-9.7.1-1.7 0-3.3-.5-5-1-8.4-2.7-8.4-2.7-17-1-3.6.7-7.3 1.7-10.9 2.5a20 20 0 0 1-11-.5c-4.3-1.4-8.8-2.6-13-4.3a55.2 55.2 0 0 1-23.8-19.2c-3-4.5-3.2-9.5-.7-14.3 1.2-2.1 1-3.7 0-5.6-5-9-7-19-7.5-29.3A23.3 23.3 0 0 1 9.7 241c9.5-7.4 19.9-13.5 30-19.8 12.2-7.5 24.6-14.6 36.8-22 10.1-6 20.3-11.8 30.4-17.7l37.4-22 69.3-40.6 24.4-14.3ZM33.1 248.2c1 .2 2.6-.7 2.7 1.3l-.1.2c-1 .4-.7 1.1-.6 1.8v1.4c-.2.4-.2.8.3 1 .6 1.1 1 2.9 2.5 2.6 2-.3 4.1-1 5.3-2.8l3.5-6c1.3-1.9 1.2-4 0-6-1.6-2.7-7.6-5.8-10.6-5.4-.3 0-.6.2-.8.3a17 17 0 0 0-4.9 3.8c-.6.7-1.1 1.6-.6 2.4 1.2 1.6.3 2.6-.7 3.7-2 2.2-4.2 4.2-5.4 7-1.8 3.7-5 5.2-8.9 5.7-3.7.6-3.8.6-4.4 4.3v.2c-.2.5-.2 1.2-.8 1.2-.7 0-.6-.7-.7-1-.7-2.3-1.8-4.3-3-6.3-.5 3 .2 6 .5 9.1 0 .5.4.7 1 .7 2-.2 3.8.6 5.8 1.1 2.4.7 4.7-1 4.8-3.4v-4.6c0-.4-.3-1 .2-1.1.5-.2.9.2 1.1.6l2.1 3.9c.9 1.5 1.5 2 2.9 2.1-2-2.5-2-5.2-1-8 1.6-4 4.5-7 8-9.3.5-.4 1.2-.5 1.8-.5ZM288 149.7c1.4 3.3 3 6.5 4 10 3 8.6 5.3 17.4 3.5 26.8v1.2l8.8-6 .6-.3c14.5-8.7 28.8-17.9 43-27l47.6-30.7c7.7-5 15.6-9.7 23.3-14.7l32.4-21c3.5-2.3 7.1-4.5 10.4-7.2 1.8-1.2 3.8-2.1 5.1-3.8 1.4-.4 2.3-1.5 3.5-2 2.5-1.3 4-3.4 4.7-6l1.4-5a40.8 40.8 0 0 0-3.2-30 50 50 0 0 0-41.8-28.9c-6.3-.5-12.7-.2-18.5 3.3l-62.3 36.3-77 45-28.8 17c-.5.4-1.3.5-1.4 1.3-2.3.8-4.5 2-7 3.4l2.8.8c4.1 1 8.2 2.3 12 4.2a89.7 89.7 0 0 1 36.2 32.6c.2.4.4.6.7.7Zm-140.7 89a88.9 88.9 0 0 0-49.4-41.9c-3.4-1-6.2-.9-9.3 1-13 7.9-26.2 15.5-39.3 23.3l-13.6 8.4c4.1.9 7.9 2 11.5 3.6 3 1.2 4.8-.3 4.7-3.4v-1c-.1-.5-.1-.8.3-.9.5 0 .9 0 1 .5l.4 1.3a9.6 9.6 0 0 0 4.4 6c1.1.8 2.2 1 3.4 0 1-1 2.4-1.7 3.9-1.8.1.7-.2 1.1-.5 1.5-1.3 2-.8 3.8.4 5.5.4.5.8 1.3 1.7.7.8-.6.6-1.1 0-1.8-.7-.9-.1-1.2.8-1.3a6 6 0 0 1 3.5 1c1.3.6 2.6 1.3 4.1 1.4 3 .1 4.8-2 4.1-5-.1-.4-.6-.9-.2-1.4 2.1.6 3.3 3 2.8 5.7-.4 1.8-1.5 3.2-2.4 4.7-3 4.8-2.1 8.6 2.5 11.8 2.2 1.5 4.6 2.1 7 2.7 2.4.5 4.7 1.2 6.6 2.7 1 .8 1 1.5-.3 2-1.1.3-2.3.3-3.4.3a9 9 0 0 0-4.5 1.3c-1.6 1-1.6 1.6-.4 2.9a6.1 6.1 0 0 0 4.2 1.7c1 0 1.3.6 1 1.5-.4.4 0 .8.3 1 2.8 1 3.2 3.4 3.3 6 0 2.8 1.5 3.8 4.2 3 1.8-.4 3-1.8 4-3.3 1.3 2.5 1.1 3.9-.8 5.6-1 1-2.3 1.8-3.4 2.9-1.5 1.6-1.2 3.3.9 4.1l2.2 1c4.3 2 5.7 6 3.7 10.3-1 2.2-2.5 4-3.8 6-.7 1-1.4 2-1.8 3.5 2.3-1 4-2.3 5.7-3.4l46.2-29.3c1.3-.8 2-1.9 2.2-3.4a63.6 63.6 0 0 0-8-37Zm5-4.2c1.4 3 3 5.8 4.1 8.8a59 59 0 0 1 4.8 27.5l-.4 3 1.2-.6 42-27 83.6-52.9a4.3 4.3 0 0 0 2.2-3.2 49 49 0 0 0-2-25c-1.4-3.9-2.8-7.8-5.1-11.3-.2-.9-.6-1.5-1-2.2-3.2-5-6.9-9.7-11-13.9a79.4 79.4 0 0 0-33.2-20.6c-5.5-1.6-10.4-1-15.4 2-15.4 9.5-31 18.6-46.6 27.8l-73.7 43.3c-.7.4-1.6.8-2 1.8 2.6 1 5.3 1.5 7.9 2.6a94.7 94.7 0 0 1 44.6 40ZM66 268c-4.7 0-8.6 3.6-8.7 8 0 3.7 2.8 6.2 7 6.2 4.1 0 7.6-3.4 7.7-7.8 0-3.7-2.4-6.3-6-6.4Zm-17 40c.7-.2.9 0 1 .3 2 1.4 4.8.7 5.8-1.4 1.2-2.7-.5-6.6-3.2-7.5-2.7-1-6.3.5-7.5 2.9-1.5 2.8-.5 7.4 1.8 9l.4.3 7 2.2c.4.1 1 .2 1.4-.3 1.1-1.4 2-2.8 2.9-4.9-1.4.6-2 1.4-2.6 2-1.5 1.5-3.2 1.6-5 1-1.9-.6-.7-2.6-2-3.5Zm-17.1-10-.6.2c-.7.3-1 1.6-2 .7-1-.8-.4-1.7 0-2.5.8-1.3 1-2.7.7-4.1-.3-1.6-1.1-2.9-2.9-3-2.9 0-5.4 1.1-7 3.6-.7 1-1.3 2.2-.4 3.5.3.4.2.7 0 1.2 0 .3-.2.7.2.9.3 0 .6-.2.8-.4.4-1 1-.7 1.7-.4.8.3 1.4.8 1.4 1.8s-.3 1.8-.6 2.7c-.3.8-1 1.7-.2 2.5.8.7 1.8.4 2.7.2.7-.3 1.4-.7 2-1.2 1.6-1.6 3-3.6 4.2-5.7Zm18-11.6c1 1 1 2 1.4 2.8.2.6.4 1.3.9 1.8.3.2.6.6 1 .4.4-.1.5-.5.6-.9.5-2.5-.7-6.6-2.4-7.8a9 9 0 0 0-9 0c-1.8 1.2-2.7 4-1.8 6.3.8 2.4 3.2 3.6 6.4 3.1 2-.2 2.5-1.2 2.8-4.4l.1-1.3Zm15-36c0-3.4-2-5.9-4-8.3-1.3-1.3-2.5-1.2-3.9-.3-1.5 1-2.2 2.5-2.8 4.1-.6 1.6-1 3.2-2.3 4.4-.7.6 0 .8.5 1 1.6.3 2.3-1 3.2-1.9 2.2-2.2 4-2 5.5.8 1.4 2.7 1.9 5.6 1.2 8.6 0 .6-.4 1.4.4 1.7.7.2 1-.5 1.3-1a7 7 0 0 1 4-2.8c.4-.1 1.2-.2 1.1-.8 0-.7-.7-.7-1.2-.9-3-1.4-3.3-1.7-3-4.5Zm15 48.9c-2 0-3 .6-3.7 2-.8 1.5-1.4 3-2.9 4.1-1.5 1-1.5 1.6.1 2.5 1.6 1 3.3 1.7 5 2.5 1.3.8 1.3 1.8 0 2.7l-2.4 1.5c-.3.2-.6.4-.6.8s.5.5.8.5c1.9.4 3.7.5 5.5.2 2.3-.4 4-3.4 3.2-5.2a7.2 7.2 0 0 0-6.8-4.5c-1.2 0-2.5.3-4-.4 2.4-1.9 3.3-4.7 5.7-6.7Zm-56.4-24.1c0 2.5.9 4.7 3.2 6.1 2.8 1.7 5.6.3 5.9-3 .1-1.9-.4-3.7-1.4-5.3-1.2-2-3-3-4.8-2.5-2 .5-2.9 2-2.9 4.7Zm69.2 33c1.3 0 2.6 0 3.9-.7 2.6-1.4 2.8-4.2.3-5.9-2.7-1.7-7.5-.9-9.4 1.7-1.3 1.9-.7 3.8 1.5 4.4 1.2.4 2.4.5 3.8.5Zm-70.3-64.1c1 1 2.1.7 3.2.3.4-.2.8-.4.9-.8 0-.6-.6-.5-1-.6-1-.3-.8-.8-.3-1.4l1-1c.6-.4 1.3-.7.8-1.5s-.8-2-2-2c-1.5-.2-5 2.6-5 4.2-.1 1.5-.9 2.2-1.9 3-1.7 1.5-3.8 2.2-5.7 3.5 3.8 2.7 8 1.1 10-3.7Zm28.3 30.6c-.2-2.6 0-5.2-.8-7.6-.7-1.9-3.3-3.4-5-3-1.5.3-2.6 2.1-2.5 4.4 0 1 .2 2 .7 2.8.6.9.6 2.6 1.6 2.5 1.1-.1.8-1.8 1.2-2.9.2-.7-.3-2 .8-2 1 0 1.2 1.1 1.5 2l1.1 2.5c.3.5.4 1.2 1.4 1.3Zm-32 9.9c0-3-2.3-4.8-6-4.7-2.9.1-3.3.7-2.5 3.4.1.6.4 1.1.6 1.6 1 1.9 4.9 3 6.6 2 1-.5 1.4-1.3 1.3-2.3Zm49.6 6.7c2.1-.2 4-.7 5.2-2.7.8-1.3.8-2.5-.5-3.6-2.5-2.4-2.5-2.4-5.2-.2l-1.6 1.3c-1 1-1.6 2-1 3.3.5 1.4 1.7 1.8 3.1 2Zm22.2-6.9c-2-.1-3.8-.3-5.5.3a3.7 3.7 0 0 0-2.6 3.1c-.2 1.5.8 2.4 1.8 3.1l1.4.8c1.3 1 2.6 1.1 4 .3 1.3-1 .7-2.2.6-3.4-.2-1.4-.5-2.8.3-4.2Zm-50.4 24.4c.9-3.1.2-4-2.9-3.8h-1.4c-1.1-.2-1.6-.9-1.4-2 .1-.8.5-1.4.9-2 .5-.8.4-1.5.1-2.2-.2-.7-.5-.6-.8-.3A26.7 26.7 0 0 0 31 303c-.4.5-.3 1.1 0 1.7.8 1.8 3.4 3.3 5.3 3 1.5-.2 2.8-.2 3.8 1.2Zm41.4-44.6c-.8 1.8-1.4 3.4-2.9 4.4-.4.3-1.2.5-1.1 1.2.1.7 1 .8 1.5 1 2.7 1 5.8 1 8.1 3 .5.3.9-.2 1-.7.2-.5.6-1-.2-1.3l-2.3-.6c-1.9-.6-3.1-1.7-3.3-3.8 0-1 0-2-.8-3.2ZM8.8 250.1l.9 3c1 3.7 1 3.7 4.6 2 1.2-.6 1.7-1 .4-2.1-1-.8-1.9-1.9-2.7-2.8-.6-.6-1.1-1.1-2-1.3-.8-.2-1.2.2-1.2 1.2Zm22 9.5c-2.3 2-2.5 4.8-.7 6.8l3 3c.3.4.6 1.1 1.2.8.5-.4.8-1 .6-1.8 0-.5-.4-1-.8-1.3a8.7 8.7 0 0 1-3.3-7.5ZM65.6 307c-1.1 0-1.5.4-1 1.2 1.5 2.4 3.4 4.5 6.4 5.4.7.2 1.3 0 1.7-.8.3-.7-.3-1-.8-1.3a17 17 0 0 1-4.5-3.6c-.5-.5-1-1-1.8-.9ZM93 290.7c.6 3 2.4 5.1 5 6.6.5.4 1.2.3 1.6-.3.5-.7 0-1-.5-1.4-2.1-1.5-4.1-3.1-6-5Zm-84.7-17c0 1.2.3 2.2.7 3.2.4 1 .9.7 1.4 0 .9-1.2.3-2.1-2.1-3.3ZM233.8 242c-.6.2-1.4.1-1.3 1 .1.7 1 1 1.8 1 .6 0 1.2-.2 1.2-1 0-1.1-1.1-.7-1.7-1ZM13.4 293c-.8.3-1.4.5-2 1-.2.2-.4.4-.3.8.1.2 2.6.9 2.8.7.4-.2.6-.6 0-.8-1-.3-.2-1-.5-1.7ZM421 127.8c-.5-1.2.4-2.4-.9-3-.5-.1-1.1.4-1.2.9-.2 1.1.9 1.4 2 2.1Zm9.2-5.9c-.7.2-1.1.6-1.1 1.3 0 .6.5.8 1 .7.7 0 1-.5 1-1.2 0-.5-.3-.8-1-.8Zm-119 81.2c-.3 0-.8.1-.8.5 0 .6.6.7 1 .8.4 0 .6-.2.6-.6 0-.4-.3-.7-.8-.7Zm-113 68.4c-.4.1-.8.2-.9.7 0 .5.4.5.8.5s.8 0 .8-.5c0-.4-.4-.5-.7-.7Z" style="fill:#040303"/>
  <path class="h" d="M243.2 108c.1-.8.9-1 1.4-1.3l28.8-17 77-45 62.3-36.4a30.3 30.3 0 0 1 18.5-3.2A50 50 0 0 1 473 34l-1 1-17.5 10.6c-6.7 4.1-13.4 8.1-20 12.3-2 1.3-4 2.9-6.3 3.4a4.5 4.5 0 0 0-4.8-4c-2 0-3.2 1.9-2.3 3.7.7 1.4 2 2.3 3.6 2.8-4.5 3.6-9.6 6.3-14.5 9.3-3.7 2.4-7.3 5-11.5 6.7l-.6-.7c-1-1-2-1.7-3.5-1.4-.7.2-1.1.7-1.2 1.4-.2 1.6.7 2.6 2 3.3L382 91 355.9 107l-30.5 18.8c-8.6 5.3-17.2 10.5-25.7 16-1.6 1-3.6 1.4-4.8 3.1h-.3c-.1-.8-.6-1.3-1-1.9a88.5 88.5 0 0 0-17.8-19 68.2 68.2 0 0 0-32.5-16Zm204.1-96.3c0-1.5-2-3-3.9-3-1.7 0-3.3 2-3.2 3.8 0 1.9 1.4 3.2 3.3 3 2 0 3.9-1.9 3.8-3.8ZM418 16.2c2 0 4.2-2.3 4.2-4.5 0-1.6-1-2.6-2.6-2.5-2.3 0-4.5 2.1-4.5 4.3 0 1.6 1.2 2.7 2.9 2.7Zm-106.2 91.3c-1.1.2-2.2.3-2.7 1.4-.3.8 0 1.6.6 2.1 1.5 1.3 3.2 2 5.2 1.9a2 2 0 0 0 1.9-1.3c.4-1 0-1.8-.7-2.4a7 7 0 0 0-4.4-1.7Zm30.4-.2c1 0 2.1-.5 2.7-1.8.4-.8.6-1.7-.1-2.5-1.1-1-2.2-.7-3.4 0-.8.4-1.7.3-2.6.1-.7 0-1.4-.2-2-.3-.6 0-1.2 0-1.4.5-.2.7.5.8.9 1 1 .5 2.1 1.1 3 2 .8.6 1.6 1 2.9 1Zm31-59.7c-1 0-2 .1-2.7.7-1 .6-1 1.4-.4 2.4 1.3 1.6 5.2 2.3 7 1.2 1.3-.9 1.3-1.9.2-2.9a6.6 6.6 0 0 0-4.2-1.4Zm-42 36c.6-.2 1.4-.2 2.1-.6 1.3-.7 1.5-1.8.5-2.9-1.2-1.4-4.7-2-6.4-1-1.3.7-1.5 1.8-.5 2.8 1.1 1.1 2.5 1.6 4.3 1.6Zm19.2-11.8c1 0 2.2 0 2.5-1.1.4-1.2-.6-1.8-1.5-2.4a6.4 6.4 0 0 0-4.2-1c-.8.2-1.6.4-1.8 1.3-.2.9.4 1.5 1 1.9a8 8 0 0 0 4 1.3Zm51.4-30c1.3 0 2.4-.5 3.3-1.3.4-.5.6-1 0-1.3-1.8-1.2-3.8-1.9-5.9-1.3-1.4.5-1.6 1.7-.5 2.7 1 .8 2 1.1 3.1 1.1Z"/>
  <path d="M428.2 61.3c2.4-.5 4.3-2 6.3-3.3 6.6-4.3 13.3-8.3 20-12.4L472 35l1-.9c4.9 9.6 6 19.6 3.2 30l-1.4 4.9a8.8 8.8 0 0 1-4.8 6c-1.1.6-2 1.7-3.4 2-2.8-.7-4.8.8-5 4-3.4 2.6-7 4.7-10.6 7-10.7 7.1-21.4 14.2-32.3 21l-23.3 14.8c-16 10.2-31.7 20.5-47.6 30.7-14.2 9.1-28.5 18.3-43 27l-.6.3c.3-8.3-.8-16.4-3.6-24.3-1.5-4.3-3.6-8.4-5.7-12.5 1.2-1.6 3.2-2.1 4.8-3.2l25.6-15.9 30.6-18.7 26-16.2 13.5-8.4c1.8 0 3-.9 3.3-2.7 4.2-1.6 7.7-4.3 11.5-6.6 5-3 10-5.8 14.5-9.4 1.2-.7 2.5-1.3 3.4-2.5ZM375.8 106c0-.6-.4-1.3-1-1.8-.7-.7-1.4 0-2 .3l-12.6 8c-.4.3-.8.6-1.1 1.1-.6 1 .1 1.8.7 2.6.4.6 1 .3 1.5 0 4.5-2.9 9.2-5.5 13.6-8.6.5-.3.9-.7.9-1.6ZM336 137.7c.1 1.3.5 2.5 2 3 1.3.4 2.2-.4 3-1.3a7 7 0 0 0 1.3-4c0-1-.3-2.1-1.3-2.6-1.2-.6-2.2-.2-3.1.6-1.3 1.1-1.6 2.6-1.9 4.3Zm117.6-72.9c0-1.9-1.9-4-3.6-4-1.6 0-3 1.6-3 3.5 0 2.3 1.6 4.2 3.7 4.2 1.9 0 3-1.4 3-3.7Zm-103.7 66v1.2c0 1.1.6 2 1.7 2.4 1 .4 1.8-.3 2.5-.9 1.3-1.2 1.9-4.5 1-6.1-.8-1.8-2.5-2-4-.7-1 1.2-1.2 2.6-1.2 4Zm36.4-29c0-.5 0-1.3-.5-2.1-.7-1.3-1.7-2.3-3.2-2-1.7.3-2 1.8-1.9 3.3 0 1 .5 1.8 1 2.6.7 1 1.6 2 3 1.6 1.5-.4 1.6-1.7 1.6-3.3Zm36.2-5.1c0-.8 0-1.7-.3-2.5-.4-.8-1-1.4-1.8-1.5-.9 0-1.5.6-1.8 1.2-1 2-1.1 4-.1 6 .7 1.5 2.3 1.5 3.3.1.8-1 .7-2 .7-3.3Zm47.8-45.4c.1-1.9-1-3-2.4-3.8-.8-.4-1.5-.2-2 .5-1.2 1.2-1 2.6-.4 4v.2c.8 1.3 1.6 2.4 3.2 2 1.5-.4 1.7-1.7 1.6-3ZM397 117.2v-1.6c-.1-1-.4-1.9-1.5-2.1-1.2-.3-2 .5-2.4 1.5-.6 1.5-.7 3-.2 4.6a2 2 0 0 0 1.8 1.5c.8 0 1.4-.5 1.9-1.2.5-.8.4-1.8.4-2.7Z" style="fill:#875a2b"/>
  <path class="l" d="M282.6 153.8c2.4 3.5 3.7 7.4 5.1 11.3a49.1 49.1 0 0 1 2 25 4.3 4.3 0 0 1-2.2 3.2l-83.5 53-42.1 26.9-1.2.7.4-3.1c.8-9.6-1.2-18.7-4.8-27.5-1.2-3-2.6-5.9-4-8.8 1.1 0 2-.9 2.9-1.4l49-30.4 67-42 11.4-7Z"/>
  <path class="c" d="m282.6 153.8-11.4 7-67 41.9-49 30.4c-1 .5-1.8 1.4-3 1.4a99.2 99.2 0 0 0-44.6-40c-2.5-1-5.3-1.5-8-2.5.5-1 1.4-1.4 2.1-1.8l73.8-43.3a3752 3752 0 0 0 46.5-27.7c5-3 9.9-3.8 15.4-2 12.9 3.8 23.7 11.1 33.2 20.5a76 76 0 0 1 11 13.8c.4.7.9 1.4 1 2.3Zm-26.9 3.2.5-.3c.8-.5 1.7-1 2.5-1.3.9-.5 1-1 .5-1.9a44.3 44.3 0 0 0-19.3-20.3c-5-2.5-9.3-2.9-14.5.3-30.6 18.8-61.4 37.2-92.1 55.7-.7.4-1.5.8-2 1.7 4.9 1.6 9.3 4 13.5 7l.3.2c.3.4.6.7 1.1.8l.3.4c5.5 4.4 10 9.7 13.2 16 .6 1 1 1 2 .4 10.6-6.6 21.2-13 31.8-19.7l46.7-29.2c4.8-3 9.8-5.9 14.5-9.2.4 0 .8-.2 1-.6Z"/>
  <path d="M92.3 271.7c.2-1 0-1.4-1-1.5-1.6 0-3-.6-4.2-1.7-1.3-1.2-1.2-2 .3-3 1.4-.8 3-1.1 4.5-1.2 1.2 0 2.3 0 3.4-.4 1.3-.4 1.4-1 .3-2-2-1.4-4.2-2.1-6.5-2.6-2.5-.6-5-1.2-7-2.7-4.7-3.1-5.6-7-2.6-11.8 1-1.5 2-2.9 2.4-4.7.5-2.6-.7-5-2.8-5.7-.3.6.1 1 .3 1.5.6 2.9-1.1 5-4.1 5-1.6-.2-2.9-.9-4.2-1.6-1-.6-2.2-1-3.5-.9-.9 0-1.4.4-.7 1.3.5.7.7 1.3 0 1.8-1 .6-1.4-.2-1.8-.7-1.2-1.7-1.6-3.5-.4-5.4.3-.5.7-1 .5-1.6-1.5.1-2.8.8-4 1.7-1 1-2.1.9-3.3.2a9.6 9.6 0 0 1-4.4-6c0-.5-.2-1-.3-1.4-.2-.5-.6-.6-1-.5-.5.1-.5.5-.5.8l.1 1c.2 3.2-1.8 4.7-4.6 3.5a67 67 0 0 0-11.5-3.6c4.6-2.9 9-5.7 13.6-8.3 13-7.8 26.2-15.5 39.2-23.4 3.1-1.9 6-2 9.3-1a88.9 88.9 0 0 1 49.4 42c-1.8.3-3.1 1.5-4.6 2.4l-44 27.4c-2 1.2-3.7 3.2-6.3 3Z" style="fill:#fbfbfb"/>
  <path class="l" d="M92.3 271.7c2.6 0 4.4-1.9 6.4-3.1l43.9-27.4c1.5-1 2.8-2.1 4.6-2.4a64.4 64.4 0 0 1 8 37c-.3 1.5-1 2.5-2.3 3.3l-46.1 29.3c-1.8 1.2-3.5 2.5-5.7 3.4.4-1.5 1-2.5 1.7-3.5 1.3-2 2.8-3.8 3.8-6 2-4.2.7-8.2-3.6-10.3l-2.3-1c-2-.8-2.4-2.5-.8-4.1 1-1 2.3-1.9 3.3-2.8 2-1.8 2.1-3.2.7-5.6-1 1.5-2 2.8-3.9 3.3-2.7.7-4-.3-4.2-3 0-2.6-.4-5-3.3-6.1-.3-.2-.7-.5-.2-1Z"/>
  <path class="c" d="M243.2 108c12.6 1.8 23 8.2 32.6 16a88.5 88.5 0 0 1 17.8 19c.4.6.9 1.2 1 2l-2.4 1.7c-1.5 1-3.2 1.6-4.3 3a89.6 89.6 0 0 0-37-33.3c-3.8-1.9-7.8-3.2-12-4.2l-2.8-.8c2.5-1.5 4.8-2.6 7.1-3.4Z"/>
  <path class="i" d="M35.2 252.9v-1.4l.5-1.8.1-.2c1.2-.4 1.5.6 2.2 1.2.5.4 1 1.2 1.7.7 1.6-1.1 3-2.5 4-4.5-1.2 0-1.5.8-2 1.3-2 2.1-2 2.1-4.5.4-1.2-.8-2.6-1.8-4-.4-.7 0-1.3.1-2 .5a20.7 20.7 0 0 0-7.8 9.3c-1.1 2.8-1.1 5.5 1 8-1.5-.1-2.1-.6-3-2.1l-2-3.9c-.3-.4-.6-.8-1.2-.6-.5.2-.3.7-.3 1 0 1.6.2 3.1.1 4.7 0 2.5-2.4 4.1-4.8 3.4-2-.5-3.8-1.3-5.9-1.1-.4 0-.8-.2-.8-.7-.4-3-1-6-.5-9.1 1.2 2 2.3 4 2.9 6.2.1.4 0 1.1.7 1.1.6 0 .6-.7.8-1.2v-.2c.6-3.7.7-3.7 4.4-4.3 3.9-.5 7-2 8.9-5.8 1.3-2.7 3.5-4.7 5.5-6.9 1-1 1.8-2.1.7-3.7-.6-.8 0-1.7.5-2.4a17 17 0 0 1 5.7-4c3-.5 9 2.6 10.7 5.4 1.1 2 1.2 4 0 6l-3.6 5.9c-1.1 1.9-3.3 2.5-5.3 2.8-1.5.2-1.9-1.5-2.5-2.6l-.2-1Z"/>
  <path class="l" d="M288 149.7c1-1.4 2.8-2 4.2-3l2.4-1.8h.3a64.1 64.1 0 0 1 9.3 36.7l-8.8 6v-1.2c1.8-9.3-.4-18-3.4-26.8-1.2-3.4-2.7-6.6-4.1-10Z"/>
  <path class="i" d="M66 268c3.6 0 6 2.7 6 6.4 0 4.4-3.6 7.9-7.7 7.8-4.2 0-7-2.5-7-6.2 0-4.4 4-8 8.7-8Z"/>
  <path class="e" d="M49 308c1.3 1 .1 3 2 3.6 1.8.6 3.5.5 5-1 .7-.6 1.2-1.4 2.6-2-.9 2-1.8 3.5-2.9 4.9-.4.5-1 .4-1.5.3l-6.9-2.2-.4-.3c-2.3-1.6-3.3-6.2-1.8-9 1.2-2.4 4.8-3.8 7.5-3 2.7 1 4.4 5 3.2 7.6a3.8 3.8 0 0 1-5.7 1.4c-.2-.2-.4-.5-1.1-.2Z"/>
  <path class="i" d="M31.9 298c-1.3 2.1-2.6 4-4.3 5.7-.6.5-1.2 1-2 1.1-.8.3-1.9.6-2.6-.2-.9-.7-.1-1.6.1-2.4.4-.9.7-1.8.7-2.7 0-1-.6-1.5-1.4-1.8-.7-.3-1.3-.6-1.8.4 0 .2-.4.5-.7.3-.4-.1-.2-.5-.1-.9 0-.4.1-.8-.1-1.1-1-1.3-.4-2.5.3-3.5a7.9 7.9 0 0 1 7.1-3.5c1.8 0 2.6 1.2 2.9 2.8.2 1.4 0 2.9-.7 4.1-.4.9-1 1.7 0 2.6 1 .8 1.3-.4 2-.7l.6-.2ZM50 286.4l-.2 1.4c-.3 3.1-.9 4-2.8 4.3-3.2.5-5.6-.7-6.4-3-.8-2.3 0-5.2 1.9-6.4a9 9 0 0 1 9 0c1.6 1.2 2.9 5.3 2.3 7.8-.1.4-.2.8-.5 1-.5 0-.8-.3-1.1-.5-.5-.5-.6-1.2-.9-1.8-.3-.8-.4-1.8-1.3-2.8ZM64.8 250.5c-.1 2.8 0 3.1 3.1 4.5.5.2 1.3.2 1.3.9 0 .6-.8.7-1.2.8-1.6.6-3 1.3-4 2.8-.3.5-.6 1.3-1.3 1-.8-.3-.5-1-.3-1.7.6-3 .1-5.9-1.3-8.6-1.4-2.8-3.3-3-5.5-.8-.9.9-1.6 2.2-3.2 1.8-.6-.1-1.2-.3-.4-1 1.3-1.1 1.6-2.7 2.2-4.3.6-1.6 1.3-3.2 2.8-4.1 1.4-.9 2.6-1 3.8.3 2.2 2.4 4.2 4.9 4 8.4Z"/>
  <path class="e" d="M79.8 299.3c-2.4 2-3.3 4.8-5.7 6.7 1.5.7 2.8.4 4 .4 3.1 0 5.7 1.7 6.9 4.5.7 1.8-1 4.8-3.3 5.2-1.8.3-3.6.2-5.4-.2-.4 0-.8 0-.9-.5 0-.4.3-.6.6-.8l2.4-1.5c1.3-.9 1.3-1.9 0-2.7l-5-2.5c-1.6-1-1.6-1.4 0-2.5 1.4-1 2-2.6 2.8-4.2.6-1.3 1.7-2 3.6-1.9Z"/>
  <path class="i" d="M23.5 275.2c0-2.7 1-4.2 3-4.7 1.7-.5 3.5.5 4.7 2.5 1 1.6 1.6 3.4 1.4 5.4-.3 3.2-3.1 4.6-6 3-2.2-1.5-3-3.6-3-6.2Z"/>
  <path class="e" d="M92.8 308.2c-1.4 0-2.6 0-3.8-.5-2.2-.6-2.8-2.5-1.5-4.4 1.9-2.6 6.7-3.4 9.4-1.7 2.5 1.7 2.3 4.5-.4 6-1.2.5-2.5.7-3.8.6Z"/>
  <path class="i" d="M22.4 244c-2 5-6.2 6.5-10 3.8 1.8-1.3 4-2 5.7-3.4 1-.9 1.8-1.6 1.8-3 .2-1.7 3.6-4.5 5.1-4.4 1.2.1 1.5 1.3 2 2 .5.9-.3 1.2-.7 1.6-.4.3-.8.6-1 1-.6.6-.7 1 .3 1.4.3 0 .9 0 .9.6 0 .4-.5.6-.9.8-1 .4-2.1.6-3.2-.3ZM50.7 274.7c-1-.1-1.2-.8-1.4-1.3l-1.1-2.6c-.4-.8-.6-2-1.6-1.9-1 0-.5 1.3-.7 2-.4 1-.1 2.8-1.3 3-1 0-1-1.7-1.5-2.6-.5-.8-.7-1.8-.7-2.8 0-2.3 1-4.1 2.5-4.4 1.7-.4 4.3 1.1 5 3 .8 2.4.6 5 .8 7.6ZM18.7 284.6c0 1-.4 1.8-1.3 2.3-1.7 1-5.7-.1-6.6-2-.2-.5-.5-1-.6-1.6-.8-2.7-.4-3.3 2.5-3.4 3.7-.1 6 1.7 6 4.7ZM68.3 291.3c-1.4-.1-2.6-.5-3.2-1.9-.5-1.3.1-2.4 1-3.3l1.7-1.4c2.7-2.1 2.7-2 5.2.3 1.3 1.1 1.3 2.3.5 3.6-1.1 2-3 2.5-5.2 2.7Z"/>
  <path class="e" d="M90.5 284.4c-.8 1.4-.6 2.8-.3 4.2.1 1.2.6 2.5-.7 3.4-1.3.8-2.6.7-3.9-.2-.4-.4-1-.6-1.4-.9-1-.7-2-1.6-1.8-3a3.6 3.6 0 0 1 2.6-3.1c1.7-.7 3.6-.5 5.5-.4ZM40.1 308.8c-1-1.4-2.3-1.4-3.8-1.2-2 .3-4.5-1.3-5.3-3-.3-.6-.4-1.2 0-1.7 1-1.7 2.2-3 3.5-4.4.4-.4.7-.4 1 .2.2.8.3 1.5-.2 2.2-.4.6-.8 1.3-1 2.1-.1 1.1.4 1.8 1.5 2h1.4c3-.2 3.8.6 3 3.8Z"/>
  <path class="i" d="M81.5 264.2c.8 1.1.7 2.2.8 3.2.2 2.1 1.4 3.2 3.4 3.8l2.2.6c.8.3.4.8.3 1.3-.2.5-.6 1-1 .6-2.4-1.9-5.5-1.8-8.2-2.9-.5-.2-1.4-.3-1.5-1-.1-.7.7-.9 1.1-1.2 1.5-1 2.1-2.6 3-4.4ZM8.8 250c0-1 .3-1.3 1.3-1.1.8.2 1.3.7 1.9 1.3.8 1 1.7 2 2.7 2.8 1.3 1 .8 1.5-.4 2-3.6 1.8-3.6 1.8-4.6-2l-.9-3ZM30.8 259.6A8.8 8.8 0 0 0 34 267c.4.3.7.8.8 1.3.2.7-.1 1.4-.6 1.8-.6.3-1-.4-1.3-.7l-2.9-3c-1.8-2.1-1.6-5 .7-7Z"/>
  <path class="e" d="M65.6 307.1c.8 0 1.3.3 1.8.9 1.4 1.4 2.8 2.7 4.5 3.6.5.3 1.2.6.8 1.3-.4.8-1 1-1.7.8-3-.9-5-3-6.5-5.4-.4-.8 0-1.2 1-1.2ZM93 290.7c2 1.8 4 3.4 6 4.9.6.3 1.1.7.6 1.4-.4.6-1 .7-1.7.3a9.5 9.5 0 0 1-4.9-6.6Z"/>
  <path class="b" d="M33.1 248.2c1.5-1.3 2.9-.4 4 .4 2.5 1.7 2.5 1.8 4.6-.4.5-.5.8-1.2 2-1.2-1 2-2.4 3.3-4 4.4-.7.5-1.2-.3-1.8-.7-.6-.6-1-1.6-2-1.2-.3-2-1.8-1-2.8-1.3Z"/>
  <path class="i" d="M461.6 80.8c.2-3.1 2.2-4.6 5-3.9-1.3 1.8-3.3 2.7-5 4ZM8.3 273.6c2.5 1.2 3 2.1 2 3.4-.4.6-.9.9-1.3-.1s-.6-2-.7-3.3Z"/>
  <path class="b" d="M13.4 293c.3.7-.5 1.4.6 1.7.5.2.3.6 0 .8-.3.2-2.8-.5-2.9-.7-.1-.4.1-.6.3-.8.6-.5 1.2-.7 2-1Z"/>
  <path class="k" d="M421 127.8c-1.2-.7-2.3-1-2.1-2.1 0-.5.7-1 1.2-.8 1.3.5.4 1.7.9 3Z"/>
  <path class="e" d="M430.2 121.9c.6 0 .9.3.9.8 0 .7-.3 1.2-1 1.2-.5 0-1 0-1-.7s.4-1.1 1.1-1.3Z"/>
  <path class="b" d="m35.7 249.7-.6 1.8c-.1-.7-.4-1.4.6-1.8ZM35.2 252.9l.2 1c-.5-.2-.5-.6-.2-1Z"/>
  <path class="e" d="m262.1 258.9-.2-.1h.1l.1.1z"/>
  <path class="k" d="m257.1 242.4.2.2-.3.3-.1-.3.2-.2Z"/>
  <path class="c" d="M447.3 11.7c0 1.9-1.8 3.8-3.8 3.9-2 0-3.3-1.2-3.3-3.1-.1-1.9 1.5-3.8 3.2-3.8 1.8 0 3.9 1.5 4 3ZM418 16.2c-1.7 0-3-1.1-3-2.7 0-2.2 2.2-4.3 4.5-4.3 1.7 0 2.7 1 2.7 2.6 0 2-2.2 4.4-4.2 4.4ZM428.2 61.3c-1 1.2-2.3 1.8-3.5 2.5A5.7 5.7 0 0 1 421 61c-.9-1.8.3-3.6 2.3-3.8a4.5 4.5 0 0 1 4.8 4.1ZM311.7 107.5a7 7 0 0 1 4.4 1.7c.7.6 1 1.4.7 2.4a2 2 0 0 1-2 1.3c-2 0-3.6-.6-5.1-1.9-.6-.5-1-1.3-.6-2 .5-1.2 1.6-1.3 2.6-1.5ZM342.2 107.3c-1.3 0-2.1-.4-2.8-1-1-.9-2-1.5-3.1-2-.4-.2-1-.3-1-1 .2-.6.9-.6 1.4-.5.7 0 1.4.3 2 .4 1 0 1.8.2 2.7-.3 1.1-.6 2.3-1 3.4.2.7.7.5 1.6.1 2.4a2.9 2.9 0 0 1-2.7 1.8ZM373.1 47.6c1.4.1 3 .4 4.2 1.4 1.1 1 1 2-.2 2.9-1.8 1.1-5.7.4-7-1.2-.7-1-.6-1.8.4-2.5.7-.5 1.6-.6 2.6-.6ZM331.2 83.5c-1.8 0-3.2-.5-4.2-1.6-1-1-.9-2.1.4-2.8 1.7-1 5.2-.4 6.4 1 1 1 .8 2.2-.5 2.9-.7.4-1.5.4-2.1.5ZM350.4 71.8a8 8 0 0 1-4-1.3c-.7-.4-1.2-1-1-2 .2-.8 1-1 1.8-1.1 1.5-.2 3 .2 4.2 1 .9.5 1.9 1.1 1.5 2.3-.4 1.1-1.5 1-2.5 1.1ZM401.8 41.7c-1.1 0-2.2-.3-3-1-1.2-1-1-2.3.4-2.7 2.1-.7 4 0 5.9 1.2.6.4.4.9 0 1.3-1 .8-2 1.2-3.3 1.3ZM398.7 79.8c-.3 1.8-1.4 2.7-3.3 2.7-1.3-.8-2.2-1.8-2-3.4.1-.7.5-1.2 1.2-1.4 1.5-.3 2.5.5 3.5 1.4l.6.7Z"/>
  <path class="l" d="M375.8 106c0 .9-.4 1.3-1 1.6-4.3 3-9 5.7-13.5 8.6-.5.3-1 .6-1.6 0-.5-.8-1.2-1.5-.6-2.6a3 3 0 0 1 1.1-1l12.7-8c.5-.4 1.2-1 1.9-.4.6.5 1 1.2 1 1.8ZM336.1 137.7c.3-1.7.6-3.2 1.9-4.3.9-.8 2-1.2 3-.6 1.1.5 1.5 1.5 1.4 2.6 0 1.5-.4 2.8-1.3 4-.8 1-1.7 1.7-3 1.3-1.5-.5-1.9-1.7-2-3ZM453.7 64.8c0 2.3-1 3.6-3 3.7-2 0-3.6-1.9-3.6-4.2 0-2 1.4-3.5 3-3.5 1.7 0 3.6 2.1 3.6 4ZM350 130.8c0-1.5.1-3 1.3-4 1.4-1.5 3-1.2 4 .6.8 1.6.2 4.9-1 6.1-.8.6-1.5 1.3-2.6 1-1.1-.5-1.6-1.4-1.7-2.5v-1.2ZM386.4 101.9c0 1.6-.1 2.9-1.6 3.3-1.4.4-2.3-.5-3-1.6a5 5 0 0 1-1-2.6c0-1.5.2-3 2-3.3 1.4-.3 2.4.7 3.1 2 .4.8.6 1.6.5 2.2ZM422.6 96.7c0 1.2 0 2.3-.6 3.3-1 1.4-2.6 1.4-3.4-.1-1-2-.8-4 0-6 .4-.6 1-1.2 1.9-1.2.9 0 1.4.7 1.8 1.5.4.8.2 1.7.3 2.5ZM470.4 51.3c0 1.2 0 2.5-1.6 2.9-1.6.4-2.4-.7-3-2l-.2-.1c-.5-1.5-.8-2.9.4-4.2.5-.6 1.2-.9 2-.4 1.5.8 2.6 1.9 2.4 3.8ZM397 117.2c0 1 .1 1.9-.4 2.7-.5.7-1 1.2-2 1.2a2 2 0 0 1-1.7-1.5c-.5-1.6-.4-3.1.2-4.6.5-1 1.2-1.8 2.4-1.5 1 .2 1.4 1.1 1.5 2.1v1.6Z"/>
  <path class="h" d="m145 198-.2-.2c0-.6-.1-.9-.7-1.2a60.2 60.2 0 0 0-7-4c-.8-.4-1-.8 0-1.3a224 224 0 0 0 7-4.1l25.2-15.4 29.4-17.5 29.2-17.4c1.2-.7 2.4-1.4 3.8-1 4.2 1.4 8.2 3.2 11.8 5.8a44 44 0 0 1 11.2 13c.6 1 .7 2 0 3-4.7 3.2-9.7 6-14.5 9.1L193.5 196l-31.9 19.7c-.8.5-1.4.7-2-.4a49.1 49.1 0 0 0-13-16l-.4-.5c0-.8-.5-.8-1.1-.8Zm45.6-28.3c-.7 0-1.5-.2-1.9.4-1.1 2-3.3 2.6-5 3.6-1 .6-2.8 1-2.2 2 .6 1 2-.2 3-.6 2.2-1 3.8-2.8 6.3-3 1 0 2.2-.4 2-1.6-.2-1-1.4-.6-2.2-.8Z"/>
  <path class="f" d="M254.7 157.6c.7-1 .5-1.8 0-2.8a44 44 0 0 0-11.2-13 40.3 40.3 0 0 0-11.8-5.9c-1.4-.4-2.7.3-3.8 1l-29.3 17.4-29.3 17.5-25.2 15.4-7 4.1c-1 .6-.8 1 0 1.3a61 61 0 0 1 7 4c.6.3.7.7.7 1.2a51.6 51.6 0 0 0-13.6-6.9c.6-1 1.4-1.3 2-1.7 30.8-18.5 61.5-37 92.1-55.7 5.2-3.2 9.6-2.8 14.6-.3a44.3 44.3 0 0 1 19.3 20.3c.4.9.4 1.4-.5 1.9l-2.5 1.2-.5.4c-.3.3-.6.6-1 .6ZM145 198c.7 0 1.2 0 1.2.9a2 2 0 0 1-1.1-.9Z"/>
  <path class="h" d="m255.7 157 .5-.3c-.2 0-.3.2-.5.3Z"/>
  <path class="c" d="M190.6 169.7c.8.2 2-.2 2.2.9.2 1.1-1 1.5-2 1.5-2.5.2-4.1 2-6.2 3-1 .4-2.5 1.7-3.1.6-.6-.9 1.3-1.4 2.2-2 1.8-1 3.9-1.6 5-3.6.4-.6 1.2-.3 2-.4Z"/>
</svg>