<svg width="123" height="91" viewBox="0 0 123 91" fill="none" xmlns="http://www.w3.org/2000/svg"><path d="M.233 59.18c4.664-1.544 9.329-3.087 14.187-4.693 3.607 9.518 5.76 19.052 3.471 29.003.33-.314.699-.63 1.009-.976 2.928-3.275 5.886-6.534 8.757-9.84.698-.812 1.221-.977 2.288-.395 8.32 4.543 16.398 9.338 23.632 15.006.99.772 1.91 1.598 2.88 2.386.282.228.65.385.99.574l.358-.283c-.465-.543-.882-1.126-1.406-1.638-4.053-3.936-8.95-7.117-13.974-10.148-3.956-2.393-8.038-4.653-12.063-6.975-.271-.157-.494-.37-.66-.842.553 0 1.116-.032 1.669 0 6.08.377 11.336 2.527 16.31 5.164 3.53 1.866 6.915 3.929 9.271 6.85a3.46 3.46 0 0 1 .727 1.826c.136 1.858.126 3.732.175 5.598l.61.023c.166-1.18.34-2.354.486-3.535.708-5.928 2.26-11.667 5.682-16.981 1.387-2.15 3.22-4.055 5.518-5.637 1.416-.969 1.726-.922 2.657.409.213.3.465.583.999.78-.184-.512-.272-1.063-.563-1.528-.494-.78-.116-1.126.747-1.433 3.472-1.22 7.099-1.315 10.784-1.055 3.025.213 5.566 1.15 7.757 2.937 3.414 2.787 7.03 5.424 10.57 8.117.349.26.737.48 1.222.795-.591-1.834-1.299-3.472-1.639-5.157-1.028-5.078-.184-10.053 1.436-14.982 2.152-6.574 5.527-12.651 10.686-18.037 1.008-1.047 2.124-2.023 3.161-3.054.989-.992 2.221-.984 3.598-.732.436.078.96-.11 1.435-.174-.32-.307-.562-.755-.97-.897-6.914-2.323-12.79-5.873-18.211-9.975-5.033-3.81-8.379-8.59-11.472-13.502-.136-.213.01-.622.184-.858.417-.56.921-1.07 1.397-1.606a6 6 0 0 0-.243-.228c-.388.236-.834.425-1.173.708-1.542 1.276-3.113 2.52-4.538 3.874-.854.81-1.688.936-2.88.621C77.239 6.58 71.1 2.644 66.552-2.922c-1.3-1.59-2.327-3.322-3.54-5.078-.174.41-.474.89-.571 1.394-1.048 5.274-2.047 10.55-3.123 15.816-.106.504-.514 1.22-1.008 1.37-4.762 1.496-9.65 2.307-14.75 1.22-3.675-.78-6.846-2.07-8.398-5.156-.271-.544-.843-.977-1.28-1.465-.126.04-.252.087-.378.126.03.26 0 .536.097.772.184.417.368.874.708 1.196 1.813 1.7 1.319 3.401.436 5.315-2.502 5.385-5.77 10.337-11.006 14.32-.698.528-1.241.662-2.153.441-4.46-1.07-8.931-2.086-13.508-2.866 1.183.386 2.347.788 3.54 1.134.659.19 1.008.425 1.124 1.063 1.29 7.282.582 14.462-1.862 21.509-.814 2.338-2.143 4.574-3.345 6.81-.281.511-.96.968-1.59 1.251-1.513.693-3.113 1.26-4.655 1.898-.456.189-.863.456-1.29.685l.223.338zm116.144-28.257c-5.673 5.448-9.862 11.36-12.461 17.974-2.599 6.605-4.218 13.305-2.163 20.54-3.025-2.306-5.721-4.353-8.397-6.416a1.48 1.48 0 0 1-.524-.858c-.155-.803-.233-1.622-.32-2.433-1.038-9.636 2.802-18.36 7.641-26.893.214-.378.912-.756 1.436-.804 3.588-.346 7.185-.606 10.773-.881 1.251-.095 2.512-.142 4.015-.229M91.3 6.596c5.353 10.652 15.03 17.714 26.929 23.162a8.6 8.6 0 0 1-1.833.284c-5.149.267-10.298.503-15.448.81-.901.056-1.425-.117-1.939-.692-.747-.843-1.639-1.59-2.415-2.417-4.567-4.881-8.01-10.18-8.892-16.376-.078-.52-.078-1.189.262-1.566.95-1.071 2.104-2.032 3.345-3.197zM15.108 26.688c4.597 1.18 8.902 2.29 13.208 3.377.708.181.883.457.786 1.055-.796 5.007-2.55 9.794-4.946 14.431-.883 1.716-2.085 3.322-3.19 5.062-1.222-8.148-1.853-16.186-5.848-23.917zm16.03 42.387c.95-2.125 2.705-3.228 5.566-2.96.766.07 1.58 0 2.318.142 3.898.787 7.816 1.503 11.636 2.488 2.008.52 3.89 1.448 5.712 2.346.534.26.931 1.007.97 1.559.194 2.519.233 5.046.33 7.565 0 .268-.049.544-.078.835-7.205-6.448-15.69-10.81-26.464-11.975zm9.484-12.274c.262.056.494.071.688.142 5.508 2.047 10.28 4.944 14.604 8.345 1.678 1.315 1.251 3.008 1.251 4.59-7.36-2.802-14.672-5.204-23.263-4.519.766-.653 1.396-1.196 2.162-1.842.078-.244.126-.764.417-1.173 1.31-1.827 2.696-3.614 4.15-5.543zm40.33-3.456-.542.126c-1.086-1.063-2.619-1.992-3.171-3.212-2.143-4.66-2.357-9.487-1.174-14.368.185-.764.65-1.126 1.63-1.228 3.81-.41 7.602-.874 11.403-1.323.737-.086 1.474-.157 2.211-.244l.214.213c-8.165 5.062-12.18 11.573-10.56 20.028zm4.685-43.371.077.323c-.795.409-1.552 1.086-2.395 1.157-1.474.126-3.016-.024-4.5-.236-6.128-.866-11.801-2.63-16.601-5.936-.388-.268-.65-.882-.592-1.3.281-2.172.689-4.345 1.047-6.51.078-.441.136-.882.223-1.323.088-.433.204-.866.34-1.488C68.308 2.321 75.6 7.462 85.626 9.974zM15.942 54.95c.437.229.602.292.737.386 5.547 3.85 9.3 8.613 11.113 14.368.049.173.126.394.04.528-.602.913-1.174 1.85-1.892 2.708-1.813 2.18-3.695 4.33-5.547 6.487-.155.181-.358.323-.64.567 1.154-8.597-.494-16.77-3.801-25.044zM86.15 12.257c1.397 6.96 5.635 13.258 11.86 18.848-1.067.157-2.162.401-2.938.11-2.182-.82-4.422-1.67-6.323-2.85-4.703-2.929-6.613-7.164-7.69-11.715-.077-.33-.019-.842.243-1.031 1.658-1.213 3.384-2.362 4.858-3.362zM40.564 43.638c1.27 1.96 2.269 3.89 2.676 6.007.194 1.04-.107 1.89-.834 2.771-1.522 1.85-2.89 3.78-4.335 5.677l-1.832 2.393c-.757-2.118-1.242-4.29-2.308-6.243-1.096-2-2.764-3.803-4.209-5.732 3.404-1.527 7.03-3.157 10.842-4.873m51.812-11.95c-2.424.306-4.868.566-7.273.944-1.193.189-2.182-.047-3.064-.622-3.675-2.386-6.468-5.299-8.03-8.952-.32-.74-.164-1.244.495-1.779 1.542-1.26 3.016-2.558 4.538-3.834.204-.173.475-.283.796-.472 1.396 6.51 4.868 11.722 12.528 14.722zm-21.15 30.034c-7.282 4.03-10.036 10.117-12.053 16.572-.3-4.038-.543-8.038-.65-12.045-.03-.96.242-2 .718-2.882 1.687-3.149 4.431-5.487 8.543-6.77a3943 3943 0 0 0 3.442 5.125M14.41 28.318c.068.039.175.063.194.118.136.275.281.55.369.834.94 3.275 2.055 6.527 2.763 9.841.796 3.716 1.222 7.487 1.823 11.235.107.645-.165 1.015-.92 1.283-2.881 1.024-5.742 2.102-8.612 3.157-.252.094-.553.11-.902.181 3.734-8.707 5.489-8.188 5.295-26.642zM61.53 6.092c3.025 2.032 6.341 3.543 9.987 4.559 3.656 1.015 7.36 1.834 11.443 2.007-1.94 1.803-4.082 3.315-6.06 4.96-.922.764-1.678.898-2.852.496-4.46-1.535-7.816-4.188-11.074-6.975-1.63-1.394-2.512-2.897-1.445-5.047m37.314 26.28c-5.294 9.156-9.416 18.478-7.65 28.886-.66-.504-1.213-1.032-1.436-1.646-1.658-4.582-1.31-9.266-.921-13.935.29-3.464 1.367-6.794 2.948-10.03 1.24-2.535 3.578-3.495 7.06-3.283zM23.36 49.882l-.262-.198c4.034-5.896 6.458-12.21 7.447-19.005 1.028.268 2.008.45 2.9.772.378.134.814.551.843.866.437 4.385.36 8.747-1.638 12.927-.175.362-.476.78-.863.953-2.783 1.26-5.615 2.464-8.427 3.676zm18.007 5.865c.96-1.244 1.96-2.441 2.822-3.693.495-.724 1.048-.834 1.862-.472 2.657 1.212 5.343 2.393 7.962 3.653 1.93.929 2.928 2.236 2.725 4.204-.175 1.63.135 3.283.242 5.164-4.83-3.645-9.746-6.723-15.603-8.849zM88.12 59.06c-1.92-1.433-3.636-2.7-5.324-3.992-.213-.157-.388-.425-.417-.66-.562-4.402-.523-8.755 2.105-12.802a16.9 16.9 0 0 1 5.294-5.212c-2.89 7.369-3.394 14.825-1.658 22.666m-70.596-5.605c.194-.15.252-.213.33-.245 3.21-1.26 6.42-2.527 9.658-3.731.291-.11.931.102 1.203.323 2.657 2.251 4.344 4.944 5.304 7.943.368 1.157.504 2.37.756 3.55-5.226-3.455-10.919-5.959-17.241-7.84zM24.07 27.75c6.574-4.464 9.94-10.487 12.684-17.077 1.134 1.575 2.152 2.89 3.025 4.26.272.425.34 1.086.136 1.527-1.115 2.433-2.793 4.59-5.159 6.353-2.017 1.512-4.112 2.953-6.08 4.496-1.329 1.039-2.667 1.511-4.606.433zm36.694-17.06c4.005 3.707 8.088 7.006 13.828 8.777a1630 1630 0 0 0-4.829 4.417c-3.772-1.614-6.546-3.96-8.95-6.605-.379-.418-.66-1.032-.63-1.543.096-1.614.358-3.22.581-5.039zM17.61 54.73l.35-.346c3.296 1.409 6.671 2.708 9.861 4.259 2.095 1.023 3.938 2.385 5.848 3.645.3.197.582.803.427.992-1.581 2.023-3.259 4-4.897 5.991l-.418.024c-1.668-5.913-5.643-10.637-11.161-14.557zm11.598-26.303c4.84-3.44 9.804-6.425 11.957-11.558 1.775 2.323 3.355 4.378 4.965 6.488-5.023 2.976-10.134 5.353-16.922 5.07m6.691 3.645c1.445.338 2.764.614 4.054.96.28.08.62.362.688.599.62 2.275 1.212 4.55 1.746 6.833.068.307-.078.835-.35.977-2.462 1.243-4.964 2.416-7.457 3.613 1.445-4.306 1.62-8.565 1.329-12.982zm22.508-16.856c.271 1.598 0 2.472-1.174 3.409-2.482 1.976-5.488 3.18-8.844 3.779-.543.095-1.483 0-1.736-.283-1.512-1.788-2.87-3.661-4.518-5.81 5.818.637 11.239 1.456 16.272-1.095m4.936 34.46c1.328 2.094 2.598 4.093 3.917 6.18-4.354.795-6.652 3.456-8.98 6.487-.126-2.842-.242-5.33-.339-7.826 0-.244.058-.527.204-.74 1.212-1.74 2.725-3.243 5.188-4.094zm2.705 1.905c2.521-1.04 5.004-1.41 7.593-1.417.35 0 .785.055 1.028.236 1.522 1.086 2.996 2.22 4.703 3.487-3.83.63-6.487 2.362-8.824 4.622-1.542-2.378-2.987-4.606-4.49-6.928zM46.731 24.255c1.755 1.622 1.852 1.756.679 3.488a17 17 0 0 1-2.599 2.976c-2.036 1.858-2.085 1.826-5.013 1.125-2.745-.653-5.48-1.338-8.214-2.007 5.877-.52 10.706-2.716 15.147-5.59zM45.645 50.18c.766-1.062 1.726-2.275 2.54-3.558.486-.764 1.058-.843 1.989-.606 4.829 1.252 7.389 5.078 6.245 9.077-3.482-1.59-7.03-3.212-10.764-4.913zm26.551 10.99c-1.202-1.652-1.309-1.857.65-3.133 1.648-1.07 3.549-1.905 5.42-2.724 1.494-.653 2.842-.425 3.967.733.669.693 1.59 1.212 2.405 1.818.824.614 1.638 1.236 2.434 1.843-2.57 0-5.043-.19-7.448.055-2.453.244-4.839.897-7.438 1.409zM58.921 11.534c.397 1.684-.466 2.653-2.095 3.243-.834.3-1.687.583-2.57.764-4.16.834-8.272.102-12.383-.33-.233-.024-.534-.174-.66-.34-.795-1.046-1.551-2.117-2.317-3.188 6.768 2.575 13.372 1.953 20.025-.15M72.497 23.2c1.765 4.078 4.829 7.172 9.164 9.833-2.105.229-3.85.441-5.596.59-.3.024-.698-.157-.94-.346-2.357-1.858-4.18-4.023-5.47-6.463-.155-.291-.194-.788.01-1.008.834-.866 1.784-1.653 2.832-2.606m-16.99 13.03.475.023v11.778c-1.687-1.535-3.646-2.7-6.526-2.96 2.104-3.078 4.083-5.96 6.051-8.85zm9.92-8.967c-1.91-1.394-4.005-2.921-6.09-4.464-.145-.103-.261-.331-.232-.48.223-1.378.485-2.756.776-4.346 2.666 2.747 5.304 5.172 9.28 6.668-1.29.897-2.424 1.693-3.743 2.614zm9.746 21.618c-.194.071-.378.134-.572.205-.446-.677-.93-1.338-1.319-2.031-1.871-3.338-2.57-6.873-2.473-10.518.01-.386.36-1.016.718-1.095 1.067-.252 2.211-.29 3.51-.44-1.57 4.723-1.406 9.305.136 13.871zm-27.947-8.573c1.028 1.81 1.959 3.385.33 5.125-.631.677-1.087 1.457-1.63 2.18-.397.536-.795 1.064-1.134 1.528-.931-2.094-1.833-4.102-2.784-6.235 1.533-.764 3.268-1.63 5.218-2.598m10.133-.346.262-.056c1.726 2.945 3.443 5.89 5.014 8.566-1.717 1.118-3.22 2.086-4.8 3.118-.156-3.834-.31-7.732-.476-11.629m16.243-5.913c-1.416 0-3.132.425-3.976-.087-1.832-1.118-3.22-2.724-4.82-4.149 1.339-1.031 2.415-1.858 3.317-2.55 1.726 2.141 3.51 4.345 5.48 6.786m-4.596 2.771c.727 3.299 1.396 6.322 2.075 9.392-1.969-1.535-3.976-3.094-5.954-4.676-.175-.142-.3-.535-.194-.653 1.309-1.347 2.667-2.67 4.073-4.063m-24.883 3.858c-.582-2.559-1.087-4.755-1.61-7.03 2.085.417 4.092.826 6.235 1.26-.756 2.385-2.56 4.03-4.635 5.77zm28.131 8.203c-2.094.48-4.402 1.008-6.759 1.544-1.57-1.969-1.483-1.685.572-3.3.573-.456 1.339-.779 2.066-1.062.281-.11.863-.07 1.057.094 1.105.922 2.143 1.898 3.064 2.724m-8.64-8.479c-1.58-1.18-3.18-2.37-4.955-3.692 3.316-.307 6.39-.59 9.542-.89-1.552 1.551-3.006 3.008-4.587 4.582m-14.07-12.809c.261.465.94 1.095.872 1.677-.136 1.276-.61 2.527-1.047 3.771-.087.26-.64.638-.902.599-1.503-.205-2.977-.52-4.286-.756 1.803-1.78 3.54-3.488 5.362-5.283zm15.234.59c-.282.26-.534.434-.699.654-.766 1.008-1.619.819-2.57.181-.872-.598-1.813-1.134-2.656-1.756-.291-.22-.553-.63-.524-.928.068-.788.31-1.567.504-2.417 2.056 1.472 3.957 2.842 5.945 4.275zm-6.808-.149c1.503.93 2.793 1.716 4.345 2.669a86 86 0 0 1-1.426.283c-.417 1.96-2.59 2.795-3.675 4.299l-.378-.142c.368-2.299.737-4.59 1.134-7.109m-7.806-1.716 7.205-3.26c-.223 1.134-.456 2.402-.727 3.67-.04.172-.272.37-.485.456-1.493.606-4.597.157-5.993-.866m7.622-6.37c-1.532 3.016-5.033 4.11-8.291 5.638-.582-.717-1.135-1.402-1.746-2.157 3.88-.418 7.06-1.709 10.027-3.48zm9.63 24.84c-1.3.929-2.532 1.81-3.812 2.731-.349-.574-.717-1.165-1.066-1.763-.572-.96.33-2.81 1.551-3.126.233-.063.63.048.825.19.872.645 1.706 1.33 2.501 1.968M56.36 28.294c-.214 1.929-.417 3.81-.65 5.936-1.445-2.15-2.735-4.062-4.005-5.936zm11.617 6.188c-2.056.614-2.405.732-5.508-2.582.514-.473 1.037-.953 1.503-1.378 1.358 1.354 2.647 2.63 3.995 3.968zm-9.998 3.362c.126-.08.242-.158.368-.236 1.513 1.4 3.016 2.802 4.53 4.211-.408.418-1 1.024-1.698 1.748-1.105-1.984-2.153-3.85-3.2-5.723m6.294-2.756c-2.124.236-3.957.433-6.139.677 1.3-1.141 2.366-2.07 3.491-3.054.883.787 1.668 1.495 2.648 2.377m-9.756.41c-2.211 1.062-4.063 1.96-6.168 2.968.737-1.291 1.31-2.284 1.92-3.354 1.242.11 2.532.228 4.258.386zm-2.803-4.937 2.6 3.874c-1.523-.166-2.716-.292-3.947-.425.465-1.197.863-2.197 1.347-3.449m-1.483 8.385c.96 1.614.795 2.362-.592 3.212-.358-.78-.727-1.559-1.125-2.41.563-.259 1.096-.51 1.717-.802" fill="#284E67"/><path d="M42.59 86.345c-1.584-2.953-1.119-6.632 1.127-9.114a3 3 0 0 1-.135-.198c-2.054 1.024-4.64.795-6.477-.575-.278-.208.053-.636.327-.428 1.706 1.27 4.07 1.448 5.959.497a2 2 0 0 1-.044-.472s-.004 0-.008.005a4.36 4.36 0 0 1-4.662-1.898c-.183-.29.244-.623.426-.333a3.83 3.83 0 0 0 3.644 1.781q-.151-.152-.257-.341a1.33 1.33 0 0 1-.144-.735v.008c-.021.065-.113.104-.174.074a.87.87 0 0 1-.479-.852c.009-.108.135-.142.214-.086q.275.188.557.371c.104-.268.265-.518.47-.726a.64.64 0 0 1-.248-.168.45.45 0 0 1-.113-.372c.03-.156.143-.255.296-.294a.52.52 0 0 1 .396.09c.117.087.2.208.27.33.33-.14.709-.165 1.044-.014.135.056.253.143.357.242a3.415 3.415 0 0 0-2.333-3.246c-.33-.113-.122-.61.209-.498 1.776.606 2.877 2.4 2.633 4.224q.25-.04.492-.021c.6-.956.81-2.132.566-3.234-.265-1.194-1.092-2.253-2.172-2.832-.305-.164-.096-.661.209-.497a4.93 4.93 0 0 1 2.481 3.182c.283 1.184.07 2.451-.53 3.502l.06.021c.074.035.152.074.226.117 1.045-2.75 4.04-4.224 6.882-3.441.335.095.122.588-.209.497-2.568-.71-5.254.704-6.18 3.169a.3.3 0 0 1-.08.108s.031-.035.057-.048c1.833-1.085 4.079-1.357 6.107-.691 2.185.717 3.944 2.533 4.632 4.703.104.329-.396.536-.5.208-.64-2.02-2.22-3.688-4.245-4.384-1.85-.635-3.983-.406-5.663.588a.25.25 0 0 1-.117.039c.048.1.091.203.117.316 1.371-.558 3.021-.45 4.257.384 1.593 1.077 2.312 3.213 1.741 5.028a.104.104 0 0 1-.108.082c-.58 1.561-2.042 2.793-3.74 2.923-1.876.147-3.812-.951-4.513-2.702-.327-.804-.383-1.7-.214-2.55-.091-.04-.178-.083-.27-.126-.683 1.833-.487 3.981.584 5.629 1.18 1.816 3.317 2.927 5.489 2.875.343-.009.413.527.065.536a7 7 0 0 1-3.017-.593c-1.654-.734-2.99-2.088-3.625-3.782a6.93 6.93 0 0 1 .026-4.933c-.053-.035-.1-.07-.153-.104a7.49 7.49 0 0 0-1.018 8.534c.165.307-.335.506-.5.203z" fill="#0D1F2B"/></svg>